<?xml version="1.0" encoding="utf-8"?>
<!-- Generator: Adobe Illustrator 18.0.0, SVG Export Plug-In . SVG Version: 6.00 Build 0)  -->
<!DOCTYPE svg PUBLIC "-//W3C//DTD SVG 1.1//EN" "http://www.w3.org/Graphics/SVG/1.1/DTD/svg11.dtd">
<svg version="1.1" id="Layer_1" xmlns="http://www.w3.org/2000/svg" xmlns:xlink="http://www.w3.org/1999/xlink" x="0px" y="0px"
	 viewBox="0 0 256 256" style="enable-background:new 0 0 256 256;" xml:space="preserve">
<style type="text/css">
	.st0{fill:#504774;}
	.st1{fill:#F1C48B;}
	.st2{fill:#FFFFFF;}
	.st3{fill:#D5E6F7;}
	.st4{fill:#A0D1F2;}
	.st5{fill:#7BABF3;}
	.st6{fill:#FD919F;}
	.st7{fill:#D4E7F8;}
	.st8{fill:#E0667D;}
	.st9{fill:#484771;}
</style>
<g>
	<g>
		<circle class="st1" cx="128" cy="128" r="103.873"/>
	</g>
	<g>
		<path class="st2" d="M164.83,133.523c17.637-10.207,29.512-29.265,29.512-51.108H164.83V133.523z"/>
	</g>
	<g>
		<path class="st7" d="M179.586,121.435c9.181-10.399,14.756-24.055,14.756-39.019h-14.756V121.435z"/>
	</g>
	<g>
		<path class="st2" d="M105.807,133.523V82.416H76.295C76.295,104.259,88.17,123.316,105.807,133.523z"/>
	</g>
	<g>
		<path class="st2" d="M105.807,82.416v51.108c8.684,5.025,18.757,7.916,29.512,7.916V82.416H105.807z"/>
	</g>
	<g>
		<path class="st2" d="M164.83,82.416h-29.512v59.024c10.755,0,20.828-2.891,29.512-7.916V82.416z"/>
	</g>
	<g>
		<path class="st0" d="M135.319,118.144c-18.382,0-36.763-2.805-54.633-8.413c-1.581-0.496-2.46-2.18-1.964-3.761
			c0.496-1.58,2.184-2.458,3.761-1.964c34.563,10.847,71.105,10.849,105.671,0c1.578-0.496,3.264,0.383,3.761,1.964
			c0.496,1.581-0.383,3.265-1.964,3.761C172.081,115.339,153.7,118.144,135.319,118.144z"/>
	</g>
	<g>
		<path class="st0" d="M105.807,136.523c-0.519,0-1.038-0.135-1.503-0.403c-19.127-11.069-31.009-31.647-31.009-53.704
			c0-1.657,1.343-3,3-3h29.512c1.657,0,3,1.343,3,3v51.107c0,1.072-0.572,2.063-1.501,2.599
			C106.842,136.39,106.324,136.523,105.807,136.523z M79.376,85.416c0.92,16.995,9.617,32.732,23.431,42.608V85.416H79.376z"/>
	</g>
	<g>
		<path class="st0" d="M135.318,144.439c-10.885,0-21.609-2.877-31.015-8.319c-0.927-0.536-1.497-1.526-1.497-2.597V82.416
			c0-1.657,1.343-3,3-3h29.512c1.657,0,3,1.343,3,3v59.023C138.318,143.097,136.976,144.439,135.318,144.439z M108.807,131.763
			c7.246,3.899,15.29,6.154,23.512,6.596V85.416h-23.512V131.763z"/>
	</g>
	<g>
		<path class="st0" d="M135.318,144.439c-1.657,0-3-1.343-3-3V82.416c0-1.657,1.343-3,3-3h29.512c1.657,0,3,1.343,3,3v51.107
			c0,1.07-0.57,2.061-1.497,2.597C156.928,141.563,146.203,144.439,135.318,144.439z M138.318,85.416v52.942
			c8.222-0.441,16.266-2.696,23.512-6.596V85.416H138.318z"/>
	</g>
	<g>
		<path class="st0" d="M164.83,136.523c-0.518,0-1.035-0.134-1.499-0.401c-0.929-0.535-1.501-1.526-1.501-2.599V82.416
			c0-1.657,1.343-3,3-3h29.512c1.657,0,3,1.343,3,3c0,22.057-11.882,42.635-31.009,53.704
			C165.868,136.389,165.349,136.523,164.83,136.523z M167.83,85.416v42.608c13.813-9.875,22.511-25.612,23.431-42.608H167.83z"/>
	</g>
	<g>
		<path class="st0" d="M63.021,94.27c-1.472,0-2.756-1.083-2.967-2.583l-0.017-0.118c-1.365-10.01,2.472-19.809,10.261-26.224
			c1.279-1.054,3.171-0.869,4.223,0.408c1.054,1.279,0.871,3.17-0.408,4.223c-6.172,5.083-9.212,12.848-8.132,20.771l0.015,0.106
			c0.23,1.641-0.912,3.157-2.554,3.388C63.302,94.26,63.16,94.27,63.021,94.27z"/>
	</g>
	<g>
		<path class="st0" d="M207.616,94.27c-0.131,0-0.264-0.008-0.397-0.026c-1.643-0.217-2.798-1.725-2.58-3.367l0.016-0.118
			c1.081-7.935-1.958-15.699-8.131-20.782c-1.278-1.053-1.462-2.943-0.408-4.223c1.053-1.277,2.942-1.464,4.223-0.408
			c7.789,6.414,11.626,16.213,10.263,26.212l-0.015,0.106C210.387,93.172,209.098,94.27,207.616,94.27z"/>
	</g>
	<g>
		<polygon class="st4" points="65.906,188.34 48.134,174.818 99.551,110.043 114.624,121.512 		"/>
	</g>
	<g>
		<polygon class="st2" points="107.087,115.776 101.393,111.443 112.628,102.587 123.862,93.73 118.322,106.919 112.781,120.108 		
			"/>
	</g>
	<g>
		<polygon class="st5" points="114.624,121.512 108.929,117.178 60.211,184.007 65.906,188.34 		"/>
	</g>
	<g>
		<path class="st0" d="M65.906,191.34c-0.652,0-1.291-0.213-1.816-0.612l-17.772-13.522c-0.642-0.488-1.06-1.215-1.16-2.015
			s0.126-1.606,0.627-2.238l51.418-64.774c1.016-1.278,2.867-1.51,4.166-0.522l15.072,11.469c1.3,0.989,1.569,2.836,0.607,4.155
			L68.33,190.107c-0.475,0.651-1.191,1.084-1.989,1.201C66.195,191.329,66.051,191.34,65.906,191.34z M52.388,174.284l12.898,9.814
			l45.183-61.979l-10.395-7.909L52.388,174.284z"/>
	</g>
	<g>
		<path class="st0" d="M112.781,123.108c-0.649,0-1.288-0.211-1.816-0.612l-11.388-8.665c-0.739-0.563-1.176-1.435-1.184-2.362
			s0.414-1.807,1.143-2.382l22.469-17.713c1.074-0.849,2.586-0.859,3.674-0.032c1.089,0.828,1.479,2.288,0.949,3.55l-11.081,26.379
			c-0.359,0.855-1.094,1.496-1.99,1.736C113.301,123.075,113.04,123.108,112.781,123.108z M106.292,111.401l5.224,3.975
			l5.081-12.098L106.292,111.401z"/>
	</g>
	<g>
		<path class="st0" d="M107.433,133.96c-0.634,0-1.271-0.199-1.814-0.612l-15.072-11.469c-1.318-1.004-1.574-2.886-0.571-4.204
			c1.005-1.321,2.886-1.575,4.204-0.571l15.072,11.469c1.318,1.004,1.574,2.886,0.571,4.204
			C109.231,133.553,108.337,133.96,107.433,133.96z"/>
	</g>
</g>
</svg>
