<?xml version="1.0" encoding="utf-8"?>
<!-- Generator: Adobe Illustrator 18.0.0, SVG Export Plug-In . SVG Version: 6.00 Build 0)  -->
<!DOCTYPE svg PUBLIC "-//W3C//DTD SVG 1.1//EN" "http://www.w3.org/Graphics/SVG/1.1/DTD/svg11.dtd">
<svg version="1.1" id="Layer_1" xmlns="http://www.w3.org/2000/svg" xmlns:xlink="http://www.w3.org/1999/xlink" x="0px" y="0px"
	 viewBox="0 0 256 256" style="enable-background:new 0 0 256 256;" xml:space="preserve">
<style type="text/css">
	.st0{fill:#504774;}
	.st1{fill:#F1C48B;}
	.st2{fill:#FFFFFF;}
	.st3{fill:#D5E6F7;}
	.st4{fill:#A0D1F2;}
	.st5{fill:#7BABF3;}
	.st6{fill:#FD919F;}
	.st7{fill:#D4E7F8;}
	.st8{fill:#E0667D;}
	.st9{fill:#484771;}
</style>
<g>
	<g>
		<circle class="st1" cx="128" cy="128" r="103.873"/>
	</g>
	<g>
		<path class="st3" d="M60.294,64.411L128,42.548l67.705,21.863v17.255c0,53.381-25.071,103.663-67.705,135.787h0h0
			c-42.634-32.123-67.705-82.405-67.705-135.787V64.411z"/>
	</g>
	<g>
		<path class="st4" d="M182.705,60.213v15.453c0,52.154-23.942,101.339-64.803,133.532c3.249,2.864,6.608,5.626,10.097,8.255l0,0
			l0,0c42.634-32.123,67.705-82.405,67.705-135.787V64.411L182.705,60.213z"/>
	</g>
	<g>
		<path class="st2" d="M164.806,74.868c-10.258-9.718-28.572-4.768-34.725-2.715c-1.353,0.451-2.81,0.451-4.163,0
			c-6.153-2.053-24.467-7.003-34.725,2.715c-16.815,14.777-4.926,37.077,1.213,46.288c1.958,2.938,3.028,6.369,3.141,9.897
			c0.652,20.396,4.756,39.889,11.057,39.889c6.886,0,7.542-7.869,7.542-25.433c0-8.35,3.131-13.314,6.416-16.224
			c4.216-3.734,10.659-3.734,14.874,0c3.285,2.91,6.416,7.873,6.416,16.224c0,17.564,0.656,25.433,7.542,25.433
			c6.301,0,10.405-19.493,11.057-39.889c0.113-3.528,1.183-6.959,3.141-9.897C169.732,111.945,181.622,89.646,164.806,74.868z"/>
	</g>
	<g>
		<path class="st0" d="M149.396,173.942c-10.542,0-10.542-12.547-10.542-28.433c0-6.099-1.818-10.801-5.405-13.978
			c-1.489-1.319-3.425-2.046-5.448-2.046s-3.958,0.727-5.448,2.046c-3.587,3.177-5.406,7.88-5.406,13.978
			c0,15.886,0,28.433-10.542,28.433c-11.773,0-13.735-32.754-14.056-42.793c-0.096-3.002-1.008-5.883-2.639-8.329
			c-6.417-9.629-19.328-33.781-0.739-50.168c4.642-4.375,11.083-6.593,19.144-6.593c7.671,0,14.917,2.036,18.553,3.249
			c0.732,0.244,1.53,0.244,2.263,0c3.636-1.213,10.881-3.249,18.553-3.249c8.062,0,14.502,2.219,19.144,6.593
			c18.589,16.388,5.68,40.54-0.738,50.168c-1.63,2.446-2.543,5.327-2.64,8.33C163.13,141.188,161.169,173.942,149.396,173.942z
			 M128,123.485c3.491,0,6.839,1.262,9.427,3.555c3.388,3,7.427,8.641,7.427,18.469c0,17.611,0.977,22.433,4.542,22.433
			c1.894,0,7.24-11.373,8.059-36.985c0.132-4.123,1.392-8.087,3.644-11.465c5.546-8.322,16.818-29.109,1.729-42.37
			c-0.028-0.024-0.056-0.05-0.083-0.076c-3.493-3.31-8.56-4.988-15.059-4.988c-6.823,0-13.363,1.842-16.654,2.94
			c-1.959,0.654-4.102,0.654-6.061,0c-3.291-1.098-9.831-2.94-16.654-2.94c-6.499,0-11.565,1.678-15.059,4.988
			c-0.027,0.026-0.055,0.051-0.083,0.076c-15.089,13.261-3.818,34.048,1.729,42.371c2.251,3.378,3.511,7.342,3.643,11.465
			c0.818,25.612,6.165,36.985,8.059,36.985c3.565,0,4.542-4.822,4.542-22.433c0-9.828,4.039-15.468,7.427-18.469
			C121.162,124.747,124.509,123.485,128,123.485z"/>
	</g>
	<g>
		<path class="st0" d="M128,220.452c-0.635,0-1.271-0.201-1.805-0.604c-21.288-16.04-38.827-37.125-50.72-60.979
			c-11.894-23.853-18.18-50.55-18.18-77.204V64.411c0-1.302,0.839-2.455,2.078-2.855l67.706-21.863c0.6-0.193,1.244-0.193,1.844,0
			l67.705,21.863c1.238,0.4,2.078,1.553,2.078,2.855v17.255c0,26.654-6.286,53.351-18.18,77.204
			c-11.894,23.854-29.433,44.939-50.72,60.979C129.271,220.251,128.635,220.452,128,220.452z M63.294,66.594v15.071
			c0,51.388,24.146,100.562,64.706,132.011c40.56-31.449,64.705-80.623,64.705-132.011V66.594L128,45.7L63.294,66.594z"/>
	</g>
	<g>
		<polygon class="st6" points="144.5,93.79 133.71,93.79 133.71,83 122.29,83 122.29,93.79 111.5,93.79 111.5,105.21 122.29,105.21 
			122.29,116 133.71,116 133.71,105.21 144.5,105.21 		"/>
	</g>
	<g>
		<path class="st0" d="M133.71,119h-11.42c-1.657,0-3-1.343-3-3v-7.79h-7.79c-1.657,0-3-1.343-3-3V93.79c0-1.657,1.343-3,3-3h7.79
			V83c0-1.657,1.343-3,3-3h11.42c1.657,0,3,1.343,3,3v7.79h7.79c1.657,0,3,1.343,3,3v11.421c0,1.657-1.343,3-3,3h-7.79V116
			C136.71,117.657,135.367,119,133.71,119z M125.29,113h5.42v-7.79c0-1.657,1.343-3,3-3h7.79V96.79h-7.79c-1.657,0-3-1.343-3-3V86
			h-5.42v7.79c0,1.657-1.343,3-3,3h-7.79v5.421h7.79c1.657,0,3,1.343,3,3V113z"/>
	</g>
</g>
</svg>
