<?xml version="1.0" encoding="utf-8"?>
<!-- Generator: Adobe Illustrator 18.0.0, SVG Export Plug-In . SVG Version: 6.00 Build 0)  -->
<!DOCTYPE svg PUBLIC "-//W3C//DTD SVG 1.1//EN" "http://www.w3.org/Graphics/SVG/1.1/DTD/svg11.dtd">
<svg version="1.1" id="Layer_1" xmlns="http://www.w3.org/2000/svg" xmlns:xlink="http://www.w3.org/1999/xlink" x="0px" y="0px"
	 viewBox="0 0 256 256" style="enable-background:new 0 0 256 256;" xml:space="preserve">
<style type="text/css">
	.st0{fill:#504774;}
	.st1{fill:#F1C48B;}
	.st2{fill:#FFFFFF;}
	.st3{fill:#D5E6F7;}
	.st4{fill:#A0D1F2;}
	.st5{fill:#7BABF3;}
	.st6{fill:#FD919F;}
	.st7{fill:#D4E7F8;}
	.st8{fill:#E0667D;}
	.st9{fill:#484771;}
</style>
<g>
	<g>
		<circle class="st1" cx="128" cy="128" r="103.873"/>
	</g>
	<g>
		<path class="st2" d="M187.265,55.33c-16.517-15.648-46.006-7.678-55.913-4.372c-2.178,0.727-4.525,0.727-6.702,0
			c-9.907-3.306-39.396-11.275-55.913,4.372c-27.076,23.794-7.931,59.701,1.953,74.531c3.153,4.73,4.876,10.255,5.057,15.936
			c1.05,32.84,7.658,64.228,17.804,64.228c11.087,0,12.143-12.671,12.143-40.952c0-13.445,5.042-21.438,10.332-26.123
			c6.788-6.012,17.162-6.012,23.95,0c5.29,4.685,10.331,12.678,10.331,26.123c0,28.281,1.056,40.952,12.143,40.952
			c10.145,0,16.754-31.387,17.804-64.228c0.182-5.681,1.905-11.206,5.057-15.936C195.196,115.031,214.34,79.124,187.265,55.33z"/>
	</g>
	<g>
		<g>
			<path class="st3" d="M187.265,55.33c-9.13-8.649-22.22-10.077-33.778-9.071c7.933,0.783,15.727,3.338,21.778,9.071
				c27.076,23.794,7.931,59.701-1.953,74.531c-3.152,4.73-4.876,10.255-5.058,15.936c-0.863,27.007-5.488,53.014-12.746,61.408
				c1.706,1.893,3.958,2.82,6.942,2.82c10.145,0,16.754-31.387,17.804-64.228c0.181-5.681,1.905-11.206,5.057-15.936
				C195.196,115.031,214.34,79.124,187.265,55.33z"/>
		</g>
	</g>
	<g>
		<path class="st0" d="M162.45,213.025c-15.144,0-15.144-18.436-15.144-43.952c0-10.365-3.136-18.398-9.32-23.877
			c-2.733-2.421-6.28-3.755-9.986-3.755s-7.253,1.333-9.986,3.755c-6.185,5.479-9.32,13.512-9.32,23.877
			c0,25.516,0,43.952-15.144,43.952c-18.133,0-20.583-60.261-20.802-67.132c-0.166-5.176-1.741-10.144-4.556-14.368
			c-10.068-15.107-30.358-52.979-1.479-78.412c7.126-6.728,17.081-10.138,29.591-10.138c12.094,0,23.545,3.218,29.294,5.137
			c1.555,0.519,3.251,0.519,4.804,0c5.75-1.918,17.201-5.137,29.295-5.137c12.51,0,22.465,3.411,29.591,10.138
			c28.879,25.433,8.589,63.304-1.479,78.412c-2.814,4.224-4.39,9.192-4.556,14.368C183.033,152.764,180.583,213.025,162.45,213.025z
			 M128,135.441c5.173,0,10.133,1.869,13.965,5.264c5.174,4.583,11.342,13.225,11.342,28.368c0,28.476,1.321,37.952,9.144,37.952
			c5.385,0,13.526-21.311,14.806-61.324c0.201-6.295,2.123-12.348,5.56-17.503c9.197-13.801,27.851-48.31,2.469-70.614
			c-0.028-0.024-0.056-0.05-0.083-0.076c-5.977-5.662-14.558-8.533-25.505-8.533c-11.245,0-21.991,3.025-27.396,4.828
			c-2.779,0.929-5.821,0.929-8.603,0c-5.403-1.803-16.149-4.828-27.395-4.828c-10.947,0-19.528,2.871-25.505,8.533
			c-0.027,0.026-0.055,0.051-0.083,0.076c-25.382,22.305-6.729,56.813,2.469,70.614c3.437,5.155,5.358,11.208,5.56,17.503
			c1.279,40.013,9.421,61.324,14.806,61.324c7.822,0,9.144-9.476,9.144-37.952c0-15.143,6.168-23.785,11.342-28.368
			C117.867,137.311,122.827,135.441,128,135.441z"/>
	</g>
	<g>
		<path class="st4" d="M172.8,115.904V98.809h-8.069c-0.948-4.089-2.556-7.923-4.714-11.382l5.706-5.706l-12.088-12.088
			l-5.706,5.706c-3.459-2.158-7.293-3.766-11.382-4.714v-8.069h-17.095v8.069c-4.089,0.948-7.923,2.556-11.382,4.714l-5.706-5.706
			L90.278,81.722l5.706,5.706c-2.158,3.459-3.766,7.293-4.714,11.382H83.2v17.095h8.069c0.948,4.089,2.556,7.922,4.714,11.381
			l-5.706,5.706l12.088,12.088l5.706-5.706c3.459,2.158,7.293,3.766,11.382,4.714v8.069h17.095v-8.069
			c4.089-0.948,7.923-2.556,11.382-4.714l5.706,5.706l12.088-12.088l-5.706-5.706c2.158-3.459,3.766-7.293,4.714-11.381H172.8z
			 M128,131.584c-13.381,0-24.228-10.847-24.228-24.227c0-13.38,10.847-24.227,24.228-24.227s24.227,10.847,24.227,24.227
			C152.227,120.737,141.38,131.584,128,131.584z"/>
	</g>
	<g>
		<path class="st0" d="M136.548,155.157h-17.096c-1.657,0-3-1.343-3-3v-5.758c-2.742-0.809-5.384-1.903-7.895-3.27l-4.071,4.071
			c-1.172,1.171-3.07,1.171-4.242,0l-12.088-12.088c-0.563-0.563-0.879-1.326-0.879-2.121c0-0.796,0.316-1.559,0.879-2.122
			l4.071-4.071c-1.367-2.51-2.461-5.151-3.27-7.895H83.2c-1.657,0-3-1.343-3-3V98.81c0-1.657,1.343-3,3-3h5.758
			c0.809-2.744,1.902-5.385,3.27-7.895l-4.071-4.071c-0.563-0.563-0.879-1.326-0.879-2.122c0-0.795,0.316-1.559,0.879-2.121
			l12.088-12.088c1.172-1.172,3.07-1.172,4.242,0l4.071,4.071c2.511-1.367,5.152-2.461,7.895-3.27v-5.758c0-1.657,1.343-3,3-3
			h17.096c1.657,0,3,1.343,3,3v5.758c2.742,0.809,5.384,1.903,7.895,3.27l4.071-4.071c1.172-1.172,3.07-1.172,4.242,0l12.088,12.088
			c0.563,0.563,0.879,1.326,0.879,2.121c0,0.796-0.316,1.559-0.879,2.122l-4.071,4.071c1.367,2.51,2.461,5.151,3.27,7.895h5.758
			c1.657,0,3,1.343,3,3v17.095c0,1.657-1.343,3-3,3h-5.758c-0.809,2.743-1.902,5.385-3.27,7.895l4.071,4.071
			c0.563,0.563,0.879,1.326,0.879,2.122c0,0.795-0.316,1.559-0.879,2.121L155.756,147.2c-1.172,1.172-3.07,1.171-4.242,0
			l-4.071-4.071c-2.511,1.366-5.152,2.46-7.895,3.27v5.758C139.548,153.813,138.205,155.157,136.548,155.157z M122.452,149.157
			h11.096v-5.069c0-1.396,0.963-2.607,2.322-2.922c3.715-0.862,7.238-2.321,10.471-4.337c1.186-0.739,2.721-0.563,3.709,0.424
			l3.585,3.584l7.845-7.845l-3.584-3.584c-0.987-0.987-1.163-2.525-0.424-3.709c2.017-3.232,3.476-6.755,4.336-10.471
			c0.315-1.36,1.527-2.323,2.923-2.323h5.069V101.81h-5.069c-1.396,0-2.607-0.963-2.923-2.323c-0.86-3.716-2.319-7.239-4.336-10.471
			c-0.739-1.185-0.563-2.722,0.424-3.709l3.584-3.584l-7.845-7.845l-3.585,3.584c-0.988,0.988-2.523,1.164-3.709,0.424
			c-3.233-2.017-6.756-3.476-10.471-4.337c-1.359-0.315-2.322-1.526-2.322-2.922v-5.069h-11.096v5.069
			c0,1.396-0.963,2.607-2.322,2.922c-3.715,0.861-7.237,2.32-10.471,4.337c-1.185,0.739-2.722,0.563-3.709-0.424l-3.585-3.584
			l-7.845,7.845l3.584,3.584c0.987,0.987,1.163,2.525,0.424,3.709c-2.017,3.232-3.476,6.755-4.336,10.471
			c-0.315,1.36-1.527,2.323-2.923,2.323H86.2v11.095h5.069c1.396,0,2.607,0.963,2.923,2.323c0.86,3.716,2.319,7.239,4.336,10.471
			c0.739,1.185,0.563,2.722-0.424,3.709l-3.584,3.584l7.845,7.845l3.585-3.584c0.987-0.986,2.524-1.163,3.709-0.424
			c3.232,2.016,6.756,3.475,10.471,4.337c1.359,0.315,2.322,1.527,2.322,2.922V149.157z M128,134.584
			c-15.014,0-27.228-12.214-27.228-27.227S112.986,80.129,128,80.129s27.228,12.214,27.228,27.228S143.014,134.584,128,134.584z
			 M128,86.129c-11.705,0-21.228,9.522-21.228,21.228c0,11.705,9.522,21.227,21.228,21.227s21.228-9.522,21.228-21.227
			C149.228,95.652,139.705,86.129,128,86.129z"/>
	</g>
</g>
</svg>
