<?xml version="1.0" encoding="utf-8"?>
<!-- Generator: Adobe Illustrator 18.0.0, SVG Export Plug-In . SVG Version: 6.00 Build 0)  -->
<!DOCTYPE svg PUBLIC "-//W3C//DTD SVG 1.1//EN" "http://www.w3.org/Graphics/SVG/1.1/DTD/svg11.dtd">
<svg version="1.1" id="Layer_1" xmlns="http://www.w3.org/2000/svg" xmlns:xlink="http://www.w3.org/1999/xlink" x="0px" y="0px"
	 viewBox="0 0 256 256" style="enable-background:new 0 0 256 256;" xml:space="preserve">
<style type="text/css">
	.st0{fill:#504774;}
	.st1{fill:#F1C48B;}
	.st2{fill:#FFFFFF;}
	.st3{fill:#D5E6F7;}
	.st4{fill:#A0D1F2;}
	.st5{fill:#7BABF3;}
	.st6{fill:#FD919F;}
	.st7{fill:#D4E7F8;}
	.st8{fill:#E0667D;}
	.st9{fill:#484771;}
</style>
<g>
	<g>
		<circle class="st1" cx="128" cy="128" r="103.873"/>
	</g>
	<g>
		<path class="st2" d="M136.538,85.957c0-4.716-3.823-8.539-8.538-8.539c-4.716,0-8.539,3.823-8.539,8.539H92.206
			c-0.076,0.953-0.126,1.913-0.126,2.885v20.877c0,19.838,16.082,35.92,35.92,35.92h0c19.838,0,35.92-16.082,35.92-35.92V88.842
			c0-0.972-0.05-1.933-0.126-2.885H136.538z"/>
	</g>
	<g>
		<g>
			<path class="st3" d="M163.794,85.957h-10.437c0.076,0.953,0.126,1.913,0.126,2.885v20.877c0,18.065-13.337,33.01-30.701,35.538
				c1.704,0.248,3.445,0.382,5.218,0.382h0c19.838,0,35.92-16.082,35.92-35.92V88.842C163.92,87.87,163.87,86.91,163.794,85.957z"/>
		</g>
	</g>
	<g>
		<path class="st4" d="M156.87,45.555c-18.807-5.819-38.934-5.819-57.741,0c-4.191,1.297-7.049,5.173-7.049,9.56v30.842h27.381
			c0-4.716,3.823-8.539,8.539-8.539c4.716,0,8.538,3.823,8.538,8.539h27.381V55.115C163.92,50.728,161.062,46.852,156.87,45.555z"/>
	</g>
	<g>
		<path class="st4" d="M145.17,112.565h-34.34c-10.876,0-16.896,12.889-9.67,21.017c6.576,7.397,16.162,12.057,26.839,12.057h0
			c10.677,0,20.263-4.66,26.839-12.057C162.066,125.454,156.046,112.565,145.17,112.565z"/>
	</g>
	<g>
		<path class="st4" d="M166.795,154.742h-28.358v3.508c0,5.764-4.673,10.437-10.437,10.437c-5.764,0-10.437-4.673-10.437-10.437
			v-3.508H89.205c-10.542,0-19.088,8.546-19.088,19.088v40.979h115.765V173.83C185.883,163.288,177.337,154.742,166.795,154.742z"/>
	</g>
	<g>
		<path class="st3" d="M88.746,106.73h3.334V85.957h-3.334c-5.736,0-10.387,4.65-10.387,10.387v0
			C78.36,102.08,83.01,106.73,88.746,106.73z"/>
	</g>
	<g>
		<path class="st3" d="M167.254,106.73h-3.334V85.957h3.334c5.736,0,10.387,4.65,10.387,10.387v0
			C177.64,102.08,172.99,106.73,167.254,106.73z"/>
	</g>
	<g>
		<path class="st5" d="M145.17,112.565h-9.538c10.876,0,16.896,12.889,9.67,21.017c-5.579,6.276-13.329,10.569-22.07,11.73
			c1.562,0.207,3.151,0.327,4.769,0.327h0c10.678,0,20.263-4.66,26.839-12.057C162.066,125.454,156.046,112.565,145.17,112.565z"/>
	</g>
	<g>
		<circle class="st6" cx="128" cy="85.957" r="8.538"/>
	</g>
	<g>
		<g>
			<path class="st5" d="M156.87,45.555c-11.085-3.43-22.628-4.821-34.089-4.208c7.984,0.427,15.93,1.819,23.652,4.208
				c4.191,1.297,7.049,5.173,7.049,9.56v30.842h10.437V55.115C163.92,50.728,161.062,46.852,156.87,45.555z"/>
		</g>
	</g>
	<g>
		<path class="st3" d="M128,145.639L128,145.639c-3.631,0-7.134-0.544-10.437-1.545v14.157c0,5.764,4.673,10.437,10.437,10.437
			c5.764,0,10.437-4.673,10.437-10.437v-14.157C135.133,145.095,131.631,145.639,128,145.639z"/>
	</g>
	<g>
		<g>
			<path class="st5" d="M166.795,154.742h-10.437c10.542,0,19.088,8.546,19.088,19.088v40.979h10.437V173.83
				C185.883,163.288,177.337,154.742,166.795,154.742z"/>
		</g>
	</g>
	<g>
		<path class="st0" d="M128,148.639c-11.101,0-21.701-4.761-29.082-13.063c-4.091-4.602-5.053-10.979-2.511-16.642
			c2.595-5.778,8.121-9.368,14.422-9.368h34.34c6.301,0,11.828,3.59,14.422,9.368c2.542,5.664,1.581,12.041-2.511,16.642
			C149.701,143.877,139.101,148.639,128,148.639z M110.83,115.565c-4.669,0-7.684,3.009-8.949,5.826
			c-1.585,3.531-1.017,7.344,1.521,10.198c6.243,7.022,15.208,11.05,24.597,11.05s18.354-4.027,24.597-11.05
			c2.538-2.854,3.107-6.667,1.521-10.198c-1.265-2.816-4.28-5.826-8.949-5.826H110.83z"/>
	</g>
	<g>
		<path class="st0" d="M110.774,105.619L110.774,105.619c-2.378,0-4.306-1.928-4.306-4.306v-3.612c0-2.378,1.928-4.307,4.306-4.307
			l0,0c2.378,0,4.306,1.928,4.306,4.307v3.612C115.08,103.691,113.152,105.619,110.774,105.619z"/>
	</g>
	<g>
		<path class="st0" d="M145.226,105.619L145.226,105.619c-2.378,0-4.307-1.928-4.307-4.306v-3.612c0-2.378,1.928-4.307,4.307-4.307
			l0,0c2.378,0,4.306,1.928,4.306,4.307v3.612C149.532,103.691,147.604,105.619,145.226,105.619z"/>
	</g>
	<g>
		<path class="st0" d="M92.08,109.73h-3.334c-7.381,0-13.387-6.005-13.387-13.386s6.005-13.387,13.387-13.387h3.334
			c1.657,0,3,1.343,3,3v20.773C95.08,108.387,93.737,109.73,92.08,109.73z M88.746,88.957c-4.073,0-7.387,3.313-7.387,7.386
			c0,4.073,3.313,7.387,7.387,7.387h0.334V88.957H88.746z"/>
	</g>
	<g>
		<path class="st0" d="M167.254,109.73h-3.334c-1.657,0-3-1.343-3-3V85.957c0-1.657,1.343-3,3-3h3.334
			c7.381,0,13.387,6.005,13.387,13.386S174.635,109.73,167.254,109.73z M166.92,103.73h0.334c4.073,0,7.387-3.313,7.387-7.386
			c0-4.073-3.313-7.387-7.387-7.387h-0.334V103.73z"/>
	</g>
	<g>
		<path class="st0" d="M128,148.639c-21.46,0-38.92-17.459-38.92-38.92V88.842c0-0.958,0.044-1.98,0.135-3.123
			c0.124-1.56,1.426-2.762,2.991-2.762h24.651c1.324-4.913,5.818-8.539,11.143-8.539s9.819,3.626,11.143,8.539h24.651
			c1.565,0,2.867,1.203,2.991,2.762c0.091,1.143,0.135,2.165,0.135,3.123v20.876C166.92,131.179,149.46,148.639,128,148.639z
			 M95.08,88.957v20.762c0,18.152,14.768,32.92,32.92,32.92s32.92-14.768,32.92-32.92V88.957h-24.381c-1.657,0-3-1.343-3-3
			c0-3.054-2.484-5.539-5.539-5.539s-5.539,2.484-5.539,5.539c0,1.657-1.343,3-3,3H95.08z"/>
	</g>
	<g>
		<path class="st0" d="M163.92,88.957h-27.381c-1.657,0-3-1.343-3-3c0-3.054-2.484-5.539-5.539-5.539s-5.539,2.484-5.539,5.539
			c0,1.657-1.343,3-3,3H92.08c-1.657,0-3-1.343-3-3V55.115c0-5.737,3.682-10.73,9.163-12.426c19.294-5.97,40.221-5.969,59.515,0
			c5.48,1.696,9.163,6.689,9.163,12.426v30.842C166.92,87.614,165.577,88.957,163.92,88.957z M139.143,82.957h21.777V55.115
			c0-3.09-1.984-5.781-4.936-6.694c-18.145-5.613-37.823-5.613-55.968,0c-2.952,0.914-4.936,3.604-4.936,6.694v27.842h21.777
			c1.324-4.913,5.818-8.539,11.143-8.539S137.819,78.044,139.143,82.957z"/>
	</g>
	<g>
		<path class="st0" d="M93.925,217.809c-1.657,0-3-1.343-3-3v-21.671c0-1.657,1.343-3,3-3s3,1.343,3,3v21.671
			C96.925,216.466,95.582,217.809,93.925,217.809z"/>
	</g>
	<g>
		<path class="st0" d="M165.409,217.809c-1.657,0-3-1.343-3-3v-21.671c0-1.657,1.343-3,3-3s3,1.343,3,3v21.671
			C168.409,216.466,167.065,217.809,165.409,217.809z"/>
	</g>
	<g>
		<path class="st0" d="M128,97.495c-6.362,0-11.539-5.176-11.539-11.538S121.638,74.418,128,74.418s11.539,5.176,11.539,11.539
			S134.362,97.495,128,97.495z M128,80.418c-3.054,0-5.539,2.484-5.539,5.539c0,3.054,2.484,5.538,5.539,5.538
			s5.539-2.484,5.539-5.538C133.539,82.903,131.054,80.418,128,80.418z"/>
	</g>
	<g>
		<path class="st0" d="M185.883,217.809H70.117c-1.657,0-3-1.343-3-3V173.83c0-12.179,9.909-22.087,22.088-22.087h28.358
			c1.657,0,3,1.343,3,3v3.508c0,4.101,3.336,7.437,7.437,7.437s7.437-3.336,7.437-7.437v-3.508c0-1.657,1.343-3,3-3h28.358
			c12.179,0,22.088,9.908,22.088,22.087v40.979C188.883,216.466,187.54,217.809,185.883,217.809z M73.117,211.809h109.766V173.83
			c0-8.871-7.217-16.087-16.088-16.087h-25.358v0.508c0,7.409-6.028,13.437-13.437,13.437s-13.437-6.028-13.437-13.437v-0.508
			H89.205c-8.871,0-16.088,7.217-16.088,16.087V211.809z"/>
	</g>
	<g>
		<path class="st0" d="M128,171.688c-7.409,0-13.437-6.028-13.437-13.437v-14.157c0-0.95,0.45-1.844,1.213-2.41
			c0.763-0.567,1.75-0.736,2.658-0.461c6.197,1.88,12.936,1.88,19.133,0c0.909-0.275,1.896-0.104,2.658,0.461
			c0.763,0.566,1.213,1.46,1.213,2.41v14.157C141.437,165.66,135.409,171.688,128,171.688z M120.563,147.924v10.326
			c0,4.101,3.336,7.437,7.437,7.437s7.437-3.336,7.437-7.437v-10.326C130.547,148.874,125.453,148.874,120.563,147.924z"/>
	</g>
</g>
</svg>
