<?xml version="1.0" encoding="utf-8"?>
<!-- Generator: Adobe Illustrator 18.0.0, SVG Export Plug-In . SVG Version: 6.00 Build 0)  -->
<!DOCTYPE svg PUBLIC "-//W3C//DTD SVG 1.1//EN" "http://www.w3.org/Graphics/SVG/1.1/DTD/svg11.dtd">
<svg version="1.1" id="Layer_1" xmlns="http://www.w3.org/2000/svg" xmlns:xlink="http://www.w3.org/1999/xlink" x="0px" y="0px"
	 viewBox="0 0 256 256" style="enable-background:new 0 0 256 256;" xml:space="preserve">
<style type="text/css">
	.st0{fill:#504774;}
	.st1{fill:#F1C48B;}
	.st2{fill:#FFFFFF;}
	.st3{fill:#D5E6F7;}
	.st4{fill:#A0D1F2;}
	.st5{fill:#7BABF3;}
	.st6{fill:#FD919F;}
	.st7{fill:#D4E7F8;}
	.st8{fill:#E0667D;}
	.st9{fill:#484771;}
</style>
<g>
	<g>
		<circle class="st1" cx="128" cy="128" r="103.873"/>
	</g>
	<g>
		<g>
			<path class="st4" d="M143.37,222.178h-25.234v-76.725c0-6.968,5.649-12.617,12.617-12.617h0c6.968,0,12.617,5.649,12.617,12.617
				V222.178z"/>
		</g>
		<g>
			<path class="st5" d="M130.753,132.837L130.753,132.837c-1.288,0-2.53,0.195-3.701,0.554c5.162,1.582,8.916,6.383,8.916,12.063
				v76.724h7.401v-76.724C143.37,138.486,137.721,132.837,130.753,132.837z"/>
		</g>
		<g>
			<rect x="118.136" y="149.438" class="st6" width="25.234" height="59.477"/>
		</g>
		<g>
			<rect x="135.969" y="149.438" class="st8" width="7.401" height="59.477"/>
		</g>
		<g>
			<path class="st6" d="M115.756,175.593h2.381v-16.482h-2.381c-4.551,0-8.241,3.69-8.241,8.241l0,0
				C107.515,171.904,111.204,175.593,115.756,175.593z"/>
		</g>
		<g>
			<path class="st3" d="M130.753,132.837L130.753,132.837c1.862,0,3.625,0.414,5.216,1.138V29.489c0-2.881-2.335-5.215-5.216-5.215
				c-2.88,0-5.216,2.335-5.216,5.215v104.486C127.129,133.251,128.891,132.837,130.753,132.837z"/>
		</g>
		<g>
			<path class="st2" d="M110.959,64.078h14.579V32.753h-14.579c-1.902,0-3.444,1.542-3.444,3.444v24.438
				C107.515,62.537,109.057,64.078,110.959,64.078z"/>
		</g>
		<g>
			<path class="st0" d="M125.538,67.078h-14.579c-3.554,0-6.444-2.891-6.444-6.443V36.197c0-3.554,2.891-6.444,6.444-6.444h14.579
				c1.657,0,3,1.343,3,3v31.325C128.538,65.735,127.195,67.078,125.538,67.078z M110.959,35.753c-0.245,0-0.444,0.199-0.444,0.444
				v24.438c0,0.244,0.199,0.443,0.444,0.443h11.579V35.753H110.959z"/>
		</g>
		<g>
			<path class="st5" d="M143.711,231.726h-25.916c-2.637,0-4.774-2.137-4.774-4.774l0,0c0-2.637,2.137-4.774,4.774-4.774h25.916
				c2.637,0,4.774,2.137,4.774,4.774l0,0C148.485,229.589,146.348,231.726,143.711,231.726z"/>
		</g>
		<g>
			<path class="st0" d="M135.969,136.976c-0.423,0-0.847-0.089-1.243-0.27c-2.529-1.153-5.412-1.154-7.944,0
				c-0.929,0.422-2.01,0.343-2.866-0.207c-0.858-0.553-1.377-1.503-1.377-2.523V29.489c0-4.53,3.686-8.216,8.215-8.216
				c4.53,0,8.216,3.686,8.216,8.216v104.486c0,1.021-0.519,1.971-1.377,2.523C137.101,136.814,136.536,136.976,135.969,136.976z
				 M130.753,129.837c0.746,0,1.485,0.053,2.216,0.158V29.489c0-1.222-0.994-2.216-2.216-2.216s-2.215,0.994-2.215,2.216v100.506
				C129.269,129.89,130.007,129.837,130.753,129.837z"/>
		</g>
		<g>
			<path class="st0" d="M143.37,225.179h-25.233c-1.657,0-3-1.343-3-3v-76.725c0-8.611,7.006-15.617,15.616-15.617
				c8.611,0,15.617,7.006,15.617,15.617v76.725C146.37,223.836,145.027,225.179,143.37,225.179z M121.137,219.179h19.233v-73.725
				c0-5.303-4.314-9.617-9.617-9.617s-9.616,4.314-9.616,9.617V219.179z"/>
		</g>
		<g>
			<path class="st0" d="M143.711,234.727h-25.916c-4.286,0-7.773-3.487-7.773-7.774c0-4.286,3.487-7.773,7.773-7.773h25.916
				c4.287,0,7.774,3.487,7.774,7.773C151.485,231.239,147.998,234.727,143.711,234.727z M117.795,225.179
				c-0.978,0-1.773,0.796-1.773,1.773c0,0.979,0.796,1.774,1.773,1.774h25.916c0.979,0,1.774-0.796,1.774-1.774
				c0-0.978-0.796-1.773-1.774-1.773H117.795z"/>
		</g>
		<g>
			<path class="st0" d="M118.137,178.594h-2.381c-6.198,0-11.241-5.043-11.241-11.241s5.043-11.24,11.241-11.24h2.381
				c1.657,0,3,1.343,3,3v16.481C121.137,177.251,119.794,178.594,118.137,178.594z M115.137,162.148
				c-2.6,0.308-4.622,2.524-4.622,5.204c0,2.681,2.022,4.897,4.622,5.205V162.148z"/>
		</g>
		<g>
			<path class="st0" d="M143.37,211.915h-25.233c-1.657,0-3-1.343-3-3v-59.478c0-1.657,1.343-3,3-3h25.233c1.657,0,3,1.343,3,3
				v59.478C146.37,210.572,145.027,211.915,143.37,211.915z M121.137,205.915h19.233v-53.478h-19.233V205.915z"/>
		</g>
		<g>
			<path class="st0" d="M125.538,46.161h-18.023c-1.657,0-3-1.343-3-3s1.343-3,3-3h18.023c1.657,0,3,1.343,3,3
				S127.195,46.161,125.538,46.161z"/>
		</g>
		<g>
			<path class="st0" d="M125.538,56.671h-18.023c-1.657,0-3-1.343-3-3s1.343-3,3-3h18.023c1.657,0,3,1.343,3,3
				S127.195,56.671,125.538,56.671z"/>
		</g>
	</g>
</g>
</svg>
