<?xml version="1.0" encoding="utf-8"?>
<!-- Generator: Adobe Illustrator 18.0.0, SVG Export Plug-In . SVG Version: 6.00 Build 0)  -->
<!DOCTYPE svg PUBLIC "-//W3C//DTD SVG 1.1//EN" "http://www.w3.org/Graphics/SVG/1.1/DTD/svg11.dtd">
<svg version="1.1" id="Layer_1" xmlns="http://www.w3.org/2000/svg" xmlns:xlink="http://www.w3.org/1999/xlink" x="0px" y="0px"
	 viewBox="0 0 256 256" style="enable-background:new 0 0 256 256;" xml:space="preserve">
<style type="text/css">
	.st0{fill:#504774;}
	.st1{fill:#F1C48B;}
	.st2{fill:#FFFFFF;}
	.st3{fill:#D5E6F7;}
	.st4{fill:#A0D1F2;}
	.st5{fill:#7BABF3;}
	.st6{fill:#FD919F;}
	.st7{fill:#D4E7F8;}
	.st8{fill:#E0667D;}
	.st9{fill:#484771;}
</style>
<g>
	<g>
		<circle class="st1" cx="128" cy="128" r="103.873"/>
	</g>
	<g>
		<path class="st2" d="M188.34,74.589c-14.76-13.983-41.111-6.861-49.965-3.907c-1.946,0.649-4.043,0.649-5.989,0
			c-8.853-2.954-35.205-10.076-49.965,3.907c-24.195,21.263-7.087,53.349,1.745,66.602c2.817,4.227,4.357,9.164,4.519,14.241
			c0.938,29.346,6.844,57.395,15.91,57.395c9.908,0,10.851-11.323,10.851-36.595c0-12.015,4.506-19.157,9.232-23.343
			c6.066-5.373,15.336-5.373,21.402,0c4.727,4.187,9.232,11.329,9.232,23.343c0,25.272,0.944,36.595,10.852,36.595
			c9.066,0,14.972-28.048,15.91-57.395c0.162-5.077,1.702-10.014,4.519-14.241C195.427,127.938,212.535,95.852,188.34,74.589z"/>
	</g>
	<g>
		<g>
			<path class="st3" d="M188.34,74.589c-8.158-7.729-19.856-9.005-30.185-8.106c7.089,0.7,14.054,2.983,19.461,8.106
				c24.195,21.262,7.087,53.349-1.745,66.602c-2.817,4.227-4.357,9.164-4.519,14.241c-0.771,24.133-4.904,47.374-11.39,54.875
				c1.524,1.692,3.537,2.52,6.203,2.52c9.066,0,14.972-28.048,15.91-57.395c0.162-5.077,1.702-10.014,4.519-14.241
				C195.427,127.938,212.535,95.852,188.34,74.589z"/>
		</g>
	</g>
	<g>
		<path class="st0" d="M166.165,215.826c-13.852,0-13.852-16.608-13.852-39.595c0-9.168-2.767-16.266-8.222-21.098
			c-2.385-2.112-5.479-3.275-8.712-3.275c-3.232,0-6.326,1.163-8.711,3.275c-5.456,4.832-8.222,11.93-8.222,21.098
			c0,22.986,0,39.595-13.852,39.595c-16.506,0-18.712-54.127-18.908-60.299c-0.146-4.566-1.535-8.948-4.018-12.672
			c-9.043-13.569-27.26-47.589-1.271-70.482c6.429-6.067,15.397-9.143,26.658-9.143c10.852,0,21.122,2.886,26.278,4.607
			c1.323,0.441,2.766,0.441,4.091,0c5.156-1.721,15.427-4.607,26.278-4.607c11.261,0,20.229,3.076,26.658,9.143
			c25.988,22.893,7.771,56.913-1.271,70.482c-2.482,3.725-3.871,8.107-4.018,12.673
			C184.876,161.699,182.669,215.826,166.165,215.826z M135.38,145.858c4.701,0,9.208,1.699,12.69,4.784
			c4.673,4.139,10.243,11.938,10.243,25.589c0,12.959,0.266,21.541,1.624,27.057c1.484,6.033,3.891,6.538,6.228,6.538
			c4.565,0,11.79-19.404,12.912-54.49c0.181-5.686,1.918-11.152,5.021-15.809c8.172-12.263,24.753-42.919,2.261-62.684
			c-0.028-0.024-0.056-0.05-0.083-0.076c-5.279-5.001-12.873-7.538-22.572-7.538c-10.003,0-19.568,2.693-24.38,4.298
			c-2.553,0.852-5.339,0.851-7.888,0c-4.812-1.605-14.377-4.298-24.38-4.298c-9.698,0-17.293,2.536-22.572,7.538
			c-0.027,0.026-0.055,0.051-0.083,0.076c-22.492,19.765-5.911,50.421,2.261,62.685c3.104,4.656,4.841,10.123,5.021,15.809
			c1.121,35.086,8.347,54.49,12.912,54.49c2.337,0,4.743-0.505,6.228-6.538c1.358-5.516,1.624-14.098,1.624-27.057
			c0-13.652,5.57-21.451,10.243-25.589C126.173,147.557,130.68,145.858,135.38,145.858z"/>
	</g>
	<g>
		
			<rect x="75.473" y="49.183" transform="matrix(-0.7071 0.7071 -0.7071 -0.7071 205.644 79.4164)" class="st6" width="21.803" height="66.231"/>
	</g>
	<g>
		
			<rect x="91.095" y="86.897" transform="matrix(-0.7071 0.7071 -0.7071 -0.7071 243.3578 95.0376)" class="st8" width="21.803" height="22.046"/>
	</g>
	<g>
		<path class="st0" d="M102.082,116.423c-0.796,0-1.559-0.316-2.121-0.879L53.129,68.711c-0.563-0.563-0.879-1.326-0.879-2.121
			c0-0.796,0.316-1.559,0.879-2.122l15.417-15.417c1.172-1.171,3.07-1.171,4.242,0l46.832,46.832
			c0.563,0.563,0.879,1.326,0.879,2.121s-0.316,1.559-0.879,2.121l-15.417,15.417C103.641,116.107,102.878,116.423,102.082,116.423z
			 M59.492,66.59l42.59,42.59l11.175-11.174l-42.59-42.589L59.492,66.59z"/>
	</g>
	<g>
		
			<rect x="75.473" y="49.183" transform="matrix(0.7071 0.7071 -0.7071 0.7071 83.4921 -36.9713)" class="st6" width="21.803" height="66.231"/>
	</g>
	<g>
		
			<rect x="88.136" y="54.428" transform="matrix(0.7071 0.7071 -0.7071 0.7071 88.7371 -39.1439)" class="st8" width="6.968" height="66.231"/>
	</g>
	<g>
		<path class="st0" d="M70.667,116.423c-0.796,0-1.559-0.316-2.121-0.879l-15.417-15.417c-1.172-1.171-1.172-3.071,0-4.242
			l46.832-46.832c1.172-1.172,3.07-1.171,4.242,0l15.417,15.417c0.563,0.563,0.879,1.326,0.879,2.122
			c0,0.795-0.316,1.559-0.879,2.121l-46.832,46.833C72.226,116.107,71.463,116.423,70.667,116.423z M59.492,98.006l11.175,11.174
			l42.59-42.59l-11.175-11.174L59.492,98.006z"/>
	</g>
</g>
</svg>
