<?xml version="1.0" encoding="utf-8"?>
<!-- Generator: Adobe Illustrator 18.0.0, SVG Export Plug-In . SVG Version: 6.00 Build 0)  -->
<!DOCTYPE svg PUBLIC "-//W3C//DTD SVG 1.1//EN" "http://www.w3.org/Graphics/SVG/1.1/DTD/svg11.dtd">
<svg version="1.1" id="Layer_1" xmlns="http://www.w3.org/2000/svg" xmlns:xlink="http://www.w3.org/1999/xlink" x="0px" y="0px"
	 viewBox="0 0 256 256" style="enable-background:new 0 0 256 256;" xml:space="preserve">
<style type="text/css">
	.st0{fill:#504774;}
	.st1{fill:#F1C48B;}
	.st2{fill:#FFFFFF;}
	.st3{fill:#D5E6F7;}
	.st4{fill:#A0D1F2;}
	.st5{fill:#7BABF3;}
	.st6{fill:#FD919F;}
	.st7{fill:#D4E7F8;}
	.st8{fill:#E0667D;}
	.st9{fill:#484771;}
</style>
<g>
	<g>
		<circle class="st1" cx="128" cy="128" r="103.873"/>
	</g>
	<g>
		<path class="st6" d="M162.8,103.9H128H93.2H58.4c0,25.757,14.002,48.23,34.8,60.266c10.24,5.926,22.118,9.335,34.8,9.335
			c12.682,0,24.56-3.409,34.8-9.335c20.798-12.036,34.8-34.508,34.8-60.266H162.8z"/>
	</g>
	<g>
		<path class="st2" d="M162.8,103.9v35.655c9.623-1.605,19.164-3.872,28.55-6.816c0.001-0.001,0.001-0.003,0.002-0.004
			c0.983-2.155,1.857-4.369,2.621-6.635c0.032-0.096,0.064-0.193,0.096-0.29c0.723-2.176,1.338-4.4,1.846-6.665
			c0.035-0.155,0.07-0.311,0.104-0.467c0.238-1.1,0.453-2.208,0.638-3.326c0.022-0.131,0.04-0.263,0.061-0.394
			c0.166-1.036,0.308-2.08,0.427-3.13c0.018-0.154,0.039-0.307,0.055-0.462c0.118-1.1,0.205-2.208,0.271-3.322
			c0.014-0.237,0.025-0.475,0.036-0.713c0.055-1.136,0.093-2.276,0.093-3.426c0-0.002,0-0.004,0-0.006H162.8z"/>
	</g>
	<g>
		<path class="st2" d="M162.8,139.555V103.9H128v38.544C139.64,142.444,151.28,141.476,162.8,139.555z"/>
	</g>
	<g>
		<path class="st2" d="M93.2,139.555c11.52,1.921,23.16,2.889,34.8,2.889V103.9H93.2V139.555z"/>
	</g>
	<g>
		<path class="st2" d="M93.2,139.555V103.9H58.4c0,1.152,0.038,2.296,0.093,3.434c0.012,0.236,0.022,0.473,0.036,0.709
			c0.066,1.115,0.154,2.225,0.272,3.325c0.016,0.153,0.037,0.304,0.054,0.457c0.12,1.053,0.262,2.099,0.428,3.137
			c0.021,0.129,0.038,0.26,0.06,0.388c0.186,1.12,0.401,2.23,0.639,3.331c0.033,0.153,0.068,0.305,0.102,0.458
			c0.508,2.268,1.124,4.494,1.848,6.672c0.032,0.095,0.063,0.191,0.095,0.286c0.764,2.267,1.639,4.484,2.623,6.64l0,0.001
			C74.036,135.683,83.576,137.95,93.2,139.555z"/>
	</g>
	<g>
		<path class="st7" d="M180.2,103.9v31.997c3.733-0.949,7.447-1.997,11.136-3.155c0.045-0.099,0.093-0.197,0.138-0.296
			c0.393-0.873,0.768-1.756,1.126-2.648c0.059-0.146,0.122-0.289,0.179-0.435c0.423-1.076,0.822-2.163,1.193-3.264
			c0.032-0.096,0.064-0.193,0.096-0.29c0.36-1.085,0.693-2.181,1-3.288c0.005-0.019,0.01-0.039,0.015-0.058
			c0.292-1.057,0.558-2.124,0.801-3.2c0.082-0.363,0.155-0.728,0.231-1.093c0.162-0.772,0.311-1.548,0.447-2.329
			c0.071-0.411,0.139-0.824,0.203-1.237c0.117-0.757,0.219-1.52,0.312-2.285c0.051-0.421,0.104-0.841,0.147-1.264
			c0.083-0.813,0.146-1.631,0.2-2.451c0.02-0.304,0.047-0.606,0.064-0.912c0.006-0.121,0.013-0.241,0.019-0.362
			c0.055-1.136,0.093-2.276,0.093-3.426c0-0.001,0-0.002,0-0.003c0-0.001,0-0.002,0-0.003H180.2z"/>
	</g>
	<g>
		<path class="st0" d="M128,176.5c-12.741,0-25.294-3.367-36.303-9.738C69.309,153.806,55.4,129.719,55.4,103.899
			c0-1.657,1.343-3,3-3H197.6c1.657,0,3,1.343,3,3c0,25.819-13.908,49.906-36.297,62.862C153.294,173.133,140.741,176.5,128,176.5z
			 M61.469,106.899c1.026,22.538,13.563,43.286,33.234,54.669c10.096,5.843,21.61,8.932,33.297,8.932s23.201-3.089,33.297-8.932
			c19.672-11.383,32.208-32.131,33.234-54.669H61.469z"/>
	</g>
	<g>
		<path class="st0" d="M42.748,117.34c-1.48,0-2.768-1.095-2.97-2.603l-0.019-0.139c-1.582-11.597,2.871-22.969,11.912-30.414
			c1.279-1.055,3.17-0.871,4.223,0.408c1.054,1.279,0.871,3.17-0.408,4.223c-7.424,6.114-11.08,15.452-9.78,24.98l0.02,0.146
			c0.22,1.642-0.934,3.151-2.576,3.371C43.015,117.331,42.881,117.34,42.748,117.34z"/>
	</g>
	<g>
		<path class="st0" d="M213.252,117.34c-0.133,0-0.267-0.009-0.401-0.026c-1.643-0.22-2.796-1.729-2.576-3.371l0.019-0.139
			c1.301-9.536-2.355-18.874-9.779-24.988c-1.279-1.053-1.462-2.943-0.408-4.223c1.052-1.277,2.943-1.465,4.223-0.408
			c9.041,7.445,13.494,18.817,11.911,30.422l-0.018,0.131C216.02,116.245,214.731,117.34,213.252,117.34z"/>
	</g>
	<g>
		<path class="st0" d="M162.8,142.555c-0.705,0-1.394-0.248-1.939-0.711c-0.673-0.57-1.061-1.407-1.061-2.289v-35.655
			c0-1.657,1.343-3,3-3h34.8c1.657,0,3,1.343,3,3c0,1.087-0.031,2.256-0.097,3.578l-0.037,0.739
			c-0.073,1.234-0.166,2.366-0.283,3.468l-0.056,0.465c-0.129,1.132-0.279,2.23-0.448,3.284l-0.063,0.405
			c-0.19,1.147-0.414,2.315-0.667,3.477l-0.105,0.474c-0.529,2.36-1.177,4.7-1.928,6.965l-0.099,0.294
			c-0.798,2.369-1.718,4.697-2.736,6.932c-0.014,0.03-0.028,0.062-0.044,0.092c-0.145,0.291-0.336,0.558-0.566,0.788
			c-0.342,0.343-0.762,0.597-1.223,0.741c-9.417,2.954-19.159,5.28-28.955,6.913C163.129,142.541,162.964,142.555,162.8,142.555z
			 M165.8,106.899v29.083c7.896-1.455,15.733-3.369,23.36-5.706c0.722-1.672,1.382-3.395,1.969-5.135l0.094-0.28
			c0.687-2.072,1.281-4.218,1.764-6.373l0.097-0.435c0.235-1.079,0.44-2.148,0.614-3.192l0.06-0.389
			c0.152-0.953,0.29-1.962,0.407-2.985l0.053-0.442c0.106-1.004,0.191-2.045,0.259-3.18l0.035-0.682
			c0.005-0.096,0.009-0.19,0.014-0.284H165.8z"/>
	</g>
	<g>
		<path class="st0" d="M128,145.443c-1.657,0-3-1.343-3-3v-38.544c0-1.657,1.343-3,3-3h34.8c1.657,0,3,1.343,3,3v35.655
			c0,1.467-1.061,2.718-2.507,2.959C151.636,144.458,139.762,145.443,128,145.443z M131,106.899v32.522
			c9.605-0.141,19.268-0.954,28.8-2.424v-30.099H131z"/>
	</g>
	<g>
		<path class="st0" d="M128,145.443c-11.762,0-23.636-0.985-35.293-2.93c-1.446-0.241-2.507-1.492-2.507-2.959v-35.655
			c0-1.657,1.343-3,3-3H128c1.657,0,3,1.343,3,3v38.544C131,144.101,129.657,145.443,128,145.443z M96.2,136.998
			c9.532,1.47,19.194,2.283,28.8,2.424v-32.522H96.2V136.998z"/>
	</g>
	<g>
		<path class="st0" d="M93.2,142.555c-0.164,0-0.329-0.014-0.493-0.041c-9.796-1.633-19.538-3.959-28.955-6.913
			c-0.812-0.255-1.478-0.843-1.831-1.617c-1.021-2.239-1.942-4.57-2.736-6.929l-0.095-0.286c-0.755-2.271-1.404-4.613-1.933-6.974
			l-0.106-0.479c-0.256-1.182-0.48-2.351-0.667-3.476l-0.063-0.407c-0.168-1.046-0.318-2.147-0.446-3.27l-0.057-0.471
			c-0.118-1.113-0.214-2.28-0.284-3.475l-0.037-0.736c-0.065-1.328-0.097-2.499-0.097-3.583c0-1.657,1.343-3,3-3h34.8
			c1.657,0,3,1.343,3,3v35.655c0,0.882-0.388,1.719-1.061,2.289C94.594,142.306,93.905,142.555,93.2,142.555z M66.84,130.276
			c7.627,2.337,15.464,4.251,23.36,5.706v-29.083H61.476c0.005,0.095,0.009,0.191,0.014,0.288l0.035,0.683
			c0.064,1.097,0.151,2.168,0.26,3.181l0.052,0.43c0.118,1.035,0.256,2.045,0.41,3.005l0.057,0.372
			c0.171,1.031,0.377,2.104,0.611,3.189l0.098,0.437c0.485,2.165,1.08,4.312,1.768,6.382l0.088,0.267
			C65.455,126.877,66.116,128.601,66.84,130.276z"/>
	</g>
	<g>
		<rect x="47.75" y="123.172" class="st2" width="160.5" height="19.272"/>
	</g>
	<g>
		<rect x="180.95" y="123.172" class="st7" width="27.3" height="19.272"/>
	</g>
	<g>
		<path class="st0" d="M208.25,145.443H47.75c-1.657,0-3-1.343-3-3v-19.271c0-1.657,1.343-3,3-3h160.5c1.657,0,3,1.343,3,3v19.271
			C211.25,144.101,209.907,145.443,208.25,145.443z M50.75,139.443h154.5v-13.271H50.75V139.443z"/>
	</g>
</g>
</svg>
