<?xml version="1.0" encoding="utf-8"?>
<!-- Generator: Adobe Illustrator 18.0.0, SVG Export Plug-In . SVG Version: 6.00 Build 0)  -->
<!DOCTYPE svg PUBLIC "-//W3C//DTD SVG 1.1//EN" "http://www.w3.org/Graphics/SVG/1.1/DTD/svg11.dtd">
<svg version="1.1" id="Layer_1" xmlns="http://www.w3.org/2000/svg" xmlns:xlink="http://www.w3.org/1999/xlink" x="0px" y="0px"
	 viewBox="0 0 256 256" style="enable-background:new 0 0 256 256;" xml:space="preserve">
<style type="text/css">
	.st0{fill:#504774;}
	.st1{fill:#F1C48B;}
	.st2{fill:#FFFFFF;}
	.st3{fill:#D5E6F7;}
	.st4{fill:#A0D1F2;}
	.st5{fill:#7BABF3;}
	.st6{fill:#FD919F;}
	.st7{fill:#D4E7F8;}
	.st8{fill:#E0667D;}
	.st9{fill:#484771;}
</style>
<g>
	<g>
		<circle class="st1" cx="128" cy="128" r="103.873"/>
	</g>
	<g>
		<path class="st8" d="M207.006,199.216h-21.677c-3.392,0-6.142,2.75-6.142,6.142l0,0c0,3.392,2.75,6.142,6.142,6.142h21.677
			c3.392,0,6.142-2.75,6.142-6.142l0,0C213.148,201.966,210.398,199.216,207.006,199.216z"/>
	</g>
	<g>
		<path class="st6" d="M196.167,126.597L196.167,126.597c-5.537,0-10.026,4.489-10.026,10.026v62.594h20.052v-62.594
			C206.193,131.086,201.704,126.597,196.167,126.597z"/>
	</g>
	<g>
		<path class="st8" d="M196.167,126.597c-1.386,0-2.706,0.282-3.906,0.79c3.596,1.523,6.119,5.084,6.119,9.236v62.594h7.813v-62.594
			C206.193,131.086,201.704,126.597,196.167,126.597z"/>
	</g>
	<g>
		<path class="st3" d="M160.572,211.5H42.852v-51.637c0-10.914,8.847-19.761,19.761-19.761h78.198
			c10.914,0,19.761,8.848,19.761,19.761V211.5z"/>
	</g>
	<g>
		<path class="st3" d="M139.529,44.5H63.895c-6.182,0-11.194,5.012-11.194,11.194v0c0,6.182,5.012,11.194,11.194,11.194h75.634
			c6.182,0,11.194-5.012,11.194-11.194v0C150.723,49.512,145.712,44.5,139.529,44.5z"/>
	</g>
	<g>
		<path class="st4" d="M140.811,140.101h-21.043c10.914,0,19.761,8.848,19.761,19.762V211.5h21.043v-51.637
			C160.572,148.949,151.725,140.101,140.811,140.101z"/>
	</g>
	<g>
		<circle class="st6" cx="101.712" cy="165.073" r="13.148"/>
	</g>
	<g>
		<path class="st2" d="M126.533,188.507H73.287c-5.187,0-9.391,4.205-9.391,9.391V211.5h72.029v-13.601
			C135.924,192.712,131.72,188.507,126.533,188.507z"/>
	</g>
	<g>
		<path class="st4" d="M139.529,44.5h-18.787c6.182,0,11.194,5.012,11.194,11.194c0,6.182-5.012,11.194-11.194,11.194h18.787
			c6.182,0,11.194-5.012,11.194-11.194C150.723,49.512,145.712,44.5,139.529,44.5z"/>
	</g>
	<g>
		<rect x="63.895" y="66.888" class="st4" width="75.634" height="73.214"/>
	</g>
	<g>
		<rect x="123.869" y="66.888" class="st5" width="15.66" height="73.214"/>
	</g>
	<g>
		<path class="st0" d="M160.572,214.5H42.852c-1.657,0-3-1.343-3-3v-51.638c0-12.551,10.21-22.761,22.761-22.761h78.198
			c12.551,0,22.761,10.21,22.761,22.761V211.5C163.572,213.157,162.229,214.5,160.572,214.5z M45.852,208.5h111.72v-48.638
			c0-9.242-7.519-16.761-16.761-16.761H62.613c-9.242,0-16.761,7.519-16.761,16.761V208.5z"/>
	</g>
	<g>
		<path class="st0" d="M139.529,143.102H63.896c-1.657,0-3-1.343-3-3V66.888c0-1.657,1.343-3,3-3h75.634c1.657,0,3,1.343,3,3v73.214
			C142.529,141.759,141.186,143.102,139.529,143.102z M66.896,137.102h69.634V69.888H66.896V137.102z"/>
	</g>
	<g>
		<path class="st0" d="M139.529,69.888H63.896c-7.827,0-14.194-6.367-14.194-14.193c0-7.827,6.367-14.194,14.194-14.194h75.634
			c7.827,0,14.194,6.367,14.194,14.193C153.723,63.521,147.356,69.888,139.529,69.888z M63.896,47.5
			c-4.518,0-8.194,3.676-8.194,8.193c0,4.519,3.676,8.194,8.194,8.194h75.634c4.518,0,8.194-3.676,8.194-8.193
			c0-4.519-3.676-8.194-8.194-8.194H63.896z"/>
	</g>
	<g>
		<path class="st0" d="M79.047,130.697c-1.657,0-3-1.343-3-3V80.199c0-1.657,1.343-3,3-3s3,1.343,3,3v47.498
			C82.047,129.354,80.704,130.697,79.047,130.697z"/>
	</g>
	<g>
		<path class="st0" d="M95.082,88.645h-5.143c-1.657,0-3-1.343-3-3s1.343-3,3-3h5.143c1.657,0,3,1.343,3,3
			S96.739,88.645,95.082,88.645z"/>
	</g>
	<g>
		<path class="st0" d="M95.082,106.494h-5.143c-1.657,0-3-1.343-3-3s1.343-3,3-3h5.143c1.657,0,3,1.343,3,3
			S96.739,106.494,95.082,106.494z"/>
	</g>
	<g>
		<path class="st0" d="M95.082,124.344h-5.143c-1.657,0-3-1.343-3-3s1.343-3,3-3h5.143c1.657,0,3,1.343,3,3
			S96.739,124.344,95.082,124.344z"/>
	</g>
	<g>
		<path class="st0" d="M101.712,181.222c-4.313,0-8.369-1.681-11.418-4.73c-6.295-6.296-6.295-16.54,0-22.836
			c3.05-3.05,7.105-4.729,11.418-4.729c4.313,0,8.368,1.68,11.418,4.729c6.296,6.296,6.296,16.54,0,22.836
			C110.081,179.541,106.025,181.222,101.712,181.222z M101.712,154.926c-2.711,0-5.259,1.056-7.176,2.972
			c-3.956,3.957-3.956,10.395,0,14.352c1.917,1.917,4.464,2.973,7.175,2.973c2.71,0,5.259-1.056,7.176-2.973
			c3.956-3.957,3.956-10.395,0-14.352C106.971,155.981,104.423,154.926,101.712,154.926z"/>
	</g>
	<g>
		<path class="st0" d="M135.924,214.5H63.896c-1.657,0-3-1.343-3-3v-13.602c0-6.833,5.559-12.392,12.391-12.392h53.247
			c6.833,0,12.391,5.559,12.391,12.392V211.5C138.924,213.157,137.581,214.5,135.924,214.5z M66.896,208.5h66.029v-10.602
			c0-3.524-2.867-6.392-6.391-6.392H73.287c-3.524,0-6.391,2.867-6.391,6.392V208.5z"/>
	</g>
	<g>
		<path class="st0" d="M101.712,168.073c-0.768,0-1.536-0.293-2.121-0.879c-1.172-1.171-1.172-3.071,0-4.242l9.297-9.297
			c1.171-1.172,3.071-1.172,4.242,0c1.172,1.171,1.172,3.071,0,4.242l-9.297,9.297C103.248,167.78,102.48,168.073,101.712,168.073z"
			/>
	</g>
	<g>
		<path class="st0" d="M206.193,202.216h-20.051c-1.657,0-3-1.343-3-3v-62.593c0-7.183,5.843-13.026,13.025-13.026
			c7.183,0,13.026,5.844,13.026,13.026v62.593C209.193,200.873,207.85,202.216,206.193,202.216z M189.142,196.216h14.051v-59.593
			c0-3.874-3.152-7.026-7.026-7.026s-7.025,3.152-7.025,7.026V196.216z"/>
	</g>
	<g>
		<path class="st0" d="M207.006,214.5h-21.677c-5.041,0-9.142-4.101-9.142-9.142s4.101-9.143,9.142-9.143h21.677
			c5.041,0,9.142,4.102,9.142,9.143S212.047,214.5,207.006,214.5z M185.329,202.216c-1.732,0-3.142,1.41-3.142,3.143
			s1.41,3.142,3.142,3.142h21.677c1.732,0,3.142-1.409,3.142-3.142s-1.41-3.143-3.142-3.143H185.329z"/>
	</g>
	<g>
		<path class="st0" d="M196.167,129.597c-1.657,0-3-1.343-3-3v-36.49c0-0.796,0.316-1.559,0.879-2.121l10.501-10.501l-9.418-9.419
			l-6.821,6.82c-1.171,1.172-3.071,1.172-4.243,0s-1.171-3.071,0-4.242l8.942-8.941c1.171-1.173,3.071-1.171,4.242,0l13.661,13.661
			c0.563,0.563,0.879,1.325,0.879,2.121s-0.316,1.559-0.879,2.121l-11.744,11.743v35.248
			C199.167,128.254,197.824,129.597,196.167,129.597z"/>
	</g>
	<g>
		<path class="st0" d="M186.187,153.532h-5.419c-1.657,0-3-1.343-3-3s1.343-3,3-3h5.419c1.657,0,3,1.343,3,3
			S187.843,153.532,186.187,153.532z"/>
	</g>
	<g>
		<path class="st0" d="M186.187,167.081h-5.419c-1.657,0-3-1.343-3-3s1.343-3,3-3h5.419c1.657,0,3,1.343,3,3
			S187.843,167.081,186.187,167.081z"/>
	</g>
	<g>
		<path class="st0" d="M186.142,193.906h-4.291c-6.236,0-11.31-5.073-11.31-11.31c0-2.928-2.382-5.31-5.31-5.31h-4.66
			c-1.657,0-3-1.343-3-3s1.343-3,3-3h4.66c6.236,0,11.31,5.073,11.31,11.31c0,2.928,2.382,5.31,5.31,5.31h4.291c1.657,0,3,1.343,3,3
			S187.798,193.906,186.142,193.906z"/>
	</g>
	<g>
		<path class="st0" d="M122.56,203.004H80.865c-1.657,0-3-1.343-3-3s1.343-3,3-3h41.695c1.657,0,3,1.343,3,3
			S124.216,203.004,122.56,203.004z"/>
	</g>
</g>
</svg>
