<?xml version="1.0" encoding="utf-8"?>
<!-- Generator: Adobe Illustrator 18.0.0, SVG Export Plug-In . SVG Version: 6.00 Build 0)  -->
<!DOCTYPE svg PUBLIC "-//W3C//DTD SVG 1.1//EN" "http://www.w3.org/Graphics/SVG/1.1/DTD/svg11.dtd">
<svg version="1.1" id="Layer_1" xmlns="http://www.w3.org/2000/svg" xmlns:xlink="http://www.w3.org/1999/xlink" x="0px" y="0px"
	 viewBox="0 0 256 256" style="enable-background:new 0 0 256 256;" xml:space="preserve">
<style type="text/css">
	.st0{fill:#504774;}
	.st1{fill:#F1C48B;}
	.st2{fill:#FFFFFF;}
	.st3{fill:#D5E6F7;}
	.st4{fill:#A0D1F2;}
	.st5{fill:#7BABF3;}
	.st6{fill:#FD919F;}
	.st7{fill:#D4E7F8;}
	.st8{fill:#E0667D;}
	.st9{fill:#484771;}
</style>
<g>
	<g>
		<circle class="st1" cx="128" cy="128" r="103.873"/>
	</g>
	<g>
		<path class="st2" d="M172.57,106.686c-12.422-11.768-34.599-5.774-42.05-3.288c-1.638,0.547-3.403,0.547-5.041,0
			c-7.451-2.486-29.628-8.48-42.05,3.288c-20.362,17.894-5.965,44.898,1.469,56.051c2.371,3.557,3.667,7.712,3.803,11.985
			c0.789,24.698,5.759,48.303,13.389,48.303c8.338,0,9.132-9.529,9.132-30.798c0-10.111,3.792-16.122,7.77-19.646
			c5.105-4.522,12.907-4.522,18.012,0c3.978,3.524,7.77,9.534,7.77,19.646c0,21.268,0.794,30.798,9.132,30.798
			c7.63,0,12.6-23.605,13.389-48.303c0.137-4.273,1.433-8.427,3.803-11.985C178.535,151.584,192.932,124.581,172.57,106.686z"/>
	</g>
	<g>
		<g>
			<path class="st3" d="M172.57,106.686c-6.866-6.505-16.71-7.579-25.403-6.822c5.966,0.589,11.827,2.511,16.378,6.822
				c20.363,17.894,5.965,44.898-1.469,56.051c-2.371,3.557-3.667,7.712-3.803,11.985c-0.649,20.31-4.128,39.869-9.585,46.182
				c1.283,1.424,2.976,2.121,5.221,2.121c7.63,0,12.6-23.605,13.389-48.303c0.137-4.273,1.433-8.427,3.803-11.985
				C178.535,151.584,192.932,124.58,172.57,106.686z"/>
		</g>
	</g>
	<g>
		<path class="st0" d="M153.908,226.025c-12.133,0-12.133-14.915-12.133-33.798c0-7.574-2.273-13.428-6.759-17.399
			c-1.92-1.701-4.411-2.637-7.017-2.637s-5.097,0.937-7.017,2.637c-4.485,3.972-6.759,9.826-6.759,17.4
			c0,18.883,0,33.798-12.133,33.798c-14.041,0-16.115-42.656-16.388-51.207c-0.12-3.754-1.263-7.356-3.302-10.417
			c-7.68-11.522-23.143-40.416-0.995-59.932c5.501-5.188,13.156-7.818,22.756-7.818c9.2,0,17.899,2.444,22.266,3.901
			c1.018,0.34,2.126,0.34,3.142,0c4.368-1.457,13.068-3.901,22.268-3.901c9.599,0,17.254,2.631,22.755,7.818
			c22.147,19.516,6.685,48.41-0.995,59.932c-2.039,3.06-3.182,6.663-3.302,10.417C170.023,183.369,167.949,226.025,153.908,226.025z
			 M128,166.19c4.072,0,7.978,1.472,10.995,4.146c4.005,3.547,8.78,10.225,8.78,21.891c0,22.083,1.261,27.798,6.133,27.798
			c3.209,0,9.426-15.171,10.392-45.398c0.155-4.874,1.645-9.561,4.306-13.553c6.809-10.216,20.633-35.746,1.984-52.134
			c-0.028-0.024-0.056-0.05-0.083-0.076c-4.352-4.123-10.633-6.213-18.669-6.213c-8.352,0-16.346,2.251-20.368,3.593
			c-2.242,0.749-4.696,0.749-6.94,0c-4.021-1.342-12.015-3.593-20.366-3.593c-8.037,0-14.318,2.09-18.67,6.213
			c-0.027,0.026-0.055,0.051-0.083,0.076c-18.648,16.388-4.824,41.918,1.984,52.134c2.661,3.993,4.15,8.679,4.306,13.553
			c0.966,30.228,7.183,45.398,10.392,45.398c4.872,0,6.133-5.715,6.133-27.798c0-11.667,4.775-18.344,8.78-21.892
			C120.022,167.663,123.928,166.19,128,166.19z"/>
	</g>
	<g>
		<path class="st0" d="M179.636,149.372h-25.508c-1.657,0-3-1.343-3-3v-9.433c0-2.934-2.387-5.321-5.321-5.321h-35.613
			c-2.935,0-5.321,2.387-5.321,5.321v9.433c0,1.657-1.343,3-3,3H76.364c-1.249,0-2.367-0.773-2.808-1.942
			c-6.671-17.701-3.957-32.555,7.851-42.96c5.501-5.188,13.157-7.819,22.756-7.819c9.204,0,17.905,2.446,22.273,3.904
			c1.014,0.339,2.113,0.339,3.127,0c4.368-1.458,13.07-3.904,22.273-3.904c9.599,0,17.255,2.631,22.756,7.819
			c11.808,10.406,14.521,25.259,7.851,42.96C182.003,148.599,180.885,149.372,179.636,149.372z M157.128,143.372h20.396
			c4.915-14.488,2.587-26.065-6.935-34.432c-0.028-0.024-0.056-0.05-0.083-0.076c-4.352-4.123-10.634-6.213-18.67-6.213
			c-8.354,0-16.351,2.252-20.373,3.595c-2.242,0.748-4.686,0.748-6.928,0c-4.021-1.343-12.017-3.595-20.373-3.595
			c-8.036,0-14.318,2.09-18.67,6.213c-0.027,0.026-0.055,0.051-0.083,0.076c-9.521,8.367-11.85,19.944-6.935,34.432h20.396v-6.433
			c0-6.243,5.079-11.321,11.321-11.321h35.613c6.242,0,11.321,5.079,11.321,11.321V143.372z"/>
	</g>
	<g>
		<polygon class="st6" points="145.767,74.664 128,48.53 110.233,74.664 92.465,48.53 92.465,90.645 128,90.645 163.535,90.645 
			163.535,48.53 		"/>
	</g>
	<g>
		<polygon class="st8" points="151.36,90.645 163.535,90.645 163.535,48.53 151.36,66.438 		"/>
	</g>
	<g>
		<circle class="st2" cx="128" cy="75.103" r="5.515"/>
	</g>
	<g>
		<circle class="st3" cx="92.465" cy="43.015" r="5.515"/>
	</g>
	<g>
		<circle class="st3" cx="128" cy="43.015" r="5.515"/>
	</g>
	<g>
		<circle class="st4" cx="163.535" cy="43.015" r="5.515"/>
	</g>
	<g>
		<path class="st0" d="M163.534,93.645H92.466c-1.657,0-3-1.343-3-3V48.53c0-1.317,0.859-2.48,2.117-2.867
			c1.26-0.388,2.623,0.09,3.364,1.181l15.285,22.484l15.287-22.484c0.558-0.822,1.487-1.313,2.48-1.313s1.923,0.492,2.48,1.313
			l15.287,22.484l15.285-22.484c0.741-1.089,2.105-1.567,3.364-1.181c1.258,0.387,2.117,1.55,2.117,2.867v42.115
			C166.534,92.302,165.191,93.645,163.534,93.645z M95.466,87.645h65.068V58.279l-12.285,18.071
			c-0.559,0.822-1.488,1.313-2.481,1.313s-1.923-0.492-2.48-1.313L128,53.866l-15.287,22.484c-0.558,0.822-1.487,1.313-2.48,1.313
			l0,0c-0.993,0-1.923-0.492-2.481-1.313L95.466,58.279V87.645z"/>
	</g>
	<g>
		<path class="st0" d="M92.466,51.53c-4.695,0-8.516-3.82-8.516-8.515s3.82-8.515,8.516-8.515s8.515,3.82,8.515,8.515
			S97.161,51.53,92.466,51.53z M92.466,40.5c-1.387,0-2.516,1.128-2.516,2.515s1.129,2.515,2.516,2.515s2.515-1.128,2.515-2.515
			S93.853,40.5,92.466,40.5z"/>
	</g>
	<g>
		<path class="st0" d="M128,51.53c-4.695,0-8.515-3.82-8.515-8.515S123.305,34.5,128,34.5s8.516,3.82,8.516,8.515
			S132.695,51.53,128,51.53z M128,40.5c-1.387,0-2.515,1.128-2.515,2.515s1.128,2.515,2.515,2.515s2.516-1.128,2.516-2.515
			S129.387,40.5,128,40.5z"/>
	</g>
	<g>
		<path class="st0" d="M128,83.618c-4.695,0-8.515-3.82-8.515-8.515s3.819-8.515,8.515-8.515s8.516,3.82,8.516,8.515
			S132.695,83.618,128,83.618z M128,72.587c-1.387,0-2.515,1.128-2.515,2.515s1.128,2.515,2.515,2.515s2.516-1.128,2.516-2.515
			S129.387,72.587,128,72.587z"/>
	</g>
	<g>
		<path class="st0" d="M163.535,51.53c-4.695,0-8.516-3.82-8.516-8.515s3.82-8.515,8.516-8.515s8.515,3.82,8.515,8.515
			S168.23,51.53,163.535,51.53z M163.535,40.5c-1.387,0-2.516,1.128-2.516,2.515s1.129,2.515,2.516,2.515s2.515-1.128,2.515-2.515
			S164.922,40.5,163.535,40.5z"/>
	</g>
</g>
</svg>
