<?xml version="1.0" encoding="utf-8"?>
<!-- Generator: Adobe Illustrator 18.0.0, SVG Export Plug-In . SVG Version: 6.00 Build 0)  -->
<!DOCTYPE svg PUBLIC "-//W3C//DTD SVG 1.1//EN" "http://www.w3.org/Graphics/SVG/1.1/DTD/svg11.dtd">
<svg version="1.1" id="Layer_1" xmlns="http://www.w3.org/2000/svg" xmlns:xlink="http://www.w3.org/1999/xlink" x="0px" y="0px"
	 viewBox="0 0 256 256" style="enable-background:new 0 0 256 256;" xml:space="preserve">
<style type="text/css">
	.st0{fill:#504774;}
	.st1{fill:#F1C48B;}
	.st2{fill:#FFFFFF;}
	.st3{fill:#D5E6F7;}
	.st4{fill:#A0D1F2;}
	.st5{fill:#7BABF3;}
	.st6{fill:#FD919F;}
	.st7{fill:#D4E7F8;}
	.st8{fill:#E0667D;}
	.st9{fill:#484771;}
</style>
<g>
	<g>
		<circle class="st1" cx="128" cy="128" r="103.873"/>
	</g>
	<g>
		<path class="st8" d="M190.119,128.613c14.488,0,24.037-14.931,18.146-28.167C195.635,72.071,164.488,52,128.066,52
			c-36.702,0-68.048,20.381-80.487,49.102c-5.636,13.014,4.238,27.511,18.42,27.511H190.119z"/>
	</g>
	<g>
		<path class="st6" d="M128.066,90.08c-20.497,0-40.095-1.594-58.208-4.464c-2.677,7.93-4.148,16.544-4.148,25.554
			c0,6.019,0.661,11.861,1.892,17.443h120.795c1.232-5.582,1.892-11.424,1.892-17.443c0-9.002-1.466-17.61-4.138-25.534
			C168.072,88.493,148.517,90.08,128.066,90.08z"/>
	</g>
	<g>
		<path class="st2" d="M58.32,83.601c21.195,4.155,44.824,6.479,69.747,6.479c24.922,0,48.551-2.324,69.746-6.479
			C182.14,64.456,156.746,52,128.066,52C99.386,52,73.993,64.456,58.32,83.601z"/>
	</g>
	<g>
		<path class="st3" d="M128.066,52c-3.437,0-6.824,0.189-10.156,0.537c14.866,1.552,28.573,6.465,40.135,13.861
			c9.076,5.805,5.857,19.731-4.839,21.013c-11.317,1.357-23.129,2.219-35.296,2.53c3.361,0.086,6.743,0.138,10.156,0.138
			c24.922,0,48.551-2.324,69.746-6.479C182.14,64.456,156.746,52,128.066,52z"/>
	</g>
	<g>
		<path class="st0" d="M128.066,93.08c-24.543,0-48.204-2.199-70.324-6.536c-1.035-0.203-1.888-0.935-2.245-1.928
			s-0.167-2.1,0.501-2.917C72.761,61.224,99.702,49,128.066,49c28.363,0,55.305,12.224,72.067,32.7
			c0.668,0.816,0.858,1.924,0.501,2.917s-1.21,1.725-2.245,1.928C176.27,90.881,152.609,93.08,128.066,93.08z M64.046,81.622
			c20.253,3.624,41.76,5.458,64.021,5.458c22.26,0,43.768-1.835,64.02-5.458C176.336,64.869,152.797,55,128.066,55
			C103.335,55,79.796,64.869,64.046,81.622z"/>
	</g>
	<g>
		<path class="st0" d="M128.066,93.08c-1.657,0-3-1.343-3-3V52c0-1.657,1.343-3,3-3s3,1.343,3,3v38.08
			C131.066,91.737,129.724,93.08,128.066,93.08z"/>
	</g>
	<g>
		<path class="st0" d="M96.399,91.81c-1.657,0-3-1.343-3-3V57.304c0-1.657,1.343-3,3-3s3,1.343,3,3V88.81
			C99.399,90.467,98.057,91.81,96.399,91.81z"/>
	</g>
	<g>
		<path class="st0" d="M159.647,91.81c-1.657,0-3-1.343-3-3V57.304c0-1.657,1.343-3,3-3s3,1.343,3,3V88.81
			C162.647,90.467,161.305,91.81,159.647,91.81z"/>
	</g>
	<g>
		<path class="st0" d="M190.119,131.613H65.999c-7.786,0-14.994-3.898-19.281-10.427c-4.19-6.382-4.897-14.336-1.892-21.277
			c6.436-14.858,17.609-27.541,32.314-36.677C92.126,53.921,109.735,49,128.065,49c36.803,0,69.359,19.715,82.94,50.226
			c3.2,7.19,2.562,15.408-1.709,21.984C205.066,127.724,197.896,131.613,190.119,131.613z M128.065,55
			c-34.243,0-65.481,19.006-77.733,47.294c-2.233,5.156-1.723,10.842,1.401,15.599c3.174,4.834,8.507,7.72,14.266,7.72h124.12
			c5.823,0,10.979-2.796,14.146-7.671c3.16-4.865,3.63-10.949,1.259-16.276C192.905,73.317,162.501,55,128.065,55z"/>
	</g>
	<g>
		<path class="st0" d="M188.397,131.613H67.603c-1.408,0-2.626-0.979-2.93-2.354c-1.303-5.905-1.963-11.991-1.963-18.089
			c0-9.128,1.449-18.048,4.306-26.513c0.468-1.387,1.867-2.238,3.313-2.003c18.541,2.938,37.968,4.427,57.738,4.427
			c19.726,0,39.11-1.483,57.616-4.408c1.451-0.229,2.845,0.619,3.312,2.005c2.85,8.453,4.295,17.366,4.295,26.493
			c0,6.102-0.66,12.188-1.962,18.089C191.023,130.634,189.806,131.613,188.397,131.613z M70.052,125.613h115.896
			c0.891-4.737,1.341-9.584,1.341-14.443c0-7.614-1.081-15.062-3.217-22.179c-18.043,2.714-36.87,4.089-56.006,4.089
			c-19.182,0-38.051-1.381-56.13-4.107c-2.142,7.126-3.227,14.581-3.227,22.197C68.71,116.027,69.161,120.875,70.052,125.613z"/>
	</g>
	<g>
		<path class="st0" d="M69.889,192.669c-9.959,0-18.061-8.102-18.061-18.06v-4.185c0-8.465,6.887-15.352,15.353-15.352
			c1.657,0,3,1.343,3,3s-1.343,3-3,3c-5.157,0-9.353,4.195-9.353,9.352v4.185c0,6.65,5.41,12.06,12.061,12.06
			c6.649,0,12.06-5.41,12.06-12.06v-58.063c0-1.657,1.343-3,3-3s3,1.343,3,3v58.063C87.948,184.567,79.847,192.669,69.889,192.669z"
			/>
	</g>
	<g>
		<path class="st0" d="M186.111,192.669c-9.958,0-18.06-8.102-18.06-18.06v-58.063c0-1.657,1.343-3,3-3s3,1.343,3,3v58.063
			c0,6.65,5.41,12.06,12.06,12.06c6.65,0,12.061-5.41,12.061-12.06v-4.185c0-5.156-4.195-9.352-9.353-9.352c-1.657,0-3-1.343-3-3
			s1.343-3,3-3c8.466,0,15.353,6.887,15.353,15.352v4.185C204.172,184.567,196.07,192.669,186.111,192.669z"/>
	</g>
	<g>
		<path class="st0" d="M161.313,207c-9.743,0-17.669-7.926-17.669-17.669v-82.216c0-1.657,1.343-3,3-3s3,1.343,3,3v82.216
			c0,6.435,5.234,11.669,11.669,11.669c1.657,0,3,1.343,3,3S162.971,207,161.313,207z"/>
	</g>
	<g>
		<path class="st0" d="M95.752,207c-1.657,0-3-1.343-3-3s1.343-3,3-3c6.435,0,11.67-5.235,11.67-11.669v-82.216c0-1.657,1.343-3,3-3
			s3,1.343,3,3v82.216C113.422,199.074,105.495,207,95.752,207z"/>
	</g>
	<g>
		<path class="st0" d="M128.066,186.688c-1.657,0-3-1.343-3-3v-37.351c0-1.657,1.343-3,3-3s3,1.343,3,3v37.351
			C131.066,185.345,129.724,186.688,128.066,186.688z"/>
	</g>
</g>
</svg>
