<?xml version="1.0" encoding="utf-8"?>
<!-- Generator: Adobe Illustrator 18.0.0, SVG Export Plug-In . SVG Version: 6.00 Build 0)  -->
<!DOCTYPE svg PUBLIC "-//W3C//DTD SVG 1.1//EN" "http://www.w3.org/Graphics/SVG/1.1/DTD/svg11.dtd">
<svg version="1.1" id="Layer_1" xmlns="http://www.w3.org/2000/svg" xmlns:xlink="http://www.w3.org/1999/xlink" x="0px" y="0px"
	 viewBox="0 0 256 256" style="enable-background:new 0 0 256 256;" xml:space="preserve">
<style type="text/css">
	.st0{fill:#504774;}
	.st1{fill:#F1C48B;}
	.st2{fill:#FFFFFF;}
	.st3{fill:#D5E6F7;}
	.st4{fill:#A0D1F2;}
	.st5{fill:#7BABF3;}
	.st6{fill:#FD919F;}
	.st7{fill:#D4E7F8;}
	.st8{fill:#E0667D;}
	.st9{fill:#484771;}
</style>
<g>
	<g>
		<circle class="st1" cx="128" cy="128" r="103.873"/>
	</g>
	<g>
		<path class="st6" d="M186.75,173.299c-6.489,0-11.75-5.261-11.75-11.75v3.503c0,6.489-5.261,11.75-11.75,11.75
			c-6.489,0-11.75-5.261-11.75-11.75c0,6.489-5.261,11.75-11.75,11.75c-6.489,0-11.75-5.261-11.75-11.75
			c0,6.489-5.261,11.75-11.75,11.75c-6.489,0-11.75-5.261-11.75-11.75c0,6.489-5.261,11.75-11.75,11.75
			c-6.489,0-11.75-5.261-11.75-11.75v-3.503c0,6.489-5.261,11.75-11.75,11.75c-6.489,0-11.75-5.261-11.75-11.75v29.655l0,0
			c46.682,7.732,94.318,7.732,141,0l0,0v-29.655C198.5,168.039,193.239,173.299,186.75,173.299z"/>
	</g>
	<g>
		<path class="st8" d="M186.75,173.299c-3.355,0-6.374-1.413-8.515-3.668v24.418c6.77-0.794,13.528-1.729,20.264-2.845l0,0v-29.655
			C198.5,168.039,193.239,173.299,186.75,173.299z"/>
	</g>
	<g>
		<path class="st6" d="M198.5,70.37c-45.777-15.164-95.223-15.164-141,0l0,0v21.58h4.695c8.599,0,15.569,6.971,15.569,15.569V95.453
			h4.695c8.561,0,15.503,6.911,15.564,15.458h0.006V95.453h18.489c6.341,0,11.482,5.141,11.482,11.482
			c0-6.341,5.141-11.482,11.482-11.482h18.489v15.458h0.006c0.061-8.547,7.003-15.458,15.564-15.458h4.695v12.066
			c0-8.599,6.971-15.569,15.569-15.569h4.695L198.5,70.37L198.5,70.37z"/>
	</g>
	<g>
		<path class="st8" d="M178.235,64.708v30.745v12.066c0-8.599,6.971-15.569,15.569-15.569h4.695V70.37l0,0
			C191.816,68.156,185.053,66.275,178.235,64.708z"/>
	</g>
	<g>
		<path class="st2" d="M69.25,173.299L69.25,173.299c-6.489,0-11.75-5.261-11.75-11.75v-16.664H81v16.664
			C81,168.039,75.739,173.299,69.25,173.299z"/>
	</g>
	<g>
		<path class="st2" d="M92.75,176.802L92.75,176.802c-6.489,0-11.75-5.261-11.75-11.75v-16.664h23.5v16.664
			C104.5,171.542,99.239,176.802,92.75,176.802z"/>
	</g>
	<g>
		<path class="st2" d="M116.25,176.802L116.25,176.802c-6.489,0-11.75-5.261-11.75-11.75v-16.664H128v16.664
			C128,171.542,122.739,176.802,116.25,176.802z"/>
	</g>
	<g>
		<path class="st2" d="M139.75,176.802L139.75,176.802c-6.489,0-11.75-5.261-11.75-11.75v-16.664h23.5v16.664
			C151.5,171.542,146.239,176.802,139.75,176.802z"/>
	</g>
	<g>
		<path class="st2" d="M163.25,176.802L163.25,176.802c-6.489,0-11.75-5.261-11.75-11.75v-16.664H175v16.664
			C175,171.542,169.739,176.802,163.25,176.802z"/>
	</g>
	<g>
		<path class="st3" d="M186.75,173.299L186.75,173.299c-6.489,0-11.75-5.261-11.75-11.75v-16.664h23.5v16.664
			C198.5,168.039,193.239,173.299,186.75,173.299z"/>
	</g>
	<g>
		<path class="st2" d="M122.487,135.174h-18.945c-3.045,0-5.513-2.468-5.513-5.513V95.453h18.489
			c6.341,0,11.482,5.141,11.482,11.482v22.726C128,132.706,125.532,135.174,122.487,135.174z"/>
	</g>
	<g>
		<path class="st2" d="M152.458,135.174h-18.945c-3.045,0-5.513-2.468-5.513-5.513v-22.726c0-6.341,5.141-11.482,11.482-11.482
			h18.488v34.209C157.971,132.706,155.503,135.174,152.458,135.174z"/>
	</g>
	<g>
		<path class="st2" d="M172.722,130.368h-14.752v-19.345c0-8.599,6.971-15.569,15.569-15.569h4.695v29.402
			C178.235,127.899,175.767,130.368,172.722,130.368z"/>
	</g>
	<g>
		<path class="st3" d="M192.987,126.865h-14.752v-19.345c0-8.599,6.971-15.569,15.569-15.569h4.695v29.402
			C198.5,124.396,196.032,126.865,192.987,126.865z"/>
	</g>
	<g>
		<path class="st2" d="M77.765,126.865H63.013c-3.045,0-5.513-2.468-5.513-5.513V91.95h4.695c8.599,0,15.569,6.971,15.569,15.569
			V126.865z"/>
	</g>
	<g>
		<path class="st2" d="M98.029,130.368H83.277c-3.045,0-5.513-2.468-5.513-5.513V95.453h4.695c8.599,0,15.569,6.971,15.569,15.569
			V130.368z"/>
	</g>
	<g>
		<path class="st0" d="M128,200.003c-23.712,0-47.597-1.964-70.99-5.839c-1.448-0.24-2.51-1.492-2.51-2.959v-29.655
			c0-1.657,1.343-3,3-3s3,1.343,3,3c0,4.825,3.925,8.75,8.75,8.75s8.75-3.925,8.75-8.75c0-1.657,1.343-3,3-3s3,1.343,3,3v3.503
			c0,4.825,3.925,8.75,8.75,8.75s8.75-3.925,8.75-8.75c0-1.657,1.343-3,3-3s3,1.343,3,3c0,4.825,3.925,8.75,8.75,8.75
			s8.75-3.925,8.75-8.75c0-1.657,1.343-3,3-3s3,1.343,3,3c0,4.825,3.925,8.75,8.75,8.75s8.75-3.925,8.75-8.75c0-1.657,1.343-3,3-3
			s3,1.343,3,3c0,4.825,3.925,8.75,8.75,8.75s8.75-3.925,8.75-8.75v-3.503c0-1.657,1.343-3,3-3s3,1.343,3,3
			c0,4.825,3.925,8.75,8.75,8.75s8.75-3.925,8.75-8.75c0-1.657,1.343-3,3-3s3,1.343,3,3v29.655c0,1.468-1.062,2.72-2.51,2.959
			C175.597,198.039,151.712,200.003,128,200.003z M60.5,188.652c22.267,3.551,44.963,5.351,67.5,5.351s45.233-1.8,67.5-5.351
			v-15.235c-2.449,1.811-5.477,2.882-8.75,2.882c-4.084,0-7.786-1.668-10.459-4.359c-2.478,4.673-7.394,7.862-13.041,7.862
			c-4.79,0-9.054-2.295-11.75-5.843c-2.696,3.548-6.96,5.843-11.75,5.843s-9.054-2.295-11.75-5.843
			c-2.696,3.548-6.96,5.843-11.75,5.843s-9.054-2.295-11.75-5.843c-2.696,3.548-6.96,5.843-11.75,5.843
			c-5.647,0-10.563-3.189-13.041-7.862c-2.673,2.691-6.375,4.359-10.459,4.359c-3.273,0-6.301-1.072-8.75-2.882V188.652z"/>
	</g>
	<g>
		<path class="st0" d="M69.25,176.299c-8.133,0-14.75-6.617-14.75-14.75v-16.664c0-1.657,1.343-3,3-3H81c1.657,0,3,1.343,3,3v16.664
			C84,169.683,77.383,176.299,69.25,176.299z M60.5,147.885v13.664c0,4.825,3.925,8.75,8.75,8.75s8.75-3.925,8.75-8.75v-13.664H60.5
			z"/>
	</g>
	<g>
		<path class="st0" d="M92.75,179.802c-8.133,0-14.75-6.617-14.75-14.75v-16.664c0-1.657,1.343-3,3-3h23.5c1.657,0,3,1.343,3,3
			v16.664C107.5,173.186,100.883,179.802,92.75,179.802z M84,151.389v13.664c0,4.825,3.925,8.75,8.75,8.75s8.75-3.925,8.75-8.75
			v-13.664H84z"/>
	</g>
	<g>
		<path class="st0" d="M116.25,179.802c-8.133,0-14.75-6.617-14.75-14.75v-16.664c0-1.657,1.343-3,3-3H128c1.657,0,3,1.343,3,3
			v16.664C131,173.186,124.383,179.802,116.25,179.802z M107.5,151.389v13.664c0,4.825,3.925,8.75,8.75,8.75s8.75-3.925,8.75-8.75
			v-13.664H107.5z"/>
	</g>
	<g>
		<path class="st0" d="M139.75,179.802c-8.133,0-14.75-6.617-14.75-14.75v-16.664c0-1.657,1.343-3,3-3h23.5c1.657,0,3,1.343,3,3
			v16.664C154.5,173.186,147.883,179.802,139.75,179.802z M131,151.389v13.664c0,4.825,3.925,8.75,8.75,8.75s8.75-3.925,8.75-8.75
			v-13.664H131z"/>
	</g>
	<g>
		<path class="st0" d="M163.25,179.802c-8.133,0-14.75-6.617-14.75-14.75v-16.664c0-1.657,1.343-3,3-3H175c1.657,0,3,1.343,3,3
			v16.664C178,173.186,171.383,179.802,163.25,179.802z M154.5,151.389v13.664c0,4.825,3.925,8.75,8.75,8.75s8.75-3.925,8.75-8.75
			v-13.664H154.5z"/>
	</g>
	<g>
		<path class="st0" d="M186.75,176.299c-8.133,0-14.75-6.617-14.75-14.75v-16.664c0-1.657,1.343-3,3-3h23.5c1.657,0,3,1.343,3,3
			v16.664C201.5,169.683,194.883,176.299,186.75,176.299z M178,147.885v13.664c0,4.825,3.925,8.75,8.75,8.75s8.75-3.925,8.75-8.75
			v-13.664H178z"/>
	</g>
	<g>
		<path class="st0" d="M157.977,113.911h-0.006c-1.657,0-3-1.343-3-3V98.453h-15.488c-4.677,0-8.482,3.805-8.482,8.482
			c0,1.657-1.343,3-3,3s-3-1.343-3-3c0-4.677-3.805-8.482-8.482-8.482h-15.488v12.458c0,1.657-1.343,3-3,3
			c-1.648,0-2.994-1.33-3.006-2.979c-0.049-6.881-5.685-12.479-12.563-12.479h-1.695v9.066c0,1.657-1.343,3-3,3s-3-1.343-3-3
			c0-6.931-5.639-12.569-12.569-12.569H57.5c-1.657,0-3-1.343-3-3V70.37c0-1.293,0.829-2.441,2.057-2.848
			C79.643,59.875,103.68,55.997,128,55.997s48.357,3.877,71.443,11.525c1.228,0.407,2.057,1.554,2.057,2.848v21.58
			c0,1.657-1.343,3-3,3h-4.695c-6.931,0-12.569,5.639-12.569,12.569c0,1.657-1.343,3-3,3s-3-1.343-3-3v-9.066h-1.695
			c-6.879,0-12.515,5.598-12.563,12.479C160.965,112.581,159.625,113.911,157.977,113.911z M98.029,92.453h18.488
			c4.671,0,8.833,2.223,11.482,5.666c2.65-3.443,6.812-5.666,11.482-5.666h18.488c1.657,0,3,1.343,3,3v1.93
			c3.313-3.058,7.733-4.93,12.569-4.93h4.695c1.188,0,2.214,0.69,2.7,1.691c3.34-3.215,7.877-5.195,12.869-5.195h1.695V72.548
			c-21.846-7.002-44.543-10.551-67.5-10.551s-45.654,3.549-67.5,10.551V88.95h1.695c4.992,0,9.529,1.979,12.869,5.195
			c0.486-1.001,1.513-1.691,2.7-1.691h4.695c4.836,0,9.256,1.872,12.569,4.931v-1.931C95.029,93.796,96.373,92.453,98.029,92.453z"
			/>
	</g>
	<g>
		<path class="st0" d="M122.487,138.174h-18.945c-4.694,0-8.513-3.819-8.513-8.513V95.453c0-1.657,1.343-3,3-3h18.488
			c7.986,0,14.482,6.497,14.482,14.482v22.727C131,134.355,127.181,138.174,122.487,138.174z M101.029,98.453v31.208
			c0,1.386,1.127,2.513,2.513,2.513h18.945c1.386,0,2.513-1.127,2.513-2.513v-22.727c0-4.677-3.805-8.482-8.482-8.482H101.029z"/>
	</g>
	<g>
		<path class="st0" d="M152.458,138.174h-18.945c-4.694,0-8.513-3.819-8.513-8.513v-22.727c0-7.985,6.497-14.482,14.482-14.482
			h18.488c1.657,0,3,1.343,3,3v34.208C160.971,134.355,157.152,138.174,152.458,138.174z M139.482,98.453
			c-4.677,0-8.482,3.805-8.482,8.482v22.727c0,1.386,1.127,2.513,2.513,2.513h18.945c1.386,0,2.513-1.127,2.513-2.513V98.453
			H139.482z"/>
	</g>
	<g>
		<path class="st0" d="M172.723,133.368h-14.752c-1.657,0-3-1.343-3-3v-19.345c0-10.239,8.33-18.569,18.569-18.569h4.695
			c1.657,0,3,1.343,3,3v29.401C181.235,129.549,177.417,133.368,172.723,133.368z M160.971,127.368h11.752
			c1.386,0,2.513-1.127,2.513-2.513V98.453h-1.695c-6.931,0-12.569,5.639-12.569,12.569V127.368z"/>
	</g>
	<g>
		<path class="st0" d="M192.987,129.864h-14.751c-1.657,0-3-1.343-3-3v-19.345c0-10.239,8.33-18.569,18.569-18.569h4.695
			c1.657,0,3,1.343,3,3v29.402C201.5,126.045,197.681,129.864,192.987,129.864z M181.235,123.864h11.751
			c1.386,0,2.513-1.127,2.513-2.513V94.95h-1.695c-6.931,0-12.569,5.639-12.569,12.569V123.864z"/>
	</g>
	<g>
		<path class="st0" d="M77.765,129.864H63.013c-4.694,0-8.513-3.819-8.513-8.513V91.95c0-1.657,1.343-3,3-3h4.695
			c10.239,0,18.569,8.33,18.569,18.569v19.345C80.765,128.521,79.421,129.864,77.765,129.864z M60.5,94.95v26.402
			c0,1.386,1.127,2.513,2.513,2.513h11.752v-16.345c0-6.931-5.639-12.569-12.569-12.569H60.5z"/>
	</g>
	<g>
		<path class="st0" d="M98.029,133.368H83.277c-4.694,0-8.513-3.819-8.513-8.513V95.453c0-1.657,1.343-3,3-3h4.695
			c10.239,0,18.569,8.33,18.569,18.569v19.345C101.029,132.024,99.686,133.368,98.029,133.368z M80.765,98.453v26.401
			c0,1.386,1.127,2.513,2.513,2.513h11.752v-16.345c0-6.931-5.639-12.569-12.569-12.569H80.765z"/>
	</g>
</g>
</svg>
