<?xml version="1.0" encoding="utf-8"?>
<!-- Generator: Adobe Illustrator 18.0.0, SVG Export Plug-In . SVG Version: 6.00 Build 0)  -->
<!DOCTYPE svg PUBLIC "-//W3C//DTD SVG 1.1//EN" "http://www.w3.org/Graphics/SVG/1.1/DTD/svg11.dtd">
<svg version="1.1" id="Layer_1" xmlns="http://www.w3.org/2000/svg" xmlns:xlink="http://www.w3.org/1999/xlink" x="0px" y="0px"
	 viewBox="0 0 256 256" style="enable-background:new 0 0 256 256;" xml:space="preserve">
<style type="text/css">
	.st0{fill:#504774;}
	.st1{fill:#F1C48B;}
	.st2{fill:#FFFFFF;}
	.st3{fill:#D5E6F7;}
	.st4{fill:#A0D1F2;}
	.st5{fill:#7BABF3;}
	.st6{fill:#FD919F;}
	.st7{fill:#D4E7F8;}
	.st8{fill:#E0667D;}
	.st9{fill:#484771;}
</style>
<g>
	<g>
		<circle class="st1" cx="128" cy="128" r="103.873"/>
	</g>
	<g>
		<path class="st2" d="M109.048,90.337c-8.56-8.11-23.843-3.979-28.978-2.266c-1.129,0.377-2.345,0.377-3.474,0
			c-5.135-1.713-20.418-5.844-28.978,2.266c-14.033,12.332-4.111,30.941,1.012,38.627c1.634,2.451,2.527,5.315,2.621,8.259
			c0.544,17.02,3.969,33.287,9.227,33.287c5.746,0,6.293-6.567,6.293-21.224c0-6.968,2.613-11.11,5.354-13.539
			c3.518-3.116,8.895-3.116,12.413,0c2.741,2.428,5.354,6.57,5.354,13.539c0,14.657,0.547,21.224,6.293,21.224
			c5.258,0,8.683-16.267,9.227-33.287c0.094-2.944,0.987-5.808,2.621-8.259C113.159,121.278,123.081,102.669,109.048,90.337z"/>
	</g>
	<g>
		<g>
			<path class="st3" d="M109.048,90.337c-5.086-4.818-12.544-5.316-18.837-4.567c3.72,0.527,7.319,1.865,10.171,4.567
				c14.032,12.332,4.11,30.941-1.012,38.627c-1.634,2.451-2.527,5.315-2.621,8.259c-0.393,12.311-2.295,24.224-5.307,29.876
				c0.929,2.295,2.399,3.411,4.746,3.411c5.258,0,8.683-16.267,9.227-33.287c0.094-2.944,0.987-5.808,2.621-8.259
				C113.159,121.278,123.081,102.669,109.048,90.337z"/>
		</g>
	</g>
	<g>
		<path class="st0" d="M96.188,173.511c-9.293,0-9.293-10.69-9.293-24.224c0-4.94-1.462-8.74-4.344-11.293
			c-1.152-1.021-2.65-1.583-4.218-1.583s-3.064,0.562-4.217,1.583c-2.882,2.553-4.344,6.353-4.344,11.293
			c0,13.534,0,24.224-9.294,24.224c-10.271,0-11.954-27.702-12.225-36.192c-0.078-2.414-0.811-4.728-2.119-6.691
			c-5.428-8.142-16.337-28.573-0.538-42.507c3.969-3.737,9.455-5.632,16.31-5.632c6.473,0,12.577,1.715,15.64,2.737
			c0.513,0.171,1.065,0.17,1.574,0c3.063-1.022,9.168-2.737,15.641-2.737c6.854,0,12.341,1.895,16.309,5.632
			c15.8,13.935,4.891,34.365-0.537,42.508c-1.31,1.965-2.042,4.278-2.119,6.691C108.143,145.81,106.459,173.511,96.188,173.511z
			 M78.333,130.412c3.034,0,5.945,1.098,8.196,3.091c2.903,2.572,6.365,7.398,6.365,15.784c0,13.979,0.723,18.132,3.209,18.223
			c1.864-0.932,5.691-10.939,6.313-30.382c0.112-3.532,1.192-6.93,3.123-9.827c5.659-8.491,13.384-24.292,1.527-34.71
			c-0.028-0.024-0.056-0.05-0.083-0.076c-2.819-2.672-6.933-4.026-12.224-4.026c-5.624,0-11.023,1.521-13.741,2.428
			c-1.735,0.58-3.634,0.58-5.373,0c-2.717-0.907-8.116-2.428-13.74-2.428c-5.292,0-9.404,1.355-12.225,4.026
			c-0.027,0.026-0.055,0.051-0.083,0.076c-11.855,10.418-4.131,26.219,1.528,34.709c1.93,2.896,3.01,6.293,3.123,9.827
			c0.622,19.443,4.448,29.451,6.313,30.383c2.487-0.091,3.21-4.243,3.21-18.223c0-8.386,3.462-13.212,6.365-15.784
			C72.388,131.509,75.299,130.412,78.333,130.412z"/>
	</g>
	<g>
		<path class="st2" d="M208.382,90.337c-8.56-8.11-23.843-3.979-28.978-2.266c-1.129,0.377-2.345,0.377-3.474,0
			c-5.135-1.713-20.418-5.844-28.978,2.266c-14.033,12.332-4.111,30.941,1.012,38.627c1.634,2.451,2.527,5.315,2.621,8.259
			c0.544,17.02,3.969,33.287,9.227,33.287c5.746,0,6.294-6.567,6.294-21.224c0-6.968,2.613-11.11,5.354-13.539
			c3.518-3.116,8.895-3.116,12.413,0c2.742,2.428,5.354,6.57,5.354,13.539c0,14.657,0.547,21.224,6.294,21.224
			c5.258,0,8.683-16.267,9.227-33.287c0.094-2.944,0.987-5.808,2.621-8.259C212.492,121.278,222.414,102.669,208.382,90.337z"/>
	</g>
	<g>
		<g>
			<path class="st3" d="M208.382,90.337c-5.086-4.818-12.544-5.316-18.837-4.567c3.72,0.527,7.319,1.865,10.171,4.567
				c14.033,12.332,4.11,30.941-1.012,38.627c-1.634,2.451-2.527,5.315-2.621,8.259c-0.394,12.311-2.295,24.224-5.307,29.876
				c0.929,2.295,2.399,3.411,4.746,3.411c5.258,0,8.683-16.267,9.227-33.287c0.094-2.944,0.987-5.808,2.621-8.259
				C212.492,121.278,222.414,102.669,208.382,90.337z"/>
		</g>
	</g>
	<g>
		<path class="st0" d="M195.521,173.511c-9.294,0-9.294-10.69-9.294-24.224c0-4.94-1.462-8.74-4.344-11.293
			c-1.152-1.021-2.649-1.583-4.217-1.583s-3.065,0.562-4.218,1.583c-2.882,2.553-4.344,6.353-4.344,11.293
			c0,13.534,0,24.224-9.293,24.224c-10.271,0-11.955-27.702-12.226-36.192c-0.077-2.413-0.81-4.726-2.119-6.691
			c-5.428-8.142-16.337-28.573-0.537-42.507c3.968-3.737,9.455-5.632,16.309-5.632c6.473,0,12.577,1.715,15.64,2.737
			c0.512,0.171,1.064,0.171,1.574,0c3.063-1.022,9.168-2.737,15.641-2.737c6.854,0,12.341,1.895,16.31,5.632
			c15.799,13.935,4.89,34.365-0.538,42.508c-1.309,1.963-2.041,4.277-2.119,6.692C207.476,145.81,205.792,173.511,195.521,173.511z
			 M161.239,88.489c-5.291,0-9.404,1.354-12.224,4.026c-0.027,0.026-0.055,0.051-0.083,0.076
			c-11.856,10.418-4.132,26.219,1.527,34.709c1.931,2.897,3.011,6.296,3.123,9.828c0.622,19.442,4.449,29.45,6.313,30.382
			c2.486-0.091,3.209-4.243,3.209-18.223c0-8.386,3.462-13.212,6.365-15.784c2.251-1.994,5.162-3.091,8.196-3.091
			s5.945,1.098,8.195,3.091c2.903,2.572,6.365,7.398,6.365,15.784c0,13.979,0.723,18.132,3.21,18.223
			c1.864-0.932,5.69-10.939,6.313-30.382c0.113-3.534,1.193-6.932,3.123-9.827c5.659-8.491,13.384-24.292,1.528-34.71
			c-0.028-0.024-0.056-0.05-0.083-0.076c-2.82-2.671-6.933-4.026-12.225-4.026c-5.624,0-11.023,1.521-13.741,2.428
			c-1.738,0.58-3.637,0.58-5.373,0C172.263,90.01,166.863,88.489,161.239,88.489z"/>
	</g>
	<g>
		<path class="st0" d="M116.246,187.667c-1.657,0-3-1.343-3-3V71.333c0-1.657,1.343-3,3-3s3,1.343,3,3v113.333
			C119.246,186.323,117.903,187.667,116.246,187.667z"/>
	</g>
	<g>
		<path class="st0" d="M139.754,187.667c-1.657,0-3-1.343-3-3V71.333c0-1.657,1.343-3,3-3s3,1.343,3,3v113.333
			C142.754,186.323,141.411,187.667,139.754,187.667z"/>
	</g>
</g>
</svg>
