<?xml version="1.0" encoding="utf-8"?>
<!-- Generator: Adobe Illustrator 18.0.0, SVG Export Plug-In . SVG Version: 6.00 Build 0)  -->
<!DOCTYPE svg PUBLIC "-//W3C//DTD SVG 1.1//EN" "http://www.w3.org/Graphics/SVG/1.1/DTD/svg11.dtd">
<svg version="1.1" id="Layer_1" xmlns="http://www.w3.org/2000/svg" xmlns:xlink="http://www.w3.org/1999/xlink" x="0px" y="0px"
	 viewBox="0 0 256 256" style="enable-background:new 0 0 256 256;" xml:space="preserve">
<style type="text/css">
	.st0{fill:#504774;}
	.st1{fill:#F1C48B;}
	.st2{fill:#FFFFFF;}
	.st3{fill:#D5E6F7;}
	.st4{fill:#A0D1F2;}
	.st5{fill:#7BABF3;}
	.st6{fill:#FD919F;}
	.st7{fill:#D4E7F8;}
	.st8{fill:#E0667D;}
	.st9{fill:#484771;}
</style>
<g>
	<g>
		<circle class="st1" cx="128" cy="128" r="103.873"/>
	</g>
	<g>
		<path class="st5" d="M175.371,220.667H80.629c-5.156,0-9.336-4.18-9.336-9.336V44.669c0-5.156,4.18-9.336,9.336-9.336h94.741
			c5.156,0,9.336,4.18,9.336,9.336v166.662C184.706,216.487,180.527,220.667,175.371,220.667z"/>
	</g>
	<g>
		<path class="st2" d="M163.303,81.712c-9.839-9.321-27.405-4.574-33.307-2.604c-1.297,0.433-2.695,0.433-3.993,0
			c-5.902-1.969-23.468-6.717-33.307,2.604c-16.129,14.174-4.724,35.563,1.163,44.397c1.878,2.818,2.905,6.109,3.013,9.493
			c0.625,19.563,4.562,38.26,10.606,38.26c6.605,0,7.233-7.548,7.233-24.394c0-8.009,3.003-12.77,6.154-15.561
			c4.044-3.581,10.223-3.581,14.267,0c3.151,2.791,6.154,7.552,6.154,15.561c0,16.846,0.629,24.394,7.234,24.394
			c6.044,0,9.98-18.697,10.606-38.26c0.108-3.384,1.135-6.675,3.013-9.493C168.027,117.274,179.432,95.885,163.303,81.712z"/>
	</g>
	<g>
		<path class="st3" d="M71.294,193.333v17.997c0,5.156,4.18,9.336,9.336,9.336h94.741c5.156,0,9.336-4.18,9.336-9.336v-17.997
			H71.294z"/>
	</g>
	<g>
		<path class="st3" d="M138.072,52.667h-20.144c-4.59,0-8.72-2.786-10.438-7.042l-4.156-10.291h49.333l-4.156,10.291
			C146.792,49.88,142.662,52.667,138.072,52.667z"/>
	</g>
	<g>
		<path class="st4" d="M168.706,193.333v17.997c0,5.156-4.18,9.336-9.336,9.336h16c5.156,0,9.336-4.18,9.336-9.336v-17.997H168.706z
			"/>
	</g>
	<g>
		<g>
			<path class="st3" d="M163.303,81.711c-5.651-5.354-13.85-6.063-20.925-5.327c4.477,0.547,8.835,2.084,12.258,5.327
				c16.129,14.174,4.724,35.563-1.163,44.397c-1.878,2.818-2.904,6.108-3.013,9.493c-0.482,15.094-2.938,29.663-6.809,35.536
				c1.074,1.823,2.619,2.724,4.871,2.724c6.043,0,9.98-18.697,10.605-38.26c0.108-3.384,1.135-6.675,3.012-9.493
				C168.028,117.274,179.432,95.885,163.303,81.711z"/>
		</g>
	</g>
	<g>
		<path class="st0" d="M148.521,176.861c-10.233,0-10.233-12.089-10.233-27.395c0-5.812-1.73-10.291-5.144-13.315
			c-1.406-1.245-3.233-1.932-5.145-1.932s-3.738,0.687-5.145,1.933c-3.413,3.023-5.144,7.503-5.144,13.314
			c0,15.306,0,27.395-10.233,27.395c-11.402,0-13.296-31.508-13.604-41.164c-0.092-2.857-0.96-5.599-2.511-7.925
			c-6.173-9.262-18.586-32.496-0.688-48.277c4.476-4.218,10.681-6.356,18.444-6.356c7.376,0,14.34,1.957,17.834,3.123
			c0.676,0.227,1.415,0.227,2.093,0c3.494-1.166,10.458-3.123,17.834-3.123c7.763,0,13.968,2.139,18.443,6.356
			c17.897,15.781,5.484,39.016-0.688,48.277c-1.551,2.326-2.419,5.067-2.511,7.925C161.817,145.354,159.924,176.861,148.521,176.861
			z M109.12,79.139c-6.201,0-11.032,1.599-14.359,4.751c-0.027,0.025-0.055,0.051-0.083,0.076
			c-14.4,12.654-3.623,32.523,1.679,40.479c2.172,3.259,3.388,7.084,3.515,11.062c0.724,22.64,5.275,34.87,7.621,35.356
			c3.31-0.001,4.22-4.6,4.22-21.396c0-9.471,3.896-14.91,7.165-17.806c2.505-2.22,5.745-3.441,9.123-3.441s6.618,1.222,9.123,3.44
			c3.269,2.896,7.165,8.336,7.165,17.807c0,16.782,0.908,21.388,4.226,21.395c2.347-0.503,6.892-12.732,7.615-35.355
			c0.127-3.978,1.343-7.803,3.515-11.062c5.302-7.955,16.079-27.824,1.679-40.479c-0.028-0.025-0.056-0.051-0.083-0.076
			c-3.327-3.152-8.158-4.751-14.358-4.751c-6.528,0-12.786,1.764-15.936,2.814c-1.904,0.635-3.986,0.635-5.891,0
			C121.905,80.902,115.648,79.139,109.12,79.139z"/>
	</g>
	<g>
		<path class="st0" d="M138.072,55.667h-20.145c-5.843,0-11.032-3.501-13.22-8.919l-4.156-10.292
			c-0.374-0.925-0.264-1.975,0.294-2.801c0.558-0.827,1.49-1.322,2.487-1.322h49.334c0.997,0,1.93,0.495,2.487,1.322
			c0.558,0.826,0.668,1.876,0.294,2.801l-4.156,10.292C149.104,52.166,143.915,55.667,138.072,55.667z M107.78,38.333l2.49,6.169
			c1.268,3.138,4.273,5.165,7.657,5.165h20.145c3.384,0,6.39-2.027,7.657-5.165l2.49-6.169H107.78z"/>
	</g>
	<g>
		<path class="st0" d="M175.37,223.666H80.63c-6.802,0-12.336-5.533-12.336-12.335v-17.998c0-1.657,1.343-3,3-3h113.412
			c1.657,0,3,1.343,3,3v17.998C187.706,218.133,182.172,223.666,175.37,223.666z M74.294,196.333v14.998
			c0,3.493,2.843,6.335,6.336,6.335h94.74c3.493,0,6.336-2.842,6.336-6.335v-14.998H74.294z"/>
	</g>
	<g>
		<path class="st0" d="M175.37,223.667H80.63c-6.802,0-12.336-5.534-12.336-12.336V44.669c0-6.802,5.534-12.336,12.336-12.336h94.74
			c6.802,0,12.336,5.534,12.336,12.336v166.662C187.706,218.133,182.172,223.667,175.37,223.667z M80.63,38.333
			c-3.494,0-6.336,2.842-6.336,6.336v166.662c0,3.494,2.842,6.336,6.336,6.336h94.74c3.494,0,6.336-2.842,6.336-6.336V44.669
			c0-3.494-2.842-6.336-6.336-6.336H80.63z"/>
	</g>
</g>
</svg>
