<?xml version="1.0" encoding="utf-8"?>
<!-- Generator: Adobe Illustrator 18.0.0, SVG Export Plug-In . SVG Version: 6.00 Build 0)  -->
<!DOCTYPE svg PUBLIC "-//W3C//DTD SVG 1.1//EN" "http://www.w3.org/Graphics/SVG/1.1/DTD/svg11.dtd">
<svg version="1.1" id="Layer_1" xmlns="http://www.w3.org/2000/svg" xmlns:xlink="http://www.w3.org/1999/xlink" x="0px" y="0px"
	 viewBox="0 0 256 256" style="enable-background:new 0 0 256 256;" xml:space="preserve">
<style type="text/css">
	.st0{fill:#504774;}
	.st1{fill:#F1C48B;}
	.st2{fill:#FFFFFF;}
	.st3{fill:#D5E6F7;}
	.st4{fill:#A0D1F2;}
	.st5{fill:#7BABF3;}
	.st6{fill:#FD919F;}
	.st7{fill:#D4E7F8;}
	.st8{fill:#E0667D;}
	.st9{fill:#484771;}
</style>
<g>
	<g>
		<circle class="st1" cx="128" cy="128" r="103.873"/>
	</g>
	<g>
		<path class="st2" d="M162.8,172.166c20.798-12.036,34.8-34.508,34.8-60.266h-34.8V172.166z"/>
	</g>
	<g>
		<path class="st7" d="M180.2,157.911c10.826-12.263,17.4-28.365,17.4-46.011h-17.4V157.911z"/>
	</g>
	<g>
		<path class="st2" d="M93.2,172.166V111.9H58.4C58.4,137.657,72.402,160.13,93.2,172.166z"/>
	</g>
	<g>
		<path class="st2" d="M93.2,111.9v60.266c10.24,5.926,22.118,9.334,34.8,9.334v-69.6H93.2z"/>
	</g>
	<g>
		<path class="st2" d="M162.8,111.9H128v69.6c12.682,0,24.56-3.409,34.8-9.334V111.9z"/>
	</g>
	<g>
		<path class="st0" d="M128,153.492c-21.62,0-43.241-3.298-64.261-9.895c-1.581-0.496-2.46-2.18-1.964-3.761
			c0.497-1.581,2.184-2.458,3.761-1.964c40.863,12.824,84.064,12.824,124.928,0c1.578-0.496,3.265,0.383,3.761,1.964
			s-0.383,3.265-1.964,3.761C171.241,150.193,149.62,153.492,128,153.492z"/>
	</g>
	<g>
		<path class="st0" d="M93.2,175.166c-0.519,0-1.038-0.134-1.503-0.403C69.309,161.806,55.4,137.718,55.4,111.9c0-1.657,1.343-3,3-3
			h34.8c1.657,0,3,1.343,3,3v60.266c0,1.072-0.572,2.063-1.501,2.599C94.235,175.032,93.718,175.166,93.2,175.166z M61.469,114.9
			c0.946,20.766,11.664,40.014,28.731,51.816V114.9H61.469z"/>
	</g>
	<g>
		<path class="st0" d="M128,184.5c-12.741,0-25.295-3.367-36.303-9.738c-0.927-0.537-1.497-1.526-1.497-2.597V111.9
			c0-1.657,1.343-3,3-3H128c1.657,0,3,1.343,3,3v69.6C131,183.157,129.657,184.5,128,184.5z M96.2,170.41
			c8.853,4.82,18.722,7.567,28.8,8.022V114.9H96.2V170.41z"/>
	</g>
	<g>
		<path class="st0" d="M128,184.5c-1.657,0-3-1.343-3-3v-69.6c0-1.657,1.343-3,3-3h34.8c1.657,0,3,1.343,3,3v60.266
			c0,1.071-0.57,2.06-1.497,2.597C153.295,181.133,140.741,184.5,128,184.5z M131,114.9v63.532
			c10.078-0.456,19.947-3.202,28.8-8.022V114.9H131z"/>
	</g>
	<g>
		<path class="st0" d="M162.8,175.166c-0.518,0-1.035-0.134-1.499-0.401c-0.929-0.536-1.501-1.526-1.501-2.599V111.9
			c0-1.657,1.343-3,3-3h34.8c1.657,0,3,1.343,3,3c0,25.818-13.908,49.906-36.297,62.862
			C163.838,175.031,163.318,175.166,162.8,175.166z M165.8,114.9v51.816c17.067-11.802,27.785-31.05,28.731-51.816H165.8z"/>
	</g>
	<g>
		<path class="st0" d="M42.748,125.34c-1.48,0-2.768-1.095-2.97-2.603l-0.019-0.139c-1.581-11.596,2.871-22.969,11.912-30.415
			c1.279-1.054,3.17-0.87,4.223,0.409c1.054,1.279,0.871,3.17-0.408,4.223c-7.424,6.114-11.08,15.452-9.78,24.98l0.02,0.146
			c0.22,1.642-0.934,3.152-2.576,3.372C43.015,125.332,42.881,125.34,42.748,125.34z"/>
	</g>
	<g>
		<path class="st0" d="M213.252,125.34c-0.133,0-0.267-0.009-0.401-0.027c-1.643-0.22-2.796-1.729-2.576-3.372l0.019-0.139
			c1.301-9.535-2.355-18.874-9.779-24.987c-1.279-1.053-1.462-2.944-0.408-4.223c1.052-1.279,2.943-1.462,4.223-0.409
			c9.041,7.446,13.493,18.819,11.911,30.422l-0.018,0.131C216.02,124.245,214.731,125.34,213.252,125.34z"/>
	</g>
</g>
</svg>
