<?xml version="1.0" encoding="utf-8"?>
<!-- Generator: Adobe Illustrator 18.0.0, SVG Export Plug-In . SVG Version: 6.00 Build 0)  -->
<!DOCTYPE svg PUBLIC "-//W3C//DTD SVG 1.1//EN" "http://www.w3.org/Graphics/SVG/1.1/DTD/svg11.dtd">
<svg version="1.1" id="Layer_1" xmlns="http://www.w3.org/2000/svg" xmlns:xlink="http://www.w3.org/1999/xlink" x="0px" y="0px"
	 viewBox="0 0 256 256" style="enable-background:new 0 0 256 256;" xml:space="preserve">
<style type="text/css">
	.st0{fill:#504774;}
	.st1{fill:#F1C48B;}
	.st2{fill:#FFFFFF;}
	.st3{fill:#D5E6F7;}
	.st4{fill:#A0D1F2;}
	.st5{fill:#7BABF3;}
	.st6{fill:#FD919F;}
	.st7{fill:#D4E7F8;}
	.st8{fill:#E0667D;}
	.st9{fill:#484771;}
</style>
<g>
	<g>
		<circle class="st1" cx="128" cy="128" r="103.873"/>
	</g>
	<g>
		<path class="st4" d="M113.277,58.107H92.093c-1.923,0-3.482-1.559-3.482-3.482v-10.25c0-1.923,1.559-3.482,3.482-3.482h21.184
			c1.923,0,3.482,1.559,3.482,3.482v10.25C116.759,56.548,115.2,58.107,113.277,58.107z"/>
	</g>
	<g>
		<path class="st5" d="M113.277,58.107h-4.416V40.893h4.416c1.923,0,3.482,1.559,3.482,3.482v10.25
			C116.759,56.548,115.2,58.107,113.277,58.107z"/>
	</g>
	<g>
		<rect x="43.25" y="130.357" class="st6" width="169.5" height="84.75"/>
	</g>
	<g>
		<rect x="197.75" y="130.357" class="st8" width="15" height="84.75"/>
	</g>
	<g>
		<path class="st0" d="M212.75,218.107H43.25c-1.657,0-3-1.343-3-3v-84.75c0-1.657,1.343-3,3-3h169.5c1.657,0,3,1.343,3,3v84.75
			C215.75,216.764,214.407,218.107,212.75,218.107z M46.25,212.107h163.5v-78.75H46.25V212.107z"/>
	</g>
	<g>
		<path class="st2" d="M171.55,79.957c-12.137-11.499-33.807-5.642-41.087-3.213c-1.6,0.534-3.325,0.534-4.925,0
			c-7.28-2.429-28.95-8.286-41.087,3.213c-19.896,17.485-5.828,43.87,1.435,54.768c2.317,3.476,3.583,7.536,3.716,11.71
			c0.771,24.132,5.628,47.197,13.083,47.197c8.147,0,8.923-9.311,8.923-30.093c0-9.88,3.705-15.753,7.592-19.196
			c4.988-4.418,12.611-4.418,17.6,0c3.887,3.443,7.592,9.316,7.592,19.196c0,20.781,0.776,30.093,8.923,30.093
			c7.455,0,12.312-23.065,13.083-47.197c0.133-4.175,1.4-8.234,3.716-11.71C177.378,123.827,191.446,97.441,171.55,79.957z"/>
	</g>
	<g>
		<g>
			<path class="st3" d="M171.55,79.957c-6.709-6.356-16.328-7.405-24.821-6.666c5.829,0.576,11.557,2.453,16.003,6.666
				c19.896,17.485,5.828,43.87-1.435,54.768c-2.317,3.476-3.583,7.536-3.717,11.71c-0.634,19.846-4.033,38.957-9.366,45.125
				c1.253,1.391,2.908,2.072,5.101,2.072c7.455,0,12.312-23.065,13.083-47.197c0.133-4.175,1.4-8.234,3.716-11.71
				C177.378,123.827,191.446,97.441,171.55,79.957z"/>
		</g>
	</g>
	<g>
		<path class="st0" d="M153.315,196.632c-11.924,0-11.924-14.604-11.924-33.093c0-7.379-2.214-13.083-6.581-16.951
			c-1.863-1.65-4.282-2.559-6.811-2.559s-4.947,0.909-6.811,2.559c-4.367,3.868-6.581,9.571-6.581,16.951
			c0,18.489,0,33.093-11.923,33.093c-13.783,0-15.814-41.735-16.082-50.102c-0.117-3.656-1.229-7.163-3.214-10.142
			c-7.514-11.274-22.642-39.546-0.961-58.649c5.388-5.081,12.884-7.658,22.28-7.658c9,0,17.508,2.391,21.779,3.816
			c0.979,0.327,2.046,0.327,3.026,0c4.271-1.425,12.779-3.816,21.778-3.816c9.396,0,16.893,2.577,22.28,7.658
			c21.681,19.104,6.553,47.375-0.96,58.649c-1.986,2.979-3.098,6.486-3.214,10.142C169.129,154.897,167.097,196.632,153.315,196.632
			z M128,138.03c3.996,0,7.827,1.445,10.789,4.068c3.924,3.476,8.603,10.018,8.603,21.442c0,21.522,1.218,27.093,5.924,27.093
			c3.025,0,9.155-15.212,10.084-44.293c0.152-4.775,1.611-9.367,4.219-13.278c6.643-9.967,20.131-34.875,1.951-50.851
			c-0.028-0.024-0.056-0.05-0.083-0.076c-4.239-4.016-10.36-6.052-18.195-6.052c-8.151,0-15.954,2.198-19.879,3.507
			c-2.207,0.736-4.618,0.736-6.825,0c-3.925-1.31-11.728-3.507-19.879-3.507c-7.834,0-13.956,2.037-18.195,6.052
			c-0.027,0.026-0.055,0.051-0.083,0.076c-18.18,15.977-4.692,40.884,1.951,50.852c2.607,3.911,4.065,8.502,4.219,13.277
			c0.929,29.081,7.059,44.293,10.084,44.293c4.706,0,5.923-5.57,5.923-27.093c0-11.424,4.678-17.966,8.603-21.442
			C120.173,139.475,124.004,138.03,128,138.03z"/>
	</g>
	<g>
		<path class="st0" d="M153.315,196.632c-1.657,0-3-1.343-3-3v-71.71c0-12.305-10.011-22.315-22.315-22.315
			s-22.315,10.01-22.315,22.315v71.71c0,1.657-1.343,3-3,3s-3-1.343-3-3v-71.71c0-15.613,12.702-28.315,28.315-28.315
			c15.613,0,28.315,12.702,28.315,28.315v71.71C156.315,195.289,154.972,196.632,153.315,196.632z"/>
	</g>
	<g>
		<path class="st0" d="M153.315,196.632c-1.657,0-3-1.343-3-3v-56.559c0-7.613-6.756-14.341-16.429-16.362
			c-1.622-0.339-2.662-1.928-2.323-3.55c0.338-1.622,1.925-2.667,3.55-2.323c12.483,2.608,21.202,11.752,21.202,22.235v56.559
			C156.315,195.289,154.972,196.632,153.315,196.632z"/>
	</g>
	<g>
		<path class="st0" d="M102.685,196.632c-1.657,0-3-1.343-3-3v-56.559c0-10.483,8.718-19.627,21.201-22.235
			c1.626-0.34,3.212,0.701,3.55,2.323c0.339,1.622-0.701,3.211-2.323,3.55c-9.673,2.021-16.429,8.75-16.429,16.362v56.559
			C105.685,195.289,104.342,196.632,102.685,196.632z"/>
	</g>
	<g>
		<path class="st0" d="M113.277,61.107H92.093c-3.574,0-6.482-2.908-6.482-6.482v-10.25c0-3.574,2.908-6.482,6.482-6.482h21.184
			c3.574,0,6.482,2.908,6.482,6.482v10.25C119.759,58.199,116.851,61.107,113.277,61.107z M92.093,43.893
			c-0.266,0-0.482,0.216-0.482,0.482v10.25c0,0.266,0.216,0.482,0.482,0.482h21.184c0.266,0,0.482-0.216,0.482-0.482v-10.25
			c0-0.266-0.216-0.482-0.482-0.482H92.093z"/>
	</g>
	<g>
		<path class="st0" d="M102.685,150.441c-1.657,0-3-1.343-3-3V58.107c0-1.657,1.343-3,3-3s3,1.343,3,3v89.333
			C105.685,149.098,104.342,150.441,102.685,150.441z"/>
	</g>
</g>
</svg>
