<?xml version="1.0" encoding="utf-8"?>
<!-- Generator: Adobe Illustrator 18.0.0, SVG Export Plug-In . SVG Version: 6.00 Build 0)  -->
<!DOCTYPE svg PUBLIC "-//W3C//DTD SVG 1.1//EN" "http://www.w3.org/Graphics/SVG/1.1/DTD/svg11.dtd">
<svg version="1.1" id="Layer_1" xmlns="http://www.w3.org/2000/svg" xmlns:xlink="http://www.w3.org/1999/xlink" x="0px" y="0px"
	 viewBox="0 0 256 256" style="enable-background:new 0 0 256 256;" xml:space="preserve">
<style type="text/css">
	.st0{fill:#504774;}
	.st1{fill:#F1C48B;}
	.st2{fill:#FFFFFF;}
	.st3{fill:#D5E6F7;}
	.st4{fill:#A0D1F2;}
	.st5{fill:#7BABF3;}
	.st6{fill:#FD919F;}
	.st7{fill:#D4E7F8;}
	.st8{fill:#E0667D;}
	.st9{fill:#484771;}
</style>
<g>
	<g>
		<circle class="st1" cx="128" cy="128" r="103.873"/>
	</g>
	<g>
		<rect x="50.667" y="75" class="st6" width="154.667" height="106"/>
	</g>
	<g>
		<rect x="182" y="75" class="st8" width="23.333" height="106"/>
	</g>
	<g>
		<rect x="74" y="75" class="st5" width="108" height="106"/>
	</g>
	<g>
		<path class="st0" d="M205.333,184H50.667c-1.657,0-3-1.343-3-3V75c0-1.657,1.343-3,3-3h154.667c1.657,0,3,1.343,3,3v106
			C208.333,182.657,206.99,184,205.333,184z M53.667,178h148.667V78H53.667V178z"/>
	</g>
	<g>
		<path class="st0" d="M182,184H74c-1.657,0-3-1.343-3-3V75c0-1.657,1.343-3,3-3h108c1.657,0,3,1.343,3,3v106
			C185,182.657,183.657,184,182,184z M77,178h102V78H77V178z"/>
	</g>
	<g>
		<path class="st0" d="M197,94.583h-6.333c-0.598,0-1.083-0.485-1.083-1.083v-6.333c0-0.598,0.485-1.083,1.083-1.083H197
			c0.598,0,1.083,0.485,1.083,1.083V93.5C198.083,94.098,197.598,94.583,197,94.583z"/>
	</g>
	<g>
		<path class="st0" d="M197,113.417h-6.333c-0.598,0-1.083-0.485-1.083-1.083V106c0-0.598,0.485-1.083,1.083-1.083H197
			c0.598,0,1.083,0.485,1.083,1.083v6.333C198.083,112.932,197.598,113.417,197,113.417z"/>
	</g>
	<g>
		<path class="st0" d="M197,132.25h-6.333c-0.598,0-1.083-0.485-1.083-1.083v-6.333c0-0.598,0.485-1.083,1.083-1.083H197
			c0.598,0,1.083,0.485,1.083,1.083v6.333C198.083,131.765,197.598,132.25,197,132.25z"/>
	</g>
	<g>
		<path class="st0" d="M197,151.083h-6.333c-0.598,0-1.083-0.485-1.083-1.083v-6.333c0-0.598,0.485-1.083,1.083-1.083H197
			c0.598,0,1.083,0.485,1.083,1.083V150C198.083,150.598,197.598,151.083,197,151.083z"/>
	</g>
	<g>
		<path class="st0" d="M197,169.917h-6.333c-0.598,0-1.083-0.485-1.083-1.083V162.5c0-0.598,0.485-1.083,1.083-1.083H197
			c0.598,0,1.083,0.485,1.083,1.083v6.333C198.083,169.432,197.598,169.917,197,169.917z"/>
	</g>
	<g>
		<path class="st0" d="M65.333,94.583H59c-0.598,0-1.083-0.485-1.083-1.083v-6.333c0-0.598,0.485-1.083,1.083-1.083h6.333
			c0.598,0,1.083,0.485,1.083,1.083V93.5C66.417,94.098,65.932,94.583,65.333,94.583z"/>
	</g>
	<g>
		<path class="st0" d="M65.333,113.417H59c-0.598,0-1.083-0.485-1.083-1.083V106c0-0.598,0.485-1.083,1.083-1.083h6.333
			c0.598,0,1.083,0.485,1.083,1.083v6.333C66.417,112.932,65.932,113.417,65.333,113.417z"/>
	</g>
	<g>
		<path class="st0" d="M65.333,132.25H59c-0.598,0-1.083-0.485-1.083-1.083v-6.333c0-0.598,0.485-1.083,1.083-1.083h6.333
			c0.598,0,1.083,0.485,1.083,1.083v6.333C66.417,131.765,65.932,132.25,65.333,132.25z"/>
	</g>
	<g>
		<path class="st0" d="M65.333,151.083H59c-0.598,0-1.083-0.485-1.083-1.083v-6.333c0-0.598,0.485-1.083,1.083-1.083h6.333
			c0.598,0,1.083,0.485,1.083,1.083V150C66.417,150.598,65.932,151.083,65.333,151.083z"/>
	</g>
	<g>
		<path class="st0" d="M65.333,169.917H59c-0.598,0-1.083-0.485-1.083-1.083V162.5c0-0.598,0.485-1.083,1.083-1.083h6.333
			c0.598,0,1.083,0.485,1.083,1.083v6.333C66.417,169.432,65.932,169.917,65.333,169.917z"/>
	</g>
	<g>
		<path class="st2" d="M158.782,90.255c-8.579-8.127-23.896-3.988-29.041-2.271c-1.131,0.378-2.35,0.378-3.481,0
			c-5.146-1.717-20.462-5.856-29.041,2.271c-14.063,12.359-4.119,31.009,1.014,38.711c1.637,2.457,2.533,5.326,2.627,8.277
			c0.545,17.057,3.978,33.36,9.247,33.36c5.759,0,6.307-6.581,6.307-21.27c0-6.983,2.619-11.135,5.366-13.568
			c3.526-3.123,8.914-3.123,12.44,0c2.747,2.434,5.366,6.585,5.366,13.568c0,14.689,0.549,21.27,6.307,21.27
			c5.27,0,8.702-16.303,9.247-33.36c0.094-2.951,0.989-5.82,2.627-8.277C162.901,121.264,172.845,102.614,158.782,90.255z"/>
	</g>
	<g>
		<path class="st0" d="M145.894,173.604c-9.308,0-9.308-10.71-9.308-24.27c0-4.954-1.465-8.763-4.355-11.323
			c-1.156-1.023-2.658-1.587-4.23-1.587s-3.075,0.564-4.23,1.587c-2.89,2.56-4.355,6.369-4.355,11.323c0,13.56,0,24.27-9.307,24.27
			c-10.288,0-11.974-27.757-12.246-36.264c-0.077-2.419-0.812-4.739-2.125-6.708c-5.438-8.16-16.368-28.632-0.541-42.592
			c3.976-3.744,9.474-5.642,16.341-5.642c6.486,0,12.603,1.718,15.672,2.742c0.512,0.171,1.07,0.171,1.583,0
			c3.069-1.024,9.186-2.742,15.671-2.742c6.867,0,12.365,1.898,16.341,5.642c15.828,13.96,4.897,34.433-0.54,42.592
			c-1.313,1.97-2.048,4.29-2.125,6.709C157.867,145.847,156.181,173.604,145.894,173.604z M111.537,88.396
			c-5.305,0-9.429,1.358-12.256,4.037c-0.027,0.026-0.055,0.051-0.083,0.076c-11.884,10.444-4.142,26.283,1.531,34.794
			c1.934,2.901,3.016,6.305,3.129,9.845c0.623,19.502,4.462,29.528,6.332,30.454c2.499-0.088,3.225-4.25,3.225-18.269
			c0-8.402,3.468-13.237,6.377-15.814c2.254-1.997,5.169-3.096,8.209-3.096s5.955,1.1,8.209,3.096
			c2.909,2.577,6.377,7.412,6.377,15.814c0,14.018,0.726,18.18,3.225,18.269c1.869-0.926,5.708-10.953,6.331-30.454
			c0.113-3.54,1.195-6.944,3.129-9.845c5.672-8.511,13.415-24.35,1.53-34.794c-0.028-0.024-0.056-0.05-0.083-0.076
			c-2.828-2.679-6.951-4.037-12.256-4.037c-5.638,0-11.049,1.524-13.772,2.434c-1.74,0.58-3.641,0.58-5.38,0
			C122.586,89.921,117.175,88.396,111.537,88.396z"/>
	</g>
</g>
</svg>
