<?xml version="1.0" encoding="utf-8"?>
<!-- Generator: Adobe Illustrator 18.0.0, SVG Export Plug-In . SVG Version: 6.00 Build 0)  -->
<!DOCTYPE svg PUBLIC "-//W3C//DTD SVG 1.1//EN" "http://www.w3.org/Graphics/SVG/1.1/DTD/svg11.dtd">
<svg version="1.1" id="Layer_1" xmlns="http://www.w3.org/2000/svg" xmlns:xlink="http://www.w3.org/1999/xlink" x="0px" y="0px"
	 viewBox="0 0 256 256" style="enable-background:new 0 0 256 256;" xml:space="preserve">
<style type="text/css">
	.st0{fill:#504774;}
	.st1{fill:#F1C48B;}
	.st2{fill:#FFFFFF;}
	.st3{fill:#D5E6F7;}
	.st4{fill:#A0D1F2;}
	.st5{fill:#7BABF3;}
	.st6{fill:#FD919F;}
	.st7{fill:#D4E7F8;}
	.st8{fill:#E0667D;}
	.st9{fill:#484771;}
</style>
<g>
	<g>
		<circle class="st1" cx="128" cy="128" r="103.873"/>
	</g>
	<g>
		<path class="st3" d="M161.943,208H94.057v-8.117c0-3.668,2.973-6.641,6.641-6.641h54.604c3.668,0,6.641,2.973,6.641,6.641V208z"/>
	</g>
	<g>
		<path class="st5" d="M195.806,171.803H60.194c-4.846,0-8.775-3.929-8.775-8.775V76.775c0-4.846,3.929-8.775,8.775-8.775h135.613
			c4.846,0,8.775,3.929,8.775,8.775v86.254C204.581,167.875,200.652,171.803,195.806,171.803z"/>
	</g>
	<g>
		<rect x="111.248" y="171.803" class="st4" width="33.504" height="21.439"/>
	</g>
	<g>
		<path class="st4" d="M155.302,193.242h-14.5c3.668,0,6.641,2.973,6.641,6.641V208h14.5v-8.117
			C161.943,196.215,158.97,193.242,155.302,193.242z"/>
	</g>
	<g>
		<circle class="st6" cx="182.333" cy="128" r="7"/>
	</g>
	<g>
		<circle class="st6" cx="70.306" cy="89.146" r="7"/>
	</g>
	<g>
		<path class="st0" d="M195.806,174.803H60.194c-6.493,0-11.775-5.282-11.775-11.775V76.775C48.419,70.282,53.701,65,60.194,65
			h135.612c6.493,0,11.775,5.282,11.775,11.775v86.253C207.581,169.521,202.299,174.803,195.806,174.803z M60.194,71
			c-3.184,0-5.775,2.591-5.775,5.775v86.253c0,3.184,2.591,5.775,5.775,5.775h135.612c3.184,0,5.775-2.591,5.775-5.775V76.775
			c0-3.184-2.591-5.775-5.775-5.775H60.194z"/>
	</g>
	<g>
		<path class="st0" d="M144.752,196.242h-33.504c-1.657,0-3-1.343-3-3v-21.439c0-1.657,1.343-3,3-3h33.504c1.657,0,3,1.343,3,3
			v21.439C147.752,194.899,146.409,196.242,144.752,196.242z M114.248,190.242h27.504v-15.439h-27.504V190.242z"/>
	</g>
	<g>
		<path class="st0" d="M161.943,211H94.057c-1.657,0-3-1.343-3-3v-8.117c0-5.316,4.325-9.641,9.641-9.641h54.604
			c5.316,0,9.641,4.325,9.641,9.641V208C164.943,209.657,163.6,211,161.943,211z M97.057,205h61.886v-5.117
			c0-2.008-1.633-3.641-3.641-3.641h-54.604c-2.008,0-3.641,1.633-3.641,3.641V205z"/>
	</g>
	<g>
		<path class="st2" d="M155.651,86.511c-7.706-7.301-21.465-3.582-26.088-2.04c-1.016,0.339-2.111,0.339-3.127,0
			c-4.622-1.542-18.381-5.261-26.088,2.04c-12.633,11.102-3.7,27.855,0.911,34.774c1.471,2.207,2.275,4.785,2.36,7.435
			c0.49,15.322,3.573,29.967,8.307,29.967c5.173,0,5.666-5.912,5.666-19.107c0-6.273,2.352-10.002,4.82-12.188
			c3.167-2.805,8.007-2.805,11.175,0c2.468,2.186,4.82,5.915,4.82,12.188c0,13.195,0.493,19.107,5.666,19.107
			c4.734,0,7.817-14.645,8.307-29.967c0.085-2.651,0.889-5.228,2.36-7.435C159.351,114.366,168.284,97.613,155.651,86.511z"/>
	</g>
	<g>
		<path class="st0" d="M144.073,161.687c-8.666,0-8.666-10.245-8.666-22.107c0-4.358-1.282-7.703-3.81-9.942
			c-0.982-0.87-2.26-1.35-3.598-1.35s-2.616,0.479-3.598,1.35c-2.528,2.239-3.81,5.584-3.81,9.942c0,11.862,0,22.107-8.666,22.107
			c-9.256,0-10.99-22.988-11.305-32.871c-0.068-2.116-0.71-4.146-1.857-5.867c-4.929-7.395-14.828-25.955-0.437-38.655
			c3.629-3.416,8.637-5.148,14.884-5.148c5.869,0,11.4,1.554,14.175,2.479c0.397,0.133,0.83,0.133,1.228,0
			c2.774-0.926,8.306-2.479,14.174-2.479c6.247,0,11.254,1.732,14.884,5.148c14.392,12.7,4.493,31.26-0.436,38.655
			c-1.148,1.722-1.79,3.75-1.857,5.867C155.063,138.699,153.329,161.687,144.073,161.687z M113.211,85.146
			c-4.685,0-8.318,1.192-10.799,3.543c-0.027,0.026-0.055,0.051-0.083,0.076c-10.501,9.229-3.614,23.294,1.427,30.856
			c1.769,2.654,2.758,5.767,2.862,9.003c0.539,16.867,3.833,25.949,5.475,27.062c0.621-0.014,1.167-0.188,1.692-2.321
			c0.674-2.739,0.806-7.128,0.806-13.785c0-7.66,3.171-12.077,5.831-14.434c2.081-1.843,4.771-2.858,7.577-2.858
			s5.496,1.015,7.577,2.858c2.66,2.356,5.831,6.773,5.831,14.434c0,6.656,0.132,11.046,0.806,13.785
			c0.525,2.133,1.071,2.307,1.692,2.321c1.642-1.113,4.937-10.195,5.476-27.061c0.103-3.236,1.093-6.349,2.862-9.003
			c5.041-7.563,11.928-21.628,1.427-30.856c-0.028-0.025-0.056-0.05-0.083-0.076c-2.481-2.351-6.114-3.543-10.799-3.543
			c-5.021,0-9.846,1.36-12.275,2.171c-1.626,0.542-3.401,0.542-5.026,0C123.058,86.506,118.232,85.146,113.211,85.146z"/>
	</g>
	<g>
		<path class="st0" d="M191.5,149.5h-27.369c-1.657,0-3-1.343-3-3s1.343-3,3-3H191.5c1.657,0,3,1.343,3,3S193.157,149.5,191.5,149.5
			z"/>
	</g>
	<g>
		<path class="st0" d="M177.815,161.687h-13.685c-1.657,0-3-1.343-3-3s1.343-3,3-3h13.685c1.657,0,3,1.343,3,3
			S179.472,161.687,177.815,161.687z"/>
	</g>
	<g>
		<path class="st0" d="M90.833,131H63.464c-1.657,0-3-1.343-3-3s1.343-3,3-3h27.369c1.657,0,3,1.343,3,3S92.49,131,90.833,131z"/>
	</g>
	<g>
		<path class="st0" d="M77.149,143.187H63.464c-1.657,0-3-1.343-3-3s1.343-3,3-3h13.685c1.657,0,3,1.343,3,3
			S78.806,143.187,77.149,143.187z"/>
	</g>
	<g>
		<path class="st0" d="M182.333,138c-5.514,0-10-4.486-10-10s4.486-10,10-10s10,4.486,10,10S187.848,138,182.333,138z M182.333,124
			c-2.206,0-4,1.794-4,4s1.794,4,4,4s4-1.794,4-4S184.539,124,182.333,124z"/>
	</g>
	<g>
		<path class="st0" d="M70.307,99.146c-5.514,0-10-4.486-10-10s4.486-10,10-10s10,4.486,10,10S75.821,99.146,70.307,99.146z
			 M70.307,85.146c-2.206,0-4,1.794-4,4s1.794,4,4,4s4-1.794,4-4S72.512,85.146,70.307,85.146z"/>
	</g>
	<g>
		<path class="st0" d="M94.056,102.667c-0.375,0-0.756-0.071-1.125-0.22l-17.626-7.133c-1.536-0.622-2.277-2.37-1.655-3.906
			c0.622-1.536,2.372-2.277,3.906-1.655l17.626,7.133c1.536,0.622,2.277,2.37,1.655,3.906
			C96.366,101.959,95.242,102.667,94.056,102.667z"/>
	</g>
	<g>
		<path class="st0" d="M176.131,127.755c-0.538,0-1.083-0.145-1.574-0.449l-29.801-18.421c-1.41-0.871-1.846-2.72-0.975-4.129
			c0.871-1.409,2.721-1.845,4.129-0.975l29.801,18.421c1.41,0.871,1.846,2.72,0.975,4.129
			C178.119,127.25,177.137,127.755,176.131,127.755z"/>
	</g>
</g>
</svg>
