<?xml version="1.0" encoding="utf-8"?>
<!-- Generator: Adobe Illustrator 18.0.0, SVG Export Plug-In . SVG Version: 6.00 Build 0)  -->
<!DOCTYPE svg PUBLIC "-//W3C//DTD SVG 1.1//EN" "http://www.w3.org/Graphics/SVG/1.1/DTD/svg11.dtd">
<svg version="1.1" id="Layer_1" xmlns="http://www.w3.org/2000/svg" xmlns:xlink="http://www.w3.org/1999/xlink" x="0px" y="0px"
	 viewBox="0 0 256 256" style="enable-background:new 0 0 256 256;" xml:space="preserve">
<style type="text/css">
	.st0{fill:#504774;}
	.st1{fill:#F1C48B;}
	.st2{fill:#FFFFFF;}
	.st3{fill:#D5E6F7;}
	.st4{fill:#A0D1F2;}
	.st5{fill:#7BABF3;}
	.st6{fill:#FD919F;}
	.st7{fill:#D4E7F8;}
	.st8{fill:#E0667D;}
	.st9{fill:#484771;}
</style>
<g>
	<g>
		<circle class="st1" cx="128" cy="128" r="103.873"/>
	</g>
	<g>
		<rect x="62.884" y="95.631" class="st2" width="130.232" height="105.545"/>
	</g>
	<g>
		<rect x="75.227" y="107.258" class="st4" width="17.253" height="17.253"/>
	</g>
	<g>
		<rect x="104.658" y="107.258" class="st4" width="17.253" height="17.253"/>
	</g>
	<g>
		<rect x="134.089" y="107.258" class="st4" width="17.253" height="17.253"/>
	</g>
	<g>
		<rect x="163.52" y="107.258" class="st4" width="17.252" height="17.253"/>
	</g>
	<g>
		<rect x="75.227" y="137.67" class="st4" width="17.253" height="17.253"/>
	</g>
	<g>
		<rect x="163.52" y="137.67" class="st4" width="17.252" height="17.253"/>
	</g>
	<g>
		<rect x="75.227" y="168.081" class="st4" width="17.253" height="17.253"/>
	</g>
	<g>
		<rect x="163.52" y="168.081" class="st4" width="17.252" height="17.253"/>
	</g>
	<g>
		<rect x="179.441" y="95.631" class="st3" width="13.675" height="105.545"/>
	</g>
	<g>
		<rect x="56.441" y="67.525" class="st6" width="143.118" height="28.105"/>
	</g>
	<g>
		<rect x="179.441" y="67.525" class="st8" width="20.118" height="28.105"/>
	</g>
	<g>
		<path class="st0" d="M140.269,195.991c-7.325,0-7.325-8.149-7.325-17.585c0-3.114-0.898-5.489-2.668-7.057
			c-1.242-1.101-3.312-1.098-4.551-0.001c-1.772,1.568-2.669,3.942-2.669,7.058c0,9.436,0,17.585-7.325,17.585
			c-7.409,0-9.031-16.151-9.339-25.778c-0.047-1.483-0.497-2.903-1.299-4.107c-8.165-12.25-8.245-23.335-0.221-30.424
			c2.906-2.73,6.889-4.115,11.84-4.115c4.578,0,8.884,1.208,11.044,1.929c0.159,0.053,0.33,0.053,0.488,0
			c2.16-0.721,6.466-1.929,11.044-1.929c4.951,0,8.935,1.385,11.84,4.115c8.023,7.088,7.943,18.174-0.222,30.424
			c-0.802,1.204-1.251,2.624-1.299,4.108C149.3,179.84,147.678,195.991,140.269,195.991z M116.712,137.566
			c-3.388,0-5.998,0.845-7.755,2.51c-0.027,0.025-0.055,0.051-0.083,0.076c-7.61,6.688-2.508,17.046,1.211,22.625
			c1.424,2.137,2.22,4.641,2.304,7.243c0.371,11.602,2.456,18.326,3.683,19.879c0.984-1.194,0.984-8.388,0.984-11.493
			c0-6.113,2.551-9.654,4.691-11.549c1.717-1.521,3.938-2.36,6.253-2.36c2.314,0,4.536,0.839,6.254,2.361
			c2.14,1.894,4.69,5.436,4.69,11.548c0,3.074,0,10.152,0.995,11.479c1.228-1.578,3.303-8.297,3.672-19.864
			c0.083-2.604,0.88-5.107,2.303-7.244c3.719-5.579,8.822-15.938,1.212-22.625c-0.028-0.025-0.056-0.051-0.083-0.076
			c-1.757-1.665-4.367-2.51-7.755-2.51c-3.73,0-7.332,1.016-9.146,1.62c-1.385,0.463-2.9,0.463-4.286,0
			C124.043,138.582,120.442,137.566,116.712,137.566z"/>
	</g>
	<g>
		<path class="st0" d="M193.116,204.176H62.884c-1.657,0-3-1.343-3-3V95.631c0-1.657,1.343-3,3-3h130.232c1.657,0,3,1.343,3,3
			v105.545C196.116,202.833,194.773,204.176,193.116,204.176z M65.884,198.176h124.232V98.631H65.884V198.176z"/>
	</g>
	<g>
		<path class="st0" d="M199.559,98.631H56.441c-1.657,0-3-1.343-3-3V67.525c0-1.657,1.343-3,3-3h143.118c1.657,0,3,1.343,3,3v28.105
			C202.559,97.288,201.216,98.631,199.559,98.631z M59.441,92.631h137.118V70.525H59.441V92.631z"/>
	</g>
	<g>
		<path class="st0" d="M92.48,127.511H75.228c-1.657,0-3-1.343-3-3v-17.252c0-1.657,1.343-3,3-3H92.48c1.657,0,3,1.343,3,3v17.252
			C95.48,126.168,94.137,127.511,92.48,127.511z M78.228,121.511H89.48v-11.252H78.228V121.511z"/>
	</g>
	<g>
		<path class="st0" d="M121.911,127.511h-17.252c-1.657,0-3-1.343-3-3v-17.252c0-1.657,1.343-3,3-3h17.252c1.657,0,3,1.343,3,3
			v17.252C124.911,126.168,123.567,127.511,121.911,127.511z M107.658,121.511h11.252v-11.252h-11.252V121.511z"/>
	</g>
	<g>
		<path class="st0" d="M151.342,127.511h-17.253c-1.657,0-3-1.343-3-3v-17.252c0-1.657,1.343-3,3-3h17.253c1.657,0,3,1.343,3,3
			v17.252C154.342,126.168,152.999,127.511,151.342,127.511z M137.089,121.511h11.253v-11.252h-11.253V121.511z"/>
	</g>
	<g>
		<path class="st0" d="M180.772,127.511H163.52c-1.657,0-3-1.343-3-3v-17.252c0-1.657,1.343-3,3-3h17.252c1.657,0,3,1.343,3,3
			v17.252C183.772,126.168,182.429,127.511,180.772,127.511z M166.52,121.511h11.252v-11.252H166.52V121.511z"/>
	</g>
	<g>
		<path class="st0" d="M92.48,157.923H75.228c-1.657,0-3-1.343-3-3V137.67c0-1.657,1.343-3,3-3H92.48c1.657,0,3,1.343,3,3v17.253
			C95.48,156.58,94.137,157.923,92.48,157.923z M78.228,151.923H89.48V140.67H78.228V151.923z"/>
	</g>
	<g>
		<path class="st0" d="M180.772,157.923H163.52c-1.657,0-3-1.343-3-3V137.67c0-1.657,1.343-3,3-3h17.252c1.657,0,3,1.343,3,3v17.253
			C183.772,156.58,182.429,157.923,180.772,157.923z M166.52,151.923h11.252V140.67H166.52V151.923z"/>
	</g>
	<g>
		<path class="st0" d="M92.48,188.334H75.228c-1.657,0-3-1.343-3-3v-17.253c0-1.657,1.343-3,3-3H92.48c1.657,0,3,1.343,3,3v17.253
			C95.48,186.991,94.137,188.334,92.48,188.334z M78.228,182.334H89.48v-11.253H78.228V182.334z"/>
	</g>
	<g>
		<path class="st0" d="M180.772,188.334H163.52c-1.657,0-3-1.343-3-3v-17.253c0-1.657,1.343-3,3-3h17.252c1.657,0,3,1.343,3,3
			v17.253C183.772,186.991,182.429,188.334,180.772,188.334z M166.52,182.334h11.252v-11.253H166.52V182.334z"/>
	</g>
	<g>
		<path class="st4" d="M89.539,80.227L89.539,80.227c-3.26,0-5.903-2.643-5.903-5.903V60.728c0-3.26,2.643-5.903,5.903-5.903h0
			c3.26,0,5.903,2.643,5.903,5.903v13.596C95.442,77.584,92.799,80.227,89.539,80.227z"/>
	</g>
	<g>
		<path class="st4" d="M166.461,80.227L166.461,80.227c-3.26,0-5.903-2.643-5.903-5.903V60.728c0-3.26,2.643-5.903,5.903-5.903l0,0
			c3.26,0,5.903,2.643,5.903,5.903v13.596C172.365,77.584,169.722,80.227,166.461,80.227z"/>
	</g>
	<g>
		<path class="st0" d="M89.539,83.227c-4.909,0-8.903-3.994-8.903-8.903V60.728c0-4.909,3.994-8.903,8.903-8.903
			s8.903,3.994,8.903,8.903v13.596C98.442,79.232,94.448,83.227,89.539,83.227z M89.539,57.824c-1.601,0-2.903,1.303-2.903,2.903
			v13.596c0,1.601,1.302,2.903,2.903,2.903s2.903-1.303,2.903-2.903V60.728C92.442,59.127,91.14,57.824,89.539,57.824z"/>
	</g>
	<g>
		<path class="st0" d="M166.461,83.227c-4.909,0-8.903-3.994-8.903-8.903V60.728c0-4.909,3.994-8.903,8.903-8.903
			s8.903,3.994,8.903,8.903v13.596C175.365,79.232,171.371,83.227,166.461,83.227z M166.461,57.824
			c-1.601,0-2.903,1.303-2.903,2.903v13.596c0,1.601,1.302,2.903,2.903,2.903s2.903-1.303,2.903-2.903V60.728
			C169.365,59.127,168.063,57.824,166.461,57.824z"/>
	</g>
</g>
</svg>
