<?xml version="1.0" encoding="utf-8"?>
<!-- Generator: Adobe Illustrator 18.0.0, SVG Export Plug-In . SVG Version: 6.00 Build 0)  -->
<!DOCTYPE svg PUBLIC "-//W3C//DTD SVG 1.1//EN" "http://www.w3.org/Graphics/SVG/1.1/DTD/svg11.dtd">
<svg version="1.1" id="Layer_1" xmlns="http://www.w3.org/2000/svg" xmlns:xlink="http://www.w3.org/1999/xlink" x="0px" y="0px"
	 viewBox="0 0 256 256" style="enable-background:new 0 0 256 256;" xml:space="preserve">
<style type="text/css">
	.st0{fill:#504774;}
	.st1{fill:#F1C48B;}
	.st2{fill:#FFFFFF;}
	.st3{fill:#D5E6F7;}
	.st4{fill:#A0D1F2;}
	.st5{fill:#7BABF3;}
	.st6{fill:#FD919F;}
	.st7{fill:#D4E7F8;}
	.st8{fill:#E0667D;}
	.st9{fill:#484771;}
</style>
<g>
	<g>
		<circle class="st1" cx="128" cy="128" r="103.873"/>
	</g>
	<g>
		<path class="st6" d="M171.014,177.986v-24.044c0-14.968-12.134-27.102-27.102-27.102h-8.704c-3.98,0-7.208,3.227-7.208,7.208
			c0-3.98-3.227-7.208-7.208-7.208h-8.704c-14.968,0-27.101,12.134-27.101,27.102v24.044C84.987,201.742,104.244,221,128,221l0,0
			C151.756,221,171.014,201.742,171.014,177.986z"/>
	</g>
	<g>
		<path class="st8" d="M84.986,153.942c0-14.968,12.134-27.102,27.102-27.102h8.704c3.981,0,7.208,3.227,7.208,7.208
			c0-3.981,3.227-7.208,7.208-7.208h8.704c14.968,0,27.102,12.134,27.102,27.102v22.178c14.02-14.725,22.908-36.502,22.908-60.821
			C193.921,70.951,164.407,35,128,35s-65.921,35.951-65.921,80.299c0,24.319,8.888,46.096,22.908,60.821V153.942z"/>
	</g>
	<g>
		<path class="st2" d="M193.24,103.827C188.669,64.915,161.208,35,128,35s-60.669,29.915-65.241,68.827h6.785
			c5.372,0,10.225-3.223,12.293-8.181C91.008,73.661,108.244,58.849,128,58.849s36.992,14.812,46.163,36.797
			c2.068,4.958,6.921,8.181,12.293,8.181H193.24z"/>
	</g>
	<g>
		<g>
			<path class="st3" d="M128,35c-3.217,0-6.378,0.288-9.471,0.831c25.025,4.388,45.494,25.901,53.171,54.476
				c0.873,1.729,1.699,3.507,2.463,5.339c2.068,4.958,6.921,8.181,12.293,8.181h6.785C188.669,64.915,161.208,35,128,35z"/>
		</g>
	</g>
	<g>
		<path class="st5" d="M133.115,88.783v8.973c0,1.609,0.415,3.222,1.354,4.529c1.176,1.639,1.746,3.741,1.376,5.983
			c-0.529,3.205-3.061,5.829-6.25,6.448c-5.093,0.988-9.55-2.886-9.55-7.801c0-1.712,0.542-3.296,1.462-4.593
			c0.959-1.352,1.379-3.013,1.379-4.671v-8.868c-16.405,2.468-28.983,16.621-28.983,33.714c0,3.511,0.532,6.897,1.517,10.084
			c4.598-3.593,10.381-5.74,16.668-5.74h8.704c3.981,0,7.208,3.227,7.208,7.208c0-3.981,3.227-7.208,7.208-7.208h8.704
			c6.287,0,12.07,2.147,16.668,5.74c0.985-3.187,1.517-6.573,1.517-10.084C162.097,105.404,149.519,91.251,133.115,88.783z"/>
	</g>
	<g>
		<path class="st0" d="M193.24,106.827h-6.784c-6.609,0-12.521-3.936-15.062-10.026C162.401,75.242,145.773,61.849,128,61.849
			S93.599,75.242,84.605,96.801c-2.54,6.09-8.452,10.026-15.062,10.026H62.76c-0.856,0-1.673-0.366-2.241-1.006
			c-0.569-0.64-0.838-1.493-0.738-2.344c2.3-19.575,10.352-37.583,22.674-50.708C95.027,39.375,111.202,32,128,32
			s32.973,7.375,45.546,20.768c12.322,13.125,20.374,31.133,22.674,50.708c0.1,0.851-0.169,1.704-0.738,2.344
			C194.913,106.46,194.097,106.827,193.24,106.827z M128,55.849c20.239,0,38.989,14.807,48.932,38.642
			c1.605,3.849,5.344,6.335,9.524,6.335h3.349C184.228,64.78,158.135,38,128,38s-56.228,26.78-61.805,62.827h3.349
			c4.181,0,7.919-2.487,9.524-6.335C89.011,70.656,107.761,55.849,128,55.849z"/>
	</g>
	<g>
		<path class="st0" d="M171.013,179.12c-0.374,0-0.752-0.07-1.113-0.214c-1.139-0.456-1.886-1.559-1.886-2.786v-22.178
			c0-13.29-10.812-24.102-24.102-24.102h-8.704c-2.32,0-4.208,1.888-4.208,4.208c0,1.657-1.343,3-3,3s-3-1.343-3-3
			c0-2.32-1.888-4.208-4.208-4.208h-8.704c-13.29,0-24.102,10.812-24.102,24.102v22.178c0,1.227-0.747,2.33-1.886,2.786
			c-1.14,0.455-2.441,0.171-3.287-0.717c-15.083-15.842-23.734-38.765-23.734-62.89C59.079,69.368,89.997,32,128,32
			s68.921,37.368,68.921,83.299c0,24.125-8.651,47.048-23.734,62.89C172.608,178.795,171.818,179.12,171.013,179.12z
			 M135.208,123.841h8.704c16.598,0,30.102,13.503,30.102,30.102v14.024c10.819-14.25,16.907-33.01,16.907-52.668
			C190.921,72.676,162.694,38,128,38s-62.921,34.676-62.921,77.299c0,19.658,6.088,38.417,16.907,52.668v-14.024
			c0-16.598,13.504-30.102,30.102-30.102h8.704c2.811,0,5.36,1.142,7.208,2.986C129.848,124.983,132.397,123.841,135.208,123.841z"
			/>
	</g>
	<g>
		<path class="st0" d="M128,137.048c-1.657,0-3-1.343-3-3c0-2.32-1.888-4.208-4.208-4.208h-8.704c-5.423,0-10.548,1.765-14.82,5.104
			c-0.778,0.608-1.805,0.795-2.745,0.499c-0.941-0.295-1.677-1.034-1.969-1.977c-1.096-3.544-1.651-7.234-1.651-10.97
			c0-18.207,13.558-33.977,31.537-36.681c0.862-0.127,1.741,0.123,2.403,0.693c0.662,0.57,1.043,1.4,1.043,2.273v8.868
			c0,2.409-0.669,4.624-1.934,6.406c-0.594,0.838-0.908,1.827-0.908,2.857c0,1.324,0.516,2.569,1.451,3.505
			c1.176,1.174,2.844,1.68,4.527,1.351c1.948-0.378,3.536-2.019,3.861-3.99c0.222-1.341-0.081-2.671-0.853-3.745
			c-1.254-1.747-1.917-3.918-1.917-6.279v-8.973c0-0.874,0.381-1.704,1.043-2.273c0.662-0.57,1.54-0.82,2.403-0.693
			c17.979,2.705,31.537,18.474,31.537,36.681c0,3.735-0.556,7.426-1.651,10.97c-0.292,0.942-1.027,1.681-1.969,1.977
			c-0.938,0.296-1.966,0.109-2.745-0.499c-4.272-3.339-9.397-5.104-14.82-5.104h-8.704c-2.32,0-4.208,1.888-4.208,4.208
			C131,135.705,129.657,137.048,128,137.048z M135.208,123.841h8.704c5.248,0,10.272,1.323,14.752,3.858
			c0.288-1.711,0.434-3.45,0.434-5.202c0-14.075-9.663-26.412-22.983-30.024v5.282c0,0.766,0.137,1.87,0.79,2.78
			c1.708,2.377,2.382,5.297,1.899,8.221c-0.736,4.466-4.208,8.045-8.639,8.904c-3.635,0.706-7.334-0.421-9.912-2.999
			c-2.069-2.069-3.209-4.821-3.209-7.748c0-2.281,0.696-4.47,2.015-6.329c0.684-0.963,0.827-2.128,0.827-2.935v-5.177
			c-13.32,3.612-22.983,15.949-22.983,30.024c0,1.751,0.146,3.49,0.434,5.202c4.479-2.535,9.504-3.858,14.752-3.858h8.704
			c2.811,0,5.36,1.142,7.208,2.986C129.848,124.983,132.397,123.841,135.208,123.841z"/>
	</g>
	<g>
		<path class="st0" d="M128,61.849c-1.657,0-3-1.343-3-3V35c0-1.657,1.343-3,3-3s3,1.343,3,3v23.849
			C131,60.506,129.657,61.849,128,61.849z"/>
	</g>
	<g>
		<path class="st0" d="M103.475,70.084c-0.92,0-1.827-0.421-2.416-1.218l-13.087-17.73c-0.983-1.333-0.7-3.211,0.633-4.195
			c1.332-0.984,3.21-0.701,4.195,0.632l13.087,17.73c0.983,1.333,0.7,3.211-0.633,4.195
			C104.718,69.894,104.094,70.084,103.475,70.084z"/>
	</g>
	<g>
		<path class="st0" d="M88.04,86.729c-0.428,0-0.863-0.092-1.276-0.286L69.426,78.28c-1.499-0.706-2.142-2.493-1.436-3.992
			c0.705-1.499,2.491-2.143,3.992-1.437l17.338,8.164c1.499,0.706,2.142,2.493,1.436,3.992
			C90.245,86.093,89.166,86.729,88.04,86.729z"/>
	</g>
	<g>
		<path class="st0" d="M152.467,70.084c-0.619,0-1.243-0.19-1.779-0.586c-1.333-0.984-1.616-2.862-0.633-4.195l13.088-17.73
			c0.986-1.334,2.863-1.616,4.195-0.632c1.333,0.984,1.616,2.862,0.633,4.195l-13.088,17.73
			C154.294,69.663,153.386,70.084,152.467,70.084z"/>
	</g>
	<g>
		<path class="st0" d="M167.901,86.729c-1.126,0-2.205-0.636-2.716-1.723c-0.706-1.499-0.063-3.286,1.436-3.992l17.338-8.164
			c1.5-0.707,3.287-0.063,3.992,1.437c0.706,1.499,0.063,3.286-1.436,3.992l-17.338,8.164
			C168.765,86.638,168.329,86.729,167.901,86.729z"/>
	</g>
	<g>
		<g>
			<path class="st8" d="M143.912,126.841h-8.704c-0.38,0-0.751,0.038-1.116,0.095c13.947,1.112,24.921,12.774,24.921,27.007v24.044
				c0,21.718-16.099,39.667-37.013,42.588c1.962,0.274,3.963,0.426,6,0.426l0,0c23.756,0,43.014-19.258,43.014-43.014v-24.044
				C171.014,138.975,158.88,126.841,143.912,126.841z"/>
		</g>
	</g>
	<g>
		<path class="st0" d="M128,224c-25.372,0-46.014-20.642-46.014-46.014v-24.044c0-16.598,13.504-30.102,30.102-30.102h8.704
			c2.811,0,5.36,1.142,7.208,2.986c1.848-1.844,4.396-2.986,7.207-2.986h8.705c16.598,0,30.102,13.503,30.102,30.102v24.044
			C174.014,203.358,153.372,224,128,224z M112.088,129.841c-13.29,0-24.102,10.812-24.102,24.102v24.044
			C87.986,200.05,105.937,218,128,218s40.014-17.95,40.014-40.014v-24.044c0-13.29-10.812-24.102-24.102-24.102h-8.705
			c-2.319,0-4.207,1.888-4.207,4.208c0,1.657-1.343,3-3,3s-3-1.343-3-3c0-2.32-1.888-4.208-4.208-4.208H112.088z"/>
	</g>
</g>
</svg>
