<?xml version="1.0" encoding="utf-8"?>
<!-- Generator: Adobe Illustrator 18.0.0, SVG Export Plug-In . SVG Version: 6.00 Build 0)  -->
<!DOCTYPE svg PUBLIC "-//W3C//DTD SVG 1.1//EN" "http://www.w3.org/Graphics/SVG/1.1/DTD/svg11.dtd">
<svg version="1.1" id="Layer_1" xmlns="http://www.w3.org/2000/svg" xmlns:xlink="http://www.w3.org/1999/xlink" x="0px" y="0px"
	 viewBox="0 0 256 256" style="enable-background:new 0 0 256 256;" xml:space="preserve">
<style type="text/css">
	.st0{fill:#504774;}
	.st1{fill:#F1C48B;}
	.st2{fill:#FFFFFF;}
	.st3{fill:#D5E6F7;}
	.st4{fill:#A0D1F2;}
	.st5{fill:#7BABF3;}
	.st6{fill:#FD919F;}
	.st7{fill:#D4E7F8;}
	.st8{fill:#E0667D;}
	.st9{fill:#484771;}
</style>
<g>
	<g>
		<circle class="st1" cx="128" cy="128" r="103.873"/>
	</g>
	<g>
		<path class="st6" d="M52.682,77.735L52.682,77.735c-18.303,18.303-18.303,47.977,0,66.28L128,219.333l75.318-75.318
			c18.303-18.303,18.303-47.977,0-66.28l0,0c-18.303-18.303-47.977-18.303-66.28,0L128,86.773l-9.038-9.038
			C100.659,59.432,70.984,59.432,52.682,77.735z"/>
	</g>
	<g>
		<g>
			<path class="st8" d="M203.318,77.735L203.318,77.735c-9.202-9.202-21.279-13.774-33.34-13.722
				c5.874,2.285,11.384,5.787,16.127,10.53l0,0c18.303,18.303,18.303,47.977,0,66.28l-68.308,68.308L128,219.333l75.318-75.318
				C221.621,125.712,221.621,96.038,203.318,77.735z"/>
		</g>
	</g>
	<g>
		<path class="st0" d="M128,222.333c-0.796,0-1.559-0.316-2.121-0.879l-75.318-75.318c-9.419-9.418-14.606-21.941-14.606-35.261
			s5.187-25.843,14.606-35.261c9.418-9.418,21.941-14.605,35.261-14.605s25.843,5.187,35.261,14.605L128,82.531l6.917-6.917
			c9.419-9.419,21.942-14.606,35.262-14.606s25.843,5.187,35.261,14.606c9.418,9.418,14.606,21.941,14.606,35.261
			c0,13.32-5.187,25.843-14.606,35.261l-75.318,75.318C129.559,222.018,128.796,222.333,128,222.333z M85.822,67.008
			c-11.717,0-22.733,4.563-31.019,12.848c-8.285,8.285-12.848,19.301-12.848,31.019s4.563,22.733,12.848,31.019L128,215.091
			l73.197-73.197c8.285-8.286,12.848-19.302,12.848-31.019s-4.563-22.733-12.848-31.019c-8.286-8.285-19.302-12.848-31.019-12.848
			s-22.733,4.563-31.019,12.848l-9.038,9.039c-1.126,1.126-3.117,1.126-4.243,0l-9.038-9.039
			C108.555,71.571,97.539,67.008,85.822,67.008z"/>
	</g>
	<g>
		<path class="st2" d="M158.864,102.396c-8.602-8.149-23.959-3.999-29.119-2.277c-1.134,0.379-2.356,0.379-3.491,0
			c-5.16-1.722-20.517-5.872-29.119,2.277c-14.101,12.392-4.13,31.092,1.017,38.815c1.642,2.463,2.539,5.34,2.634,8.299
			c0.547,17.103,3.988,33.449,9.272,33.449c5.774,0,6.324-6.599,6.324-21.327c0-7.002,2.626-11.165,5.381-13.605
			c3.535-3.131,8.938-3.131,12.473,0c2.755,2.44,5.38,6.602,5.38,13.605c0,14.728,0.55,21.327,6.324,21.327
			c5.284,0,8.726-16.346,9.272-33.449c0.095-2.959,0.992-5.836,2.634-8.299C162.995,133.488,172.965,114.788,158.864,102.396z"/>
	</g>
	<g>
		<path class="st0" d="M145.941,185.96c-9.324,0-9.324-10.735-9.324-24.327c0-4.969-1.47-8.791-4.37-11.359
			c-1.161-1.028-2.669-1.594-4.248-1.594s-3.087,0.566-4.248,1.594c-2.899,2.568-4.37,6.39-4.37,11.359
			c0,13.592,0,24.327-9.324,24.327c-10.308,0-11.998-27.825-12.271-36.354c-0.078-2.427-0.815-4.755-2.132-6.731
			c-5.451-8.179-16.409-28.701-0.543-42.696c3.985-3.753,9.496-5.655,16.379-5.655c6.502,0,12.635,1.722,15.712,2.749
			c0.515,0.172,1.076,0.172,1.591,0c3.077-1.027,9.21-2.749,15.711-2.749c6.884,0,12.395,1.902,16.379,5.655
			c15.866,13.995,4.909,34.517-0.543,42.696c-1.316,1.976-2.054,4.304-2.131,6.731C157.939,158.135,156.25,185.96,145.941,185.96z
			 M128,142.68c3.045,0,5.967,1.102,8.226,3.103c2.916,2.583,6.391,7.429,6.391,15.85c0,14.066,0.73,18.239,3.243,18.326
			c1.875-0.92,5.729-10.971,6.354-30.543c0.114-3.547,1.198-6.959,3.136-9.867c5.69-8.537,13.455-24.422,1.533-34.898
			c-0.028-0.024-0.056-0.05-0.083-0.076c-2.836-2.687-6.973-4.049-12.294-4.049c-5.653,0-11.081,1.529-13.812,2.44
			c-1.742,0.581-3.647,0.581-5.39,0c-2.731-0.912-8.159-2.44-13.813-2.44c-5.321,0-9.458,1.362-12.294,4.049
			c-0.027,0.026-0.055,0.051-0.083,0.076c-11.921,10.477-4.156,26.362,1.533,34.898c1.938,2.908,3.022,6.32,3.136,9.867
			c0.625,19.573,4.479,29.624,6.354,30.544c2.513-0.086,3.243-4.259,3.243-18.326c0-8.421,3.476-13.268,6.391-15.85
			C122.033,143.782,124.955,142.68,128,142.68z"/>
	</g>
</g>
</svg>
