<?xml version="1.0" encoding="utf-8"?>
<!-- Generator: Adobe Illustrator 18.0.0, SVG Export Plug-In . SVG Version: 6.00 Build 0)  -->
<!DOCTYPE svg PUBLIC "-//W3C//DTD SVG 1.1//EN" "http://www.w3.org/Graphics/SVG/1.1/DTD/svg11.dtd">
<svg version="1.1" id="Layer_1" xmlns="http://www.w3.org/2000/svg" xmlns:xlink="http://www.w3.org/1999/xlink" x="0px" y="0px"
	 viewBox="0 0 256 256" style="enable-background:new 0 0 256 256;" xml:space="preserve">
<style type="text/css">
	.st0{fill:#504774;}
	.st1{fill:#F1C48B;}
	.st2{fill:#FFFFFF;}
	.st3{fill:#D5E6F7;}
	.st4{fill:#A0D1F2;}
	.st5{fill:#7BABF3;}
	.st6{fill:#FD919F;}
	.st7{fill:#D4E7F8;}
	.st8{fill:#E0667D;}
	.st9{fill:#484771;}
</style>
<g>
	<g>
		<circle class="st1" cx="128" cy="128" r="103.873"/>
	</g>
	<g>
		<path class="st3" d="M128,39L128,39c45.675,0,74.222,49.444,51.384,89v0L128,217l-51.384-89v0C53.778,88.444,82.325,39,128,39
			L128,39z"/>
	</g>
	<g>
		<path class="st4" d="M128,39L128,39L128,39c-2.15,0-4.263,0.11-6.333,0.323c41.915,4.311,66.813,50.984,45.051,88.677l0,0
			l-45.051,78.03L128,217l51.384-89l0,0C202.222,88.444,173.675,39,128,39z"/>
	</g>
	<g>
		<circle class="st6" cx="128" cy="97" r="41"/>
	</g>
	<g>
		<path class="st0" d="M128,220c-1.072,0-2.062-0.572-2.598-1.5l-51.384-89c-11.267-19.516-11.267-42.817,0-62.333
			C85.285,47.651,105.465,36,128,36c22.535,0,42.715,11.651,53.982,31.167s11.267,42.817-0.001,62.333l-51.384,89
			C130.063,219.428,129.072,220,128,220z M128,42c-20.366,0-38.604,10.529-48.786,28.167c-10.183,17.637-10.183,38.696,0,56.333
			L128,211l48.786-84.5c10.183-17.637,10.183-38.696,0-56.333C166.604,52.529,148.365,42,128,42z"/>
	</g>
	<g>
		<path class="st0" d="M128,141c-24.262,0-44-19.738-44-44s19.738-44,44-44s44,19.738,44,44S152.262,141,128,141z M128,59
			c-20.953,0-38,17.047-38,38s17.047,38,38,38s38-17.047,38-38S148.953,59,128,59z"/>
	</g>
	<g>
		<path class="st2" d="M148.249,73.352c-5.643-5.346-15.719-2.623-19.104-1.494c-0.744,0.248-1.546,0.248-2.29,0
			c-3.385-1.13-13.461-3.853-19.104,1.494c-9.251,8.13-2.71,20.398,0.667,25.465c1.077,1.616,1.666,3.504,1.728,5.445
			c0.359,11.221,2.617,21.945,6.083,21.945c3.788,0,4.149-4.329,4.149-13.992c0-4.594,1.723-7.325,3.53-8.925
			c2.319-2.054,5.864-2.054,8.183,0c1.807,1.601,3.53,4.332,3.53,8.925c0,9.663,0.361,13.992,4.149,13.992
			c3.466,0,5.725-10.724,6.083-21.945c0.062-1.941,0.651-3.829,1.728-5.445C150.959,93.75,157.5,81.481,148.249,73.352z"/>
	</g>
	<g>
		<path class="st0" d="M139.771,129.207c-7.149,0-7.149-7.874-7.149-16.992c0-2.951-0.848-5.199-2.52-6.681
			c-1.143-1.012-3.059-1.013-4.205,0.001c-1.671,1.48-2.519,3.729-2.519,6.68c0,9.118,0,16.992-7.149,16.992
			c-7.21,0-8.785-15.569-9.082-24.85c-0.044-1.399-0.469-2.74-1.226-3.876c-7.87-11.81-7.938-22.502-0.192-29.348
			c2.811-2.64,6.66-3.979,11.44-3.979c4.409,0,8.555,1.163,10.634,1.856c0.131,0.043,0.264,0.042,0.39,0.001
			c2.082-0.694,6.227-1.857,10.636-1.857c4.781,0,8.63,1.339,11.44,3.979c7.746,6.845,7.678,17.538-0.192,29.347
			c-0.757,1.136-1.181,2.477-1.227,3.877C148.556,113.638,146.981,129.207,139.771,129.207z M128,98.749
			c2.25,0,4.41,0.814,6.081,2.294c2.071,1.837,4.54,5.265,4.54,11.172c0,3.058,0,9.229,0.841,10.791
			c1.172-1.731,3.051-8.122,3.394-18.84c0.081-2.52,0.852-4.944,2.23-7.013c3.545-5.32,8.413-15.194,1.183-21.548
			c-0.028-0.025-0.056-0.051-0.083-0.076c-1.663-1.575-4.138-2.374-7.355-2.374c-3.562,0-7.002,0.97-8.735,1.548
			c-1.352,0.453-2.837,0.451-4.192-0.001c-1.73-0.577-5.171-1.547-8.733-1.547c-3.218,0-5.693,0.799-7.355,2.374
			c-0.027,0.025-0.055,0.051-0.083,0.076c-7.231,6.354-2.363,16.228,1.183,21.548c1.378,2.068,2.149,4.493,2.23,7.013
			c0.343,10.718,2.222,17.108,3.393,18.84c0.841-1.563,0.841-7.733,0.841-10.791c0-5.907,2.469-9.335,4.54-11.171
			C123.59,99.563,125.75,98.749,128,98.749z"/>
	</g>
</g>
</svg>
