<?xml version="1.0" encoding="utf-8"?>
<!-- Generator: Adobe Illustrator 18.0.0, SVG Export Plug-In . SVG Version: 6.00 Build 0)  -->
<!DOCTYPE svg PUBLIC "-//W3C//DTD SVG 1.1//EN" "http://www.w3.org/Graphics/SVG/1.1/DTD/svg11.dtd">
<svg version="1.1" id="Layer_1" xmlns="http://www.w3.org/2000/svg" xmlns:xlink="http://www.w3.org/1999/xlink" x="0px" y="0px"
	 viewBox="0 0 256 256" style="enable-background:new 0 0 256 256;" xml:space="preserve">
<style type="text/css">
	.st0{fill:#504774;}
	.st1{fill:#F1C48B;}
	.st2{fill:#FFFFFF;}
	.st3{fill:#D5E6F7;}
	.st4{fill:#A0D1F2;}
	.st5{fill:#7BABF3;}
	.st6{fill:#FD919F;}
	.st7{fill:#D4E7F8;}
	.st8{fill:#E0667D;}
	.st9{fill:#484771;}
</style>
<g>
	<g>
		<circle class="st1" cx="128" cy="128" r="103.873"/>
	</g>
	<g>
		<path class="st4" d="M96.5,184.469l14.656-6.658l0.511-0.232v-27.774c0-7.002,5.676-12.678,12.678-12.678h92.823
			c7.002,0,12.678,5.676,12.678,12.678V192.5c0,7.002-5.676,12.678-12.678,12.678h-92.823c-7.002,0-12.678-5.676-12.678-12.678
			v-1.141l-0.511-0.232L96.5,184.469z"/>
	</g>
	<g>
		<path class="st5" d="M217.167,137.126h-14.155c7.002,0,12.678,5.676,12.678,12.678V192.5c0,7.002-5.676,12.678-12.678,12.678
			h14.155c7.002,0,12.678-5.676,12.678-12.678v-42.695C229.845,142.803,224.169,137.126,217.167,137.126z"/>
	</g>
	<g>
		<path class="st2" d="M81.084,141.007c-6.852-6.491-19.084-3.185-23.194-1.814c-0.903,0.301-1.877,0.301-2.78,0
			c-4.11-1.371-16.343-4.677-23.194,1.814c-11.232,9.87-3.29,24.765,0.81,30.917c1.308,1.962,2.023,4.254,2.098,6.611
			c0.435,13.623,3.177,26.643,7.385,26.643c4.599,0,5.037-5.256,5.037-16.988c0-5.577,2.091-8.893,4.286-10.836
			c2.816-2.494,7.119-2.494,9.935,0c2.194,1.944,4.286,5.259,4.286,10.836c0,11.731,0.438,16.988,5.037,16.988
			c4.209,0,6.95-13.02,7.385-26.643c0.075-2.357,0.79-4.648,2.098-6.611C84.374,165.772,92.316,150.877,81.084,141.007z"/>
	</g>
	<g>
		<path class="st2" d="M224.084,54.703c-6.852-6.491-19.084-3.185-23.194-1.814c-0.904,0.301-1.877,0.301-2.78,0
			c-4.11-1.371-16.343-4.677-23.194,1.814c-11.232,9.87-3.29,24.765,0.81,30.917c1.308,1.962,2.023,4.254,2.098,6.611
			c0.435,13.623,3.177,26.643,7.385,26.643c4.599,0,5.037-5.256,5.037-16.988c0-5.577,2.091-8.893,4.286-10.836
			c2.816-2.494,7.119-2.494,9.935,0c2.194,1.944,4.286,5.259,4.286,10.836c0,11.731,0.438,16.988,5.037,16.988
			c4.209,0,6.95-13.02,7.385-26.643c0.075-2.357,0.79-4.648,2.098-6.611C227.374,79.468,235.316,64.573,224.084,54.703z"/>
	</g>
	<g>
		<path class="st6" d="M159.5,98.164l-14.656-6.658l-0.511-0.232V63.5c0-7.002-5.676-12.678-12.678-12.678H38.833
			c-7.002,0-12.678,5.676-12.678,12.678v42.696c0,7.002,5.676,12.678,12.678,12.678h92.823c7.002,0,12.678-5.676,12.678-12.678
			v-1.141l0.511-0.232L159.5,98.164z"/>
	</g>
	<g>
		<path class="st0" d="M70.791,208.178c-8.037,0-8.037-9.263-8.037-19.987c0-3.774-1.102-6.666-3.275-8.592
			c-1.624-1.438-4.331-1.438-5.957,0.001c-2.172,1.925-3.274,4.815-3.274,8.591c0,10.725,0,19.987-8.037,19.987
			c-8.52,0-10.1-20.663-10.384-29.547c-0.058-1.819-0.61-3.563-1.596-5.044c-4.431-6.646-13.325-23.331-0.336-34.797
			c3.291-3.095,7.818-4.664,13.458-4.664c5.264,0,10.222,1.392,12.708,2.222c0.288,0.096,0.595,0.096,0.88,0
			c2.488-0.83,7.445-2.222,12.709-2.222c5.64,0,10.167,1.569,13.458,4.664c12.989,11.466,4.095,28.151-0.336,34.798
			c-0.985,1.479-1.537,3.224-1.595,5.043C80.891,187.515,79.31,208.178,70.791,208.178z M56.5,172.483
			c2.575,0,5.045,0.932,6.957,2.624c2.417,2.143,5.297,6.149,5.297,13.083c0,5.744,0.118,9.784,0.707,12.176
			c0.367,1.491,0.683,1.755,1.07,1.802c1.466-1.289,4.183-9.187,4.647-23.729c0.094-2.938,0.993-5.767,2.6-8.179
			c4.422-6.634,10.474-18.962,1.327-27c-0.028-0.025-0.056-0.051-0.083-0.076c-2.143-2.029-5.296-3.059-9.373-3.059
			c-4.416,0-8.668,1.199-10.81,1.913c-1.511,0.506-3.167,0.506-4.68,0c-2.14-0.714-6.392-1.913-10.808-1.913
			c-4.077,0-7.23,1.029-9.372,3.059c-0.027,0.025-0.055,0.051-0.083,0.076c-9.147,8.038-3.095,20.366,1.326,26.999
			c1.607,2.413,2.506,5.241,2.6,8.18c0.465,14.542,3.181,22.439,4.647,23.729c0.387-0.047,0.703-0.311,1.07-1.802
			c0.589-2.392,0.707-6.432,0.707-12.176c0-6.935,2.88-10.941,5.296-13.082C51.455,173.415,53.925,172.483,56.5,172.483z"/>
	</g>
	<g>
		<path class="st0" d="M213.791,121.874c-8.037,0-8.037-9.263-8.037-19.988c0-3.775-1.102-6.665-3.275-8.59
			c-1.625-1.441-4.332-1.441-5.957,0c-2.173,1.924-3.275,4.814-3.275,8.59c0,10.726,0,19.988-8.037,19.988
			c-8.52,0-10.1-20.663-10.384-29.548c-0.058-1.819-0.61-3.563-1.596-5.042c-4.43-6.647-13.323-23.334-0.335-34.8
			c3.291-3.094,7.818-4.662,13.458-4.662c5.265,0,10.222,1.392,12.708,2.221c0.288,0.096,0.595,0.096,0.88,0
			c2.487-0.829,7.444-2.221,12.709-2.221c5.639,0,10.167,1.568,13.458,4.662c12.988,11.466,4.095,28.152-0.335,34.8
			c-0.986,1.479-1.538,3.223-1.596,5.042C223.891,101.211,222.31,121.874,213.791,121.874z M199.5,86.18
			c2.575,0,5.046,0.932,6.957,2.624c2.416,2.141,5.296,6.147,5.296,13.082c0,5.744,0.118,9.784,0.707,12.177
			c0.367,1.491,0.683,1.755,1.07,1.802c1.466-1.289,4.183-9.187,4.647-23.729c0.094-2.939,0.993-5.768,2.6-8.179
			c4.421-6.633,10.473-18.962,1.327-27.001c-0.028-0.024-0.056-0.049-0.083-0.075c-2.143-2.029-5.296-3.058-9.373-3.058
			c-4.417,0-8.668,1.198-10.809,1.912c-1.511,0.506-3.167,0.506-4.68,0c-2.14-0.714-6.391-1.912-10.808-1.912
			c-4.077,0-7.231,1.028-9.373,3.058c-0.027,0.026-0.055,0.051-0.083,0.075c-9.146,8.039-3.095,20.368,1.326,27.001
			c1.607,2.411,2.506,5.239,2.6,8.179c0.465,14.543,3.181,22.44,4.647,23.729c0.387-0.047,0.703-0.311,1.07-1.802
			c0.589-2.393,0.707-6.433,0.707-12.177c0-6.936,2.88-10.941,5.297-13.082C194.454,87.111,196.925,86.18,199.5,86.18z"/>
	</g>
	<g>
		<path class="st0" d="M131.655,121.874H38.833c-8.645,0-15.678-7.033-15.678-15.679V63.5c0-8.645,7.033-15.678,15.678-15.678
			h92.823c8.645,0,15.678,7.033,15.678,15.678v25.842l13.407,6.091c1.071,0.486,1.759,1.555,1.759,2.731s-0.688,2.245-1.759,2.731
			l-13.427,6.101C146.895,115.271,140.032,121.874,131.655,121.874z M38.833,53.822c-5.336,0-9.678,4.342-9.678,9.678v42.695
			c0,5.337,4.341,9.679,9.678,9.679h92.823c5.336,0,9.678-4.342,9.678-9.679v-1.141c0-1.176,0.687-2.243,1.757-2.73l9.156-4.16
			l-9.156-4.16c-1.07-0.487-1.757-1.555-1.757-2.73V63.5c0-5.336-4.342-9.678-9.678-9.678H38.833z"/>
	</g>
	<g>
		<path class="st0" d="M217.167,208.178h-92.823c-8.376,0-15.24-6.604-15.658-14.877L95.259,187.2
			c-1.071-0.486-1.759-1.555-1.759-2.731s0.688-2.245,1.759-2.731l13.407-6.091v-25.842c0-8.645,7.033-15.678,15.678-15.678h92.823
			c8.645,0,15.678,7.033,15.678,15.678V192.5C232.845,201.145,225.812,208.178,217.167,208.178z M103.753,184.469l9.156,4.16
			c1.07,0.487,1.757,1.555,1.757,2.73v1.141c0,5.336,4.342,9.678,9.678,9.678h92.823c5.336,0,9.678-4.342,9.678-9.678v-42.695
			c0-5.336-4.341-9.678-9.678-9.678h-92.823c-5.336,0-9.678,4.342-9.678,9.678v27.773c0,1.176-0.687,2.243-1.757,2.73
			L103.753,184.469z"/>
	</g>
	<g>
		<path class="st0" d="M100.3,101.158c-2.545,1.943-5.184,2.915-7.636,2.915h-0.139c-3.24,0-5.97-1.296-8.469-2.776
			c-0.926-0.509-1.897-0.694-2.823-0.694c-1.527,0-3.101,0.647-3.286,0.787c-0.925,0.509-1.99,0.416-2.684-0.14
			c-0.046-0.046-0.139-0.046-0.278-0.092c-0.046-0.047-0.046-0.047-0.092-0.047c-0.231-0.323-0.509-0.602-0.648-1.064
			c-0.694-1.388-0.046-2.915,1.25-3.563l0.139-0.093c-1.851-0.879-3.61-2.082-5.137-3.517c-2.823-3.147-4.628-7.405-4.628-12.079
			c0-4.628,1.805-8.84,4.628-11.94c2.962-3.193,7.034-5.137,11.57-5.137s8.654,1.943,11.478,5.137
			c2.962,3.101,4.72,7.313,4.72,11.94c0,4.674-1.758,8.932-4.72,12.079c-1.435,1.48-3.193,2.73-5.137,3.656l-1.064,0.416
			c1.944,1.064,3.703,1.666,5.184,1.666c1.342,0,2.638-0.324,4.535-1.759c1.157-0.925,2.823-0.694,3.749,0.463
			C101.735,98.474,101.55,100.14,100.3,101.158z M74.522,89.125c1.897,2.083,4.535,3.332,7.543,3.332c2.962,0,5.6-1.249,7.636-3.332
			c1.99-2.129,3.193-5.044,3.193-8.33s-1.203-6.202-3.193-8.238c-2.036-2.129-4.674-3.378-7.636-3.378
			c-3.008,0-5.646,1.249-7.543,3.378c-1.99,2.036-3.193,4.952-3.193,8.238S72.532,86.996,74.522,89.125z"/>
	</g>
	<g>
		<path class="st0" d="M176.54,178.94h-11.246l-2.268,6.016c-0.417,1.019-1.388,1.62-2.407,1.62c-0.324,0-0.602-0.046-0.879-0.139
			c-1.342-0.509-1.99-1.99-1.527-3.332l10.228-27.259c0.417-1.019,1.435-1.666,2.453-1.62c1.064-0.046,2.036,0.602,2.453,1.62
			l10.228,27.259c0.463,1.342-0.185,2.823-1.527,3.332c-0.231,0.093-0.555,0.139-0.879,0.139c-1.018,0-1.99-0.602-2.36-1.62
			L176.54,178.94z M174.643,173.85l-3.749-9.95l-3.749,9.95H174.643z"/>
	</g>
</g>
</svg>
