<?xml version="1.0" encoding="utf-8"?>
<!-- Generator: Adobe Illustrator 18.0.0, SVG Export Plug-In . SVG Version: 6.00 Build 0)  -->
<!DOCTYPE svg PUBLIC "-//W3C//DTD SVG 1.1//EN" "http://www.w3.org/Graphics/SVG/1.1/DTD/svg11.dtd">
<svg version="1.1" id="Layer_1" xmlns="http://www.w3.org/2000/svg" xmlns:xlink="http://www.w3.org/1999/xlink" x="0px" y="0px"
	 viewBox="0 0 256 256" style="enable-background:new 0 0 256 256;" xml:space="preserve">
<style type="text/css">
	.st0{fill:#504774;}
	.st1{fill:#F1C48B;}
	.st2{fill:#FFFFFF;}
	.st3{fill:#D5E6F7;}
	.st4{fill:#A0D1F2;}
	.st5{fill:#7BABF3;}
	.st6{fill:#FD919F;}
	.st7{fill:#D4E7F8;}
	.st8{fill:#E0667D;}
	.st9{fill:#484771;}
</style>
<g>
	<g>
		<circle class="st1" cx="128" cy="128" r="103.873"/>
	</g>
	<g>
		<path class="st2" d="M177.434,66.23c-14.04-13.301-39.106-6.526-47.527-3.716c-1.851,0.618-3.846,0.618-5.697,0
			c-8.421-2.81-33.487-9.584-47.527,3.716c-23.015,20.225-6.742,50.746,1.66,63.352c2.68,4.02,4.145,8.716,4.299,13.546
			c0.892,27.915,6.51,54.595,15.134,54.595c9.424,0,10.322-10.771,10.322-34.809c0-11.428,4.286-18.222,8.782-22.205
			c5.77-5.111,14.588-5.111,20.358,0c4.496,3.982,8.782,10.776,8.782,22.205c0,24.039,0.898,34.809,10.322,34.809
			c8.624,0,14.241-26.68,15.133-54.595c0.154-4.829,1.619-9.525,4.299-13.546C184.176,116.976,200.449,86.455,177.434,66.23z"/>
	</g>
	<g>
		<g>
			<path class="st3" d="M177.434,66.23c-7.76-7.352-18.887-8.566-28.712-7.711c6.743,0.666,13.368,2.837,18.512,7.711
				c23.015,20.225,6.742,50.746-1.66,63.352c-2.68,4.02-4.145,8.716-4.299,13.546c-0.734,22.956-4.665,45.063-10.834,52.197
				c1.45,1.609,3.364,2.397,5.901,2.397c8.624,0,14.241-26.68,15.133-54.595c0.154-4.829,1.619-9.525,4.299-13.546
				C184.176,116.976,200.449,86.455,177.434,66.23z"/>
		</g>
	</g>
	<g>
		<path class="st0" d="M156.342,200.722c-13.322,0-13.322-16.685-13.322-37.809c0-8.677-2.614-15.393-7.771-19.959
			c-2.241-1.985-5.15-3.079-8.19-3.079s-5.948,1.094-8.189,3.079c-5.157,4.567-7.771,11.282-7.771,19.959
			c0,21.124,0,37.809-13.321,37.809c-15.51,0-17.825-47.896-18.132-57.498c-0.139-4.316-1.451-8.458-3.797-11.978
			c-8.624-12.938-25.994-45.38-1.186-67.233c6.142-5.796,14.706-8.735,25.454-8.735c10.345,0,20.131,2.751,25.044,4.391
			c1.227,0.41,2.568,0.41,3.799,0c4.912-1.64,14.698-4.391,25.042-4.391c10.749,0,19.313,2.939,25.455,8.735
			c24.807,21.853,7.438,54.294-1.186,67.233c-2.346,3.52-3.658,7.661-3.797,11.978C174.167,152.825,171.85,200.722,156.342,200.722z
			 M127.059,133.875c4.507,0,8.829,1.629,12.169,4.587c4.467,3.957,9.792,11.411,9.792,24.451c0,25.269,1.506,31.809,7.322,31.809
			c4.284,0,11.071-18.407,12.136-51.689c0.173-5.436,1.833-10.662,4.801-15.114c7.752-11.632,23.483-40.71,2.176-59.435
			c-0.028-0.025-0.056-0.051-0.083-0.076c-4.993-4.73-12.184-7.13-21.37-7.13c-9.495,0-18.576,2.558-23.145,4.082
			c-2.457,0.818-5.14,0.818-7.595,0c-4.568-1.524-13.648-4.082-23.146-4.082c-9.187,0-16.376,2.399-21.369,7.13
			c-0.027,0.025-0.055,0.051-0.083,0.076c-21.31,18.726-5.577,47.803,2.176,59.435c2.968,4.452,4.628,9.679,4.801,15.114
			c1.063,33.282,7.851,51.689,12.136,51.689c5.816,0,7.321-6.54,7.321-31.809c0-13.039,5.325-20.494,9.793-24.451
			C118.23,135.504,122.552,133.875,127.059,133.875z"/>
	</g>
	<g>
		<path class="st0" d="M128,104.194c-22.87,0-44.392-1.266-60.602-3.563c-24.238-3.436-27.506-7.741-27.506-11.5
			c0-3.664,3.092-7.87,26.023-11.284c1.632-0.234,3.166,0.887,3.409,2.526c0.243,1.639-0.888,3.165-2.526,3.409
			c-14.292,2.127-18.966,4.349-20.418,5.338c1.609,1.076,7.127,3.68,24.632,5.945c15.585,2.018,35.823,3.128,56.987,3.128
			s41.402-1.11,56.987-3.128c17.448-2.258,22.986-4.853,24.616-5.935c-1.557-1.033-6.68-3.445-22.347-5.629
			c-1.641-0.229-2.786-1.745-2.558-3.386c0.229-1.642,1.742-2.781,3.386-2.558c24.693,3.442,28.022,7.781,28.022,11.572
			c0,3.759-3.268,8.064-27.506,11.5C172.392,102.929,150.87,104.194,128,104.194z"/>
	</g>
	<g>
		<path class="st0" d="M128,132.676c-26.974,0-52.354-1.492-71.467-4.201c-28.369-4.021-32.007-9.081-32.007-13.04
			c0-3.898,3.521-8.887,30.98-12.892c0.887-0.129,1.721-0.256,2.539-0.381c2.313-0.353,4.5-0.686,7.379-1
			c1.645-0.176,3.128,1.009,3.309,2.656c0.18,1.647-1.01,3.129-2.656,3.309c-2.754,0.301-4.879,0.624-7.128,0.967
			c-0.83,0.126-1.677,0.255-2.577,0.387c-19.551,2.851-24.484,5.961-25.606,6.954c1.189,1.054,6.661,4.485,29.255,7.461
			c18.511,2.438,42.652,3.78,67.979,3.78s49.469-1.343,67.979-3.78c22.594-2.976,28.065-6.407,29.255-7.461
			c-1.162-1.028-6.408-4.326-27.718-7.254c-0.936-0.128-1.807-0.254-2.66-0.377c-2.132-0.309-4.146-0.6-6.75-0.871
			c-1.648-0.171-2.845-1.646-2.674-3.294c0.173-1.648,1.655-2.862,3.295-2.673c2.723,0.283,4.794,0.582,6.987,0.899
			c0.84,0.121,1.698,0.245,2.619,0.372c29.373,4.034,33.14,9.172,33.14,13.197c0,3.959-3.638,9.02-32.007,13.04
			C180.354,131.184,154.974,132.676,128,132.676z"/>
	</g>
	<g>
		<path class="st0" d="M128,165.847c-31.396,0-60.932-1.735-83.168-4.888c-32.666-4.629-36.854-10.287-36.854-14.698
			c0-5.114,6.653-8.827,21.571-12.039c12.389-2.668,29.713-4.769,50.099-6.075c1.632-0.092,3.079,1.148,3.186,2.803
			c0.105,1.653-1.148,3.079-2.803,3.186c-19.051,1.221-35.446,3.148-47.415,5.575c-14.949,3.031-18.009,5.857-18.555,6.551
			c0.7,0.885,5.52,5.268,33.929,9.077c21.684,2.907,50.099,4.509,80.011,4.509s58.327-1.602,80.011-4.509
			c28.409-3.81,33.229-8.192,33.929-9.077c-0.553-0.702-3.683-3.59-19.113-6.663c-12.323-2.454-29.154-4.383-48.675-5.577
			c-1.653-0.101-2.912-1.523-2.811-3.178c0.102-1.652,1.518-2.917,3.178-2.811c20.862,1.276,38.628,3.375,51.374,6.07
			c15.305,3.235,22.13,6.985,22.13,12.158c0,4.411-4.188,10.069-36.854,14.698C188.932,164.111,159.396,165.847,128,165.847z"/>
	</g>
	<g>
		<path class="st3" d="M178.647,94.619c0-7.263-5.888-13.15-13.15-13.15c-4.699,0-8.81,2.472-11.136,6.178
			c-2.326-3.706-6.437-6.178-11.136-6.178c-7.263,0-13.15,5.888-13.15,13.15c0,6.579,4.836,12.013,11.144,12.982
			c-0.001,0.057-0.009,0.112-0.009,0.169c0,7.263,5.888,13.15,13.15,13.15c7.263,0,13.15-5.888,13.15-13.15
			c0-0.057-0.008-0.112-0.008-0.169C173.81,106.633,178.647,101.198,178.647,94.619z"/>
	</g>
	<g>
		<path class="st0" d="M154.36,123.92c-8.145,0-14.9-6.059-15.995-13.906c-6.668-2.073-11.291-8.205-11.291-15.395
			c0-8.905,7.245-16.15,16.15-16.15c4.221,0,8.172,1.619,11.136,4.46c2.965-2.841,6.916-4.46,11.136-4.46
			c8.905,0,16.15,7.245,16.15,16.15c0,7.189-4.623,13.321-11.291,15.395C169.261,117.861,162.505,123.92,154.36,123.92z
			 M144.21,107.839c0.037,5.565,4.576,10.081,10.15,10.081c5.572,0,10.11-4.514,10.15-10.077c-0.005-0.065-0.007-0.128-0.009-0.191
			c-0.025-1.5,1.063-2.789,2.545-3.016c4.983-0.765,8.6-4.978,8.6-10.017c0-5.597-4.554-10.15-10.15-10.15
			c-3.506,0-6.719,1.784-8.595,4.773c-0.549,0.874-1.509,1.405-2.541,1.405l0,0c-1.033,0-1.993-0.531-2.541-1.406
			c-1.875-2.988-5.088-4.772-8.595-4.772c-5.597,0-10.15,4.554-10.15,10.15c0,5.039,3.616,9.252,8.6,10.017
			c1.482,0.227,2.57,1.516,2.545,3.016C144.218,107.692,144.214,107.774,144.21,107.839z"/>
	</g>
	<g>
		<path class="st3" d="M97.225,157.947c0-7.263-5.888-13.15-13.15-13.15c-4.699,0-8.81,2.472-11.136,6.178
			c-2.326-3.706-6.437-6.178-11.136-6.178c-7.263,0-13.151,5.888-13.151,13.15c0,6.579,4.836,12.013,11.144,12.982
			c-0.001,0.057-0.009,0.112-0.009,0.169c0,7.263,5.888,13.15,13.15,13.15c7.263,0,13.151-5.888,13.151-13.15
			c0-0.057-0.008-0.112-0.008-0.169C92.389,169.961,97.225,164.526,97.225,157.947z"/>
	</g>
	<g>
		<path class="st0" d="M72.938,187.248c-8.145,0-14.9-6.059-15.995-13.906c-6.668-2.073-11.291-8.205-11.291-15.395
			c0-8.905,7.245-16.15,16.15-16.15c4.221,0,8.172,1.619,11.136,4.46c2.965-2.841,6.916-4.46,11.136-4.46
			c8.905,0,16.15,7.245,16.15,16.15c0,7.189-4.623,13.322-11.291,15.395C87.838,181.188,81.082,187.248,72.938,187.248z
			 M62.788,171.166c0.037,5.565,4.576,10.082,10.15,10.082s10.113-4.517,10.15-10.082c-0.005-0.082-0.008-0.159-0.008-0.237
			c0-1.481,1.081-2.74,2.545-2.965c4.982-0.765,8.599-4.978,8.599-10.017c0-5.597-4.554-10.15-10.15-10.15
			c-3.506,0-6.719,1.784-8.595,4.773c-0.549,0.874-1.509,1.405-2.541,1.405l0,0c-1.033,0-1.993-0.531-2.541-1.406
			c-1.875-2.988-5.088-4.772-8.595-4.772c-5.597,0-10.15,4.554-10.15,10.15c0,4.958,3.697,9.264,8.6,10.017
			c1.483,0.228,2.57,1.516,2.545,3.017C62.796,171.021,62.792,171.103,62.788,171.166z"/>
	</g>
	<g>
		<circle class="st3" cx="94.209" cy="79.526" r="9.047"/>
	</g>
	<g>
		<path class="st0" d="M94.209,91.572c-6.643,0-12.047-5.404-12.047-12.047s5.404-12.047,12.047-12.047s12.047,5.404,12.047,12.047
			S100.852,91.572,94.209,91.572z M94.209,73.479c-3.334,0-6.047,2.713-6.047,6.047s2.713,6.047,6.047,6.047
			s6.047-2.713,6.047-6.047S97.543,73.479,94.209,73.479z"/>
	</g>
	<g>
		<circle class="st3" cx="192.217" cy="160.445" r="9.047"/>
	</g>
	<g>
		<path class="st0" d="M192.217,172.492c-6.643,0-12.047-5.404-12.047-12.047s5.404-12.047,12.047-12.047
			s12.047,5.404,12.047,12.047S198.859,172.492,192.217,172.492z M192.217,154.398c-3.334,0-6.047,2.713-6.047,6.047
			s2.713,6.047,6.047,6.047s6.047-2.713,6.047-6.047S195.551,154.398,192.217,154.398z"/>
	</g>
</g>
</svg>
