<?xml version="1.0" encoding="utf-8"?>
<!-- Generator: Adobe Illustrator 18.0.0, SVG Export Plug-In . SVG Version: 6.00 Build 0)  -->
<!DOCTYPE svg PUBLIC "-//W3C//DTD SVG 1.1//EN" "http://www.w3.org/Graphics/SVG/1.1/DTD/svg11.dtd">
<svg version="1.1" id="Layer_1" xmlns="http://www.w3.org/2000/svg" xmlns:xlink="http://www.w3.org/1999/xlink" x="0px" y="0px"
	 viewBox="0 0 256 256" style="enable-background:new 0 0 256 256;" xml:space="preserve">
<style type="text/css">
	.st0{fill:#504774;}
	.st1{fill:#F1C48B;}
	.st2{fill:#FFFFFF;}
	.st3{fill:#D5E6F7;}
	.st4{fill:#A0D1F2;}
	.st5{fill:#7BABF3;}
	.st6{fill:#FD919F;}
	.st7{fill:#D4E7F8;}
	.st8{fill:#E0667D;}
	.st9{fill:#484771;}
</style>
<g>
	<g>
		<circle class="st1" cx="128" cy="128" r="103.873"/>
	</g>
	<g>
		<path class="st6" d="M128,185.839L128,185.839c-46.492,0-84.181-37.689-84.181-84.181v0c0-4.141,3.357-7.497,7.497-7.497h153.368
			c4.141,0,7.497,3.357,7.497,7.497v0C212.181,148.15,174.492,185.839,128,185.839z"/>
	</g>
	<g>
		<path class="st2" d="M122.88,159.609h-16.794c-2.828,0-5.12,2.293-5.12,5.12v16.648c8.488,2.878,17.574,4.462,27.035,4.462h0
			v-21.11C128,161.902,125.708,159.609,122.88,159.609z"/>
	</g>
	<g>
		<path class="st2" d="M155.035,164.729c0-2.828-2.292-5.12-5.12-5.12H133.12c-2.828,0-5.12,2.293-5.12,5.12v21.11h0
			c9.461,0,18.546-1.584,27.035-4.462V164.729z"/>
	</g>
	<g>
		<path class="st3" d="M122.88,159.609h-5.214v25.592c3.386,0.419,6.834,0.638,10.334,0.638h0v-21.11
			C128,161.902,125.708,159.609,122.88,159.609z"/>
	</g>
	<g>
		<path class="st3" d="M149.914,159.609H144.7v24.547c3.528-0.715,6.979-1.642,10.334-2.779v-16.648
			C155.035,161.902,152.742,159.609,149.914,159.609z"/>
	</g>
	<g>
		<path class="st2" d="M160.511,133.074h-24.915c-4.195,0-7.596-3.401-7.596-7.596V94.161h40.106v31.317
			C168.106,129.673,164.706,133.074,160.511,133.074z"/>
	</g>
	<g>
		<path class="st2" d="M120.404,133.074H95.489c-4.195,0-7.596-3.401-7.596-7.596V94.161H128v31.317
			C128,129.673,124.599,133.074,120.404,133.074z"/>
	</g>
	<g>
		<path class="st3" d="M114.928,94.161v31.317c0,4.195-3.401,7.596-7.596,7.596h13.072c4.195,0,7.596-3.4,7.596-7.596V94.161
			H114.928z"/>
	</g>
	<g>
		<path class="st3" d="M155.035,94.161v31.317c0,4.195-3.401,7.596-7.596,7.596h13.072c4.195,0,7.596-3.4,7.596-7.596V94.161
			H155.035z"/>
	</g>
	<g>
		<path class="st0" d="M120.404,136.073H95.489c-5.842,0-10.596-4.753-10.596-10.596V94.161c0-1.657,1.343-3,3-3H128
			c1.657,0,3,1.343,3,3v31.316C131,131.32,126.247,136.073,120.404,136.073z M90.894,97.161v28.316c0,2.534,2.062,4.596,4.596,4.596
			h24.915c2.534,0,4.596-2.062,4.596-4.596V97.161H90.894z"/>
	</g>
	<g>
		<path class="st0" d="M160.511,136.073h-24.915c-5.843,0-10.596-4.753-10.596-10.596V94.161c0-1.657,1.343-3,3-3h40.106
			c1.657,0,3,1.343,3,3v31.316C171.106,131.32,166.354,136.073,160.511,136.073z M131,97.161v28.316
			c0,2.534,2.062,4.596,4.596,4.596h24.915c2.534,0,4.596-2.062,4.596-4.596V97.161H131z"/>
	</g>
	<g>
		<path class="st0" d="M128,188.84c-9.533,0-18.953-1.555-27.998-4.622c-1.217-0.412-2.037-1.556-2.037-2.841v-16.647
			c0-4.478,3.643-8.12,8.12-8.12h16.794c4.478,0,8.12,3.643,8.12,8.12v21.11C131,187.497,129.657,188.84,128,188.84z
			 M103.965,179.197c6.841,2.121,13.894,3.324,21.035,3.587v-18.055c0-1.169-0.951-2.12-2.12-2.12h-16.794
			c-1.169,0-2.12,0.951-2.12,2.12V179.197z"/>
	</g>
	<g>
		<path class="st0" d="M128,188.84c-1.657,0-3-1.343-3-3v-21.11c0-4.478,3.643-8.12,8.12-8.12h16.794
			c4.478,0,8.121,3.643,8.121,8.12v16.647c0,1.286-0.819,2.429-2.037,2.841C146.952,187.285,137.532,188.84,128,188.84z
			 M133.12,162.609c-1.169,0-2.12,0.951-2.12,2.12v18.055c7.14-0.263,14.194-1.466,21.035-3.588v-14.467
			c0-1.169-0.951-2.12-2.121-2.12H133.12z"/>
	</g>
	<g>
		<path class="st0" d="M128,188.839c-48.072,0-87.181-39.109-87.181-87.181c0-5.788,4.709-10.497,10.497-10.497h153.368
			c5.789,0,10.498,4.709,10.498,10.497C215.182,149.729,176.072,188.839,128,188.839z M51.316,97.161
			c-2.479,0-4.497,2.018-4.497,4.497c0,44.763,36.417,81.181,81.181,81.181s81.182-36.418,81.182-81.181
			c0-2.479-2.018-4.497-4.498-4.497H51.316z"/>
	</g>
</g>
</svg>
