<?xml version="1.0" encoding="utf-8"?>
<!-- Generator: Adobe Illustrator 18.0.0, SVG Export Plug-In . SVG Version: 6.00 Build 0)  -->
<!DOCTYPE svg PUBLIC "-//W3C//DTD SVG 1.1//EN" "http://www.w3.org/Graphics/SVG/1.1/DTD/svg11.dtd">
<svg version="1.1" id="Layer_1" xmlns="http://www.w3.org/2000/svg" xmlns:xlink="http://www.w3.org/1999/xlink" x="0px" y="0px"
	 viewBox="0 0 256 256" style="enable-background:new 0 0 256 256;" xml:space="preserve">
<style type="text/css">
	.st0{fill:#504774;}
	.st1{fill:#F1C48B;}
	.st2{fill:#FFFFFF;}
	.st3{fill:#D5E6F7;}
	.st4{fill:#A0D1F2;}
	.st5{fill:#7BABF3;}
	.st6{fill:#FD919F;}
	.st7{fill:#D4E7F8;}
	.st8{fill:#E0667D;}
	.st9{fill:#484771;}
</style>
<g>
	<g>
		<circle class="st1" cx="128" cy="128" r="103.873"/>
	</g>
	<g>
		<path class="st2" d="M187.265,55.33c-16.517-15.648-46.006-7.678-55.913-4.372c-2.178,0.727-4.525,0.727-6.702,0
			c-9.907-3.306-39.396-11.275-55.913,4.372c-27.076,23.794-7.931,59.701,1.953,74.531c3.153,4.73,4.876,10.255,5.058,15.936
			c1.05,32.84,7.658,64.228,17.804,64.228c11.087,0,12.143-12.671,12.143-40.952c0-13.445,5.042-21.438,10.331-26.123
			c6.788-6.012,17.162-6.012,23.95,0c5.29,4.685,10.331,12.678,10.331,26.123c0,28.281,1.056,40.952,12.144,40.952
			c10.145,0,16.754-31.387,17.804-64.228c0.182-5.681,1.905-11.206,5.057-15.936C195.196,115.031,214.34,79.124,187.265,55.33z"/>
	</g>
	<g>
		<g>
			<path class="st3" d="M187.265,55.33c-9.13-8.649-22.22-10.077-33.778-9.071c7.933,0.783,15.727,3.338,21.778,9.071
				c27.076,23.794,7.931,59.701-1.953,74.531c-3.152,4.73-4.876,10.255-5.058,15.936c-0.863,27.007-5.488,53.014-12.746,61.408
				c1.706,1.893,3.958,2.82,6.942,2.82c10.145,0,16.754-31.387,17.804-64.228c0.181-5.681,1.905-11.206,5.057-15.936
				C195.196,115.031,214.34,79.124,187.265,55.33z"/>
		</g>
	</g>
	<g>
		<path class="st0" d="M162.45,213.025c-15.144,0-15.144-18.436-15.144-43.952c0-10.365-3.136-18.398-9.321-23.877
			c-2.734-2.422-6.28-3.755-9.986-3.755s-7.252,1.333-9.986,3.755c-6.185,5.478-9.32,13.511-9.32,23.877
			c0,25.517,0,43.952-15.144,43.952c-18.134,0-20.583-60.262-20.802-67.133c-0.166-5.176-1.741-10.145-4.555-14.367
			c-10.069-15.107-30.357-52.979-1.479-78.412c7.125-6.727,17.081-10.138,29.59-10.138c12.093,0,23.544,3.218,29.295,5.137
			c1.554,0.518,3.249,0.518,4.803,0c5.75-1.919,17.202-5.137,29.294-5.137c12.509,0,22.465,3.411,29.59,10.138
			c28.878,25.433,8.59,63.305-1.479,78.412c-2.815,4.222-4.39,9.19-4.556,14.367C183.033,152.764,180.583,213.025,162.45,213.025z
			 M128,135.441c5.173,0,10.132,1.869,13.964,5.263c5.175,4.584,11.343,13.227,11.343,28.369c0,28.476,1.322,37.952,9.144,37.952
			c5.385,0,13.526-21.312,14.805-61.324c0.201-6.297,2.124-12.35,5.56-17.504c9.198-13.801,27.851-48.309,2.469-70.613
			c-0.028-0.025-0.056-0.051-0.083-0.076c-5.977-5.662-14.558-8.532-25.505-8.532c-11.245,0-21.991,3.025-27.396,4.828
			c-2.781,0.928-5.821,0.928-8.601,0c-5.405-1.803-16.151-4.828-27.396-4.828c-10.948,0-19.529,2.87-25.505,8.532
			c-0.027,0.025-0.055,0.051-0.083,0.076c-25.382,22.305-6.729,56.813,2.469,70.613c3.436,5.155,5.358,11.208,5.56,17.504
			c1.278,40.013,9.419,61.324,14.805,61.324c7.822,0,9.144-9.477,9.144-37.952c0-15.144,6.168-23.786,11.342-28.369
			C117.868,137.311,122.827,135.441,128,135.441z"/>
	</g>
	<g>
		<polygon class="st6" points="158.833,86.205 136.962,86.205 136.962,64.333 119.038,64.333 119.038,86.205 97.167,86.205 
			97.167,104.129 119.038,104.129 119.038,126 136.962,126 136.962,104.129 158.833,104.129 		"/>
	</g>
	<g>
		<path class="st0" d="M136.962,129h-17.924c-1.657,0-3-1.343-3-3v-18.871H97.167c-1.657,0-3-1.343-3-3V86.205c0-1.657,1.343-3,3-3
			h18.872V64.333c0-1.657,1.343-3,3-3h17.924c1.657,0,3,1.343,3,3v18.872h18.872c1.657,0,3,1.343,3,3v17.924c0,1.657-1.343,3-3,3
			h-18.872V126C139.962,127.657,138.619,129,136.962,129z M122.038,123h11.924v-18.871c0-1.657,1.343-3,3-3h18.872V89.205h-18.872
			c-1.657,0-3-1.343-3-3V67.333h-11.924v18.872c0,1.657-1.343,3-3,3h-18.872v11.924h18.872c1.657,0,3,1.343,3,3V123z"/>
	</g>
</g>
</svg>
