<?xml version="1.0" encoding="utf-8"?>
<!-- Generator: Adobe Illustrator 18.0.0, SVG Export Plug-In . SVG Version: 6.00 Build 0)  -->
<!DOCTYPE svg PUBLIC "-//W3C//DTD SVG 1.1//EN" "http://www.w3.org/Graphics/SVG/1.1/DTD/svg11.dtd">
<svg version="1.1" id="Layer_1" xmlns="http://www.w3.org/2000/svg" xmlns:xlink="http://www.w3.org/1999/xlink" x="0px" y="0px"
	 viewBox="0 0 256 256" style="enable-background:new 0 0 256 256;" xml:space="preserve">
<style type="text/css">
	.st0{fill:#504774;}
	.st1{fill:#F1C48B;}
	.st2{fill:#FFFFFF;}
	.st3{fill:#D5E6F7;}
	.st4{fill:#A0D1F2;}
	.st5{fill:#7BABF3;}
	.st6{fill:#FD919F;}
	.st7{fill:#D4E7F8;}
	.st8{fill:#E0667D;}
	.st9{fill:#484771;}
</style>
<g>
	<g>
		<circle class="st1" cx="128" cy="128" r="103.873"/>
	</g>
	<g>
		<path class="st2" d="M157.467,45.407c-8.213-7.78-22.875-3.818-27.801-2.174c-1.083,0.361-2.25,0.361-3.333,0
			c-4.926-1.644-19.589-5.606-27.801,2.174c-13.463,11.831-3.944,29.684,0.971,37.058c1.567,2.352,2.424,5.099,2.515,7.924
			c0.522,16.329,3.808,31.935,8.852,31.935c5.513,0,6.038-6.3,6.038-20.362c0-6.685,2.507-10.659,5.137-12.989
			c3.375-2.99,8.533-2.99,11.909,0c2.63,2.33,5.137,6.303,5.137,12.989c0,14.062,0.525,20.362,6.038,20.362
			c5.044,0,8.33-15.606,8.852-31.935c0.09-2.825,0.947-5.572,2.515-7.924C161.411,75.091,170.93,57.238,157.467,45.407z"/>
	</g>
	<g>
		<g>
			<path class="st3" d="M157.467,45.407c-4.926-4.667-12.172-5.107-18.246-4.359c3.515,0.52,6.908,1.804,9.605,4.359
				c13.463,11.831,3.944,29.684-0.971,37.058c-1.567,2.352-2.424,5.099-2.514,7.924c-0.37,11.562-2.126,22.753-4.91,28.307
				c0.88,2.452,2.326,3.628,4.699,3.628c5.044,0,8.33-15.606,8.852-31.935c0.09-2.825,0.947-5.572,2.515-7.924
				C161.411,75.092,170.93,57.238,157.467,45.407z"/>
		</g>
	</g>
	<g>
		<path class="st0" d="M145.129,125.324c-9.038,0-9.038-10.31-9.038-23.361c0-4.703-1.389-8.318-4.126-10.744
			c-1.083-0.959-2.491-1.487-3.965-1.487s-2.882,0.528-3.965,1.488c-2.737,2.425-4.126,6.04-4.126,10.743
			c0,13.052,0,23.361-9.038,23.361c-9.964,0-11.59-26.667-11.851-34.84c-0.074-2.292-0.771-4.49-2.013-6.354
			c-5.225-7.838-15.722-27.508-0.497-40.939c3.83-3.606,9.122-5.435,15.729-5.435c6.226,0,12.098,1.648,15.044,2.632
			c0.465,0.154,0.969,0.154,1.434,0c2.946-0.983,8.818-2.632,15.044-2.632c6.606,0,11.898,1.828,15.729,5.435
			c15.225,13.433,4.728,33.102-0.497,40.939c-1.242,1.864-1.938,4.063-2.013,6.355C156.719,98.657,155.093,125.324,145.129,125.324z
			 M128,83.731c2.94,0,5.762,1.064,7.943,2.996c2.805,2.485,6.147,7.146,6.147,15.235c0,7.108,0.142,11.799,0.865,14.736
			c0.613,2.494,1.313,2.618,2.056,2.625c1.772-1.006,5.384-10.645,5.972-29.031c0.109-3.413,1.152-6.694,3.017-9.491
			c5.407-8.113,12.791-23.207,1.487-33.142c-0.028-0.024-0.056-0.05-0.083-0.075c-2.682-2.541-6.6-3.829-11.644-3.829
			c-5.378,0-10.544,1.456-13.146,2.323c-1.691,0.564-3.539,0.564-5.23,0c-2.602-0.867-7.768-2.323-13.146-2.323
			c-5.044,0-8.962,1.288-11.644,3.829c-0.027,0.026-0.055,0.051-0.083,0.076c-11.305,9.934-3.92,25.027,1.487,33.141
			c1.864,2.797,2.907,6.078,3.017,9.49c0.588,18.388,4.199,28.026,5.972,29.032c0.742-0.007,1.442-0.131,2.056-2.625
			c0.724-2.938,0.865-7.628,0.865-14.736c0-8.09,3.343-12.75,6.147-15.234C122.238,84.796,125.06,83.731,128,83.731z"/>
	</g>
	<g>
		<polygon class="st6" points="211.974,215.244 163.335,215.244 171.943,128.302 203.365,128.302 		"/>
	</g>
	<g>
		<path class="st2" d="M142.159,183.255l11.935-10.486c1.967-1.745,4.948-1.676,6.832,0.158l0,0
			c1.987,1.934,2.029,5.113,0.094,7.099l-18.861,18.136V183.255z"/>
	</g>
	<g>
		<path class="st2" d="M116.32,183.255l-11.935-10.486c-1.967-1.745-4.948-1.676-6.832,0.158l0,0
			c-1.987,1.934-2.029,5.113-0.093,7.099l18.86,18.136V183.255z"/>
	</g>
	<g>
		<rect x="116.32" y="183.256" class="st4" width="25.839" height="31.989"/>
	</g>
	<g>
		<rect x="133.82" y="183.256" class="st5" width="8.339" height="31.989"/>
	</g>
	<g>
		<polygon class="st8" points="203.365,128.302 194.757,128.302 203.365,215.244 211.974,215.244 		"/>
	</g>
	<g>
		<path class="st2" d="M162.391,172.75L162.391,172.75c2.917,0,5.359-2.212,5.648-5.115l3.904-39.333h-1.213
			c-5.806,0-10.685,4.948-11.335,11.495l-2.652,26.717C156.412,169.854,159.035,172.75,162.391,172.75z"/>
	</g>
	<g>
		<path class="st2" d="M212.917,172.75L212.917,172.75c3.356,0,5.979-2.896,5.648-6.236l-2.652-26.717
			c-0.65-6.547-5.529-11.495-11.335-11.495h-1.213l3.904,39.333C207.558,170.538,210,172.75,212.917,172.75z"/>
	</g>
	<g>
		<circle class="st2" cx="71.64" cy="105.479" r="16.845"/>
	</g>
	<g>
		<circle class="st2" cx="129.24" cy="172.283" r="10.973"/>
	</g>
	<g>
		<circle class="st2" cx="187.654" cy="111.457" r="16.845"/>
	</g>
	<g>
		<rect x="51.807" y="122.325" class="st3" width="39.667" height="92.92"/>
	</g>
	<g>
		<rect x="80.807" y="122.325" class="st4" width="10.667" height="92.92"/>
	</g>
	<g>
		<path class="st3" d="M44.607,171.773L44.607,171.773c3.976,0,7.2-3.223,7.2-7.2v-42.249l0,0c-7.953,0-14.4,6.447-14.4,14.4v27.849
			C37.407,168.55,40.63,171.773,44.607,171.773z"/>
	</g>
	<g>
		<path class="st3" d="M98.674,171.773L98.674,171.773c3.976,0,7.2-3.223,7.2-7.2v-27.849c0-7.953-6.447-14.4-14.4-14.4h0v42.249
			C91.474,168.55,94.698,171.773,98.674,171.773z"/>
	</g>
	<g>
		<path class="st0" d="M91.474,218.244H51.807c-1.657,0-3-1.343-3-3v-92.92c0-1.657,1.343-3,3-3h39.667c1.657,0,3,1.343,3,3v92.92
			C94.474,216.901,93.131,218.244,91.474,218.244z M54.807,212.244h33.667v-86.92H54.807V212.244z"/>
	</g>
	<g>
		<path class="st0" d="M71.641,125.324c-10.943,0-19.846-8.902-19.846-19.845s8.902-19.845,19.846-19.845
			c10.942,0,19.845,8.902,19.845,19.845S82.583,125.324,71.641,125.324z M71.641,91.635c-7.635,0-13.846,6.211-13.846,13.845
			s6.211,13.845,13.846,13.845c7.634,0,13.845-6.211,13.845-13.845S79.274,91.635,71.641,91.635z"/>
	</g>
	<g>
		<path class="st0" d="M44.606,174.773c-5.624,0-10.199-4.576-10.199-10.2v-27.849c0-9.595,7.806-17.4,17.399-17.4
			c1.657,0,3,1.343,3,3v42.249C54.807,170.197,50.23,174.773,44.606,174.773z M48.807,125.725c-4.835,1.32-8.399,5.752-8.399,11
			v27.849c0,2.316,1.884,4.2,4.199,4.2c2.316,0,4.2-1.884,4.2-4.2V125.725z"/>
	</g>
	<g>
		<path class="st0" d="M98.674,174.773c-5.624,0-10.2-4.576-10.2-10.2v-42.249c0-1.657,1.343-3,3-3c9.595,0,17.4,7.806,17.4,17.4
			v27.849C108.874,170.197,104.298,174.773,98.674,174.773z M94.475,125.725l-0.001,38.849c0,2.316,1.884,4.2,4.2,4.2
			s4.2-1.884,4.2-4.2v-27.849C102.874,131.477,99.31,127.045,94.475,125.725z"/>
	</g>
	<g>
		<path class="st0" d="M142.159,218.244H116.32c-1.657,0-3-1.343-3-3v-31.988c0-1.657,1.343-3,3-3h25.839c1.657,0,3,1.343,3,3
			v31.988C145.159,216.901,143.816,218.244,142.159,218.244z M119.32,212.244h19.839v-25.988H119.32V212.244z"/>
	</g>
	<g>
		<path class="st0" d="M129.24,186.256c-7.704,0-13.973-6.269-13.973-13.973s6.269-13.973,13.973-13.973s13.973,6.269,13.973,13.973
			S136.944,186.256,129.24,186.256z M129.24,164.311c-4.396,0-7.973,3.576-7.973,7.973s3.576,7.973,7.973,7.973
			s7.973-3.576,7.973-7.973S133.637,164.311,129.24,164.311z"/>
	</g>
	<g>
		<path class="st0" d="M211.993,218.244c-0.004,0.001-0.012,0.001-0.02,0h-48.639c-0.847,0-1.654-0.358-2.224-0.986
			c-0.568-0.627-0.846-1.466-0.762-2.31l8.608-86.942c0.152-1.534,1.443-2.704,2.985-2.704h31.422c1.542,0,2.833,1.17,2.985,2.704
			l8.574,86.596c0.045,0.207,0.068,0.422,0.068,0.643C214.993,216.901,213.65,218.244,211.993,218.244z M166.646,212.244h42.016
			l-8.015-80.942h-25.986L166.646,212.244z"/>
	</g>
	<g>
		<path class="st0" d="M187.654,131.302c-10.942,0-19.845-8.902-19.845-19.845c0-10.943,8.902-19.846,19.845-19.846
			s19.845,8.902,19.845,19.846C207.499,122.399,198.597,131.302,187.654,131.302z M187.654,97.611
			c-7.634,0-13.845,6.211-13.845,13.846c0,7.634,6.211,13.845,13.845,13.845s13.845-6.211,13.845-13.845
			C201.499,103.822,195.288,97.611,187.654,97.611z"/>
	</g>
	<g>
		<path class="st0" d="M162.392,175.75c-2.445,0-4.789-1.04-6.431-2.853s-2.444-4.247-2.202-6.681l2.651-26.716
			c0.804-8.095,6.961-14.199,14.32-14.199h1.213c0.848,0,1.655,0.358,2.224,0.986s0.846,1.467,0.762,2.31l-3.904,39.333
			C170.582,172.389,166.871,175.75,162.392,175.75z M168.599,131.626c-3.276,1.016-5.806,4.319-6.218,8.468l-2.651,26.716
			c-0.076,0.763,0.165,1.494,0.679,2.061c0.514,0.567,1.218,0.88,1.983,0.88c1.381,0,2.525-1.037,2.662-2.411L168.599,131.626z"/>
	</g>
	<g>
		<path class="st0" d="M212.917,175.75c-4.479,0-8.19-3.361-8.633-7.819l-3.904-39.333c-0.084-0.843,0.193-1.682,0.762-2.31
			s1.376-0.986,2.224-0.986h1.213c7.359,0,13.517,6.104,14.32,14.198l2.651,26.718c0.242,2.433-0.561,4.867-2.202,6.68
			S215.362,175.75,212.917,175.75z M206.71,131.626l3.545,35.713c0.137,1.374,1.281,2.411,2.662,2.411
			c0.766,0,1.47-0.313,1.983-0.88c0.514-0.566,0.755-1.298,0.679-2.06l-2.651-26.718
			C212.516,135.945,209.986,132.642,206.71,131.626z"/>
	</g>
	<g>
		<path class="st0" d="M142.158,201.163c-0.396,0-0.795-0.078-1.174-0.239c-1.106-0.472-1.825-1.558-1.825-2.761v-14.907
			c0-0.863,0.372-1.684,1.02-2.254l11.935-10.486c1.459-1.293,3.349-2.011,5.312-2.011c2.102,0,4.088,0.808,5.594,2.272
			c1.536,1.496,2.396,3.499,2.425,5.642s-0.78,4.167-2.275,5.701l-18.93,18.205C143.669,200.874,142.919,201.163,142.158,201.163z
			 M145.159,184.613v6.503l13.781-13.252c0.308-0.318,0.511-0.828,0.504-1.367s-0.224-1.044-0.61-1.42
			c-0.732-0.712-1.984-0.742-2.75-0.063L145.159,184.613z"/>
	</g>
	<g>
		<path class="st0" d="M116.321,201.163c-0.761,0-1.511-0.289-2.08-0.838l-18.86-18.137c-1.564-1.603-2.373-3.627-2.345-5.771
			c0.028-2.142,0.89-4.146,2.425-5.64c1.506-1.466,3.492-2.273,5.595-2.273c1.962,0,3.852,0.718,5.32,2.021l11.925,10.477
			c0.647,0.57,1.02,1.391,1.02,2.254v14.907c0,1.203-0.719,2.289-1.825,2.761C117.116,201.085,116.717,201.163,116.321,201.163z
			 M101.056,174.505c-0.53,0-1.03,0.203-1.409,0.572c-0.387,0.377-0.604,0.881-0.611,1.421c-0.007,0.539,0.196,1.048,0.573,1.435
			l13.712,13.185v-6.504l-10.915-9.59C102.025,174.686,101.549,174.505,101.056,174.505z"/>
	</g>
</g>
</svg>
