<?xml version="1.0" encoding="utf-8"?>
<!-- Generator: Adobe Illustrator 18.0.0, SVG Export Plug-In . SVG Version: 6.00 Build 0)  -->
<!DOCTYPE svg PUBLIC "-//W3C//DTD SVG 1.1//EN" "http://www.w3.org/Graphics/SVG/1.1/DTD/svg11.dtd">
<svg version="1.1" id="Layer_1" xmlns="http://www.w3.org/2000/svg" xmlns:xlink="http://www.w3.org/1999/xlink" x="0px" y="0px"
	 viewBox="0 0 256 256" style="enable-background:new 0 0 256 256;" xml:space="preserve">
<style type="text/css">
	.st0{fill:#504774;}
	.st1{fill:#F1C48B;}
	.st2{fill:#FFFFFF;}
	.st3{fill:#D5E6F7;}
	.st4{fill:#A0D1F2;}
	.st5{fill:#7BABF3;}
	.st6{fill:#FD919F;}
	.st7{fill:#D4E7F8;}
	.st8{fill:#E0667D;}
	.st9{fill:#484771;}
</style>
<g>
	<g>
		<circle class="st1" cx="128" cy="128" r="103.873"/>
	</g>
	<g>
		<rect x="52.2" y="65.718" class="st6" width="109.443" height="149.21"/>
	</g>
	<g>
		<rect x="148.563" y="65.718" class="st8" width="13.08" height="149.21"/>
	</g>
	<g>
		<rect x="65.28" y="65.718" class="st2" width="83.282" height="134.876"/>
	</g>
	<g>
		<rect x="137.53" y="65.718" class="st3" width="11.032" height="134.876"/>
	</g>
	<g>
		<path class="st0" d="M161.643,217.927H52.2c-1.657,0-3-1.343-3-3V65.718c0-1.657,1.343-3,3-3h109.443c1.657,0,3,1.343,3,3v149.209
			C164.643,216.584,163.3,217.927,161.643,217.927z M55.2,211.927h103.443V68.718H55.2V211.927z"/>
	</g>
	<g>
		<path class="st0" d="M148.563,203.594H65.28c-1.657,0-3-1.343-3-3V65.718c0-1.657,1.343-3,3-3h83.282c1.657,0,3,1.343,3,3v134.876
			C151.563,202.251,150.219,203.594,148.563,203.594z M68.28,197.594h77.282V68.718H68.28V197.594z"/>
	</g>
	<g>
		<path class="st0" d="M136.671,189.073h-59.5c-1.657,0-3-1.343-3-3s1.343-3,3-3h59.5c1.657,0,3,1.343,3,3
			S138.328,189.073,136.671,189.073z"/>
	</g>
	<g>
		<path class="st0" d="M136.671,171.823h-59.5c-1.657,0-3-1.343-3-3s1.343-3,3-3h59.5c1.657,0,3,1.343,3,3
			S138.328,171.823,136.671,171.823z"/>
	</g>
	<g>
		<g>
			<path class="st0" d="M120.71,158.388c-7.86,0-7.86-8.986-7.86-19.391c0-3.611-1.051-6.374-3.125-8.21
				c-1.529-1.354-4.078-1.354-5.607,0c-2.073,1.836-3.125,4.599-3.125,8.21c0,10.405,0,19.391-7.86,19.391
				c-8.313,0-9.85-20.009-10.125-28.612c-0.056-1.735-0.582-3.399-1.522-4.811c-4.29-6.436-12.898-22.595-0.307-33.712
				c3.195-3.004,7.587-4.527,13.056-4.527c5.095,0,9.89,1.346,12.295,2.149c0.255,0.085,0.529,0.085,0.783,0
				c2.405-0.803,7.2-2.149,12.295-2.149c5.469,0,9.861,1.523,13.056,4.527c12.592,11.118,3.983,27.276-0.307,33.712
				c-0.94,1.411-1.466,3.074-1.521,4.81C130.56,138.379,129.022,158.388,120.71,158.388z M94.235,92.727
				c-3.906,0-6.924,0.983-8.971,2.922c-0.027,0.026-0.055,0.051-0.083,0.076c-8.765,7.702-2.949,19.542,1.298,25.914
				c1.562,2.343,2.435,5.091,2.526,7.946c0.441,13.826,3.007,21.442,4.412,22.784c0.312-0.065,0.578-0.355,0.896-1.649
				c0.565-2.297,0.679-6.189,0.679-11.723c0-6.73,2.798-10.622,5.146-12.701c1.863-1.65,4.272-2.559,6.782-2.559
				s4.919,0.909,6.782,2.559c2.348,2.08,5.146,5.971,5.146,12.701c0,5.534,0.114,9.426,0.679,11.723
				c0.318,1.294,0.584,1.584,0.896,1.649c1.405-1.342,3.971-8.958,4.413-22.784c0.091-2.854,0.964-5.603,2.526-7.946
				c4.248-6.372,10.063-18.211,1.298-25.914c-0.028-0.024-0.056-0.05-0.083-0.076c-2.046-1.939-5.065-2.922-8.971-2.922
				c-4.247,0-8.336,1.153-10.396,1.84c-1.48,0.494-3.101,0.494-4.583,0C102.571,93.88,98.482,92.727,94.235,92.727z"/>
		</g>
	</g>
	<g>
		<path class="st4" d="M174.672,177.654c-1.526,1.526-3.2,2.814-4.976,3.863l23.435,23.435c2.441,2.441,6.398,2.441,8.839,0
			c2.441-2.441,2.441-6.398,0-8.839l-23.435-23.435C177.485,174.454,176.198,176.128,174.672,177.654z"/>
	</g>
	<g>
		<circle class="st3" cx="156.994" cy="159.976" r="25"/>
	</g>
	<g>
		<circle class="st2" cx="156.994" cy="159.976" r="15.5"/>
	</g>
	<g>
		<path class="st0" d="M197.55,209.782c-2.471,0-4.793-0.962-6.541-2.708l-23.435-23.436c-0.656-0.656-0.972-1.578-0.855-2.498
			c0.116-0.92,0.652-1.734,1.451-2.206c1.588-0.938,3.062-2.082,4.38-3.4c1.318-1.319,2.462-2.792,3.4-4.38
			c0.472-0.799,1.286-1.334,2.206-1.451c0.921-0.118,1.842,0.199,2.498,0.854l23.436,23.435c3.606,3.607,3.606,9.475,0,13.082
			C202.344,208.82,200.021,209.782,197.55,209.782z M174.363,181.94l20.89,20.89c1.227,1.227,3.369,1.227,4.596,0
			c1.267-1.267,1.267-3.329,0-4.596l-20.89-20.889c-0.672,0.849-1.396,1.661-2.166,2.43
			C176.023,180.545,175.212,181.268,174.363,181.94z"/>
	</g>
	<g>
		<path class="st0" d="M156.994,187.976c-7.479,0-14.511-2.913-19.799-8.201c-10.917-10.917-10.917-28.681,0-39.598
			c5.289-5.289,12.32-8.201,19.799-8.201s14.511,2.913,19.799,8.201c5.289,5.288,8.201,12.32,8.201,19.799
			s-2.913,14.511-8.201,19.799C171.505,185.063,164.473,187.976,156.994,187.976z M156.994,137.976
			c-5.876,0-11.401,2.288-15.557,6.443c-8.577,8.578-8.577,22.535,0,31.113c4.155,4.155,9.68,6.443,15.556,6.443
			s11.401-2.288,15.557-6.443s6.443-9.68,6.443-15.557s-2.288-11.401-6.443-15.557S162.871,137.976,156.994,137.976z"/>
	</g>
	<g>
		<path class="st0" d="M156.995,178.476c-4.942,0-9.587-1.924-13.082-5.418c-7.213-7.213-7.213-18.95,0-26.163
			c3.494-3.495,8.14-5.419,13.082-5.419c4.941,0,9.587,1.924,13.081,5.419c7.213,7.213,7.213,18.95,0,26.163
			C166.582,176.552,161.936,178.476,156.995,178.476z M156.995,147.476c-3.339,0-6.478,1.3-8.839,3.661
			c-4.874,4.874-4.874,12.804,0,17.678c2.361,2.36,5.5,3.661,8.839,3.661c3.339,0,6.478-1.3,8.839-3.661
			c4.873-4.874,4.873-12.804,0-17.678C163.472,148.776,160.333,147.476,156.995,147.476z"/>
	</g>
	<g>
		<rect x="79.588" y="55.384" class="st4" width="54.667" height="20.667"/>
	</g>
	<g>
		<rect x="123.088" y="55.384" class="st5" width="11.167" height="20.667"/>
	</g>
	<g>
		<path class="st0" d="M134.255,79.051H79.588c-1.657,0-3-1.343-3-3V55.384c0-1.657,1.343-3,3-3h54.667c1.657,0,3,1.343,3,3v20.667
			C137.255,77.708,135.912,79.051,134.255,79.051z M82.588,73.051h48.667V58.384H82.588V73.051z"/>
	</g>
	<g>
		<path class="st0" d="M114.421,58.384h-15c-1.657,0-3-1.343-3-3v-6.812c0-5.79,4.71-10.5,10.5-10.5s10.5,4.71,10.5,10.5v6.812
			C117.421,57.041,116.078,58.384,114.421,58.384z M102.421,52.384h9v-3.812c0-2.481-2.019-4.5-4.5-4.5s-4.5,2.019-4.5,4.5V52.384z"
			/>
	</g>
</g>
</svg>
