<?xml version="1.0" encoding="utf-8"?>
<!-- Generator: Adobe Illustrator 18.0.0, SVG Export Plug-In . SVG Version: 6.00 Build 0)  -->
<!DOCTYPE svg PUBLIC "-//W3C//DTD SVG 1.1//EN" "http://www.w3.org/Graphics/SVG/1.1/DTD/svg11.dtd">
<svg version="1.1" id="Layer_1" xmlns="http://www.w3.org/2000/svg" xmlns:xlink="http://www.w3.org/1999/xlink" x="0px" y="0px"
	 viewBox="0 0 256 256" style="enable-background:new 0 0 256 256;" xml:space="preserve">
<style type="text/css">
	.st0{fill:#504774;}
	.st1{fill:#F1C48B;}
	.st2{fill:#FFFFFF;}
	.st3{fill:#D5E6F7;}
	.st4{fill:#A0D1F2;}
	.st5{fill:#7BABF3;}
	.st6{fill:#FD919F;}
	.st7{fill:#D4E7F8;}
	.st8{fill:#E0667D;}
	.st9{fill:#484771;}
</style>
<g>
	<g>
		<circle class="st1" cx="128" cy="128" r="103.873"/>
	</g>
	<g>
		<path class="st4" d="M222.08,117.905h-29.718c4.507-14.423,4.725-31.313-10.031-44.28c-15.142-14.345-42.176-7.039-51.259-4.008
			c-1.997,0.666-4.148,0.666-6.145,0c-9.083-3.031-36.117-10.337-51.259,4.008c-14.755,12.967-14.537,29.857-10.03,44.28H33.92V132
			h188.16V117.905z"/>
	</g>
	<g>
		<path class="st0" d="M222.08,135H33.92c-1.657,0-3-1.343-3-3v-14.095c0-1.657,1.343-3,3-3h25.759
			c-4.415-17.701-0.316-32.677,11.967-43.497c6.58-6.21,15.763-9.359,27.295-9.359c11.122,0,21.649,2.958,26.936,4.722
			c1.374,0.459,2.871,0.459,4.246,0c5.286-1.764,15.814-4.722,26.936-4.722c11.532,0,20.715,3.148,27.294,9.359
			c12.285,10.82,16.384,25.796,11.969,43.497h25.759c1.657,0,3,1.343,3,3V132C225.08,133.657,223.737,135,222.08,135z M36.92,129
			h182.16v-8.095h-26.718c-0.954,0-1.852-0.454-2.417-1.223c-0.565-0.769-0.731-1.761-0.446-2.671
			c5.383-17.229,2.306-31.067-9.148-41.132c-0.028-0.024-0.056-0.05-0.083-0.076c-5.431-5.145-13.239-7.754-23.209-7.754
			c-10.273,0-20.096,2.765-25.037,4.414c-2.6,0.869-5.443,0.868-8.043,0c-4.94-1.648-14.763-4.414-25.036-4.414
			c-9.97,0-17.779,2.609-23.21,7.754c-0.027,0.026-0.055,0.051-0.083,0.076c-11.453,10.065-14.531,23.904-9.147,41.132
			c0.285,0.911,0.119,1.903-0.446,2.671c-0.565,0.769-1.462,1.223-2.417,1.223H36.92V129z"/>
	</g>
	<g>
		<path class="st2" d="M172.351,85.183c-12.361-11.71-34.429-5.746-41.843-3.272c-1.63,0.544-3.386,0.544-5.016,0
			c-7.414-2.474-29.483-8.438-41.844,3.272c-20.263,17.807-5.935,44.678,1.462,55.776c2.359,3.54,3.649,7.674,3.785,11.926
			c0.785,24.577,5.731,48.066,13.324,48.066c8.297,0,9.088-9.483,9.088-30.647c0-10.062,3.773-16.043,7.732-19.549
			c5.08-4.499,12.844-4.499,17.924,0c3.959,3.506,7.732,9.487,7.732,19.549c0,21.164,0.79,30.647,9.088,30.647
			c7.592,0,12.538-23.489,13.324-48.066c0.136-4.252,1.426-8.386,3.785-11.926C178.287,129.861,192.614,102.99,172.351,85.183z"/>
	</g>
	<g>
		<g>
			<path class="st3" d="M172.351,85.183c-6.832-6.473-16.628-7.542-25.278-6.789c5.937,0.586,11.769,2.498,16.298,6.789
				c20.263,17.806,5.935,44.678-1.462,55.776c-2.359,3.54-3.649,7.674-3.785,11.926c-0.646,20.211-4.107,39.674-9.538,45.955
				c1.277,1.417,2.962,2.111,5.195,2.111c7.592,0,12.538-23.489,13.324-48.066c0.136-4.252,1.426-8.386,3.785-11.926
				C178.287,129.861,192.614,102.99,172.351,85.183z"/>
		</g>
	</g>
	<g>
		<path class="st0" d="M153.781,203.952c-12.088,0-12.088-14.848-12.088-33.647c0-7.531-2.261-13.353-6.721-17.304
			c-1.907-1.689-4.384-2.62-6.973-2.62s-5.065,0.931-6.973,2.62c-4.459,3.95-6.721,9.772-6.721,17.304
			c0,18.799,0,33.647-12.088,33.647c-13.984,0-16.05-42.458-16.322-50.97c-0.119-3.732-1.254-7.314-3.283-10.358
			c-7.644-11.469-23.035-40.23-0.987-59.657c5.477-5.165,13.098-7.784,22.653-7.784c9.157,0,17.815,2.433,22.162,3.883
			c1.008,0.336,2.109,0.336,3.117,0c4.346-1.45,13.004-3.883,22.161-3.883c9.556,0,17.177,2.619,22.653,7.784
			c22.049,19.428,6.657,48.188-0.987,59.658c-2.027,3.042-3.163,6.624-3.282,10.357
			C169.832,161.493,167.766,203.952,153.781,203.952z M128,144.381c4.056,0,7.945,1.466,10.951,4.129
			c3.988,3.533,8.742,10.182,8.742,21.795c0,21.962,1.252,27.647,6.088,27.647c3.188,0,9.364-15.092,10.326-45.162
			c0.154-4.854,1.637-9.52,4.286-13.494c6.773-10.162,20.525-35.559,1.978-51.859c-0.028-0.024-0.056-0.05-0.083-0.076
			c-4.328-4.1-10.575-6.179-18.568-6.179c-8.31,0-16.262,2.24-20.263,3.575c-2.237,0.746-4.679,0.746-6.914,0
			c-4.002-1.335-11.955-3.575-20.264-3.575c-7.993,0-14.24,2.079-18.568,6.179c-0.027,0.026-0.055,0.051-0.083,0.076
			c-18.548,16.3-4.796,41.697,1.978,51.859c2.65,3.976,4.132,8.642,4.287,13.494c0.961,30.07,7.138,45.162,10.325,45.162
			c4.836,0,6.088-5.685,6.088-27.647c0-11.614,4.754-18.262,8.742-21.795C120.055,145.847,123.944,144.381,128,144.381z"/>
	</g>
</g>
</svg>
