<?xml version="1.0" encoding="utf-8"?>
<!-- Generator: Adobe Illustrator 18.0.0, SVG Export Plug-In . SVG Version: 6.00 Build 0)  -->
<!DOCTYPE svg PUBLIC "-//W3C//DTD SVG 1.1//EN" "http://www.w3.org/Graphics/SVG/1.1/DTD/svg11.dtd">
<svg version="1.1" id="Layer_1" xmlns="http://www.w3.org/2000/svg" xmlns:xlink="http://www.w3.org/1999/xlink" x="0px" y="0px"
	 viewBox="0 0 256 256" style="enable-background:new 0 0 256 256;" xml:space="preserve">
<style type="text/css">
	.st0{fill:#504774;}
	.st1{fill:#F1C48B;}
	.st2{fill:#FFFFFF;}
	.st3{fill:#D5E6F7;}
	.st4{fill:#A0D1F2;}
	.st5{fill:#7BABF3;}
	.st6{fill:#FD919F;}
	.st7{fill:#D4E7F8;}
	.st8{fill:#E0667D;}
	.st9{fill:#484771;}
</style>
<g>
	<g>
		<circle class="st1" cx="128" cy="128" r="103.873"/>
	</g>
	<g>
		<circle class="st4" cx="128" cy="128" r="88.5"/>
	</g>
	<g>
		<path class="st5" d="M128,39.5c-2.936,0-5.837,0.146-8.7,0.426c44.793,4.371,79.8,42.133,79.8,88.074s-35.007,83.703-79.8,88.074
			c2.863,0.279,5.764,0.426,8.7,0.426c48.877,0,88.5-39.623,88.5-88.5S176.877,39.5,128,39.5z"/>
	</g>
	<g>
		<path class="st0" d="M128,219.5c-13.015,0-25.081-9.795-33.973-27.579C85.465,174.797,80.75,152.096,80.75,128
			s4.715-46.797,13.277-63.921C102.919,46.295,114.985,36.5,128,36.5c13.016,0,25.08,9.795,33.973,27.579
			c8.563,17.124,13.277,39.825,13.277,63.921s-4.715,46.797-13.277,63.921C153.08,209.705,141.016,219.5,128,219.5z M128,42.5
			c-10.624,0-20.783,8.616-28.606,24.263C91.24,83.069,86.75,104.817,86.75,128s4.49,44.931,12.644,61.237
			C107.217,204.884,117.376,213.5,128,213.5s20.783-8.616,28.606-24.263c8.153-16.307,12.644-38.055,12.644-61.237
			s-4.49-44.931-12.644-61.237C148.783,51.116,138.624,42.5,128,42.5z"/>
	</g>
	<g>
		<path class="st0" d="M128,91.5c-27.273,0-52.871-6.115-70.232-16.776c-1.412-0.867-1.854-2.715-0.987-4.127
			c0.867-1.411,2.714-1.854,4.126-0.986C77.351,79.709,101.805,85.5,128,85.5s50.649-5.791,67.092-15.89
			c1.416-0.867,3.261-0.424,4.127,0.986c0.867,1.412,0.425,3.26-0.986,4.127C180.871,85.385,155.272,91.5,128,91.5z"/>
	</g>
	<g>
		<path class="st0" d="M196.659,186.833c-0.535,0-1.077-0.143-1.567-0.443C178.649,176.291,154.195,170.5,128,170.5
			s-50.649,5.791-67.092,15.89c-1.412,0.867-3.26,0.425-4.126-0.986c-0.867-1.412-0.425-3.26,0.987-4.127
			C75.129,170.615,100.727,164.5,128,164.5c27.272,0,52.871,6.115,70.232,16.776c1.411,0.867,1.854,2.715,0.986,4.127
			C198.652,186.325,197.667,186.833,196.659,186.833z"/>
	</g>
	<g>
		<path class="st0" d="M128,219.5c-50.453,0-91.5-41.047-91.5-91.5S77.547,36.5,128,36.5s91.5,41.047,91.5,91.5
			S178.453,219.5,128,219.5z M128,42.5c-47.145,0-85.5,38.355-85.5,85.5s38.355,85.5,85.5,85.5c47.145,0,85.5-38.355,85.5-85.5
			S175.145,42.5,128,42.5z"/>
	</g>
	<g>
		<path class="st0" d="M128,219.5c-1.657,0-3-1.343-3-3v-177c0-1.657,1.343-3,3-3c1.657,0,3,1.343,3,3v177
			C131,218.157,129.657,219.5,128,219.5z"/>
	</g>
	<g>
		<path class="st0" d="M216.5,131h-177c-1.657,0-3-1.343-3-3s1.343-3,3-3h177c1.657,0,3,1.343,3,3S218.157,131,216.5,131z"/>
	</g>
	<g>
		<path class="st2" d="M178.115,71.549c-13.967-13.232-38.903-6.493-47.281-3.697c-1.842,0.615-3.826,0.615-5.668,0
			c-8.378-2.795-33.314-9.535-47.281,3.697c-22.896,20.12-6.707,50.483,1.652,63.024c2.666,4,4.123,8.671,4.277,13.475
			c0.888,27.77,6.476,54.312,15.055,54.312c9.376,0,10.269-10.715,10.269-34.629c0-11.369,4.263-18.128,8.736-22.09
			c5.74-5.084,14.513-5.084,20.253,0c4.473,3.962,8.736,10.72,8.736,22.09c0,23.914,0.893,34.629,10.269,34.629
			c8.579,0,14.168-26.542,15.055-54.312c0.154-4.804,1.611-9.476,4.277-13.475C184.821,122.033,201.01,91.67,178.115,71.549z"/>
	</g>
	<g>
		<g>
			<path class="st3" d="M178.115,71.549c-7.72-7.314-18.789-8.521-28.563-7.671c6.708,0.662,13.299,2.823,18.416,7.671
				c22.896,20.12,6.707,50.483-1.651,63.024c-2.666,4-4.123,8.671-4.277,13.475c-0.73,22.837-4.641,44.829-10.778,51.927
				c1.442,1.601,3.347,2.385,5.87,2.385c8.579,0,14.168-26.542,15.055-54.312c0.153-4.804,1.611-9.476,4.277-13.475
				C184.821,122.033,201.01,91.67,178.115,71.549z"/>
		</g>
	</g>
	<g>
		<path class="st0" d="M157.131,205.361c-13.269,0-13.269-16.606-13.269-37.63c0-8.627-2.6-15.303-7.726-19.843
			c-2.227-1.973-5.116-3.059-8.137-3.059s-5.91,1.086-8.137,3.059c-5.126,4.54-7.726,11.217-7.726,19.843
			c0,21.023,0,37.63-13.269,37.63c-15.442,0-17.748-47.662-18.054-57.217c-0.137-4.29-1.442-8.407-3.774-11.906
			c-8.582-12.876-25.867-45.157-1.178-66.905c6.114-5.769,14.638-8.694,25.335-8.694c10.293,0,20.03,2.737,24.918,4.368
			c1.219,0.406,2.548,0.406,3.769,0c4.888-1.631,14.625-4.368,24.918-4.368c10.696,0,19.22,2.926,25.334,8.694
			c24.688,21.748,7.403,54.029-1.178,66.905c-2.332,3.498-3.637,7.615-3.774,11.906C174.88,157.699,172.574,205.361,157.131,205.361
			z M128,138.83c4.487,0,8.79,1.621,12.115,4.566c4.446,3.938,9.747,11.356,9.747,24.335c0,25.127,1.494,31.63,7.269,31.63
			c4.256,0,10.999-18.307,12.058-51.408c0.172-5.411,1.825-10.612,4.778-15.043c7.71-11.568,23.356-40.486,2.167-59.106
			c-0.028-0.025-0.056-0.051-0.083-0.076c-4.965-4.704-12.114-7.089-21.248-7.089c-9.444,0-18.476,2.544-23.02,4.06
			c-2.447,0.816-5.12,0.816-7.566,0c-4.543-1.516-13.574-4.06-23.019-4.06c-9.135,0-16.284,2.385-21.249,7.089
			c-0.027,0.025-0.055,0.051-0.083,0.076c-21.189,18.62-5.542,47.538,2.168,59.106c2.953,4.432,4.605,9.633,4.778,15.043
			c1.058,33.102,7.801,51.408,12.057,51.408c5.774,0,7.269-6.503,7.269-31.63c0-12.977,5.3-20.396,9.747-24.335
			C119.21,140.451,123.513,138.83,128,138.83z"/>
	</g>
</g>
</svg>
