<?xml version="1.0" encoding="utf-8"?>
<!-- Generator: Adobe Illustrator 18.0.0, SVG Export Plug-In . SVG Version: 6.00 Build 0)  -->
<!DOCTYPE svg PUBLIC "-//W3C//DTD SVG 1.1//EN" "http://www.w3.org/Graphics/SVG/1.1/DTD/svg11.dtd">
<svg version="1.1" id="Layer_1" xmlns="http://www.w3.org/2000/svg" xmlns:xlink="http://www.w3.org/1999/xlink" x="0px" y="0px"
	 viewBox="0 0 256 256" style="enable-background:new 0 0 256 256;" xml:space="preserve">
<style type="text/css">
	.st0{fill:#504774;}
	.st1{fill:#F1C48B;}
	.st2{fill:#FFFFFF;}
	.st3{fill:#D5E6F7;}
	.st4{fill:#A0D1F2;}
	.st5{fill:#7BABF3;}
	.st6{fill:#FD919F;}
	.st7{fill:#D4E7F8;}
	.st8{fill:#E0667D;}
	.st9{fill:#484771;}
</style>
<g>
	<g>
		<circle class="st1" cx="128" cy="128" r="103.873"/>
	</g>
	<g>
		<path class="st4" d="M162.125,173.133h-23.792v3.833c0,5.707-4.626,10.333-10.333,10.333s-10.333-4.626-10.333-10.333v-3.833
			H93.875c-9.458,0-17.125,7.667-17.125,17.125v31.375h102.5v-31.375C179.25,180.8,171.583,173.133,162.125,173.133z"/>
	</g>
	<g>
		<path class="st4" d="M187.043,139.633H68.957c-4.994,0-9.043-4.049-9.043-9.043V73.676c0-4.994,4.049-9.043,9.043-9.043h118.086
			c4.994,0,9.043,4.049,9.043,9.043v56.914C196.086,135.584,192.037,139.633,187.043,139.633z"/>
	</g>
	<g>
		<path class="st5" d="M187.043,64.633h-13.497c4.994,0,9.043,4.049,9.043,9.043v56.914c0,4.994-4.049,9.043-9.043,9.043h13.497
			c4.994,0,9.043-4.049,9.043-9.043V73.676C196.086,68.682,192.037,64.633,187.043,64.633z"/>
	</g>
	<g>
		<g>
			<path class="st5" d="M162.125,173.133h-10.333c9.458,0,17.125,7.667,17.125,17.125v31.375h10.333v-31.375
				C179.25,180.8,171.583,173.133,162.125,173.133z"/>
		</g>
	</g>
	<g>
		<path class="st3" d="M128,165.966L128,165.966c-3.623,0-7.099-0.625-10.333-1.762v12.762c0,5.707,4.626,10.333,10.333,10.333
			s10.333-4.626,10.333-10.333v-12.762C135.099,165.341,131.623,165.966,128,165.966z"/>
	</g>
	<g>
		<path class="st0" d="M187.043,142.633H68.957c-6.641,0-12.043-5.402-12.043-12.043V73.676c0-6.64,5.402-12.042,12.043-12.042
			h118.086c6.641,0,12.043,5.402,12.043,12.042v56.915C199.086,137.231,193.684,142.633,187.043,142.633z M68.957,67.633
			c-3.332,0-6.043,2.71-6.043,6.042v56.915c0,3.332,2.711,6.043,6.043,6.043h118.086c3.332,0,6.043-2.711,6.043-6.043V73.676
			c0-3.332-2.711-6.042-6.043-6.042H68.957z"/>
	</g>
	<g>
		<path class="st2" d="M128,165.966L128,165.966c-17.207,0-31.157-13.949-31.157-31.157v-17.52
			c0-17.207,13.949-31.157,31.157-31.157l0,0c17.208,0,31.157,13.949,31.157,31.157v17.52
			C159.157,152.017,145.208,165.966,128,165.966z"/>
	</g>
	<g>
		<path class="st6" d="M134.373,155.883h-12.747c-3.934,0-7.124-3.189-7.124-7.124v-7.753c0-3.934,3.189-7.123,7.124-7.123h12.747
			c3.934,0,7.124,3.189,7.124,7.123v7.753C141.497,152.694,138.308,155.883,134.373,155.883z"/>
	</g>
	<g>
		<path class="st0" d="M114.503,127.859c-5.488,0-9.953-4.465-9.953-9.953c0-1.657,1.343-3,3-3s3,1.343,3,3
			c0,2.18,1.773,3.953,3.953,3.953s3.953-1.773,3.953-3.953c0-1.657,1.343-3,3-3s3,1.343,3,3
			C124.456,123.395,119.991,127.859,114.503,127.859z"/>
	</g>
	<g>
		<path class="st0" d="M141.497,127.859c-5.488,0-9.953-4.465-9.953-9.953c0-1.657,1.343-3,3-3s3,1.343,3,3
			c0,2.18,1.773,3.953,3.953,3.953s3.953-1.773,3.953-3.953c0-1.657,1.343-3,3-3s3,1.343,3,3
			C151.45,123.395,146.985,127.859,141.497,127.859z"/>
	</g>
	<g>
		<path class="st0" d="M134.373,158.883h-12.746c-5.582,0-10.124-4.542-10.124-10.124v-7.753c0-5.582,4.542-10.123,10.124-10.123
			h12.746c5.582,0,10.124,4.541,10.124,10.123v7.753C144.497,154.342,139.955,158.883,134.373,158.883z M121.627,136.883
			c-2.274,0-4.124,1.85-4.124,4.123v7.753c0,2.274,1.85,4.124,4.124,4.124h12.746c2.274,0,4.124-1.85,4.124-4.124v-7.753
			c0-2.273-1.85-4.123-4.124-4.123H121.627z"/>
	</g>
	<g>
		<path class="st9" d="M118.278,40.339l-9.231,12.568h8.077c0.777,0,1.404,0.627,1.404,1.405c0,0.778-0.627,1.38-1.404,1.38h-10.812
			c-0.075,0-0.151,0-0.251-0.025c-0.025,0-0.051,0-0.075-0.025c-0.051,0-0.101-0.025-0.176-0.025
			c-0.025-0.025-0.05-0.025-0.075-0.075c-0.025,0-0.075-0.025-0.126-0.05c-0.05-0.025-0.075-0.025-0.1-0.05c0,0,0,0,0-0.025
			c-0.025,0-0.051-0.025-0.075-0.05c-0.025-0.025-0.076-0.075-0.101-0.125c-0.051-0.025-0.075-0.05-0.101-0.075
			s-0.05-0.075-0.075-0.1c-0.025-0.075-0.05-0.101-0.05-0.125c-0.025-0.05-0.075-0.075-0.075-0.125
			c-0.025-0.05-0.025-0.101-0.051-0.15c0-0.025-0.024-0.05-0.024-0.101c0-0.075-0.025-0.125-0.025-0.176c0-0.025,0-0.05,0-0.075
			c0,0,0,0,0-0.025c0-0.075,0-0.125,0.025-0.176c0-0.025,0-0.05,0-0.125c0.024-0.025,0.024-0.075,0.05-0.125
			c0-0.025,0.025-0.075,0.025-0.125c0.05-0.025,0.075-0.075,0.075-0.101c0.024-0.025,0.05-0.075,0.075-0.125c0,0,0,0,0.024,0
			l9.207-12.593h-8.103c-0.778,0-1.38-0.652-1.38-1.405c0-0.778,0.602-1.379,1.38-1.379h10.812h0.025c0.075,0,0.125,0,0.175,0
			c0.025,0,0.075,0.025,0.101,0.025c0.075,0,0.101,0.025,0.15,0.025c0.025,0.025,0.075,0.025,0.101,0.05
			c0.075,0,0.101,0.05,0.126,0.075c0.05,0.025,0.075,0.05,0.125,0.075c0,0,0,0,0.025,0c0.05,0.025,0.05,0.05,0.075,0.075
			c0.05,0.025,0.075,0.076,0.1,0.101c0.025,0.025,0.051,0.075,0.075,0.1c0.051,0.025,0.076,0.05,0.101,0.101
			c0.025,0.05,0.051,0.1,0.075,0.125c0,0.025,0.025,0.075,0.051,0.1c0,0.075,0.024,0.125,0.024,0.15
			c0.051,0.05,0.051,0.076,0.051,0.125c0.024,0.076,0.024,0.101,0.024,0.151c0,0.025,0,0.05,0,0.1c0,0.075,0,0.125,0,0.176
			c-0.024,0.05-0.024,0.075-0.024,0.1c0,0.075-0.051,0.101-0.051,0.15c-0.024,0.05-0.024,0.076-0.05,0.151
			c-0.025,0.025-0.025,0.05-0.05,0.075c-0.025,0.05-0.051,0.1-0.075,0.125C118.278,40.339,118.278,40.339,118.278,40.339z"/>
		<path class="st9" d="M134.761,40.339l-9.231,12.568h8.077c0.777,0,1.404,0.627,1.404,1.405c0,0.778-0.627,1.38-1.404,1.38h-10.812
			c-0.075,0-0.151,0-0.251-0.025c-0.025,0-0.051,0-0.075-0.025c-0.051,0-0.101-0.025-0.176-0.025
			c-0.025-0.025-0.05-0.025-0.075-0.075c-0.025,0-0.075-0.025-0.126-0.05c-0.05-0.025-0.075-0.025-0.1-0.05c0,0,0,0,0-0.025
			c-0.025,0-0.051-0.025-0.075-0.05c-0.025-0.025-0.076-0.075-0.101-0.125c-0.051-0.025-0.075-0.05-0.101-0.075
			s-0.05-0.075-0.075-0.1c-0.025-0.075-0.05-0.101-0.05-0.125c-0.025-0.05-0.075-0.075-0.075-0.125
			c-0.025-0.05-0.025-0.101-0.051-0.15c0-0.025-0.024-0.05-0.024-0.101c0-0.075-0.025-0.125-0.025-0.176c0-0.025,0-0.05,0-0.075
			c0,0,0,0,0-0.025c0-0.075,0-0.125,0.025-0.176c0-0.025,0-0.05,0-0.125c0.024-0.025,0.024-0.075,0.05-0.125
			c0-0.025,0.025-0.075,0.025-0.125c0.05-0.025,0.075-0.075,0.075-0.101c0.024-0.025,0.05-0.075,0.075-0.125c0,0,0,0,0.024,0
			l9.207-12.593h-8.103c-0.778,0-1.38-0.652-1.38-1.405c0-0.778,0.602-1.379,1.38-1.379h10.812h0.025c0.075,0,0.125,0,0.175,0
			c0.025,0,0.075,0.025,0.101,0.025c0.075,0,0.101,0.025,0.15,0.025c0.025,0.025,0.075,0.025,0.101,0.05
			c0.075,0,0.101,0.05,0.126,0.075c0.05,0.025,0.075,0.05,0.125,0.075c0,0,0,0,0.025,0c0.05,0.025,0.05,0.05,0.075,0.075
			c0.05,0.025,0.075,0.076,0.1,0.101c0.025,0.025,0.051,0.075,0.075,0.1c0.051,0.025,0.076,0.05,0.101,0.101
			c0.025,0.05,0.051,0.1,0.075,0.125c0,0.025,0.025,0.075,0.051,0.1c0,0.075,0.024,0.125,0.024,0.15
			c0.051,0.05,0.051,0.076,0.051,0.125c0.024,0.076,0.024,0.101,0.024,0.151c0,0.025,0,0.05,0,0.1c0,0.075,0,0.125,0,0.176
			c-0.024,0.05-0.024,0.075-0.024,0.1c0,0.075-0.051,0.101-0.051,0.15c-0.024,0.05-0.024,0.076-0.05,0.151
			c-0.025,0.025-0.025,0.05-0.05,0.075c-0.025,0.05-0.051,0.1-0.075,0.125C134.761,40.339,134.761,40.339,134.761,40.339z"/>
		<path class="st9" d="M151.243,40.339l-9.231,12.568h8.077c0.777,0,1.404,0.627,1.404,1.405c0,0.778-0.627,1.38-1.404,1.38h-10.812
			c-0.075,0-0.151,0-0.251-0.025c-0.025,0-0.051,0-0.075-0.025c-0.051,0-0.101-0.025-0.176-0.025
			c-0.025-0.025-0.05-0.025-0.075-0.075c-0.025,0-0.075-0.025-0.126-0.05c-0.05-0.025-0.075-0.025-0.1-0.05c0,0,0,0,0-0.025
			c-0.025,0-0.051-0.025-0.075-0.05c-0.025-0.025-0.076-0.075-0.101-0.125c-0.051-0.025-0.075-0.05-0.101-0.075
			s-0.05-0.075-0.075-0.1c-0.025-0.075-0.05-0.101-0.05-0.125c-0.025-0.05-0.075-0.075-0.075-0.125
			c-0.025-0.05-0.025-0.101-0.051-0.15c0-0.025-0.024-0.05-0.024-0.101c0-0.075-0.025-0.125-0.025-0.176c0-0.025,0-0.05,0-0.075
			c0,0,0,0,0-0.025c0-0.075,0-0.125,0.025-0.176c0-0.025,0-0.05,0-0.125c0.024-0.025,0.024-0.075,0.05-0.125
			c0-0.025,0.025-0.075,0.025-0.125c0.05-0.025,0.075-0.075,0.075-0.101c0.024-0.025,0.05-0.075,0.075-0.125c0,0,0,0,0.024,0
			l9.207-12.593h-8.103c-0.778,0-1.38-0.652-1.38-1.405c0-0.778,0.602-1.379,1.38-1.379h10.812h0.025c0.075,0,0.125,0,0.175,0
			c0.025,0,0.075,0.025,0.101,0.025c0.075,0,0.101,0.025,0.15,0.025c0.025,0.025,0.075,0.025,0.101,0.05
			c0.075,0,0.101,0.05,0.126,0.075c0.05,0.025,0.075,0.05,0.125,0.075c0,0,0,0,0.025,0c0.05,0.025,0.05,0.05,0.075,0.075
			c0.05,0.025,0.075,0.076,0.1,0.101c0.025,0.025,0.051,0.075,0.075,0.1c0.051,0.025,0.076,0.05,0.101,0.101
			c0.025,0.05,0.051,0.1,0.075,0.125c0,0.025,0.025,0.075,0.051,0.1c0,0.075,0.024,0.125,0.024,0.15
			c0.051,0.05,0.051,0.076,0.051,0.125c0.024,0.076,0.024,0.101,0.024,0.151c0,0.025,0,0.05,0,0.1c0,0.075,0,0.125,0,0.176
			c-0.024,0.05-0.024,0.075-0.024,0.1c0,0.075-0.051,0.101-0.051,0.15c-0.024,0.05-0.024,0.076-0.05,0.151
			c-0.025,0.025-0.025,0.05-0.05,0.075c-0.025,0.05-0.051,0.1-0.075,0.125C151.243,40.339,151.243,40.339,151.243,40.339z"/>
	</g>
	<g>
		<path class="st0" d="M128,168.966c-18.834,0-34.157-15.323-34.157-34.157v-17.52c0-18.834,15.323-34.157,34.157-34.157
			s34.157,15.323,34.157,34.157v17.52C162.157,153.644,146.834,168.966,128,168.966z M128,89.133
			c-15.526,0-28.157,12.631-28.157,28.157v17.52c0,15.526,12.631,28.157,28.157,28.157s28.157-12.631,28.157-28.157v-17.52
			C156.157,101.764,143.526,89.133,128,89.133z"/>
	</g>
	<g>
		<path class="st0" d="M179.25,224.633H76.75c-1.657,0-3-1.343-3-3v-31.375c0-11.097,9.028-20.125,20.125-20.125h23.792
			c1.657,0,3,1.343,3,3v3.833c0,4.043,3.29,7.333,7.333,7.333s7.333-3.29,7.333-7.333v-3.833c0-1.657,1.343-3,3-3h23.792
			c11.097,0,20.125,9.028,20.125,20.125v31.375C182.25,223.29,180.907,224.633,179.25,224.633z M79.75,218.633h96.5v-28.375
			c0-7.789-6.337-14.125-14.125-14.125h-20.792v0.833c0,7.352-5.981,13.333-13.333,13.333s-13.333-5.981-13.333-13.333v-0.833
			H93.875c-7.788,0-14.125,6.336-14.125,14.125V218.633z"/>
	</g>
	<g>
		<path class="st0" d="M128,190.3c-7.352,0-13.333-5.981-13.333-13.333v-12.762c0-0.973,0.472-1.886,1.266-2.448
			c0.793-0.563,1.812-0.705,2.729-0.382c6.01,2.113,12.666,2.113,18.676,0c0.917-0.322,1.936-0.18,2.729,0.382
			c0.794,0.562,1.266,1.475,1.266,2.448v12.762C141.333,184.318,135.352,190.3,128,190.3z M120.667,168.172v8.794
			c0,4.044,3.29,7.333,7.333,7.333s7.333-3.29,7.333-7.333v-8.794C130.53,169.228,125.47,169.228,120.667,168.172z"/>
	</g>
</g>
</svg>
