<?xml version="1.0" encoding="utf-8"?>
<!-- Generator: Adobe Illustrator 18.0.0, SVG Export Plug-In . SVG Version: 6.00 Build 0)  -->
<!DOCTYPE svg PUBLIC "-//W3C//DTD SVG 1.1//EN" "http://www.w3.org/Graphics/SVG/1.1/DTD/svg11.dtd">
<svg version="1.1" id="Layer_1" xmlns="http://www.w3.org/2000/svg" xmlns:xlink="http://www.w3.org/1999/xlink" x="0px" y="0px"
	 viewBox="0 0 256 256" style="enable-background:new 0 0 256 256;" xml:space="preserve">
<style type="text/css">
	.st0{fill:#504774;}
	.st1{fill:#F1C48B;}
	.st2{fill:#FFFFFF;}
	.st3{fill:#D5E6F7;}
	.st4{fill:#A0D1F2;}
	.st5{fill:#7BABF3;}
	.st6{fill:#FD919F;}
	.st7{fill:#D4E7F8;}
	.st8{fill:#E0667D;}
	.st9{fill:#484771;}
</style>
<g>
	<g>
		<circle class="st1" cx="128" cy="128" r="103.873"/>
	</g>
	<g>
		<rect x="37.934" y="115.659" class="st6" width="180.133" height="68.812"/>
	</g>
	<g>
		<rect x="202.125" y="115.659" class="st8" width="15.941" height="68.812"/>
	</g>
	<g>
		<path class="st0" d="M218.066,187.471H37.934c-1.657,0-3-1.343-3-3v-68.812c0-1.657,1.343-3,3-3h180.133c1.657,0,3,1.343,3,3
			v68.812C221.066,186.128,219.724,187.471,218.066,187.471z M40.934,181.471h174.133v-62.812H40.934V181.471z"/>
	</g>
	<g>
		<path class="st2" d="M116.277,76.562c-8.886-8.419-24.752-4.131-30.082-2.352c-1.172,0.391-2.434,0.391-3.606,0
			c-5.33-1.779-21.196-6.066-30.082,2.352c-14.567,12.802-4.267,32.12,1.051,40.099c1.696,2.545,2.623,5.517,2.721,8.574
			c0.565,17.668,4.12,34.555,9.579,34.555c5.965,0,6.533-6.817,6.533-22.032c0-7.234,2.713-11.534,5.558-14.054
			c3.652-3.235,9.233-3.235,12.885,0c2.846,2.521,5.558,6.821,5.558,14.054c0,15.215,0.568,22.032,6.533,22.032
			c5.458,0,9.014-16.887,9.579-34.555c0.098-3.057,1.025-6.029,2.721-8.574C120.544,108.682,130.844,89.364,116.277,76.562z"/>
	</g>
	<g>
		<path class="st0" d="M102.927,162.789c-9.533,0-9.533-11.047-9.533-25.032c0-5.162-1.53-9.135-4.548-11.808
			c-1.217-1.079-2.799-1.673-4.453-1.673c-1.655,0-3.237,0.594-4.454,1.673c-3.018,2.673-4.548,6.646-4.548,11.808
			c0,13.985,0,25.032-9.533,25.032c-10.56,0-12.296-28.672-12.576-37.459c-0.081-2.525-0.849-4.948-2.22-7.007
			c-5.617-8.427-16.909-29.571-0.575-43.979c4.097-3.859,9.767-5.815,16.853-5.815c6.701,0,13.026,1.776,16.199,2.835
			c0.552,0.183,1.153,0.184,1.709,0c3.172-1.059,9.497-2.835,16.199-2.835c7.085,0,12.755,1.956,16.853,5.815
			c16.331,14.405,5.041,35.552-0.576,43.979c-1.37,2.057-2.138,4.479-2.219,7.006C115.223,134.118,113.485,162.789,102.927,162.789z
			 M67.339,74.529c-5.523,0-9.819,1.416-12.768,4.21c-0.027,0.025-0.055,0.051-0.083,0.076c-12.835,11.279-3.181,29.06,1.566,36.181
			c1.992,2.99,3.106,6.498,3.223,10.143c0.658,20.595,4.739,30.935,6.676,31.664c2.645-0.014,3.438-4.282,3.438-19.046
			c0-8.662,3.572-13.645,6.569-16.3c2.315-2.051,5.311-3.181,8.433-3.181c3.121,0,6.116,1.13,8.432,3.181
			c2.997,2.655,6.569,7.638,6.569,16.3c0,14.654,0.781,18.969,3.473,19.031c1.95-0.841,5.986-11.18,6.642-31.649
			c0.116-3.646,1.23-7.154,3.223-10.143c4.746-7.121,14.399-24.902,1.566-36.182c-0.028-0.024-0.056-0.049-0.083-0.075
			c-2.949-2.794-7.245-4.21-12.768-4.21c-5.854,0-11.474,1.583-14.302,2.526c-1.782,0.594-3.726,0.594-5.504,0
			C78.812,76.112,73.192,74.529,67.339,74.529z"/>
	</g>
	<g>
		<path class="st2" d="M203.493,76.562c-8.886-8.419-24.752-4.131-30.082-2.352c-1.172,0.391-2.434,0.391-3.606,0
			c-5.33-1.779-21.196-6.066-30.082,2.352c-14.567,12.802-4.267,32.12,1.051,40.099c1.696,2.545,2.623,5.517,2.721,8.574
			c0.565,17.668,4.12,34.555,9.579,34.555c5.965,0,6.533-6.817,6.533-22.032c0-7.234,2.713-11.534,5.558-14.054
			c3.652-3.235,9.234-3.235,12.886,0c2.846,2.521,5.558,6.821,5.558,14.054c0,15.215,0.568,22.032,6.533,22.032
			c5.458,0,9.014-16.887,9.579-34.555c0.098-3.057,1.025-6.029,2.721-8.574C207.76,108.682,218.06,89.364,203.493,76.562z"/>
	</g>
	<g>
		<path class="st0" d="M190.143,162.789c-9.533,0-9.533-11.047-9.533-25.032c0-5.162-1.53-9.135-4.548-11.808
			c-1.217-1.079-2.799-1.673-4.453-1.673c-1.655,0-3.237,0.594-4.454,1.673c-3.018,2.673-4.548,6.646-4.548,11.808
			c0,13.985,0,25.032-9.533,25.032c-10.559,0-12.296-28.671-12.577-37.459c-0.081-2.527-0.849-4.949-2.219-7.006
			c-5.617-8.428-16.907-29.574-0.576-43.979c4.098-3.859,9.768-5.815,16.853-5.815c6.702,0,13.027,1.776,16.2,2.835
			c0.551,0.183,1.152,0.184,1.709,0c3.172-1.059,9.497-2.835,16.198-2.835c7.086,0,12.756,1.956,16.853,5.815
			c16.334,14.407,5.042,35.552-0.576,43.979c-1.37,2.058-2.138,4.48-2.219,7.006C202.438,134.117,200.702,162.789,190.143,162.789z
			 M154.554,74.529c-5.522,0-9.818,1.416-12.768,4.21c-0.027,0.026-0.055,0.051-0.083,0.075
			c-12.833,11.279-3.18,29.061,1.566,36.182c1.992,2.988,3.106,6.496,3.223,10.143c0.659,20.596,4.74,30.935,6.677,31.664
			c2.645-0.014,3.438-4.282,3.438-19.046c0-8.662,3.572-13.645,6.569-16.3c2.315-2.051,5.311-3.181,8.433-3.181
			c3.121,0,6.116,1.13,8.432,3.181c2.997,2.655,6.569,7.638,6.569,16.3c0,14.654,0.781,18.969,3.473,19.031
			c1.951-0.842,5.986-11.18,6.641-31.649c0.116-3.645,1.23-7.152,3.222-10.142c4.748-7.122,14.402-24.902,1.567-36.182
			c-0.028-0.025-0.056-0.051-0.083-0.076c-2.948-2.794-7.244-4.21-12.768-4.21c-5.854,0-11.473,1.583-14.301,2.526
			c-1.781,0.594-3.725,0.594-5.504,0C166.027,76.112,160.408,74.529,154.554,74.529z"/>
	</g>
	<g>
		<path class="st0" d="M218.066,101.324H37.934c-1.657,0-3-1.343-3-3s1.343-3,3-3h180.133c1.657,0,3,1.343,3,3
			S219.724,101.324,218.066,101.324z"/>
	</g>
	<g>
		<path class="st4" d="M88.43,106.959h-8.076c-2.539,0-4.597-2.058-4.597-4.597v-8.076c0-2.539,2.058-4.597,4.597-4.597h8.076
			c2.539,0,4.597,2.058,4.597,4.597v8.076C93.027,104.901,90.969,106.959,88.43,106.959z"/>
	</g>
	<g>
		<path class="st4" d="M175.646,106.959h-8.076c-2.539,0-4.597-2.058-4.597-4.597v-8.076c0-2.539,2.058-4.597,4.597-4.597h8.076
			c2.539,0,4.597,2.058,4.597,4.597v8.076C180.242,104.901,178.184,106.959,175.646,106.959z"/>
	</g>
	<g>
		<path class="st0" d="M88.43,109.959h-8.075c-4.188,0-7.597-3.408-7.597-7.597v-8.076c0-4.188,3.408-7.597,7.597-7.597h8.075
			c4.189,0,7.598,3.408,7.598,7.597v8.076C96.027,106.551,92.619,109.959,88.43,109.959z M80.354,92.689
			c-0.881,0-1.597,0.716-1.597,1.597v8.076c0,0.881,0.716,1.597,1.597,1.597h8.075c0.881,0,1.598-0.716,1.598-1.597v-8.076
			c0-0.881-0.717-1.597-1.598-1.597H80.354z"/>
	</g>
	<g>
		<path class="st0" d="M175.646,109.959h-8.075c-4.189,0-7.598-3.408-7.598-7.597v-8.076c0-4.188,3.408-7.597,7.598-7.597h8.075
			c4.188,0,7.597,3.408,7.597,7.597v8.076C183.242,106.551,179.834,109.959,175.646,109.959z M167.57,92.689
			c-0.881,0-1.598,0.716-1.598,1.597v8.076c0,0.881,0.717,1.597,1.598,1.597h8.075c0.881,0,1.597-0.716,1.597-1.597v-8.076
			c0-0.881-0.716-1.597-1.597-1.597H167.57z"/>
	</g>
</g>
</svg>
