<?xml version="1.0" encoding="utf-8"?>
<!-- Generator: Adobe Illustrator 18.0.0, SVG Export Plug-In . SVG Version: 6.00 Build 0)  -->
<!DOCTYPE svg PUBLIC "-//W3C//DTD SVG 1.1//EN" "http://www.w3.org/Graphics/SVG/1.1/DTD/svg11.dtd">
<svg version="1.1" id="Layer_1" xmlns="http://www.w3.org/2000/svg" xmlns:xlink="http://www.w3.org/1999/xlink" x="0px" y="0px"
	 viewBox="0 0 256 256" style="enable-background:new 0 0 256 256;" xml:space="preserve">
<style type="text/css">
	.st0{fill:#504774;}
	.st1{fill:#F1C48B;}
	.st2{fill:#FFFFFF;}
	.st3{fill:#D5E6F7;}
	.st4{fill:#A0D1F2;}
	.st5{fill:#7BABF3;}
	.st6{fill:#FD919F;}
	.st7{fill:#D4E7F8;}
	.st8{fill:#E0667D;}
	.st9{fill:#484771;}
</style>
<g>
	<g>
		<circle class="st1" cx="128" cy="128" r="103.873"/>
	</g>
	<g>
		<g>
			<path class="st6" d="M207.253,188.223c-1.175,0-2.368-0.272-3.487-0.846l-43.601-22.39h-54.689c-1.312,0-2.603-0.338-3.747-0.981
				l-56.736-31.888c-3.682-2.07-4.989-6.731-2.919-10.414c2.069-3.682,6.733-4.988,10.413-2.92l54.991,30.908h54.535
				c1.215,0,2.412,0.289,3.493,0.844l45.245,23.234c3.757,1.93,5.239,6.539,3.309,10.296
				C212.707,186.706,210.029,188.223,207.253,188.223z"/>
		</g>
	</g>
	<g>
		<path class="st8" d="M210.752,173.771l-30.847-15.841v17.193l23.861,12.253c1.118,0.574,2.311,0.846,3.487,0.846
			c2.776,0,5.454-1.517,6.809-4.156C215.991,180.31,214.51,175.701,210.752,173.771z"/>
	</g>
	<g>
		<path class="st7" d="M149.906,207.339h-35.687v-13.038c0-9.855,7.989-17.843,17.843-17.843h0c9.855,0,17.843,7.989,17.843,17.843
			V207.339z"/>
	</g>
	<g>
		<path class="st2" d="M187.701,221.359H76.424v-7.867c0-3.398,2.755-6.152,6.152-6.152h98.972c3.398,0,6.152,2.755,6.152,6.152
			V221.359z"/>
	</g>
	<g>
		<rect x="107.815" y="104.899" class="st7" width="88.484" height="22.752"/>
	</g>
	<g>
		<rect x="179.905" y="104.899" class="st4" width="16.394" height="22.752"/>
	</g>
	<g>
		<path class="st7" d="M103.759,73.887c8.036-8.036,8.036-21.065,0-29.101c-8.036-8.036-21.065-8.036-29.101,0L103.759,73.887z"/>
	</g>
	<g>
		<rect x="162.014" y="90.083" class="st6" width="9.24" height="14.816"/>
	</g>
	<g>
		<rect x="179.857" y="90.083" class="st8" width="9.24" height="14.816"/>
	</g>
	<g>
		<g>
			<path class="st6" d="M48.741,105.702c-4.224,0-7.647-3.424-7.647-7.647V77.656c0-4.224,3.424-7.647,7.647-7.647
				s7.647,3.424,7.647,7.647v20.399C56.388,102.279,52.964,105.702,48.741,105.702z"/>
		</g>
	</g>
	<g>
		<path class="st4" d="M132.063,176.457L132.063,176.457c-1.343,0-2.646,0.161-3.903,0.441c7.975,1.782,13.94,8.89,13.94,17.402
			v13.038h7.807v-13.038C149.906,184.446,141.917,176.457,132.063,176.457z"/>
	</g>
	<g>
		<path class="st7" d="M181.549,207.339h-20.036c3.398,0,6.152,2.755,6.152,6.152v7.867h20.036v-7.867
			C187.701,210.094,184.947,207.339,181.549,207.339z"/>
	</g>
	<g>
		<path class="st5" d="M132.063,176.457L132.063,176.457c3.723,0,7.177,1.143,10.037,3.092v-14.563h-20.074v14.563
			C124.886,177.6,128.34,176.457,132.063,176.457z"/>
	</g>
	<g>
		<rect x="142.099" y="127.652" class="st5" width="19.915" height="22.041"/>
	</g>
	<g>
		<g>
			<path class="st0" d="M48.741,108.702c-5.871,0-10.647-4.776-10.647-10.647V77.656c0-5.871,4.776-10.647,10.647-10.647
				s10.647,4.776,10.647,10.647v20.398C59.388,103.926,54.611,108.702,48.741,108.702z M48.741,73.009
				c-2.563,0-4.647,2.084-4.647,4.647v20.398c0,2.563,2.084,4.647,4.647,4.647s4.647-2.085,4.647-4.647V77.656
				C53.388,75.094,51.303,73.009,48.741,73.009z"/>
		</g>
	</g>
	<g>
		<g>
			<path class="st0" d="M207.253,191.223c-1.677,0-3.356-0.407-4.856-1.177l-42.956-22.059h-53.964
				c-1.822,0-3.626-0.472-5.216-1.365l-56.737-31.889c-5.118-2.877-6.941-9.381-4.065-14.499c1.883-3.351,5.443-5.432,9.29-5.432
				c1.817,0,3.618,0.472,5.208,1.366l54.306,30.523h53.75c1.685,0,3.366,0.407,4.863,1.176l45.245,23.234
				c2.53,1.299,4.403,3.506,5.273,6.213s0.634,5.592-0.665,8.122C214.898,189.005,211.268,191.223,207.253,191.223z M48.749,120.803
				c-1.682,0-3.237,0.909-4.06,2.371c-1.255,2.234-0.459,5.073,1.774,6.329l56.735,31.888c0.694,0.39,1.482,0.596,2.277,0.596
				h54.689c0.477,0,0.946,0.114,1.37,0.332l43.6,22.39c0.666,0.341,1.378,0.515,2.117,0.515c1.754,0,3.34-0.968,4.14-2.525
				c0.567-1.105,0.671-2.364,0.291-3.545s-1.197-2.145-2.302-2.712l-45.245-23.234c-0.653-0.336-1.388-0.513-2.123-0.513h-54.535
				c-0.515,0-1.021-0.132-1.47-0.385l-54.991-30.908C50.323,121.009,49.539,120.803,48.749,120.803z"/>
		</g>
	</g>
	<g>
		<path class="st0" d="M187.701,224.359H76.424c-1.657,0-3-1.343-3-3v-7.868c0-5.046,4.106-9.152,9.152-9.152h98.972
			c5.047,0,9.152,4.106,9.152,9.152v7.868C190.701,223.016,189.358,224.359,187.701,224.359z M79.424,218.359h105.277v-4.868
			c0-1.738-1.414-3.152-3.152-3.152H82.577c-1.738,0-3.152,1.414-3.152,3.152V218.359z"/>
	</g>
	<g>
		<path class="st0" d="M142.1,182.55c-0.592,0-1.183-0.175-1.689-0.521c-2.469-1.683-5.354-2.572-8.348-2.572
			c-2.992,0-5.879,0.889-8.347,2.572c-0.919,0.626-2.109,0.693-3.092,0.173s-1.598-1.541-1.598-2.652v-14.563c0-1.657,1.343-3,3-3
			H142.1c1.657,0,3,1.343,3,3v14.563c0,1.112-0.615,2.133-1.598,2.652C143.062,182.435,142.58,182.55,142.1,182.55z
			 M132.063,173.457c2.423,0,4.797,0.416,7.037,1.22v-6.69h-14.074v6.69C127.266,173.872,129.64,173.457,132.063,173.457z"/>
	</g>
	<g>
		<path class="st0" d="M149.906,210.339h-35.687c-1.657,0-3-1.343-3-3v-13.038c0-11.493,9.35-20.844,20.843-20.844
			s20.844,9.351,20.844,20.844v13.038C152.906,208.996,151.563,210.339,149.906,210.339z M117.219,204.339h29.687v-10.038
			c0-8.185-6.659-14.844-14.844-14.844s-14.843,6.659-14.843,14.844V204.339z"/>
	</g>
	<g>
		<path class="st0" d="M196.299,130.651h-88.484c-1.657,0-3-1.343-3-3v-22.752c0-1.657,1.343-3,3-3h88.484c1.657,0,3,1.343,3,3
			v22.752C199.299,129.308,197.956,130.651,196.299,130.651z M110.814,124.651h82.484v-16.752h-82.484V124.651z"/>
	</g>
	<g>
		<path class="st0" d="M162.014,152.692H142.1c-1.657,0-3-1.343-3-3v-22.041c0-1.657,1.343-3,3-3h19.914c1.657,0,3,1.343,3,3v22.041
			C165.014,151.349,163.671,152.692,162.014,152.692z M145.1,146.692h13.914v-16.041H145.1V146.692z"/>
	</g>
	<g>
		<path class="st0" d="M152.057,107.899c-1.657,0-3-1.343-3-3V61.396c0-13.099-10.656-23.755-23.755-23.755
			c-6.345,0-12.311,2.471-16.798,6.958c-0.045,0.045-0.091,0.089-0.14,0.131l-2.624,2.309c-1.242,1.095-3.138,0.975-4.234-0.271
			c-1.094-1.244-0.973-3.139,0.271-4.234l2.554-2.247c5.612-5.576,13.056-8.646,20.971-8.646c16.407,0,29.755,13.348,29.755,29.755
			v43.503C155.057,106.556,153.714,107.899,152.057,107.899z"/>
	</g>
	<g>
		<path class="st0" d="M103.759,76.887c-0.768,0-1.536-0.293-2.121-0.879L72.537,46.907c-1.172-1.171-1.172-3.071,0-4.242
			c4.453-4.454,10.374-6.906,16.672-6.906s12.219,2.453,16.672,6.906c4.453,4.453,6.906,10.374,6.906,16.672
			c0,6.297-2.453,12.218-6.906,16.671C105.294,76.594,104.526,76.887,103.759,76.887z M79.08,44.965l24.5,24.5
			c2.083-2.943,3.207-6.449,3.207-10.128c0-4.695-1.829-9.109-5.148-12.43c-3.32-3.32-7.734-5.148-12.429-5.148
			C85.529,41.759,82.022,42.882,79.08,44.965z"/>
	</g>
	<g>
		<path class="st0" d="M48.741,119.275c-1.657,0-3-1.343-3-3v-10.573c0-1.657,1.343-3,3-3s3,1.343,3,3v10.573
			C51.741,117.932,50.397,119.275,48.741,119.275z"/>
	</g>
	<g>
		<circle class="st0" cx="132.063" cy="191.898" r="4.779"/>
	</g>
	<g>
		<path class="st0" d="M171.254,107.899h-9.24c-1.657,0-3-1.343-3-3V90.083c0-1.657,1.343-3,3-3h9.24c1.657,0,3,1.343,3,3v14.816
			C174.254,106.556,172.911,107.899,171.254,107.899z M165.014,101.899h3.24v-8.816h-3.24V101.899z"/>
	</g>
	<g>
		<path class="st0" d="M189.098,107.899h-9.24c-1.657,0-3-1.343-3-3V90.083c0-1.657,1.343-3,3-3h9.24c1.657,0,3,1.343,3,3v14.816
			C192.098,106.556,190.755,107.899,189.098,107.899z M182.857,101.899h3.24v-8.816h-3.24V101.899z"/>
	</g>
</g>
</svg>
