<?xml version="1.0" encoding="utf-8"?>
<!-- Generator: Adobe Illustrator 18.0.0, SVG Export Plug-In . SVG Version: 6.00 Build 0)  -->
<!DOCTYPE svg PUBLIC "-//W3C//DTD SVG 1.1//EN" "http://www.w3.org/Graphics/SVG/1.1/DTD/svg11.dtd">
<svg version="1.1" id="Layer_1" xmlns="http://www.w3.org/2000/svg" xmlns:xlink="http://www.w3.org/1999/xlink" x="0px" y="0px"
	 viewBox="0 0 256 256" style="enable-background:new 0 0 256 256;" xml:space="preserve">
<style type="text/css">
	.st0{fill:#504774;}
	.st1{fill:#F1C48B;}
	.st2{fill:#FFFFFF;}
	.st3{fill:#D5E6F7;}
	.st4{fill:#A0D1F2;}
	.st5{fill:#7BABF3;}
	.st6{fill:#FD919F;}
	.st7{fill:#D4E7F8;}
	.st8{fill:#E0667D;}
	.st9{fill:#484771;}
</style>
<g>
	<g>
		<circle class="st1" cx="128" cy="128" r="103.873"/>
	</g>
	<g>
		<path class="st2" d="M186.151,93.888c5.303-14.068,6.99-31.559-7.957-44.694c-13.993-13.257-38.98-6.499-47.363-3.701
			c-1.842,0.615-3.819,0.615-5.661,0c-8.383-2.798-33.37-9.556-47.364,3.701c-14.947,13.135-13.26,30.626-7.957,44.694h28.726V84.66
			c0-5.946,4.82-10.766,10.766-10.766h37.319c5.946,0,10.766,4.82,10.766,10.766v9.229H186.151z"/>
	</g>
	<g>
		<path class="st2" d="M169.77,113.699c-11.641-11.029-32.425-5.411-39.408-3.082c-1.535,0.512-3.189,0.512-4.724,0
			c-6.983-2.33-27.767-7.947-39.408,3.082c-19.083,16.77-5.59,42.077,1.377,52.53c2.222,3.334,3.436,7.228,3.564,11.232
			c0.74,23.146,5.398,45.268,12.548,45.268c7.814,0,8.559-8.931,8.559-28.863c0-9.476,3.554-15.109,7.282-18.411
			c4.784-4.238,12.096-4.238,16.88,0c3.728,3.302,7.282,8.935,7.282,18.411c0,19.932,0.744,28.863,8.559,28.863
			c7.151,0,11.809-22.122,12.548-45.268c0.128-4.004,1.343-7.898,3.564-11.232C175.36,155.777,188.853,130.469,169.77,113.699z"/>
	</g>
	<g>
		<g>
			<path class="st3" d="M169.77,113.699c-6.438-6.099-15.67-7.104-23.82-6.393c5.588,0.553,11.077,2.354,15.34,6.393
				c19.083,16.77,5.59,42.077-1.377,52.53c-2.222,3.334-3.437,7.227-3.565,11.232c-0.608,19.021-3.864,37.339-8.972,43.268
				c1.204,1.342,2.794,2,4.904,2c7.151,0,11.809-22.122,12.548-45.268c0.128-4.004,1.343-7.898,3.564-11.232
				C175.36,155.777,188.853,130.469,169.77,113.699z"/>
		</g>
	</g>
	<g>
		<g>
			<path class="st3" d="M178.194,49.194c-7.767-7.358-18.919-8.547-28.741-7.672c6.684,0.675,13.245,2.841,18.344,7.672
				c14.947,13.135,13.26,30.625,7.957,44.694h10.397C191.454,79.82,193.141,62.329,178.194,49.194z"/>
		</g>
	</g>
	<g>
		<path class="st0" d="M152.28,225.729c-11.559,0-11.559-14.061-11.559-31.863c0-7.041-2.109-12.48-6.271-16.166
			c-1.765-1.563-4.056-2.424-6.451-2.424s-4.687,0.861-6.452,2.424c-4.16,3.685-6.27,9.124-6.27,16.166
			c0,17.802,0,31.863-11.559,31.863c-13.332,0-15.29-40.128-15.547-48.172c-0.112-3.483-1.171-6.825-3.063-9.664
			c-7.224-10.84-21.764-38.024-0.903-56.411c5.191-4.895,12.409-7.376,21.453-7.376c8.649,0,16.824,2.297,20.927,3.666
			c0.914,0.305,1.91,0.305,2.825,0c4.103-1.369,12.277-3.666,20.927-3.666c9.043,0,16.261,2.482,21.451,7.376
			c20.861,18.386,6.322,45.571-0.901,56.411c-1.892,2.838-2.951,6.18-3.063,9.664C167.57,185.601,165.611,225.729,152.28,225.729z
			 M128,169.276c3.862,0,7.566,1.396,10.43,3.933c3.783,3.351,8.292,9.655,8.292,20.657c0,20.545,1.143,25.863,5.559,25.863
			c2.86,0,8.661-14.55,9.551-42.364c0.146-4.604,1.553-9.03,4.066-12.8c6.353-9.533,19.255-33.354,1.892-48.612
			c-0.028-0.024-0.056-0.05-0.083-0.076c-4.042-3.83-9.885-5.771-17.366-5.771c-7.802,0-15.271,2.104-19.028,3.357
			c-2.141,0.715-4.482,0.715-6.623,0c-3.758-1.254-11.227-3.357-19.028-3.357c-7.482,0-13.325,1.941-17.368,5.771
			c-0.027,0.026-0.055,0.051-0.083,0.076c-17.364,15.259-4.461,39.08,1.893,48.613c2.513,3.77,3.919,8.196,4.067,12.799
			c0.889,27.814,6.689,42.364,9.55,42.364c4.416,0,5.559-5.317,5.559-25.863c0-11.003,4.509-17.307,8.292-20.657
			C120.434,170.673,124.138,169.276,128,169.276z"/>
	</g>
	<g>
		<path class="st0" d="M186.151,96.888h-28.727c-1.657,0-3-1.343-3-3V84.66c0-4.282-3.483-7.766-7.766-7.766H109.34
			c-4.282,0-7.766,3.483-7.766,7.766v9.229c0,1.657-1.343,3-3,3H69.849c-1.249,0-2.367-0.773-2.807-1.942
			c-7.455-19.777-4.433-36.363,8.742-47.969c6.123-5.777,14.658-8.707,25.371-8.707c10.311,0,20.067,2.742,24.964,4.377
			c1.222,0.409,2.542,0.408,3.762,0c4.897-1.635,14.653-4.377,24.965-4.377c10.713,0,19.248,2.929,25.37,8.707
			c13.174,11.606,16.197,28.192,8.743,47.969C188.519,96.115,187.4,96.888,186.151,96.888z M160.425,90.888h23.619
			c5.706-16.593,3.076-29.856-7.83-39.44c-0.028-0.024-0.056-0.05-0.083-0.076c-4.974-4.712-12.135-7.101-21.285-7.101
			c-9.463,0-18.513,2.549-23.064,4.068c-2.447,0.817-5.115,0.817-7.562,0c-4.552-1.52-13.602-4.068-23.064-4.068
			c-9.15,0-16.312,2.389-21.286,7.101c-0.027,0.026-0.055,0.051-0.083,0.076c-10.907,9.584-13.536,22.847-7.83,39.44h23.619V84.66
			c0-7.59,6.175-13.766,13.766-13.766h37.319c7.591,0,13.766,6.175,13.766,13.766V90.888z"/>
	</g>
	<g>
		<path class="st0" d="M128,128.75c-1.657,0-3-1.343-3-3V87.333c0-1.657,1.343-3,3-3s3,1.343,3,3v38.417
			C131,127.407,129.656,128.75,128,128.75z"/>
	</g>
	<g>
		<path class="st0" d="M147.5,138.277h-39c-1.657,0-3-1.343-3-3s1.343-3,3-3h39c1.657,0,3,1.343,3,3S149.157,138.277,147.5,138.277z
			"/>
	</g>
	<g>
		<path class="st0" d="M128,128.75c-0.733,0-1.467-0.268-2.043-0.803l-7.479-6.954c-1.213-1.128-1.282-3.026-0.154-4.24
			c1.129-1.213,3.026-1.282,4.24-0.154l5.437,5.055l5.438-5.055c1.215-1.129,3.113-1.058,4.24,0.155
			c1.128,1.213,1.059,3.112-0.154,4.24l-7.48,6.954C129.467,128.483,128.733,128.75,128,128.75z"/>
	</g>
</g>
</svg>
