<?xml version="1.0" encoding="utf-8"?>
<!-- Generator: Adobe Illustrator 18.0.0, SVG Export Plug-In . SVG Version: 6.00 Build 0)  -->
<!DOCTYPE svg PUBLIC "-//W3C//DTD SVG 1.1//EN" "http://www.w3.org/Graphics/SVG/1.1/DTD/svg11.dtd">
<svg version="1.1" id="Layer_1" xmlns="http://www.w3.org/2000/svg" xmlns:xlink="http://www.w3.org/1999/xlink" x="0px" y="0px"
	 viewBox="0 0 256 256" style="enable-background:new 0 0 256 256;" xml:space="preserve">
<style type="text/css">
	.st0{fill:#504774;}
	.st1{fill:#F1C48B;}
	.st2{fill:#FFFFFF;}
	.st3{fill:#D5E6F7;}
	.st4{fill:#A0D1F2;}
	.st5{fill:#7BABF3;}
	.st6{fill:#FD919F;}
	.st7{fill:#D4E7F8;}
	.st8{fill:#E0667D;}
	.st9{fill:#484771;}
</style>
<g>
	<g>
		<circle class="st1" cx="128" cy="128" r="103.873"/>
	</g>
	<g>
		<path class="st6" d="M157.657,154.771L157.657,154.771c0,15.641-12.679,28.32-28.32,28.32h-2.674
			c-15.641,0-28.32-12.679-28.32-28.32l0,0H43.315v51.622h169.369v-51.622H157.657z"/>
	</g>
	<g>
		<rect x="198.263" y="154.771" class="st8" width="14.422" height="51.622"/>
	</g>
	<g>
		<path class="st2" d="M208.218,100.64c-0.374-13.832-16.482-23.086-22.164-25.925c-1.249-0.624-2.258-1.633-2.882-2.882
			c-2.839-5.682-12.093-21.791-25.925-22.164c-21.876-1.411-29.084,22.263-31.211,32.891c-0.678,3.39-2.313,6.507-4.678,9.028
			c-13.671,14.574-24.327,30.914-19.964,35.277c4.768,4.768,10.671-0.227,22.833-12.389c5.782-5.782,11.387-7.051,15.677-6.791
			c5.505,0.334,9.966,4.795,10.299,10.299c0.26,4.29-1.009,9.895-6.791,15.677c-12.162,12.162-17.157,18.065-12.389,22.833
			c4.363,4.363,20.703-6.293,35.277-19.964c2.521-2.365,5.638-4,9.028-4.678C185.956,129.724,209.63,122.516,208.218,100.64z"/>
	</g>
	<g>
		<g>
			<path class="st3" d="M208.218,100.64c-0.207-7.646-5.222-13.889-10.625-18.427c3.075,3.748,5.327,8.199,5.464,13.266
				c1.411,21.876-22.263,29.084-32.891,31.211c-3.39,0.678-6.507,2.313-9.028,4.678c-11.985,11.243-25.158,20.438-31.889,20.926
				c-0.081,1.548,0.489,2.915,1.772,4.198c4.363,4.363,20.703-6.293,35.277-19.964c2.521-2.365,5.638-4,9.028-4.678
				C185.956,129.724,209.63,122.515,208.218,100.64z"/>
		</g>
	</g>
	<g>
		<path class="st0" d="M133.861,160.484c-0.001,0-0.001,0-0.002,0c-2.553,0-4.104-1.017-4.957-1.87
			c-3.329-3.328-3.531-7.473-0.601-12.317c2.277-3.764,6.321-8.091,12.988-14.757c4.209-4.209,6.2-8.709,5.918-13.375
			c-0.24-3.958-3.528-7.246-7.486-7.486c-0.279-0.017-0.565-0.026-0.857-0.026c-4.362,0-8.573,2-12.517,5.943
			c-9.366,9.367-15.457,15.054-21.04,15.054c-2.236,0-4.268-0.896-6.035-2.665c-8.192-8.19,13.158-32.266,19.896-39.45
			c2.005-2.138,3.362-4.753,3.926-7.564c2.188-10.936,9.955-36.831,34.29-35.299c15.18,0.45,24.965,16.804,28.471,23.821
			c0.336,0.672,0.868,1.204,1.539,1.54c7.018,3.505,23.372,13.291,23.821,28.47c1.527,24.269-24.173,32.064-35.3,34.291
			c-2.812,0.563-5.427,1.92-7.563,3.924C157.135,149.239,142.184,160.484,133.861,160.484z M138.864,104.653
			c0.416,0,0.823,0.013,1.221,0.037c7.049,0.427,12.686,6.064,13.111,13.113c0.27,4.437-0.843,11.158-7.664,17.979
			c-6.185,6.185-10.146,10.396-12.097,13.62c-1.982,3.278-1.084,4.176-0.291,4.969c0.038,0.028,0.255,0.113,0.716,0.113
			c4.429,0.001,16.288-6.918,30.387-20.143c2.954-2.771,6.582-4.649,10.491-5.432c9.587-1.919,31.75-8.495,30.486-28.076
			c-0.002-0.038-0.004-0.075-0.005-0.112c-0.332-12.301-15.78-20.961-20.507-23.322c-1.843-0.92-3.304-2.382-4.225-4.225
			c-2.361-4.727-11.022-20.174-23.322-20.506c-0.037-0.001-0.075-0.003-0.112-0.005c-0.563-0.036-1.116-0.054-1.657-0.054
			c-18.328,0-24.581,21.358-26.419,30.541c-0.782,3.91-2.661,7.537-5.432,10.491c-15.827,16.873-21.452,29.218-20.029,31.104
			c0.798,0.798,1.354,0.906,1.791,0.906c3.233,0,9.79-6.29,16.798-13.296C127.215,107.244,132.853,104.653,138.864,104.653z"/>
	</g>
	<g>
		<path class="st0" d="M212.685,209.393H43.315c-1.657,0-3-1.343-3-3v-51.622c0-1.657,1.343-3,3-3h55.027c1.657,0,3,1.343,3,3
			c0,13.962,11.358,25.32,25.32,25.32h2.674c13.962,0,25.32-11.358,25.32-25.32c0-1.657,1.343-3,3-3h55.027c1.657,0,3,1.343,3,3
			v51.622C215.685,208.049,214.342,209.393,212.685,209.393z M46.315,203.393h163.369v-45.622h-49.17
			c-1.515,15.868-14.92,28.32-31.178,28.32h-2.674c-16.258,0-29.663-12.452-31.178-28.32h-49.17V203.393z"/>
	</g>
	<g>
		<path class="st0" d="M74.766,146.39c-0.288,0-0.581-0.042-0.871-0.13l-17.744-5.377c-1.216-0.369-2.068-1.463-2.127-2.733
			s0.689-2.438,1.866-2.917l11.601-4.719l-8.792-8.509c-0.933-0.902-1.18-2.302-0.611-3.469c0.567-1.167,1.822-1.838,3.107-1.659
			l12.586,1.736l-2.238-12.61c-0.223-1.256,0.373-2.515,1.485-3.14c1.111-0.625,2.497-0.478,3.454,0.366l13.712,12.099
			c1.242,1.096,1.36,2.992,0.264,4.234c-1.095,1.242-2.989,1.362-4.234,0.265l-7.272-6.417l1.458,8.214
			c0.167,0.944-0.127,1.913-0.792,2.604c-0.665,0.691-1.622,1.023-2.572,0.892l-7.58-1.045l5.505,5.328
			c0.729,0.705,1.052,1.731,0.859,2.726c-0.193,0.996-0.876,1.827-1.814,2.208l-8.015,3.26l9.636,2.92
			c1.586,0.48,2.481,2.155,2.001,3.741C77.243,145.554,76.053,146.39,74.766,146.39z"/>
	</g>
</g>
</svg>
