<?xml version="1.0" encoding="utf-8"?>
<!-- Generator: Adobe Illustrator 18.0.0, SVG Export Plug-In . SVG Version: 6.00 Build 0)  -->
<!DOCTYPE svg PUBLIC "-//W3C//DTD SVG 1.1//EN" "http://www.w3.org/Graphics/SVG/1.1/DTD/svg11.dtd">
<svg version="1.1" id="Layer_1" xmlns="http://www.w3.org/2000/svg" xmlns:xlink="http://www.w3.org/1999/xlink" x="0px" y="0px"
	 viewBox="0 0 256 256" style="enable-background:new 0 0 256 256;" xml:space="preserve">
<style type="text/css">
	.st0{fill:#504774;}
	.st1{fill:#F1C48B;}
	.st2{fill:#FFFFFF;}
	.st3{fill:#D5E6F7;}
	.st4{fill:#A0D1F2;}
	.st5{fill:#7BABF3;}
	.st6{fill:#FD919F;}
	.st7{fill:#D4E7F8;}
	.st8{fill:#E0667D;}
	.st9{fill:#484771;}
</style>
<g>
	<g>
		<circle class="st1" cx="128" cy="128" r="103.873"/>
	</g>
	<g>
		<path class="st6" d="M157.214,69.667V128c0,32.217-26.117,58.333-58.333,58.333h0c-32.217,0-58.333-26.117-58.333-58.333v0
			c0-32.217,26.117-58.333,58.333-58.333H157.214z"/>
	</g>
	<g>
		<path class="st8" d="M144.214,69.667V128c0,30.018-22.678,54.73-51.833,57.964c2.135,0.237,4.302,0.369,6.5,0.369h0
			c32.217,0,58.333-26.117,58.333-58.333V69.667H144.214z"/>
	</g>
	<g>
		<circle class="st3" cx="98.88" cy="128" r="37.446"/>
	</g>
	<g>
		<circle class="st4" cx="98.88" cy="128" r="23"/>
	</g>
	<g>
		<circle class="st5" cx="98.88" cy="128" r="8.815"/>
	</g>
	<g>
		<rect x="157.214" y="69.667" class="st5" width="14.207" height="30.202"/>
	</g>
	<g>
		<path class="st0" d="M98.88,189.333c-33.819,0-61.333-27.514-61.333-61.333S65.061,66.667,98.88,66.667h58.333
			c1.657,0,3,1.343,3,3V128C160.214,161.819,132.7,189.333,98.88,189.333z M98.88,72.667c-30.511,0-55.333,24.822-55.333,55.333
			s24.822,55.333,55.333,55.333s55.333-24.822,55.333-55.333V72.667H98.88z"/>
	</g>
	<g>
		<path class="st0" d="M98.88,168.446c-22.302,0-40.446-18.145-40.446-40.446S76.578,87.554,98.88,87.554
			s40.446,18.145,40.446,40.446S121.183,168.446,98.88,168.446z M98.88,93.554c-18.994,0-34.446,15.452-34.446,34.446
			s15.453,34.446,34.446,34.446s34.446-15.452,34.446-34.446S117.874,93.554,98.88,93.554z"/>
	</g>
	<g>
		<path class="st0" d="M98.88,154c-14.336,0-26-11.663-26-26s11.664-26,26-26s26,11.663,26,26S113.217,154,98.88,154z M98.88,108
			c-11.028,0-20,8.972-20,20s8.972,20,20,20s20-8.972,20-20S109.908,108,98.88,108z"/>
	</g>
	<g>
		<path class="st0" d="M98.88,139.815c-6.515,0-11.815-5.301-11.815-11.815s5.3-11.814,11.815-11.814s11.815,5.3,11.815,11.814
			S105.395,139.815,98.88,139.815z M98.88,122.186c-3.207,0-5.815,2.608-5.815,5.814c0,3.207,2.608,5.815,5.815,5.815
			s5.815-2.608,5.815-5.815C104.695,124.794,102.087,122.186,98.88,122.186z"/>
	</g>
	<g>
		<path class="st0" d="M171.421,102.868h-14.207c-1.657,0-3-1.343-3-3V69.667c0-1.657,1.343-3,3-3h14.207c1.657,0,3,1.343,3,3
			v30.201C174.421,101.525,173.078,102.868,171.421,102.868z M160.214,96.868h8.207V72.667h-8.207V96.868z"/>
	</g>
	<g>
		<path class="st0" d="M195.695,175.126c-6.323,0-11.468-5.144-11.468-11.467V99.021c0-3.015-2.453-5.468-5.468-5.468h-7.338
			c-1.657,0-3-1.343-3-3s1.343-3,3-3h7.338c6.323,0,11.468,5.145,11.468,11.468v64.638c0,3.015,2.453,5.467,5.468,5.467
			s5.468-2.452,5.468-5.467V99.021c0-6.323,5.145-11.468,11.468-11.468h2.823c1.657,0,3,1.343,3,3s-1.343,3-3,3h-2.823
			c-3.015,0-5.468,2.453-5.468,5.468v64.638C207.163,169.982,202.018,175.126,195.695,175.126z"/>
	</g>
</g>
</svg>
