<?xml version="1.0" encoding="utf-8"?>
<!-- Generator: Adobe Illustrator 18.0.0, SVG Export Plug-In . SVG Version: 6.00 Build 0)  -->
<!DOCTYPE svg PUBLIC "-//W3C//DTD SVG 1.1//EN" "http://www.w3.org/Graphics/SVG/1.1/DTD/svg11.dtd">
<svg version="1.1" id="Layer_1" xmlns="http://www.w3.org/2000/svg" xmlns:xlink="http://www.w3.org/1999/xlink" x="0px" y="0px"
	 viewBox="0 0 256 256" style="enable-background:new 0 0 256 256;" xml:space="preserve">
<style type="text/css">
	.st0{fill:#504774;}
	.st1{fill:#F1C48B;}
	.st2{fill:#FFFFFF;}
	.st3{fill:#D5E6F7;}
	.st4{fill:#A0D1F2;}
	.st5{fill:#7BABF3;}
	.st6{fill:#FD919F;}
	.st7{fill:#D4E7F8;}
	.st8{fill:#E0667D;}
	.st9{fill:#484771;}
</style>
<g>
	<g>
		<circle class="st1" cx="128" cy="128" r="103.873"/>
	</g>
	<g>
		<path class="st6" d="M108.511,160.994l-13.506-13.506c-3.17-3.17-3.17-8.309,0-11.479l59.981-59.981l24.984,24.984l-59.981,59.981
			C116.82,164.164,111.681,164.164,108.511,160.994z"/>
	</g>
	<g>
		<path class="st3" d="M203.88,69.072l-16.953-16.953c-2.218-2.218-2.218-5.814,0-8.032h0c2.218-2.218,5.814-2.218,8.032,0
			l16.953,16.953c2.218,2.218,2.218,5.814,0,8.032l0,0C209.694,71.29,206.098,71.29,203.88,69.072z"/>
	</g>
	<g>
		<path class="st4" d="M211.912,61.041l-6.835-6.836c2.218,2.218,2.218,5.814,0,8.032c-2.218,2.218-5.814,2.218-8.032,0l6.835,6.835
			c2.218,2.218,5.814,2.218,8.032,0C214.13,66.854,214.13,63.259,211.912,61.041z"/>
	</g>
	<g>
		
			<rect x="178.736" y="56.591" transform="matrix(0.7071 0.7071 -0.7071 0.7071 104.085 -110.7552)" class="st4" width="14" height="27.346"/>
	</g>
	<g>
		<path class="st3" d="M194.216,98.081l-36.297-36.296c-0.558,1.984-1.61,3.857-3.171,5.418c-1.561,1.561-3.434,2.613-5.418,3.171
			l36.297,36.297c0.558-1.983,1.61-3.857,3.171-5.418C190.359,99.691,192.232,98.638,194.216,98.081z"/>
	</g>
	<g>
		<path class="st5" d="M88.99,167.01L88.99,167.01c-3.124-3.124-3.124-8.189,0-11.314l7.112-7.112l11.314,11.314l-7.112,7.112
			C97.18,170.134,92.114,170.134,88.99,167.01z"/>
	</g>
	<g>
		<path class="st8" d="M173.136,94.178l-59.981,59.981c-3.17,3.17-8.309,3.17-11.479,0l6.835,6.835c3.17,3.17,8.309,3.17,11.479,0
			l59.981-59.981L173.136,94.178z"/>
	</g>
	<g>
		<path class="st0" d="M114.251,166.372c-2.97,0-5.761-1.156-7.861-3.256L92.885,149.61c-2.1-2.1-3.256-4.891-3.256-7.861
			c0-2.969,1.156-5.761,3.256-7.86l59.98-59.981c1.125-1.126,3.117-1.126,4.242,0l24.984,24.984c1.172,1.171,1.172,3.071,0,4.242
			l-59.98,59.981C120.012,165.215,117.22,166.372,114.251,166.372z M154.986,80.271l-57.859,57.859
			c-0.966,0.967-1.499,2.251-1.499,3.618c0,1.367,0.532,2.652,1.499,3.619l13.505,13.505c0.967,0.966,2.251,1.499,3.619,1.499
			c1.367,0,2.651-0.532,3.618-1.499l57.859-57.86L154.986,80.271z"/>
	</g>
	<g>
		<path class="st0" d="M94.647,172.353c-2.938,0-5.701-1.144-7.778-3.222c-2.078-2.077-3.222-4.839-3.222-7.778
			s1.144-5.701,3.222-7.778l7.111-7.111c1.125-1.126,3.117-1.126,4.243,0l11.314,11.314c0.563,0.563,0.879,1.326,0.879,2.121
			c0,0.796-0.316,1.559-0.879,2.122l-7.112,7.111C100.348,171.209,97.585,172.353,94.647,172.353z M96.102,152.827l-4.99,4.99
			c-0.945,0.945-1.465,2.2-1.465,3.536s0.52,2.591,1.464,3.535c0.945,0.945,2.2,1.465,3.536,1.465s2.591-0.52,3.535-1.464
			l4.991-4.99L96.102,152.827z"/>
	</g>
	<g>
		<path class="st0" d="M207.896,73.735c-2.318,0-4.498-0.902-6.137-2.542l-16.953-16.952c-3.384-3.385-3.384-8.891,0-12.274
			c1.639-1.64,3.818-2.542,6.137-2.542s4.498,0.902,6.137,2.542l16.953,16.953c3.384,3.384,3.384,8.89,0,12.273
			C212.395,72.833,210.215,73.735,207.896,73.735z M190.943,45.425c-0.716,0-1.389,0.278-1.895,0.784
			c-1.044,1.045-1.044,2.745,0,3.79l16.953,16.952c1.012,1.013,2.777,1.012,3.789,0c1.044-1.045,1.044-2.744,0-3.789l-16.953-16.953
			C192.332,45.703,191.659,45.425,190.943,45.425z"/>
	</g>
	<g>
		<path class="st0" d="M181.018,87.882c-0.796,0-1.559-0.316-2.121-0.879l-9.899-9.9c-1.172-1.171-1.172-3.071,0-4.242
			l19.336-19.336c1.125-1.126,3.117-1.126,4.242,0l9.899,9.899c1.172,1.171,1.172,3.071,0,4.242l-19.336,19.337
			C182.576,87.566,181.813,87.882,181.018,87.882z M175.36,74.982l5.657,5.657l15.094-15.094l-5.657-5.657L175.36,74.982z"/>
	</g>
	<g>
		<path class="st0" d="M42.424,216.576c-0.768,0-1.536-0.293-2.121-0.879c-1.172-1.171-1.172-3.071,0-4.242l46.566-46.566
			c1.171-1.172,3.071-1.172,4.242,0c1.172,1.171,1.172,3.071,0,4.242l-46.566,46.566C43.96,216.283,43.192,216.576,42.424,216.576z"
			/>
	</g>
	<g>
		<path class="st0" d="M197.594,125.486c-4.124,0-8.001-1.606-10.917-4.522c-6.02-6.02-6.02-15.814,0-21.834
			c2.916-2.916,6.793-4.522,10.917-4.522s8.001,1.606,10.917,4.521c6.02,6.02,6.02,15.814,0,21.834
			C205.595,123.88,201.718,125.486,197.594,125.486z M197.594,100.608c-2.521,0-4.892,0.982-6.675,2.765
			c-3.68,3.68-3.68,9.668,0,13.349c1.783,1.783,4.153,2.765,6.675,2.765s4.892-0.982,6.675-2.765c3.68-3.68,3.68-9.668,0-13.349
			C202.485,101.59,200.115,100.608,197.594,100.608z"/>
	</g>
	<g>
		<path class="st0" d="M185.627,109.669c-0.785,0-1.552-0.309-2.121-0.879L147.21,72.494c-0.754-0.753-1.051-1.849-0.781-2.88
			c0.27-1.03,1.064-1.841,2.091-2.129c1.55-0.436,2.971-1.267,4.108-2.404c1.136-1.136,1.967-2.556,2.403-4.108
			c0.288-1.025,1.099-1.821,2.129-2.09c1.031-0.27,2.128,0.027,2.88,0.781l36.297,36.296c0.753,0.753,1.051,1.849,0.781,2.879
			c-0.269,1.031-1.064,1.841-2.09,2.129c-1.552,0.437-2.973,1.269-4.109,2.404c-1.136,1.136-1.967,2.557-2.404,4.11
			c-0.289,1.025-1.1,1.82-2.13,2.089C186.134,109.638,185.88,109.669,185.627,109.669z M154.478,71.276l30.246,30.248
			c0.568-0.859,1.222-1.662,1.953-2.393c0.73-0.731,1.534-1.385,2.393-1.953l-30.246-30.247c-0.568,0.859-1.222,1.662-1.953,2.392
			C156.139,70.054,155.336,70.708,154.478,71.276z"/>
	</g>
	<g>
		<path class="st0" d="M145.952,73.845c-4.123,0-8-1.606-10.916-4.522c-6.02-6.019-6.02-15.814,0-21.833
			c2.916-2.917,6.793-4.522,10.916-4.522c4.124,0,8.001,1.606,10.917,4.522c2.917,2.916,4.522,6.792,4.522,10.917
			s-1.605,8.001-4.522,10.917C153.953,72.239,150.076,73.845,145.952,73.845z M145.952,48.967c-2.521,0-4.891,0.982-6.674,2.765
			c-3.68,3.68-3.68,9.668,0,13.349c1.783,1.783,4.153,2.765,6.674,2.765c2.521,0,4.892-0.982,6.675-2.765
			c1.783-1.783,2.765-4.153,2.765-6.674s-0.981-4.891-2.765-6.674C150.844,49.949,148.474,48.967,145.952,48.967z"/>
	</g>
	<g>
		<path class="st0" d="M153.5,103.498c-0.768,0-1.535-0.293-2.121-0.878l-4.656-4.655c-1.172-1.171-1.172-3.071,0-4.243
			c1.17-1.172,3.07-1.171,4.242,0l4.656,4.655c1.172,1.171,1.172,3.071,0,4.243C155.036,103.205,154.268,103.498,153.5,103.498z"/>
	</g>
	<g>
		<path class="st0" d="M141.125,115.872c-0.768,0-1.535-0.293-2.121-0.879l-4.655-4.655c-1.172-1.171-1.172-3.071,0-4.242
			c1.172-1.172,3.07-1.172,4.242,0l4.655,4.655c1.172,1.171,1.172,3.071,0,4.242C142.66,115.579,141.893,115.872,141.125,115.872z"
			/>
	</g>
	<g>
		<path class="st0" d="M128.751,128.247c-0.768,0-1.536-0.293-2.121-0.879l-4.656-4.656c-1.172-1.171-1.172-3.071,0-4.242
			c1.171-1.172,3.071-1.172,4.242,0l4.656,4.656c1.172,1.171,1.172,3.071,0,4.242C130.286,127.954,129.519,128.247,128.751,128.247z
			"/>
	</g>
	<g>
		<path class="st0" d="M116.376,140.621c-0.768,0-1.536-0.293-2.121-0.879l-4.656-4.656c-1.172-1.171-1.172-3.071,0-4.242
			c1.171-1.172,3.071-1.172,4.242,0l4.656,4.656c1.172,1.171,1.172,3.071,0,4.242C117.912,140.328,117.144,140.621,116.376,140.621z
			"/>
	</g>
</g>
</svg>
