<?xml version="1.0" encoding="utf-8"?>
<!-- Generator: Adobe Illustrator 18.0.0, SVG Export Plug-In . SVG Version: 6.00 Build 0)  -->
<!DOCTYPE svg PUBLIC "-//W3C//DTD SVG 1.1//EN" "http://www.w3.org/Graphics/SVG/1.1/DTD/svg11.dtd">
<svg version="1.1" id="Layer_1" xmlns="http://www.w3.org/2000/svg" xmlns:xlink="http://www.w3.org/1999/xlink" x="0px" y="0px"
	 viewBox="0 0 256 256" style="enable-background:new 0 0 256 256;" xml:space="preserve">
<style type="text/css">
	.st0{fill:#504774;}
	.st1{fill:#F1C48B;}
	.st2{fill:#FFFFFF;}
	.st3{fill:#D5E6F7;}
	.st4{fill:#A0D1F2;}
	.st5{fill:#7BABF3;}
	.st6{fill:#FD919F;}
	.st7{fill:#D4E7F8;}
	.st8{fill:#E0667D;}
	.st9{fill:#484771;}
</style>
<g>
	<g>
		<circle class="st1" cx="128" cy="128" r="103.873"/>
	</g>
	<g>
		<path class="st2" d="M187.265,55.33c-16.517-15.648-46.006-7.678-55.913-4.372c-2.178,0.727-4.525,0.727-6.702,0
			c-9.907-3.306-39.396-11.275-55.913,4.372c-27.076,23.794-7.931,59.701,1.953,74.531c3.153,4.73,4.876,10.255,5.057,15.936
			c1.05,32.84,7.659,64.228,17.804,64.228c11.087,0,12.143-12.671,12.143-40.952c0-13.445,5.042-21.438,10.332-26.123
			c6.788-6.012,17.162-6.012,23.95,0c5.29,4.685,10.331,12.678,10.331,26.123c0,28.281,1.056,40.952,12.143,40.952
			c10.145,0,16.754-31.387,17.804-64.228c0.182-5.681,1.905-11.206,5.057-15.936C195.196,115.031,214.34,79.124,187.265,55.33z"/>
	</g>
	<g>
		<g>
			<path class="st3" d="M187.265,55.33c-9.13-8.649-22.22-10.077-33.778-9.071c7.933,0.783,15.727,3.338,21.778,9.071
				c27.076,23.794,7.931,59.701-1.953,74.531c-3.152,4.73-4.876,10.255-5.058,15.936c-0.863,27.007-5.488,53.014-12.746,61.408
				c1.706,1.893,3.958,2.82,6.942,2.82c10.145,0,16.754-31.387,17.804-64.228c0.182-5.681,1.905-11.206,5.057-15.936
				C195.196,115.031,214.34,79.124,187.265,55.33z"/>
		</g>
	</g>
	<g>
		<path class="st6" d="M162.45,210.025c10.145,0,16.754-31.387,17.804-64.228c0.083-2.594,0.503-5.151,1.218-7.62l-13.408-1.217
			c-3.255-0.296-6.502,0.652-9.088,2.651l-13.309,10.292l-0.004-0.002c2.717,4.649,4.643,10.868,4.643,19.172
			C150.307,197.354,151.363,210.025,162.45,210.025z"/>
	</g>
	<g>
		<path class="st8" d="M180.385,143.808c0.048-0.505,0.121-1.005,0.194-1.505c0.02-0.134,0.033-0.268,0.054-0.402
			c0.099-0.623,0.221-1.24,0.358-1.855c0-0.001,0-0.002,0.001-0.003c0.14-0.628,0.301-1.249,0.48-1.866v0l-11.678-1.06
			c-0.92,2.791-1.446,5.713-1.541,8.68c-0.863,27.007-5.488,53.014-12.746,61.408c0,0.001,0.001,0.001,0.001,0.001
			c0.209,0.232,0.426,0.447,0.651,0.65c0.011,0.01,0.021,0.019,0.032,0.028c0.214,0.191,0.437,0.368,0.667,0.533
			c0.023,0.016,0.045,0.033,0.068,0.049c0.218,0.153,0.444,0.293,0.677,0.424c0.037,0.021,0.074,0.042,0.111,0.063
			c0.22,0.119,0.449,0.226,0.683,0.325c0.053,0.022,0.105,0.047,0.158,0.068c0.222,0.089,0.453,0.165,0.687,0.237
			c0.07,0.021,0.137,0.045,0.208,0.064c0.225,0.063,0.459,0.113,0.696,0.16c0.085,0.017,0.166,0.038,0.252,0.052
			c0.238,0.041,0.486,0.069,0.735,0.095c0.089,0.009,0.174,0.024,0.265,0.031c0.334,0.027,0.678,0.041,1.033,0.041
			c0.006,0,0.012,0.001,0.019,0.001c10.145,0,16.754-31.387,17.804-64.228C180.275,145.131,180.32,144.468,180.385,143.808z"/>
	</g>
	<g>
		<path class="st6" d="M93.55,210.025c11.087,0,12.143-12.671,12.143-40.952c0-13.445,5.042-21.438,10.332-26.123
			c1.829-1.62,3.922-2.788,6.131-3.535l-0.015-0.007l-6.537-4.621c-5.446-3.849-12.925-2.93-17.277,2.124l0,0
			c-4.415,5.127-12.035,5.988-17.483,1.975l-8.533-6.285l-0.002,0.036c2.114,4.06,3.291,8.554,3.438,13.16
			C76.796,178.637,83.405,210.025,93.55,210.025z"/>
	</g>
	<g>
		<path class="st0" d="M93.55,213.025c-18.133,0-20.583-60.261-20.802-67.132c-0.133-4.124-1.205-8.228-3.102-11.87
			c-0.261-0.501-0.375-1.066-0.329-1.629c0.089-1.084,0.759-2.054,1.748-2.505c0.992-0.45,2.149-0.347,3.024,0.297l8.533,6.286
			c1.721,1.268,3.757,1.938,5.89,1.938c2.901,0,5.649-1.259,7.54-3.455c3.031-3.521,7.438-5.54,12.087-5.54
			c3.31,0,6.489,1.011,9.195,2.924l6.51,4.601c0.852,0.587,1.356,1.583,1.299,2.638c-0.067,1.224-0.866,2.287-2.027,2.68
			c-1.915,0.648-3.633,1.637-5.103,2.939c-6.185,5.479-9.32,13.512-9.32,23.877C108.693,194.589,108.693,213.025,93.55,213.025z
			 M78.199,140.665c0.308,1.663,0.491,3.349,0.545,5.036c1.279,40.013,9.421,61.324,14.806,61.324c7.822,0,9.144-9.476,9.144-37.952
			c0-15.143,6.168-23.785,11.342-28.369c0.718-0.636,1.477-1.218,2.272-1.745l-2.436-1.722c-1.688-1.193-3.67-1.824-5.732-1.824
			c-2.901,0-5.649,1.259-7.54,3.455c-3.031,3.521-7.438,5.54-12.087,5.54c-3.422,0-6.689-1.074-9.448-3.107L78.199,140.665z"/>
	</g>
	<g>
		<path class="st0" d="M162.45,213.025c-15.144,0-15.144-18.436-15.144-43.952c0-6.911-1.424-12.852-4.232-17.658
			c-0.671-1.147-0.507-2.598,0.402-3.566c0.147-0.157,0.309-0.295,0.479-0.414l13.186-10.196c3.157-2.442,7.196-3.625,11.194-3.266
			l13.408,1.217c0.892,0.081,1.701,0.557,2.206,1.296s0.653,1.667,0.403,2.527c-0.657,2.267-1.027,4.582-1.102,6.88
			C183.033,152.764,180.583,213.025,162.45,213.025z M149.5,150.732c2.527,5.255,3.807,11.411,3.807,18.341
			c0,28.476,1.321,37.952,9.144,37.952c5.385,0,13.526-21.311,14.806-61.324c0.052-1.617,0.223-3.237,0.513-4.848l-9.976-0.906
			c-2.486-0.226-5.012,0.514-6.981,2.037L149.5,150.732z"/>
	</g>
	<g>
		<path class="st0" d="M162.45,213.025c-15.144,0-15.144-18.436-15.144-43.952c0-10.365-3.136-18.398-9.32-23.877
			c-2.733-2.421-6.28-3.755-9.986-3.755s-7.253,1.333-9.986,3.755c-6.185,5.479-9.32,13.512-9.32,23.877
			c0,25.516,0,43.952-15.144,43.952c-18.133,0-20.583-60.261-20.802-67.132c-0.166-5.176-1.741-10.144-4.556-14.368
			c-10.068-15.107-30.358-52.979-1.479-78.412c7.126-6.728,17.081-10.138,29.591-10.138c12.094,0,23.545,3.218,29.294,5.137
			c1.555,0.519,3.251,0.519,4.804,0c5.75-1.918,17.201-5.137,29.295-5.137c12.51,0,22.465,3.411,29.591,10.138
			c28.879,25.433,8.589,63.304-1.479,78.412c-2.814,4.224-4.39,9.192-4.556,14.368C183.033,152.764,180.583,213.025,162.45,213.025z
			 M128,135.441c5.173,0,10.133,1.869,13.965,5.264c5.174,4.583,11.342,13.225,11.342,28.368c0,28.476,1.321,37.952,9.144,37.952
			c5.385,0,13.526-21.311,14.806-61.324c0.201-6.295,2.123-12.348,5.56-17.503c9.197-13.801,27.851-48.31,2.469-70.614
			c-0.028-0.024-0.056-0.05-0.083-0.076c-5.977-5.662-14.558-8.533-25.505-8.533c-11.245,0-21.991,3.025-27.396,4.828
			c-2.779,0.929-5.821,0.929-8.603,0c-5.403-1.803-16.149-4.828-27.395-4.828c-10.947,0-19.528,2.871-25.505,8.533
			c-0.027,0.026-0.055,0.051-0.083,0.076c-25.382,22.305-6.729,56.813,2.469,70.614c3.437,5.155,5.358,11.208,5.56,17.503
			c1.279,40.013,9.421,61.324,14.806,61.324c7.822,0,9.144-9.476,9.144-37.952c0-15.143,6.168-23.785,11.342-28.368
			C117.867,137.311,122.827,135.441,128,135.441z"/>
	</g>
	<g>
		<circle class="st0" cx="87.375" cy="155.875" r="3.625"/>
	</g>
	<g>
		<circle class="st0" cx="94.625" cy="171.219" r="3.625"/>
	</g>
	<g>
		<circle class="st0" cx="161" cy="153.75" r="3.625"/>
	</g>
	<g>
		<circle class="st0" cx="169.5" cy="167.594" r="3.625"/>
	</g>
	<g>
		<circle class="st0" cx="162.25" cy="188.714" r="3.625"/>
	</g>
	<g>
		<circle class="st0" cx="92.268" cy="188.714" r="3.625"/>
	</g>
</g>
</svg>
