<?xml version="1.0" encoding="utf-8"?>
<!-- Generator: Adobe Illustrator 18.0.0, SVG Export Plug-In . SVG Version: 6.00 Build 0)  -->
<!DOCTYPE svg PUBLIC "-//W3C//DTD SVG 1.1//EN" "http://www.w3.org/Graphics/SVG/1.1/DTD/svg11.dtd">
<svg version="1.1" id="Layer_1" xmlns="http://www.w3.org/2000/svg" xmlns:xlink="http://www.w3.org/1999/xlink" x="0px" y="0px"
	 viewBox="0 0 256 256" style="enable-background:new 0 0 256 256;" xml:space="preserve">
<style type="text/css">
	.st0{fill:#504774;}
	.st1{fill:#F1C48B;}
	.st2{fill:#FFFFFF;}
	.st3{fill:#D5E6F7;}
	.st4{fill:#A0D1F2;}
	.st5{fill:#7BABF3;}
	.st6{fill:#FD919F;}
	.st7{fill:#D4E7F8;}
	.st8{fill:#E0667D;}
	.st9{fill:#484771;}
</style>
<g>
	<g>
		<circle class="st1" cx="128" cy="128" r="103.873"/>
	</g>
	<g>
		<circle class="st4" cx="129.1" cy="71.196" r="21.696"/>
	</g>
	<g>
		<path class="st6" d="M88.734,206.5L88.734,206.5c-6.754,0-12.229-5.475-12.229-12.229v-71.794c0-6.754,5.475-12.229,12.229-12.229
			h0c6.754,0,12.229,5.475,12.229,12.229v71.794C100.962,201.025,95.488,206.5,88.734,206.5z"/>
	</g>
	<g>
		<path class="st6" d="M169.392,206.5L169.392,206.5c-6.754,0-12.229-5.475-12.229-12.229v-71.794
			c0-6.754,5.475-12.229,12.229-12.229l0,0c6.754,0,12.229,5.475,12.229,12.229v71.794C181.62,201.025,176.145,206.5,169.392,206.5z
			"/>
	</g>
	<g>
		<path class="st6" d="M129.1,206.5L129.1,206.5c-6.754,0-12.229-5.475-12.229-12.229v-71.794c0-6.754,5.475-12.229,12.229-12.229
			l0,0c6.754,0,12.229,5.475,12.229,12.229v71.794C141.329,201.025,135.854,206.5,129.1,206.5z"/>
	</g>
	<g>
		<path class="st8" d="M129.1,110.249c-1.502,0-2.935,0.284-4.264,0.78c4.648,1.732,7.964,6.198,7.964,11.449v71.794
			c0,5.251-3.316,9.717-7.964,11.449c1.329,0.496,2.762,0.779,4.264,0.779c6.754,0,12.229-5.475,12.229-12.228v-71.794
			C141.329,115.724,135.854,110.249,129.1,110.249z"/>
	</g>
	<g>
		<path class="st8" d="M169.392,110.249c-1.502,0-2.935,0.284-4.264,0.78c4.648,1.732,7.964,6.198,7.964,11.449v71.794
			c0,5.251-3.317,9.717-7.964,11.449c1.329,0.496,2.762,0.779,4.264,0.779c6.754,0,12.229-5.475,12.229-12.228v-71.794
			C181.62,115.724,176.145,110.249,169.392,110.249z"/>
	</g>
	<g>
		<path class="st8" d="M88.734,110.249c-1.502,0-2.935,0.284-4.264,0.78c4.648,1.732,7.964,6.198,7.964,11.449v71.794
			c0,5.251-3.317,9.717-7.964,11.449c1.329,0.496,2.762,0.779,4.264,0.779c6.754,0,12.229-5.475,12.229-12.228v-71.794
			C100.962,115.724,95.488,110.249,88.734,110.249z"/>
	</g>
	<g>
		<path class="st5" d="M129.1,49.5c-1.628,0-3.208,0.194-4.734,0.534c9.703,2.162,16.962,10.808,16.962,21.162
			s-7.259,19-16.962,21.162c1.525,0.34,3.106,0.534,4.734,0.534c11.982,0,21.696-9.714,21.696-21.696
			C150.796,59.214,141.083,49.5,129.1,49.5z"/>
	</g>
	<g>
		<path class="st0" d="M129.101,95.892c-13.618,0-24.696-11.078-24.696-24.695S115.483,46.5,129.101,46.5
			c13.617,0,24.696,11.079,24.696,24.696S142.718,95.892,129.101,95.892z M129.101,52.5c-10.309,0-18.696,8.387-18.696,18.696
			c0,10.309,8.387,18.695,18.696,18.695s18.696-8.387,18.696-18.695C147.796,60.887,139.41,52.5,129.101,52.5z"/>
	</g>
	<g>
		<path class="st0" d="M129.101,209.5c-8.397,0-15.229-6.831-15.229-15.229v-71.794c0-8.397,6.832-15.229,15.229-15.229
			c8.397,0,15.229,6.831,15.229,15.229v71.794C144.329,202.669,137.498,209.5,129.101,209.5z M129.101,113.249
			c-5.089,0-9.229,4.14-9.229,9.229v71.794c0,5.089,4.14,9.229,9.229,9.229c5.088,0,9.229-4.14,9.229-9.229v-71.794
			C138.329,117.389,134.189,113.249,129.101,113.249z"/>
	</g>
	<g>
		<path class="st0" d="M129.101,113.249c-1.657,0-3-1.343-3-3V92.892c0-1.657,1.343-3,3-3s3,1.343,3,3v17.357
			C132.101,111.906,130.757,113.249,129.101,113.249z"/>
	</g>
	<g>
		<path class="st0" d="M169.392,209.5c-8.397,0-15.229-6.831-15.229-15.229v-71.794c0-8.397,6.832-15.229,15.229-15.229
			s15.229,6.831,15.229,15.229v71.794C184.62,202.669,177.789,209.5,169.392,209.5z M169.392,113.249
			c-5.088,0-9.229,4.14-9.229,9.229v71.794c0,5.089,4.14,9.229,9.229,9.229s9.229-4.14,9.229-9.229v-71.794
			C178.62,117.389,174.48,113.249,169.392,113.249z"/>
	</g>
	<g>
		<path class="st0" d="M169.392,113.249c-1.657,0-3-1.343-3-3V75.178c0-0.603,0.181-1.19,0.52-1.688l17.483-25.678
			c0.932-1.368,2.798-1.727,4.168-0.791c1.37,0.933,1.724,2.799,0.792,4.168l-16.963,24.914v34.146
			C172.392,111.906,171.048,113.249,169.392,113.249z"/>
	</g>
	<g>
		<path class="st0" d="M88.734,209.5c-8.397,0-15.229-6.831-15.229-15.229v-71.794c0-8.397,6.832-15.229,15.229-15.229
			s15.229,6.831,15.229,15.229v71.794C103.962,202.669,97.131,209.5,88.734,209.5z M88.734,113.249c-5.088,0-9.229,4.14-9.229,9.229
			v71.794c0,5.089,4.14,9.229,9.229,9.229s9.229-4.14,9.229-9.229v-71.794C97.962,117.389,93.822,113.249,88.734,113.249z"/>
	</g>
	<g>
		<path class="st0" d="M88.734,113.249c-1.657,0-3-1.343-3-3V52.5H69.125c-1.657,0-3-1.343-3-3s1.343-3,3-3h19.609
			c1.657,0,3,1.343,3,3v60.749C91.734,111.906,90.391,113.249,88.734,113.249z"/>
	</g>
	<g>
		<path class="st0" d="M88.734,74.196H69.125c-1.657,0-3-1.343-3-3s1.343-3,3-3h19.609c1.657,0,3,1.343,3,3
			S90.391,74.196,88.734,74.196z"/>
	</g>
	<g>
		<path class="st0" d="M100.962,134.118H76.505c-1.657,0-3-1.343-3-3s1.343-3,3-3h24.457c1.657,0,3,1.343,3,3
			S102.619,134.118,100.962,134.118z"/>
	</g>
	<g>
		<path class="st0" d="M141.329,134.118h-24.458c-1.657,0-3-1.343-3-3s1.343-3,3-3h24.458c1.657,0,3,1.343,3,3
			S142.986,134.118,141.329,134.118z"/>
	</g>
	<g>
		<path class="st0" d="M181.62,134.118h-24.457c-1.657,0-3-1.343-3-3s1.343-3,3-3h24.457c1.657,0,3,1.343,3,3
			S183.277,134.118,181.62,134.118z"/>
	</g>
</g>
</svg>
