<?xml version="1.0" encoding="utf-8"?>
<!-- Generator: Adobe Illustrator 18.0.0, SVG Export Plug-In . SVG Version: 6.00 Build 0)  -->
<!DOCTYPE svg PUBLIC "-//W3C//DTD SVG 1.1//EN" "http://www.w3.org/Graphics/SVG/1.1/DTD/svg11.dtd">
<svg version="1.1" id="Layer_1" xmlns="http://www.w3.org/2000/svg" xmlns:xlink="http://www.w3.org/1999/xlink" x="0px" y="0px"
	 viewBox="0 0 256 256" style="enable-background:new 0 0 256 256;" xml:space="preserve">
<style type="text/css">
	.st0{fill:#504774;}
	.st1{fill:#F1C48B;}
	.st2{fill:#FFFFFF;}
	.st3{fill:#D5E6F7;}
	.st4{fill:#A0D1F2;}
	.st5{fill:#7BABF3;}
	.st6{fill:#FD919F;}
	.st7{fill:#D4E7F8;}
	.st8{fill:#E0667D;}
	.st9{fill:#484771;}
</style>
<g>
	<g>
		<circle class="st1" cx="128" cy="128" r="103.873"/>
	</g>
	<g>
		<path class="st2" d="M187.265,55.33c-16.517-15.648-46.006-7.678-55.913-4.372c-2.178,0.727-4.525,0.727-6.702,0
			c-9.907-3.306-39.396-11.275-55.913,4.372c-27.076,23.794-7.931,59.701,1.953,74.531c3.152,4.73,4.876,10.255,5.057,15.936
			c1.05,32.84,7.658,64.228,17.804,64.228c11.087,0,12.143-12.671,12.143-40.952c0-13.445,5.042-21.438,10.331-26.123
			c6.788-6.012,17.162-6.012,23.95,0c5.29,4.685,10.331,12.678,10.331,26.123c0,28.281,1.056,40.952,12.143,40.952
			c10.145,0,16.754-31.387,17.804-64.228c0.182-5.681,1.905-11.206,5.057-15.936C195.196,115.031,214.34,79.124,187.265,55.33z"/>
	</g>
	<g>
		<g>
			<path class="st3" d="M187.265,55.33c-9.13-8.649-22.22-10.077-33.778-9.071c7.933,0.783,15.727,3.338,21.778,9.071
				c27.076,23.794,7.931,59.701-1.953,74.531c-3.152,4.73-4.876,10.255-5.058,15.936c-0.863,27.007-5.488,53.014-12.746,61.408
				c1.706,1.893,3.958,2.82,6.942,2.82c10.145,0,16.754-31.387,17.804-64.228c0.181-5.681,1.905-11.206,5.057-15.936
				C195.196,115.031,214.34,79.124,187.265,55.33z"/>
		</g>
	</g>
	<g>
		<g>
			<polygon class="st5" points="123.008,116.473 96.982,91.892 107.863,80.371 122.589,94.278 147.709,68.693 159.018,79.797 			"/>
		</g>
	</g>
	<g>
		<path class="st0" d="M162.45,213.025c-15.144,0-15.144-18.436-15.144-43.952c0-10.366-3.136-18.399-9.321-23.877
			c-2.734-2.421-6.28-3.755-9.986-3.755s-7.252,1.333-9.986,3.755c-6.185,5.478-9.321,13.511-9.321,23.877
			c0,25.516,0,43.952-15.144,43.952c-18.134,0-20.583-60.261-20.802-67.132c-0.166-5.176-1.741-10.145-4.555-14.367
			c-10.069-15.107-30.358-52.979-1.479-78.412c7.125-6.727,17.081-10.138,29.591-10.138c12.093,0,23.544,3.218,29.294,5.137
			c1.555,0.519,3.249,0.519,4.802,0c5.75-1.918,17.202-5.137,29.295-5.137c12.51,0,22.465,3.411,29.591,10.138
			c28.879,25.433,8.59,63.305-1.479,78.412c-2.815,4.223-4.39,9.191-4.556,14.368C183.033,152.764,180.584,213.025,162.45,213.025z
			 M128,135.441c5.173,0,10.132,1.869,13.964,5.264c5.174,4.583,11.342,13.225,11.342,28.368c0,28.476,1.322,37.952,9.144,37.952
			c5.386,0,13.527-21.311,14.805-61.324c0.201-6.296,2.124-12.349,5.56-17.504c9.198-13.801,27.851-48.308,2.469-70.614
			c-0.028-0.024-0.056-0.05-0.083-0.076c-5.977-5.662-14.558-8.533-25.505-8.533c-11.245,0-21.991,3.025-27.395,4.828
			c-2.78,0.929-5.821,0.929-8.602,0c-5.404-1.803-16.149-4.828-27.395-4.828c-10.948,0-19.529,2.871-25.505,8.533
			c-0.027,0.026-0.055,0.051-0.083,0.076c-25.382,22.306-6.729,56.813,2.469,70.614c3.436,5.154,5.358,11.207,5.56,17.503
			c1.278,40.013,9.419,61.324,14.805,61.324c7.822,0,9.144-9.476,9.144-37.952c0-15.144,6.168-23.786,11.343-28.368
			C117.868,137.311,122.827,135.441,128,135.441z"/>
	</g>
	<g>
		<g>
			<path class="st0" d="M123.008,119.473c-0.74,0-1.48-0.272-2.06-0.819L94.922,94.073c-1.205-1.138-1.259-3.037-0.121-4.241
				l10.881-11.521c1.139-1.204,3.036-1.258,4.241-0.121l12.587,11.888l23.058-23.485c0.557-0.568,1.317-0.891,2.113-0.898
				c0.747-0.004,1.562,0.301,2.129,0.859l11.309,11.104c0.568,0.557,0.891,1.317,0.898,2.113c0.007,0.795-0.302,1.562-0.859,2.129
				l-36.01,36.676C124.563,119.172,123.786,119.473,123.008,119.473z M101.223,91.771l21.707,20.501l31.846-32.436l-7.027-6.9
				L124.73,96.38c-1.145,1.166-3.012,1.201-4.201,0.08l-12.545-11.848L101.223,91.771z"/>
		</g>
	</g>
</g>
</svg>
