<?xml version="1.0" encoding="utf-8"?>
<!-- Generator: Adobe Illustrator 18.0.0, SVG Export Plug-In . SVG Version: 6.00 Build 0)  -->
<!DOCTYPE svg PUBLIC "-//W3C//DTD SVG 1.1//EN" "http://www.w3.org/Graphics/SVG/1.1/DTD/svg11.dtd">
<svg version="1.1" id="Layer_1" xmlns="http://www.w3.org/2000/svg" xmlns:xlink="http://www.w3.org/1999/xlink" x="0px" y="0px"
	 viewBox="0 0 256 256" style="enable-background:new 0 0 256 256;" xml:space="preserve">
<style type="text/css">
	.st0{fill:#504774;}
	.st1{fill:#F1C48B;}
	.st2{fill:#FFFFFF;}
	.st3{fill:#D5E6F7;}
	.st4{fill:#A0D1F2;}
	.st5{fill:#7BABF3;}
	.st6{fill:#FD919F;}
	.st7{fill:#D4E7F8;}
	.st8{fill:#E0667D;}
	.st9{fill:#484771;}
</style>
<g>
	<g>
		<circle class="st1" cx="128" cy="128" r="103.873"/>
	</g>
	<g>
		<path class="st2" d="M185.244,51.831c-12.691-12.023-35.35-5.9-42.962-3.36c-1.673,0.559-3.477,0.559-5.15,0
			c-7.613-2.54-30.271-8.664-42.962,3.36c-20.804,18.283-6.094,45.872,1.501,57.268c2.422,3.634,3.746,7.879,3.886,12.245
			c0.806,25.234,5.884,49.351,13.68,49.351c8.519,0,9.331-9.736,9.331-31.466c0-10.331,3.874-16.472,7.938-20.072
			c5.216-4.62,13.187-4.62,18.403,0c4.064,3.6,7.938,9.741,7.938,20.072c0,21.73,0.811,31.466,9.331,31.466
			c7.796,0,12.874-24.117,13.68-49.351c0.139-4.365,1.464-8.61,3.886-12.245C191.338,97.704,206.048,70.114,185.244,51.831z"/>
	</g>
	<g>
		<g>
			<path class="st3" d="M185.244,51.831c-7.081-6.709-17.265-7.766-26.207-6.949c6.029,0.624,11.94,2.59,16.541,6.949
				c20.804,18.283,6.094,45.873-1.501,57.268c-2.422,3.634-3.746,7.879-3.886,12.245c-0.654,20.476-4.122,40.215-9.571,46.931
				c1.335,1.629,3.133,2.42,5.558,2.42c7.796,0,12.874-24.117,13.68-49.351c0.139-4.365,1.464-8.61,3.886-12.245
				C191.338,97.704,206.048,70.114,185.244,51.831z"/>
		</g>
	</g>
	<g>
		<path class="st4" d="M164.607,201.631l-19.455-19.455c-2.506-2.506-6.569-2.506-9.075,0l-11.255,11.255
			c0,0-14.142-3.771-35.591-25.22c-21.449-21.449-25.22-35.591-25.22-35.591l11.255-11.255c2.506-2.506,2.506-6.569,0-9.075
			L55.811,92.835c-2.509-2.509-6.587-2.505-9.092,0.007c-38.55,38.654,23.421,94.46,23.421,94.46s55.806,61.97,94.46,23.421
			C167.112,208.218,167.116,204.14,164.607,201.631z"/>
	</g>
	<g>
		<path class="st0" d="M166.177,173.694c-12.331,0-12.331-15.21-12.331-34.466c0-7.757-2.331-13.754-6.928-17.827
			c-1.973-1.747-4.535-2.709-7.212-2.709c-2.677,0-5.239,0.962-7.212,2.71c-4.596,4.072-6.927,10.069-6.927,17.826
			c0,19.256,0,34.466-12.331,34.466c-14.285,0-16.4-43.529-16.679-52.255c-0.123-3.848-1.293-7.54-3.384-10.678
			c-7.836-11.758-23.616-41.242-1.026-61.147c5.607-5.289,13.414-7.972,23.205-7.972c9.39,0,18.271,2.496,22.729,3.983
			c1.052,0.352,2.198,0.352,3.25,0c4.458-1.487,13.339-3.983,22.729-3.983c9.791,0,17.597,2.683,23.205,7.972
			c22.59,19.905,6.81,49.39-1.027,61.148c-2.09,3.137-3.26,6.829-3.383,10.677C182.577,130.165,180.461,173.694,166.177,173.694z
			 M139.706,112.692c4.145,0,8.119,1.498,11.19,4.218c4.083,3.617,8.95,10.425,8.95,22.318c0,22.613,1.302,28.466,6.331,28.466
			c3.301,0,9.693-15.521,10.682-46.446c0.159-4.968,1.676-9.744,4.388-13.813c6.966-10.451,21.108-36.572,2.017-53.35
			c-0.028-0.025-0.056-0.051-0.083-0.076c-4.458-4.224-10.891-6.366-19.119-6.366c-8.542,0-16.718,2.303-20.83,3.675
			c-2.278,0.76-4.77,0.76-7.049,0c-4.113-1.372-12.288-3.675-20.83-3.675c-8.228,0-14.661,2.143-19.12,6.366
			c-0.027,0.025-0.055,0.051-0.083,0.076c-19.091,16.777-4.949,42.898,2.017,53.35c2.712,4.07,4.229,8.847,4.388,13.813
			c0.989,30.926,7.381,46.446,10.682,46.446c5.029,0,6.331-5.853,6.331-28.466c0-11.894,4.867-18.701,8.949-22.318
			C131.588,114.19,135.562,112.692,139.706,112.692z"/>
	</g>
	<g>
		<path class="st0" d="M135.167,226.357C135.166,226.357,135.167,226.357,135.167,226.357c-32.898,0-64.712-34.25-67.151-36.931
			c-2.638-2.4-36.042-33.428-36.913-65.872c-0.334-12.472,4.205-23.518,13.493-32.83c1.78-1.785,4.151-2.769,6.675-2.769
			c2.518,0,4.884,0.979,6.663,2.758l19.455,19.455c1.779,1.778,2.758,4.144,2.758,6.659c0,2.515-0.979,4.88-2.758,6.658l-9.92,9.92
			c1.639,4.137,7.408,16.206,23.885,32.684c16.469,16.469,28.534,22.24,32.684,23.884l9.92-9.919
			c1.778-1.778,4.143-2.758,6.658-2.758c2.516,0,4.88,0.979,6.659,2.758l19.456,19.455c1.78,1.78,2.76,4.149,2.758,6.67
			c-0.002,2.521-0.985,4.89-2.769,6.668C157.729,221.812,147.113,226.357,135.167,226.357z M51.27,93.956
			c-0.918,0-1.78,0.356-2.427,1.005c-8.081,8.103-12.031,17.669-11.743,28.433c0.819,30.513,34.705,61.372,35.046,61.68
			c0.078,0.069,0.152,0.144,0.221,0.222c0.316,0.351,31.973,35.063,62.798,35.063c10.302,0,19.492-3.956,27.314-11.758
			c0.648-0.646,1.005-1.507,1.006-2.425c0-0.916-0.355-1.776-1.001-2.423l-19.455-19.455c-1.291-1.291-3.542-1.291-4.832,0
			l-11.255,11.255c-0.757,0.758-1.861,1.054-2.895,0.777c-0.609-0.162-15.171-4.229-36.939-25.997s-25.835-36.33-25.998-36.938
			c-0.275-1.035,0.021-2.138,0.777-2.895l11.255-11.255c0.646-0.646,1.001-1.504,1.001-2.416c0-0.913-0.355-1.771-1.001-2.417
			L53.69,94.956C53.044,94.312,52.185,93.956,51.27,93.956z"/>
	</g>
	<g>
		<path class="st0" d="M135.679,93.237c0,1.315-1.019,2.334-2.334,2.334h-15.022c0,0,0,0-0.042,0h-0.042
			c-0.637,0-1.315-0.255-1.74-0.764c-0.891-0.977-0.806-2.419,0.127-3.31l12.561-11.373c1.23-1.104,1.782-2.546,1.782-4.073
			c0-1.358-0.467-2.632-1.4-3.692c-1.104-1.23-2.588-1.782-4.074-1.782c-1.315,0-2.631,0.467-3.692,1.4l-1.315,1.188
			c-0.976,0.891-2.419,0.806-3.31-0.17c-0.849-0.976-0.806-2.419,0.17-3.31l1.315-1.188c1.91-1.782,4.413-2.631,6.832-2.631
			c2.758,0,5.559,1.146,7.553,3.353c1.782,1.909,2.631,4.413,2.631,6.832c0,2.758-1.146,5.559-3.353,7.553l-8.02,7.257h9.039
			C134.661,90.861,135.679,91.922,135.679,93.237z"/>
		<path class="st0" d="M162.961,87.679c0,1.315-1.061,2.334-2.376,2.334h-0.424v3.225c0,1.315-1.019,2.334-2.334,2.334
			s-2.334-1.019-2.334-2.334v-3.225H142.21h-0.042h-0.042c-0.509,0-1.019-0.128-1.443-0.51c-1.061-0.806-1.188-2.249-0.382-3.268
			l15.701-19.52c0.042,0,0.042-0.043,0.085-0.085s0.085-0.085,0.127-0.17c0.127-0.042,0.169-0.085,0.212-0.127
			c0.042-0.043,0.127-0.085,0.17-0.128c0.085-0.042,0.127-0.084,0.254-0.084c0.042-0.085,0.085-0.128,0.17-0.128
			c0.042-0.042,0.127-0.042,0.254-0.085c0.042,0,0.127,0,0.17-0.042c0.085,0,0.212,0,0.297,0c0,0,0.042,0,0.085,0s0.042,0,0.085,0
			c0.085,0,0.212,0,0.254,0c0.085,0.042,0.127,0.042,0.212,0.042c0.042,0.043,0.169,0.043,0.254,0.085
			c0.042,0,0.127,0.043,0.17,0.043c0.085,0.085,0.17,0.127,0.212,0.169c0.085,0.043,0.127,0.085,0.212,0.128
			c0,0,0.042,0,0.042,0.042c0.042,0,0.127,0.043,0.127,0.085c0.084,0.085,0.127,0.128,0.169,0.17s0.085,0.127,0.127,0.17
			c0.042,0.042,0.085,0.085,0.17,0.212c0,0.042,0.042,0.127,0.084,0.17c0.042,0.085,0.042,0.127,0.085,0.255
			c0,0.042,0.042,0.127,0.042,0.169c0.042,0.085,0.042,0.128,0.042,0.255c0,0.085,0.042,0.127,0.042,0.212c0,0.043,0,0.085,0,0.128
			v17.144h0.424C161.9,85.345,162.961,86.405,162.961,87.679z M155.492,74.863l-8.444,10.481h8.444V74.863z"/>
	</g>
</g>
</svg>
