<?xml version="1.0" encoding="utf-8"?>
<!-- Generator: Adobe Illustrator 18.0.0, SVG Export Plug-In . SVG Version: 6.00 Build 0)  -->
<!DOCTYPE svg PUBLIC "-//W3C//DTD SVG 1.1//EN" "http://www.w3.org/Graphics/SVG/1.1/DTD/svg11.dtd">
<svg version="1.1" id="Layer_1" xmlns="http://www.w3.org/2000/svg" xmlns:xlink="http://www.w3.org/1999/xlink" x="0px" y="0px"
	 viewBox="0 0 256 256" style="enable-background:new 0 0 256 256;" xml:space="preserve">
<style type="text/css">
	.st0{fill:#504774;}
	.st1{fill:#F1C48B;}
	.st2{fill:#FFFFFF;}
	.st3{fill:#D5E6F7;}
	.st4{fill:#A0D1F2;}
	.st5{fill:#7BABF3;}
	.st6{fill:#FD919F;}
	.st7{fill:#D4E7F8;}
	.st8{fill:#E0667D;}
	.st9{fill:#484771;}
</style>
<g>
	<g>
		<circle class="st1" cx="128" cy="128" r="103.873"/>
	</g>
	<g>
		<path class="st3" d="M149.255,82.499h-42.509c-5.485,0-9.932,4.447-9.932,9.932v11.259v9.619c0,3.001,2.433,5.435,5.435,5.435
			h51.504c3.001,0,5.434-2.433,5.434-5.435v-9.619V92.432C159.186,86.946,154.74,82.499,149.255,82.499z"/>
	</g>
	<g>
		<path class="st5" d="M128,217L128,217c-5.768,0-10.444-4.676-10.444-10.444v-87.812h20.888v87.812
			C138.444,212.324,133.768,217,128,217z"/>
	</g>
	<g>
		<path class="st4" d="M149.255,82.499h-10.444c5.485,0,9.932,4.447,9.932,9.932v11.259v9.619c0,3.001-2.433,5.435-5.434,5.435
			h10.444c3.001,0,5.434-2.433,5.434-5.435v-9.619V92.432C159.186,86.946,154.74,82.499,149.255,82.499z"/>
	</g>
	<g>
		<path class="st0" d="M153.752,121.744h-51.504c-4.65,0-8.435-3.784-8.435-8.435V92.432c0-7.131,5.802-12.932,12.933-12.932h42.509
			c7.131,0,12.932,5.801,12.932,12.932v20.878C162.187,117.96,158.402,121.744,153.752,121.744z M106.746,85.5
			c-3.822,0-6.933,3.11-6.933,6.932v20.878c0,1.342,1.092,2.435,2.435,2.435h51.504c1.343,0,2.435-1.092,2.435-2.435V92.432
			c0-3.822-3.109-6.932-6.932-6.932H106.746z"/>
	</g>
	<g>
		<path class="st2" d="M189.632,103.69c5.62-14.91,7.408-33.448-8.433-47.369c-14.831-14.05-41.313-6.888-50.199-3.922
			c-1.953,0.652-4.048,0.652-6,0c-8.885-2.966-35.368-10.128-50.199,3.922C58.96,70.243,60.748,88.78,66.368,103.69h30.445V92.431
			c0-5.485,4.447-9.932,9.932-9.932h42.509c5.485,0,9.932,4.447,9.932,9.932v11.259H189.632z"/>
	</g>
	<g>
		<g>
			<path class="st3" d="M181.199,56.321c-8.073-7.648-19.594-9.005-29.854-8.181c7.244,0.661,14.384,2.949,19.907,8.181
				c15.841,13.921,14.054,32.459,8.433,47.369h9.947C195.252,88.78,197.04,70.243,181.199,56.321z"/>
		</g>
	</g>
	<g>
		<path class="st0" d="M189.632,106.69h-30.445c-1.657,0-3-1.343-3-3V92.432c0-3.822-3.109-6.932-6.932-6.932h-42.51
			c-3.822,0-6.932,3.11-6.932,6.932v11.259c0,1.657-1.343,3-3,3H66.368c-1.249,0-2.367-0.773-2.808-1.942
			c-7.872-20.886-4.686-38.396,9.218-50.644c6.455-6.092,15.461-9.181,26.77-9.181c10.904,0,21.222,2.901,26.402,4.63
			c1.329,0.444,2.771,0.443,4.101,0c5.18-1.729,15.498-4.63,26.401-4.63c11.309,0,20.314,3.089,26.77,9.181
			c13.903,12.248,17.09,29.758,9.218,50.644C191.999,105.917,190.881,106.69,189.632,106.69z M162.187,100.69h25.34
			c6.13-17.72,3.339-31.88-8.308-42.116c-0.028-0.024-0.056-0.05-0.083-0.076c-5.306-5.026-12.938-7.575-22.684-7.575
			c-10.055,0-19.667,2.708-24.502,4.321c-2.557,0.854-5.341,0.854-7.899,0c-4.835-1.614-14.447-4.321-24.503-4.321
			c-9.746,0-17.378,2.549-22.684,7.575c-0.027,0.026-0.055,0.051-0.083,0.076C65.135,68.81,62.344,82.971,68.474,100.69h25.34
			v-8.259c0-7.131,5.801-12.932,12.932-12.932h42.51c7.131,0,12.932,5.801,12.932,12.932V100.69z"/>
	</g>
	<g>
		<path class="st0" d="M128,220c-7.413,0-13.444-6.031-13.444-13.444v-87.812c0-1.657,1.343-3,3-3h20.889c1.657,0,3,1.343,3,3
			v87.812C141.444,213.969,135.413,220,128,220z M120.556,121.744v84.812c0,4.104,3.34,7.444,7.444,7.444s7.444-3.339,7.444-7.444
			v-84.812H120.556z"/>
	</g>
	<g>
		<path class="st0" d="M110.987,143.118c-1.472,0-2.757-1.084-2.967-2.583c-0.23-1.641,0.913-3.158,2.554-3.388l34.018-4.774
			c1.642-0.233,3.158,0.913,3.388,2.554c0.23,1.641-0.913,3.158-2.554,3.388l-34.018,4.774
			C111.267,143.108,111.126,143.118,110.987,143.118z"/>
	</g>
	<g>
		<path class="st0" d="M110.987,161.917c-1.472,0-2.757-1.084-2.967-2.583c-0.23-1.641,0.913-3.158,2.554-3.388l34.018-4.774
			c1.642-0.23,3.158,0.913,3.388,2.554c0.23,1.641-0.913,3.158-2.554,3.388l-34.018,4.774
			C111.267,161.908,111.126,161.917,110.987,161.917z"/>
	</g>
	<g>
		<path class="st0" d="M110.987,180.716c-1.472,0-2.757-1.084-2.967-2.583c-0.23-1.641,0.913-3.158,2.554-3.388l34.018-4.774
			c1.642-0.232,3.158,0.913,3.388,2.554c0.23,1.641-0.913,3.158-2.554,3.388l-34.018,4.774
			C111.267,180.707,111.126,180.716,110.987,180.716z"/>
	</g>
	<g>
		<path class="st0" d="M110.987,199.516c-1.472,0-2.757-1.084-2.967-2.583c-0.23-1.641,0.913-3.158,2.554-3.388l34.018-4.774
			c1.642-0.234,3.158,0.913,3.388,2.554c0.23,1.641-0.913,3.158-2.554,3.388l-34.018,4.774
			C111.267,199.506,111.126,199.516,110.987,199.516z"/>
	</g>
</g>
</svg>
