<?xml version="1.0" encoding="utf-8"?>
<!-- Generator: Adobe Illustrator 18.0.0, SVG Export Plug-In . SVG Version: 6.00 Build 0)  -->
<!DOCTYPE svg PUBLIC "-//W3C//DTD SVG 1.1//EN" "http://www.w3.org/Graphics/SVG/1.1/DTD/svg11.dtd">
<svg version="1.1" id="Layer_1" xmlns="http://www.w3.org/2000/svg" xmlns:xlink="http://www.w3.org/1999/xlink" x="0px" y="0px"
	 viewBox="0 0 256 256" style="enable-background:new 0 0 256 256;" xml:space="preserve">
<style type="text/css">
	.st0{fill:#504774;}
	.st1{fill:#F1C48B;}
	.st2{fill:#FFFFFF;}
	.st3{fill:#D5E6F7;}
	.st4{fill:#A0D1F2;}
	.st5{fill:#7BABF3;}
	.st6{fill:#FD919F;}
	.st7{fill:#D4E7F8;}
	.st8{fill:#E0667D;}
	.st9{fill:#484771;}
</style>
<g>
	<g>
		<circle class="st1" cx="128" cy="128" r="103.873"/>
	</g>
	<g>
		<path class="st3" d="M152.159,186.046v-71.385h8.615V92.754c0-5.846-4.739-10.585-10.585-10.585H91.113
			c-5.846,0-10.585,4.739-10.585,10.585v21.908h8.615v71.385H77.489v23.567c0,6.289,5.098,11.387,11.386,11.387h63.552
			c6.289,0,11.387-5.098,11.387-11.387v-23.567H152.159z"/>
	</g>
	<g>
		<g>
			<path class="st4" d="M149.495,92.754v21.908h-8.615v71.384h11.279v-71.384h8.615V92.754c0-5.846-4.739-10.585-10.585-10.585
				h-11.279C144.757,82.169,149.495,86.908,149.495,92.754z"/>
		</g>
		<g>
			<path class="st4" d="M152.535,186.046v23.567c0,6.289-5.098,11.387-11.387,11.387h11.279c6.288,0,11.387-5.098,11.387-11.387
				v-23.567H152.535z"/>
		</g>
	</g>
	<g>
		<path class="st4" d="M143.667,136.447c-4.376,3.869-10.946,3.88-15.335,0.025l-0.677-0.595c-4.378-3.846-10.929-3.846-15.307,0
			c-4.378,3.845-10.929,3.845-15.306,0l-7.899-6.938v57.108H77.489v23.567c0,6.289,5.098,11.387,11.386,11.387h63.552
			c6.289,0,11.387-5.098,11.387-11.387v-23.567h-11.655v-57.108L143.667,136.447z"/>
	</g>
	<g>
		<path class="st5" d="M143.667,136.447c-0.855,0.756-1.796,1.36-2.787,1.822v47.777h11.279v-57.108L143.667,136.447z"/>
	</g>
	<g>
		<path class="st5" d="M152.535,186.046v23.567c0,6.289-5.098,11.387-11.387,11.387h11.279c6.288,0,11.387-5.098,11.387-11.387
			v-23.567H152.535z"/>
	</g>
	<g>
		<rect x="110.372" y="66.76" class="st2" width="20.559" height="15.409"/>
	</g>
	<g>
		<rect x="104.159" y="35" class="st6" width="32.985" height="31.76"/>
	</g>
	<g>
		<rect x="126.659" y="35" class="st8" width="10.485" height="31.76"/>
	</g>
	<g>
		<path class="st0" d="M137.144,69.761h-32.984c-1.657,0-3-1.343-3-3V35c0-1.657,1.343-3,3-3h32.984c1.657,0,3,1.343,3,3v31.761
			C140.144,68.418,138.801,69.761,137.144,69.761z M107.159,63.761h26.984V38h-26.984V63.761z"/>
	</g>
	<g>
		<path class="st0" d="M130.931,85.169h-20.559c-1.657,0-3-1.343-3-3V66.761c0-1.657,1.343-3,3-3h20.559c1.657,0,3,1.343,3,3v15.408
			C133.931,83.826,132.588,85.169,130.931,85.169z M113.372,79.169h14.559v-9.408h-14.559V79.169z"/>
	</g>
	<g>
		<path class="st0" d="M152.428,224H88.875c-7.933,0-14.386-6.454-14.386-14.387v-23.567c0-1.657,1.343-3,3-3h8.654v-54.107
			c0-1.178,0.689-2.247,1.763-2.733c1.075-0.486,2.333-0.298,3.217,0.479l7.899,6.938c1.569,1.379,3.584,2.138,5.674,2.138
			c2.089,0,4.104-0.759,5.672-2.138c2.666-2.341,6.087-3.631,9.634-3.631c3.548,0,6.969,1.29,9.634,3.631l0.676,0.594
			c1.57,1.38,3.585,2.139,5.674,2.139c2.1,0,4.122-0.766,5.694-2.156l8.492-7.508c0.885-0.782,2.146-0.972,3.22-0.488
			c1.076,0.485,1.768,1.556,1.768,2.735v54.107h8.655c1.657,0,3,1.343,3,3v23.567C166.814,217.546,160.36,224,152.428,224z
			 M80.489,189.046v20.567c0,4.624,3.762,8.387,8.386,8.387h63.553c4.624,0,8.387-3.763,8.387-8.387v-20.567h-8.655
			c-1.657,0-3-1.343-3-3v-50.45l-3.505,3.099c-2.671,2.361-6.104,3.661-9.669,3.661c-3.547,0-6.968-1.289-9.632-3.63l-0.677-0.594
			c-1.57-1.38-3.585-2.14-5.675-2.14c-2.089,0-4.104,0.76-5.674,2.139c-2.664,2.341-6.085,3.63-9.632,3.63
			c-3.548,0-6.969-1.289-9.634-3.63l-2.919-2.564v50.479c0,1.657-1.343,3-3,3H80.489z"/>
	</g>
	<g>
		<path class="st0" d="M152.428,224H88.875c-7.933,0-14.386-6.454-14.386-14.387v-23.567c0-1.657,1.343-3,3-3h8.654v-65.385h-5.615
			c-1.657,0-3-1.343-3-3V92.754c0-7.491,6.094-13.585,13.585-13.585h59.077c7.49,0,13.584,6.094,13.584,13.585v21.907
			c0,1.657-1.343,3-3,3h-5.615v65.385h8.655c1.657,0,3,1.343,3,3v23.567C166.814,217.546,160.36,224,152.428,224z M80.489,189.046
			v20.567c0,4.624,3.762,8.387,8.386,8.387h63.553c4.624,0,8.387-3.763,8.387-8.387v-20.567h-8.655c-1.657,0-3-1.343-3-3v-71.385
			c0-1.657,1.343-3,3-3h5.615V92.754c0-4.183-3.402-7.585-7.584-7.585H91.113c-4.183,0-7.585,3.402-7.585,7.585v18.907h5.615
			c1.657,0,3,1.343,3,3v71.385c0,1.657-1.343,3-3,3H80.489z"/>
	</g>
	<g>
		<path class="st0" d="M152.159,117.661H89.144c-1.657,0-3-1.343-3-3s1.343-3,3-3h63.016c1.657,0,3,1.343,3,3
			S153.816,117.661,152.159,117.661z"/>
	</g>
	<g>
		<path class="st0" d="M152.159,189.046H89.144c-1.657,0-3-1.343-3-3s1.343-3,3-3h63.016c1.657,0,3,1.343,3,3
			S153.816,189.046,152.159,189.046z"/>
	</g>
	<g>
		<path class="st2" d="M173.508,165.274c-5.95-5.637-16.573-2.766-20.142-1.575c-0.785,0.262-1.63,0.262-2.414,0
			c-3.569-1.191-14.192-4.062-20.142,1.575c-9.753,8.571-2.857,21.506,0.704,26.848c1.136,1.704,1.756,3.694,1.822,5.741
			c0.378,11.83,2.759,23.137,6.413,23.137c3.994,0,4.374-4.565,4.374-14.752c0-4.843,1.816-7.722,3.722-9.41
			c2.445-2.166,6.182-2.166,8.628,0c1.906,1.688,3.722,4.567,3.722,9.41c0,10.187,0.381,14.752,4.375,14.752
			c3.655,0,6.035-11.307,6.413-23.137c0.065-2.047,0.686-4.037,1.822-5.741C176.365,186.78,183.262,173.846,173.508,165.274z"/>
	</g>
	<g>
		<g>
			<path class="st3" d="M173.508,165.274c-3.839-3.637-9.615-3.727-14.195-3.017c2.27,0.443,4.438,1.353,6.195,3.017
				c9.754,8.572,2.857,21.506-0.704,26.848c-1.135,1.704-1.756,3.694-1.822,5.741c-0.214,6.704-1.072,13.238-2.44,17.644
				c0.471,3.742,1.557,5.493,4.027,5.493c3.655,0,6.035-11.307,6.414-23.137c0.065-2.047,0.686-4.037,1.822-5.741
				C176.365,186.78,183.262,173.846,173.508,165.274z"/>
		</g>
	</g>
	<g>
		<path class="st0" d="M164.569,224c-7.375,0-7.375-8.227-7.375-17.752c0-3.161-0.912-5.572-2.71-7.164
			c-1.27-1.123-3.382-1.123-4.649,0c-1.799,1.593-2.711,4.003-2.711,7.164c0,9.525,0,17.752-7.375,17.752
			c-7.465,0-9.101-16.315-9.411-26.041c-0.049-1.507-0.505-2.949-1.32-4.172c-8.248-12.376-8.329-23.573-0.229-30.73
			c2.933-2.755,6.954-4.152,11.952-4.152c4.626,0,8.978,1.222,11.16,1.949c0.168,0.057,0.349,0.057,0.515,0
			c2.184-0.728,6.535-1.949,11.161-1.949c4.999,0,9.02,1.397,11.952,4.153c8.101,7.156,8.02,18.354-0.229,30.729
			c-0.815,1.223-1.271,2.665-1.32,4.172C173.67,207.685,172.034,224,164.569,224z M140.741,164.904
			c-3.436,0-6.083,0.857-7.867,2.548c-0.027,0.026-0.055,0.051-0.083,0.076c-7.717,6.78-2.549,17.277,1.219,22.931
			c1.437,2.154,2.24,4.682,2.324,7.309c0.378,11.825,2.515,18.638,3.757,20.157c1.033-1.134,1.033-8.504,1.033-11.677
			c0-6.169,2.573-9.744,4.732-11.656c1.731-1.533,3.971-2.378,6.303-2.378c2.333,0,4.571,0.845,6.303,2.379
			c2.158,1.91,4.732,5.484,4.732,11.655c0,3.147,0,10.426,1.04,11.668c1.244-1.537,3.372-8.347,3.75-20.148
			c0.084-2.627,0.888-5.154,2.324-7.309c3.768-5.653,8.936-16.15,1.219-22.931c-0.028-0.025-0.056-0.051-0.083-0.076
			c-1.784-1.69-4.431-2.548-7.867-2.548c-3.778,0-7.425,1.028-9.262,1.641c-1.393,0.465-2.919,0.465-4.313,0
			C148.166,165.933,144.52,164.904,140.741,164.904z"/>
	</g>
</g>
</svg>
