<?xml version="1.0" encoding="utf-8"?>
<!-- Generator: Adobe Illustrator 18.0.0, SVG Export Plug-In . SVG Version: 6.00 Build 0)  -->
<!DOCTYPE svg PUBLIC "-//W3C//DTD SVG 1.1//EN" "http://www.w3.org/Graphics/SVG/1.1/DTD/svg11.dtd">
<svg version="1.1" id="Layer_1" xmlns="http://www.w3.org/2000/svg" xmlns:xlink="http://www.w3.org/1999/xlink" x="0px" y="0px"
	 viewBox="0 0 256 256" style="enable-background:new 0 0 256 256;" xml:space="preserve">
<style type="text/css">
	.st0{fill:#504774;}
	.st1{fill:#F1C48B;}
	.st2{fill:#FFFFFF;}
	.st3{fill:#D5E6F7;}
	.st4{fill:#A0D1F2;}
	.st5{fill:#7BABF3;}
	.st6{fill:#FD919F;}
	.st7{fill:#D4E7F8;}
	.st8{fill:#E0667D;}
	.st9{fill:#484771;}
</style>
<g>
	<g>
		<circle class="st1" cx="128" cy="128" r="103.873"/>
	</g>
	<g>
		<path class="st4" d="M162.125,167.883h-23.792v3.833c0,5.707-4.626,10.333-10.333,10.333s-10.333-4.626-10.333-10.333v-3.833
			H93.875c-9.458,0-17.125,7.667-17.125,17.125v31.375h102.5v-31.375C179.25,175.55,171.583,167.883,162.125,167.883z"/>
	</g>
	<g>
		<path class="st4" d="M187.043,148.143H68.957c-4.994,0-9.043-4.049-9.043-9.043V76.186c0-4.994,4.049-9.043,9.043-9.043h118.086
			c4.994,0,9.043,4.049,9.043,9.043V139.1C196.086,144.094,192.037,148.143,187.043,148.143z"/>
	</g>
	<g>
		<path class="st5" d="M187.043,67.143h-13.497c4.994,0,9.043,4.049,9.043,9.043V139.1c0,4.994-4.049,9.043-9.043,9.043h13.497
			c4.994,0,9.043-4.049,9.043-9.043V76.186C196.086,71.191,192.037,67.143,187.043,67.143z"/>
	</g>
	<g>
		<g>
			<path class="st5" d="M162.125,167.883h-10.333c9.458,0,17.125,7.667,17.125,17.125v31.375h10.333v-31.375
				C179.25,175.55,171.583,167.883,162.125,167.883z"/>
		</g>
	</g>
	<g>
		<path class="st3" d="M128,160.716L128,160.716c-3.623,0-7.099-0.625-10.333-1.762v12.762c0,5.707,4.626,10.333,10.333,10.333
			s10.333-4.626,10.333-10.333v-12.762C135.099,160.091,131.623,160.716,128,160.716z"/>
	</g>
	<g>
		<path class="st0" d="M187.043,151.143H68.957c-6.641,0-12.043-5.402-12.043-12.043V76.186c0-6.641,5.402-12.043,12.043-12.043
			h118.086c6.64,0,12.042,5.402,12.042,12.043V139.1C199.085,145.74,193.683,151.143,187.043,151.143z M68.957,70.143
			c-3.332,0-6.043,2.711-6.043,6.043V139.1c0,3.332,2.711,6.043,6.043,6.043h118.086c3.332,0,6.042-2.711,6.042-6.043V76.186
			c0-3.332-2.71-6.043-6.042-6.043H68.957z"/>
	</g>
	<g>
		<path class="st2" d="M128,160.716L128,160.716c-17.208,0-31.157-13.949-31.157-31.157v-17.52
			c0-17.208,13.949-31.157,31.157-31.157l0,0c17.207,0,31.157,13.949,31.157,31.157v17.52
			C159.157,146.767,145.207,160.716,128,160.716z"/>
	</g>
	<g>
		<path class="st0" d="M114.503,122.609c-5.488,0-9.953-4.465-9.953-9.953c0-1.657,1.343-3,3-3s3,1.343,3,3
			c0,2.18,1.773,3.953,3.953,3.953s3.953-1.773,3.953-3.953c0-1.657,1.343-3,3-3s3,1.343,3,3
			C124.456,118.145,119.991,122.609,114.503,122.609z"/>
	</g>
	<g>
		<path class="st0" d="M141.497,122.609c-5.488,0-9.954-4.465-9.954-9.953c0-1.657,1.343-3,3-3s3,1.343,3,3
			c0,2.18,1.773,3.953,3.954,3.953c2.18,0,3.953-1.773,3.953-3.953c0-1.657,1.343-3,3-3s3,1.343,3,3
			C151.45,118.145,146.985,122.609,141.497,122.609z"/>
	</g>
	<g>
		<path class="st9" d="M118.278,45.589l-9.231,12.567h8.077c0.777,0,1.404,0.628,1.404,1.405s-0.627,1.38-1.404,1.38h-10.812
			c-0.075,0-0.151,0-0.251-0.025c-0.025,0-0.051,0-0.075-0.025c-0.051,0-0.101-0.024-0.176-0.024
			c-0.025-0.025-0.05-0.025-0.075-0.075c-0.025,0-0.075-0.025-0.126-0.051c-0.05-0.024-0.075-0.024-0.1-0.05c0,0,0,0,0-0.025
			c-0.025,0-0.051-0.024-0.075-0.05c-0.025-0.025-0.076-0.075-0.101-0.126c-0.051-0.024-0.075-0.05-0.101-0.075
			c-0.025-0.024-0.05-0.075-0.075-0.1c-0.025-0.075-0.05-0.101-0.05-0.126c-0.025-0.05-0.075-0.075-0.075-0.125
			c-0.025-0.051-0.025-0.101-0.051-0.15c0-0.025-0.024-0.051-0.024-0.101c0-0.075-0.025-0.126-0.025-0.176c0-0.025,0-0.05,0-0.075
			c0,0,0,0,0-0.025c0-0.075,0-0.125,0.025-0.176c0-0.024,0-0.05,0-0.125c0.024-0.025,0.024-0.075,0.05-0.125
			c0-0.025,0.025-0.075,0.025-0.126c0.05-0.025,0.075-0.075,0.075-0.101c0.024-0.024,0.05-0.075,0.075-0.125c0,0,0,0,0.024,0
			l9.207-12.593h-8.103c-0.778,0-1.38-0.652-1.38-1.405c0-0.777,0.602-1.379,1.38-1.379h10.812h0.025c0.075,0,0.125,0,0.175,0
			c0.025,0,0.075,0.024,0.101,0.024c0.075,0,0.101,0.025,0.15,0.025c0.025,0.025,0.075,0.025,0.101,0.05
			c0.075,0,0.101,0.051,0.126,0.075c0.05,0.025,0.075,0.051,0.125,0.075c0,0,0,0,0.025,0c0.05,0.025,0.05,0.051,0.075,0.075
			c0.05,0.025,0.075,0.076,0.1,0.101c0.025,0.025,0.051,0.075,0.075,0.101c0.051,0.025,0.076,0.05,0.101,0.101
			c0.025,0.05,0.051,0.1,0.075,0.125c0,0.025,0.025,0.075,0.051,0.101c0,0.075,0.024,0.125,0.024,0.15
			c0.051,0.05,0.051,0.075,0.051,0.125c0.024,0.076,0.024,0.101,0.024,0.151c0,0.024,0,0.05,0,0.1c0,0.075,0,0.126,0,0.176
			c-0.024,0.051-0.024,0.075-0.024,0.101c0,0.075-0.051,0.101-0.051,0.15c-0.024,0.05-0.024,0.075-0.05,0.15
			c-0.025,0.025-0.025,0.051-0.05,0.075c-0.025,0.051-0.051,0.101-0.075,0.126C118.278,45.589,118.278,45.589,118.278,45.589z"/>
		<path class="st9" d="M134.76,45.589l-9.231,12.567h8.077c0.777,0,1.404,0.628,1.404,1.405s-0.627,1.38-1.404,1.38h-10.812
			c-0.075,0-0.151,0-0.251-0.025c-0.025,0-0.051,0-0.075-0.025c-0.051,0-0.101-0.024-0.176-0.024
			c-0.025-0.025-0.05-0.025-0.075-0.075c-0.025,0-0.075-0.025-0.126-0.051c-0.05-0.024-0.075-0.024-0.1-0.05c0,0,0,0,0-0.025
			c-0.025,0-0.051-0.024-0.075-0.05c-0.025-0.025-0.076-0.075-0.101-0.126c-0.051-0.024-0.075-0.05-0.101-0.075
			c-0.025-0.024-0.05-0.075-0.075-0.1c-0.025-0.075-0.05-0.101-0.05-0.126c-0.025-0.05-0.075-0.075-0.075-0.125
			c-0.025-0.051-0.025-0.101-0.051-0.15c0-0.025-0.024-0.051-0.024-0.101c0-0.075-0.025-0.126-0.025-0.176c0-0.025,0-0.05,0-0.075
			c0,0,0,0,0-0.025c0-0.075,0-0.125,0.025-0.176c0-0.024,0-0.05,0-0.125c0.024-0.025,0.024-0.075,0.05-0.125
			c0-0.025,0.025-0.075,0.025-0.126c0.05-0.025,0.075-0.075,0.075-0.101c0.024-0.024,0.05-0.075,0.075-0.125c0,0,0,0,0.024,0
			l9.207-12.593h-8.103c-0.778,0-1.38-0.652-1.38-1.405c0-0.777,0.602-1.379,1.38-1.379h10.812h0.025c0.075,0,0.125,0,0.175,0
			c0.025,0,0.075,0.024,0.101,0.024c0.075,0,0.101,0.025,0.15,0.025c0.025,0.025,0.075,0.025,0.101,0.05
			c0.075,0,0.101,0.051,0.126,0.075c0.05,0.025,0.075,0.051,0.125,0.075c0,0,0,0,0.025,0c0.05,0.025,0.05,0.051,0.075,0.075
			c0.05,0.025,0.075,0.076,0.1,0.101c0.025,0.025,0.051,0.075,0.075,0.101c0.051,0.025,0.076,0.05,0.101,0.101
			c0.025,0.05,0.051,0.1,0.075,0.125c0,0.025,0.025,0.075,0.051,0.101c0,0.075,0.024,0.125,0.024,0.15
			c0.051,0.05,0.051,0.075,0.051,0.125c0.024,0.076,0.024,0.101,0.024,0.151c0,0.024,0,0.05,0,0.1c0,0.075,0,0.126,0,0.176
			c-0.024,0.051-0.024,0.075-0.024,0.101c0,0.075-0.051,0.101-0.051,0.15c-0.024,0.05-0.024,0.075-0.05,0.15
			c-0.025,0.025-0.025,0.051-0.05,0.075c-0.025,0.051-0.051,0.101-0.075,0.126C134.76,45.589,134.76,45.589,134.76,45.589z"/>
		<path class="st9" d="M151.243,45.589l-9.231,12.567h8.077c0.777,0,1.404,0.628,1.404,1.405s-0.627,1.38-1.404,1.38h-10.812
			c-0.075,0-0.151,0-0.251-0.025c-0.025,0-0.051,0-0.075-0.025c-0.051,0-0.101-0.024-0.176-0.024
			c-0.025-0.025-0.05-0.025-0.075-0.075c-0.025,0-0.075-0.025-0.126-0.051c-0.05-0.024-0.075-0.024-0.1-0.05c0,0,0,0,0-0.025
			c-0.025,0-0.051-0.024-0.075-0.05c-0.025-0.025-0.076-0.075-0.101-0.126c-0.051-0.024-0.075-0.05-0.101-0.075
			c-0.025-0.024-0.05-0.075-0.075-0.1c-0.025-0.075-0.05-0.101-0.05-0.126c-0.025-0.05-0.075-0.075-0.075-0.125
			c-0.025-0.051-0.025-0.101-0.051-0.15c0-0.025-0.024-0.051-0.024-0.101c0-0.075-0.025-0.126-0.025-0.176c0-0.025,0-0.05,0-0.075
			c0,0,0,0,0-0.025c0-0.075,0-0.125,0.025-0.176c0-0.024,0-0.05,0-0.125c0.024-0.025,0.024-0.075,0.05-0.125
			c0-0.025,0.025-0.075,0.025-0.126c0.05-0.025,0.075-0.075,0.075-0.101c0.024-0.024,0.05-0.075,0.075-0.125c0,0,0,0,0.024,0
			l9.207-12.593h-8.103c-0.778,0-1.38-0.652-1.38-1.405c0-0.777,0.602-1.379,1.38-1.379h10.812h0.025c0.075,0,0.125,0,0.175,0
			c0.025,0,0.075,0.024,0.101,0.024c0.075,0,0.101,0.025,0.15,0.025c0.025,0.025,0.075,0.025,0.101,0.05
			c0.075,0,0.101,0.051,0.126,0.075c0.05,0.025,0.075,0.051,0.125,0.075c0,0,0,0,0.025,0c0.05,0.025,0.05,0.051,0.075,0.075
			c0.05,0.025,0.075,0.076,0.1,0.101c0.025,0.025,0.051,0.075,0.075,0.101c0.051,0.025,0.076,0.05,0.101,0.101
			c0.025,0.05,0.051,0.1,0.075,0.125c0,0.025,0.025,0.075,0.051,0.101c0,0.075,0.024,0.125,0.024,0.15
			c0.051,0.05,0.051,0.075,0.051,0.125c0.024,0.076,0.024,0.101,0.024,0.151c0,0.024,0,0.05,0,0.1c0,0.075,0,0.126,0,0.176
			c-0.024,0.051-0.024,0.075-0.024,0.101c0,0.075-0.051,0.101-0.051,0.15c-0.024,0.05-0.024,0.075-0.05,0.15
			c-0.025,0.025-0.025,0.051-0.05,0.075c-0.025,0.051-0.051,0.101-0.075,0.126C151.243,45.589,151.243,45.589,151.243,45.589z"/>
	</g>
	<g>
		<path class="st0" d="M128,163.716c-18.834,0-34.157-15.322-34.157-34.156v-17.52c0-18.834,15.323-34.157,34.157-34.157
			s34.157,15.323,34.157,34.157v17.52C162.157,148.394,146.834,163.716,128,163.716z M128,83.883
			c-15.526,0-28.157,12.631-28.157,28.157v17.52c0,15.525,12.631,28.156,28.157,28.156s28.157-12.631,28.157-28.156v-17.52
			C156.157,96.514,143.526,83.883,128,83.883z"/>
	</g>
	<g>
		<path class="st0" d="M179.25,219.383H76.75c-1.657,0-3-1.343-3-3v-31.375c0-11.097,9.028-20.125,20.125-20.125h23.792
			c1.657,0,3,1.343,3,3v3.833c0,4.044,3.29,7.334,7.333,7.334s7.333-3.29,7.333-7.334v-3.833c0-1.657,1.343-3,3-3h23.792
			c11.097,0,20.125,9.028,20.125,20.125v31.375C182.25,218.04,180.907,219.383,179.25,219.383z M79.75,213.383h96.5v-28.375
			c0-7.788-6.336-14.125-14.125-14.125h-20.792v0.833c0,7.353-5.981,13.334-13.333,13.334s-13.333-5.981-13.333-13.334v-0.833
			H93.875c-7.789,0-14.125,6.337-14.125,14.125V213.383z"/>
	</g>
	<g>
		<path class="st0" d="M128,185.05c-7.352,0-13.333-5.981-13.333-13.334v-12.762c0-0.973,0.472-1.886,1.266-2.448
			c0.793-0.562,1.812-0.706,2.729-0.382c6.012,2.113,12.666,2.113,18.678,0c0.918-0.324,1.935-0.18,2.729,0.382
			c0.794,0.563,1.266,1.476,1.266,2.448v12.762C141.333,179.068,135.352,185.05,128,185.05z M120.667,162.922v8.794
			c0,4.044,3.29,7.334,7.333,7.334s7.333-3.29,7.333-7.334v-8.794C130.53,163.977,125.47,163.977,120.667,162.922z"/>
	</g>
	<g>
		<path class="st0" d="M73.788,142.723c-0.768,0-1.536-0.293-2.121-0.879c-3.832-3.831-5.942-8.925-5.942-14.344
			s2.11-10.513,5.942-14.344c1.171-1.172,3.071-1.172,4.243,0c1.171,1.172,1.171,3.071,0,4.242
			c-2.698,2.698-4.184,6.285-4.184,10.102s1.486,7.403,4.184,10.102c1.172,1.171,1.172,3.07,0,4.242
			C75.324,142.43,74.556,142.723,73.788,142.723z"/>
	</g>
	<g>
		<path class="st0" d="M88.006,133.861c-0.768,0-1.536-0.293-2.121-0.879c-3.023-3.022-3.023-7.942,0-10.965
			c1.171-1.172,3.071-1.172,4.242,0c1.172,1.171,1.172,3.071,0,4.242c-0.331,0.331-0.513,0.771-0.513,1.24s0.182,0.909,0.513,1.24
			c1.172,1.171,1.172,3.071,0,4.242C89.542,133.568,88.774,133.861,88.006,133.861z"/>
	</g>
	<g>
		<path class="st0" d="M80.948,138.241c-0.768,0-1.536-0.293-2.121-0.879c-5.438-5.438-5.438-14.286,0-19.725
			c1.171-1.172,3.071-1.172,4.242,0c1.172,1.171,1.172,3.071,0,4.242c-3.099,3.099-3.099,8.142,0,11.24
			c1.172,1.171,1.172,3.071,0,4.242C82.484,137.948,81.716,138.241,80.948,138.241z"/>
	</g>
	<g>
		<path class="st0" d="M182.212,142.723c-0.768,0-1.536-0.293-2.122-0.879c-1.171-1.172-1.171-3.071,0-4.242
			c2.698-2.698,4.184-6.285,4.184-10.102s-1.486-7.403-4.184-10.102c-1.172-1.171-1.172-3.07,0-4.242
			c1.172-1.172,3.072-1.172,4.243,0c3.832,3.831,5.942,8.925,5.942,14.344s-2.11,10.513-5.942,14.344
			C183.748,142.43,182.979,142.723,182.212,142.723z"/>
	</g>
	<g>
		<path class="st0" d="M167.994,133.861c-0.768,0-1.536-0.293-2.121-0.879c-1.172-1.171-1.172-3.071,0-4.242
			c0.331-0.331,0.513-0.771,0.513-1.24s-0.182-0.909-0.513-1.24c-1.172-1.171-1.172-3.071,0-4.242c1.171-1.172,3.071-1.172,4.242,0
			c3.023,3.022,3.023,7.942,0,10.965C169.529,133.568,168.761,133.861,167.994,133.861z"/>
	</g>
	<g>
		<path class="st0" d="M175.052,138.241c-0.768,0-1.536-0.293-2.121-0.879c-1.172-1.171-1.172-3.071,0-4.242
			c3.099-3.099,3.099-8.142,0-11.24c-1.172-1.171-1.172-3.071,0-4.242c1.171-1.172,3.071-1.172,4.242,0
			c5.438,5.438,5.438,14.286,0,19.725C176.587,137.948,175.819,138.241,175.052,138.241z"/>
	</g>
	<g>
		<path class="st3" d="M144.72,146.28L144.72,146.28c-4.041,4.041-10.941,2.192-12.421-3.328l0,0l-3.328-12.421l12.421,3.328l0,0
			C146.912,135.338,148.761,142.238,144.72,146.28L144.72,146.28z"/>
	</g>
	<g>
		<path class="st0" d="M139.5,151.458c-4.726,0-8.878-3.179-10.098-7.73l-3.328-12.42c-0.277-1.035,0.019-2.14,0.777-2.897
			s1.864-1.055,2.897-0.776l12.42,3.328c3.64,0.975,6.396,3.729,7.371,7.37c0.976,3.64-0.033,7.404-2.698,10.068
			C144.87,150.372,142.263,151.458,139.5,151.458z M133.214,134.774l1.983,7.4c0.607,2.269,2.599,3.283,4.302,3.283
			c0.821,0,2.024-0.226,3.099-1.3c1.131-1.131,1.559-2.729,1.145-4.273s-1.583-2.714-3.128-3.128L133.214,134.774z"/>
	</g>
</g>
</svg>
