<?xml version="1.0" encoding="utf-8"?>
<!-- Generator: Adobe Illustrator 18.0.0, SVG Export Plug-In . SVG Version: 6.00 Build 0)  -->
<!DOCTYPE svg PUBLIC "-//W3C//DTD SVG 1.1//EN" "http://www.w3.org/Graphics/SVG/1.1/DTD/svg11.dtd">
<svg version="1.1" id="Layer_1" xmlns="http://www.w3.org/2000/svg" xmlns:xlink="http://www.w3.org/1999/xlink" x="0px" y="0px"
	 viewBox="0 0 256 256" style="enable-background:new 0 0 256 256;" xml:space="preserve">
<style type="text/css">
	.st0{fill:#504774;}
	.st1{fill:#F1C48B;}
	.st2{fill:#FFFFFF;}
	.st3{fill:#D5E6F7;}
	.st4{fill:#A0D1F2;}
	.st5{fill:#7BABF3;}
	.st6{fill:#FD919F;}
	.st7{fill:#D4E7F8;}
	.st8{fill:#E0667D;}
	.st9{fill:#484771;}
</style>
<g>
	<g>
		<circle class="st1" cx="128" cy="128" r="103.873"/>
	</g>
	<g>
		<rect x="56.826" y="158.183" class="st6" width="142.348" height="71.174"/>
	</g>
	<g>
		<rect x="186.577" y="158.183" class="st8" width="12.597" height="71.174"/>
	</g>
	<g>
		<path class="st0" d="M199.174,232.356H56.826c-1.657,0-3-1.343-3-3v-71.174c0-1.657,1.343-3,3-3h142.348c1.657,0,3,1.343,3,3
			v71.174C202.174,231.014,200.831,232.356,199.174,232.356z M59.826,226.356h136.348v-65.174H59.826V226.356z"/>
	</g>
	<g>
		<path class="st2" d="M164.574,115.856c-10.193-9.657-28.391-4.738-34.505-2.698c-1.344,0.449-2.792,0.449-4.136,0
			c-6.114-2.04-24.312-6.958-34.506,2.698c-16.709,14.684-4.895,36.843,1.205,45.995c1.946,2.919,3.009,6.328,3.121,9.834
			c0.648,20.267,4.726,39.637,10.987,39.637c6.842,0,7.494-7.82,7.494-25.272c0-8.297,3.111-13.229,6.376-16.121
			c4.189-3.71,10.591-3.71,14.78,0c3.264,2.891,6.376,7.824,6.376,16.121c0,17.453,0.652,25.272,7.494,25.272
			c6.261,0,10.34-19.37,10.987-39.637c0.112-3.506,1.176-6.915,3.121-9.834C169.468,152.698,181.283,130.539,164.574,115.856z"/>
	</g>
	<g>
		<g>
			<path class="st3" d="M164.574,115.856c-5.634-5.338-13.712-6.219-20.845-5.598c4.896,0.483,9.705,2.06,13.44,5.598
				c16.709,14.684,4.895,36.843-1.205,45.995c-1.946,2.919-3.009,6.328-3.121,9.834c-0.533,16.666-3.387,32.716-7.866,37.896
				c1.053,1.168,2.443,1.74,4.284,1.74c6.261,0,10.34-19.37,10.987-39.637c0.112-3.506,1.176-6.915,3.121-9.834
				C169.468,152.698,181.283,130.539,164.574,115.856z"/>
		</g>
	</g>
	<g>
		<path class="st0" d="M149.26,214.321c-10.494,0-10.494-12.477-10.494-28.272c0-6.054-1.805-10.722-5.364-13.874
			c-1.477-1.309-3.396-2.029-5.401-2.029s-3.924,0.721-5.401,2.028c-3.56,3.153-5.365,7.821-5.365,13.875
			c0,15.796,0,28.272-10.494,28.272c-11.716,0-13.667-32.562-13.986-42.541c-0.095-2.979-1.001-5.838-2.619-8.266
			c-6.379-9.572-19.214-33.582-0.731-49.876c4.617-4.351,11.021-6.557,19.036-6.557c7.625,0,14.827,2.023,18.441,3.229
			c0.724,0.242,1.513,0.242,2.238,0c3.614-1.206,10.816-3.229,18.441-3.229c8.015,0,14.419,2.206,19.035,6.557
			c18.481,16.294,5.648,40.304-0.731,49.876c-1.617,2.428-2.523,5.286-2.619,8.266C162.927,181.76,160.976,214.321,149.26,214.321z
			 M128,164.146c3.474,0,6.805,1.256,9.38,3.537c3.369,2.984,7.386,8.594,7.386,18.366c0,17.485,0.966,22.272,4.494,22.272
			c1.877,0,7.176-11.295,7.989-36.732c0.131-4.1,1.384-8.042,3.623-11.402c5.508-8.266,16.703-28.911,1.721-42.077
			c-0.028-0.025-0.056-0.051-0.083-0.076c-3.468-3.285-8.497-4.951-14.949-4.951c-6.777,0-13.273,1.83-16.543,2.921
			c-1.951,0.65-4.085,0.65-6.035,0c-3.269-1.091-9.765-2.921-16.542-2.921c-6.453,0-11.482,1.666-14.951,4.951
			c-0.027,0.026-0.055,0.051-0.083,0.076c-14.983,13.166-3.788,33.813,1.721,42.077c2.239,3.36,3.492,7.303,3.624,11.402
			c0.813,25.438,6.112,36.732,7.989,36.732c3.528,0,4.494-4.787,4.494-22.272c0-9.772,4.017-15.382,7.387-18.366
			C121.196,165.401,124.527,164.146,128,164.146z"/>
	</g>
	<g>
		<path class="st6" d="M184.525,29.418L184.525,29.418c3.699,3.699,3.699,9.697,0,13.397L145.2,82.14
			c-3.699,3.699-9.697,3.699-13.396,0l0,0c-3.699-3.699-3.699-9.697,0-13.396l39.325-39.325
			C174.828,25.719,180.825,25.719,184.525,29.418z"/>
	</g>
	<g>
		<path class="st8" d="M131.803,82.14c-0.823-0.823-1.452-1.763-1.909-2.763c3.495,1.597,7.757,0.968,10.634-1.909l39.325-39.325
			c2.876-2.876,3.506-7.139,1.909-10.634c1,0.457,1.94,1.086,2.763,1.909c3.699,3.699,3.699,9.697,0,13.396L145.2,82.14
			C141.5,85.839,135.503,85.839,131.803,82.14z"/>
	</g>
	<g>
		<path class="st0" d="M138.501,87.914c-3.331,0-6.463-1.298-8.818-3.653c-2.356-2.355-3.654-5.487-3.654-8.819
			s1.298-6.464,3.654-8.819l39.324-39.325c2.356-2.356,5.488-3.653,8.819-3.653c3.332,0,6.464,1.297,8.819,3.653
			c4.863,4.863,4.863,12.775,0,17.639L147.32,84.261C144.965,86.616,141.833,87.914,138.501,87.914z M177.826,29.644
			c-1.729,0-3.354,0.674-4.577,1.896l-39.324,39.324c-1.223,1.223-1.896,2.849-1.896,4.577s0.673,3.354,1.896,4.577
			s2.848,1.896,4.576,1.896c1.729,0,3.354-0.673,4.577-1.896l39.325-39.325c2.523-2.524,2.523-6.63,0-9.154
			C181.181,30.316,179.556,29.644,177.826,29.644z"/>
	</g>
	<g>
		<path class="st0" d="M103.117,131.596c-0.551,0-1.109-0.151-1.608-0.47l-9.859-6.279c-0.865-0.551-1.389-1.505-1.389-2.53V101.35
			c0-1.657,1.343-3,3-3h18.09l18.332-18.331c1.172-1.172,3.07-1.172,4.242,0s1.172,3.071,0,4.242l-19.21,19.21
			c-0.563,0.563-1.326,0.879-2.121,0.879H96.261v16.32l8.471,5.396c1.398,0.89,1.809,2.744,0.919,4.142
			C105.079,131.105,104.108,131.596,103.117,131.596z"/>
	</g>
	<g>
		<path class="st0" d="M149.933,80.406c-0.768,0-1.535-0.293-2.121-0.879l-13.396-13.396c-1.172-1.171-1.172-3.07,0-4.242
			s3.07-1.172,4.242,0l13.396,13.396c1.172,1.171,1.172,3.07,0,4.242C151.468,80.113,150.7,80.406,149.933,80.406z"/>
	</g>
	<g>
		<path class="st0" d="M96.737,140.854c-0.585,0-1.177-0.171-1.696-0.527c-1.366-0.938-1.713-2.805-0.775-4.171l6.358-9.259
			c0.479-0.698,1.231-1.161,2.07-1.274l15.477-2.1c1.645-0.221,3.154,0.928,3.376,2.569c0.223,1.642-0.928,3.153-2.569,3.376
			l-14.16,1.921l-5.606,8.163C98.631,140.399,97.692,140.854,96.737,140.854z"/>
	</g>
</g>
</svg>
