<?xml version="1.0" encoding="utf-8"?>
<!-- Generator: Adobe Illustrator 18.0.0, SVG Export Plug-In . SVG Version: 6.00 Build 0)  -->
<!DOCTYPE svg PUBLIC "-//W3C//DTD SVG 1.1//EN" "http://www.w3.org/Graphics/SVG/1.1/DTD/svg11.dtd">
<svg version="1.1" id="Layer_1" xmlns="http://www.w3.org/2000/svg" xmlns:xlink="http://www.w3.org/1999/xlink" x="0px" y="0px"
	 viewBox="0 0 256 256" style="enable-background:new 0 0 256 256;" xml:space="preserve">
<style type="text/css">
	.st0{fill:#504774;}
	.st1{fill:#F1C48B;}
	.st2{fill:#FFFFFF;}
	.st3{fill:#D5E6F7;}
	.st4{fill:#A0D1F2;}
	.st5{fill:#7BABF3;}
	.st6{fill:#FD919F;}
	.st7{fill:#D4E7F8;}
	.st8{fill:#E0667D;}
	.st9{fill:#484771;}
</style>
<g>
	<g>
		<circle class="st1" cx="128" cy="128" r="103.873"/>
	</g>
	<g>
		<path class="st2" d="M179.846,64.426c-14.45-13.689-40.247-6.717-48.914-3.825c-1.905,0.636-3.958,0.636-5.864,0
			c-8.667-2.892-34.465-9.864-48.915,3.825c-23.687,20.816-6.938,52.228,1.709,65.202c2.758,4.138,4.266,8.971,4.424,13.941
			c0.918,28.73,6.7,56.188,15.575,56.188c9.7,0,10.623-11.085,10.623-35.826c0-11.762,4.411-18.754,9.038-22.853
			c5.938-5.26,15.014-5.26,20.952,0c4.628,4.099,9.038,11.091,9.038,22.853c0,24.741,0.924,35.826,10.623,35.826
			c8.875,0,14.657-27.459,15.575-56.188c0.159-4.97,1.666-9.803,4.424-13.941C186.785,116.654,203.533,85.242,179.846,64.426z"/>
	</g>
	<g>
		<g>
			<path class="st3" d="M179.846,64.426c-7.987-7.567-19.438-8.816-29.55-7.936c6.94,0.685,13.758,2.92,19.052,7.936
				c23.687,20.816,6.938,52.228-1.708,65.202c-2.758,4.138-4.266,8.971-4.424,13.941c-0.755,23.626-4.801,46.378-11.15,53.721
				c1.492,1.656,3.462,2.467,6.073,2.467c8.875,0,14.657-27.459,15.575-56.188c0.159-4.97,1.667-9.803,4.424-13.941
				C186.785,116.654,203.533,85.242,179.846,64.426z"/>
		</g>
	</g>
	<g>
		<path class="st0" d="M158.138,202.758c-13.623,0-13.623-16.286-13.623-38.826c0-8.956-2.701-15.889-8.028-20.607
			c-2.323-2.057-5.337-3.19-8.487-3.19s-6.164,1.133-8.487,3.19c-5.327,4.718-8.028,11.651-8.028,20.607
			c0,22.54,0,38.826-13.623,38.826c-15.88,0-18.259-49.225-18.574-59.093c-0.142-4.458-1.499-8.737-3.922-12.374
			c-8.862-13.297-26.714-46.637-1.233-69.083c6.305-5.95,15.099-8.967,26.139-8.967c10.631,0,20.694,2.828,25.746,4.513
			c1.284,0.429,2.682,0.429,3.964,0c5.053-1.686,15.116-4.513,25.747-4.513c11.04,0,19.834,3.017,26.139,8.967
			c25.481,22.446,7.629,55.786-1.234,69.083c-2.423,3.637-3.78,7.916-3.922,12.374C176.396,153.533,174.018,202.758,158.138,202.758
			z M128,134.134c4.617,0,9.044,1.669,12.465,4.699c4.584,4.061,10.049,11.711,10.049,25.099c0,12.682,0.26,21.08,1.587,26.474
			c1.443,5.861,3.773,6.352,6.036,6.352c4.444,0,11.48-18.975,12.577-53.284c0.178-5.578,1.882-10.94,4.926-15.509
			c7.992-11.991,24.208-41.967,2.225-61.285c-0.028-0.024-0.056-0.05-0.083-0.076c-5.157-4.885-12.577-7.362-22.055-7.362
			c-9.784,0-19.141,2.634-23.848,4.205c-2.508,0.838-5.253,0.838-7.763,0c-4.706-1.57-14.063-4.205-23.847-4.205
			c-9.478,0-16.898,2.477-22.055,7.362c-0.027,0.026-0.055,0.051-0.083,0.076c-21.983,19.318-5.768,49.293,2.225,61.284
			c3.044,4.569,4.748,9.932,4.926,15.51c1.097,34.309,8.133,53.284,12.577,53.284c2.263,0,4.593-0.491,6.036-6.352
			c1.328-5.394,1.587-13.791,1.587-26.474c0-13.388,5.465-21.038,10.049-25.099C118.956,135.803,123.383,134.134,128,134.134z"/>
	</g>
	<g>
		<circle class="st6" cx="156.767" cy="94.117" r="17.574"/>
	</g>
	<g>
		<path class="st0" d="M156.767,114.691c-11.344,0-20.574-9.229-20.574-20.574c0-11.344,9.229-20.574,20.574-20.574
			s20.574,9.229,20.574,20.574C177.34,105.461,168.111,114.691,156.767,114.691z M156.767,79.543
			c-8.036,0-14.574,6.538-14.574,14.574s6.538,14.574,14.574,14.574s14.574-6.538,14.574-14.574S164.803,79.543,156.767,79.543z"/>
	</g>
	<g>
		<path class="st0" d="M156.767,79.543c-1.657,0-3-1.343-3-3v-6.598c0-1.657,1.343-3,3-3s3,1.343,3,3v6.598
			C159.767,78.2,158.423,79.543,156.767,79.543z"/>
	</g>
	<g>
		<path class="st0" d="M156.767,121.352c-1.657,0-3-1.343-3-3v-6.598c0-1.657,1.343-3,3-3s3,1.343,3,3v6.598
			C159.767,120.008,158.423,121.352,156.767,121.352z"/>
	</g>
	<g>
		<path class="st0" d="M180.97,97.148h-6.598c-1.657,0-3-1.343-3-3s1.343-3,3-3h6.598c1.657,0,3,1.343,3,3
			S182.626,97.148,180.97,97.148z"/>
	</g>
	<g>
		<path class="st0" d="M139.161,97.148h-6.598c-1.657,0-3-1.343-3-3s1.343-3,3-3h6.598c1.657,0,3,1.343,3,3
			S140.818,97.148,139.161,97.148z"/>
	</g>
	<g>
		<path class="st0" d="M144.318,84.699c-0.768,0-1.536-0.293-2.121-0.879l-4.666-4.666c-1.172-1.171-1.172-3.071,0-4.242
			c1.171-1.172,3.071-1.172,4.242,0l4.666,4.666c1.172,1.171,1.172,3.071,0,4.242C145.854,84.406,145.085,84.699,144.318,84.699z"/>
	</g>
	<g>
		<path class="st0" d="M173.881,114.263c-0.768,0-1.536-0.293-2.121-0.879l-4.666-4.666c-1.172-1.171-1.172-3.071,0-4.242
			c1.171-1.172,3.071-1.172,4.242,0l4.666,4.666c1.172,1.171,1.172,3.071,0,4.242C175.417,113.97,174.648,114.263,173.881,114.263z"
			/>
	</g>
	<g>
		<path class="st0" d="M169.215,84.699c-0.768,0-1.536-0.293-2.121-0.879c-1.172-1.171-1.172-3.071,0-4.242l4.666-4.666
			c1.171-1.172,3.071-1.172,4.242,0c1.172,1.171,1.172,3.071,0,4.242l-4.666,4.666C170.751,84.406,169.983,84.699,169.215,84.699z"
			/>
	</g>
	<g>
		<path class="st0" d="M139.652,114.263c-0.768,0-1.536-0.293-2.121-0.879c-1.172-1.171-1.172-3.071,0-4.242l4.666-4.666
			c1.171-1.172,3.071-1.172,4.242,0c1.172,1.171,1.172,3.071,0,4.242l-4.666,4.666C141.188,113.97,140.42,114.263,139.652,114.263z"
			/>
	</g>
	<g>
		<circle class="st6" cx="50.746" cy="141.273" r="15.179"/>
	</g>
	<g>
		<path class="st0" d="M50.746,159.451c-10.023,0-18.178-8.155-18.178-18.179s8.155-18.179,18.178-18.179
			c10.024,0,18.179,8.155,18.179,18.179S60.77,159.451,50.746,159.451z M50.746,129.094c-6.715,0-12.178,5.463-12.178,12.179
			s5.463,12.179,12.178,12.179s12.179-5.463,12.179-12.179S57.461,129.094,50.746,129.094z"/>
	</g>
	<g>
		<path class="st0" d="M50.746,129.094c-1.657,0-3-1.343-3-3v-5.698c0-1.657,1.343-3,3-3s3,1.343,3,3v5.698
			C53.746,127.75,52.403,129.094,50.746,129.094z"/>
	</g>
	<g>
		<path class="st0" d="M50.746,165.204c-1.657,0-3-1.343-3-3v-5.699c0-1.657,1.343-3,3-3s3,1.343,3,3v5.699
			C53.746,163.861,52.403,165.204,50.746,165.204z"/>
	</g>
	<g>
		<path class="st0" d="M71.65,144.3h-5.698c-1.657,0-3-1.343-3-3s1.343-3,3-3h5.698c1.657,0,3,1.343,3,3S73.307,144.3,71.65,144.3z"
			/>
	</g>
	<g>
		<path class="st0" d="M35.541,144.3h-5.699c-1.657,0-3-1.343-3-3s1.343-3,3-3h5.699c1.657,0,3,1.343,3,3S37.197,144.3,35.541,144.3
			z"/>
	</g>
	<g>
		<path class="st0" d="M39.994,133.547c-0.768,0-1.535-0.293-2.121-0.878l-4.03-4.029c-1.172-1.172-1.172-3.071,0-4.243
			c1.172-1.172,3.071-1.171,4.243,0l4.03,4.029c1.172,1.172,1.172,3.071,0,4.243C41.53,133.254,40.762,133.547,39.994,133.547z"/>
	</g>
	<g>
		<path class="st0" d="M65.528,159.082c-0.768,0-1.536-0.293-2.121-0.879l-4.03-4.03c-1.172-1.171-1.172-3.071,0-4.242
			c1.171-1.172,3.071-1.172,4.242,0l4.03,4.03c1.172,1.171,1.172,3.071,0,4.242C67.063,158.789,66.295,159.082,65.528,159.082z"/>
	</g>
	<g>
		<path class="st0" d="M61.498,133.547c-0.768,0-1.536-0.293-2.122-0.879c-1.171-1.171-1.171-3.071,0-4.243l4.03-4.029
			c1.171-1.171,3.071-1.171,4.243,0s1.171,3.071,0,4.243l-4.03,4.029C63.034,133.254,62.266,133.547,61.498,133.547z"/>
	</g>
	<g>
		<path class="st0" d="M35.964,159.082c-0.768,0-1.536-0.293-2.121-0.879c-1.172-1.171-1.172-3.071,0-4.242l4.03-4.03
			c1.171-1.172,3.071-1.172,4.242,0c1.172,1.171,1.172,3.071,0,4.242l-4.03,4.03C37.5,158.789,36.732,159.082,35.964,159.082z"/>
	</g>
	<g>
		<circle class="st8" cx="198.806" cy="164.199" r="11.147"/>
	</g>
	<g>
		<path class="st0" d="M198.807,178.346c-7.801,0-14.147-6.346-14.147-14.147c0-7.8,6.346-14.146,14.147-14.146
			c7.8,0,14.146,6.346,14.146,14.146C212.953,172,206.607,178.346,198.807,178.346z M198.807,156.052
			c-4.492,0-8.147,3.654-8.147,8.146s3.655,8.147,8.147,8.147s8.146-3.655,8.146-8.147S203.299,156.052,198.807,156.052z"/>
	</g>
	<g>
		<path class="st0" d="M198.807,156.052c-1.657,0-3-1.343-3-3v-4.185c0-1.657,1.343-3,3-3s3,1.343,3,3v4.185
			C201.807,154.709,200.463,156.052,198.807,156.052z"/>
	</g>
	<g>
		<path class="st0" d="M198.807,182.57c-1.657,0-3-1.343-3-3v-4.185c0-1.657,1.343-3,3-3s3,1.343,3,3v4.185
			C201.807,181.227,200.463,182.57,198.807,182.57z"/>
	</g>
	<g>
		<path class="st0" d="M214.158,167.219h-4.185c-1.657,0-3-1.343-3-3s1.343-3,3-3h4.185c1.657,0,3,1.343,3,3
			S215.815,167.219,214.158,167.219z"/>
	</g>
	<g>
		<path class="st0" d="M187.64,167.219h-4.185c-1.657,0-3-1.343-3-3s1.343-3,3-3h4.185c1.657,0,3,1.343,3,3
			S189.296,167.219,187.64,167.219z"/>
	</g>
	<g>
		<path class="st0" d="M190.91,159.323c-0.768,0-1.536-0.293-2.121-0.879l-2.959-2.959c-1.172-1.171-1.172-3.071,0-4.242
			c1.171-1.172,3.071-1.172,4.242,0l2.959,2.959c1.172,1.171,1.172,3.071,0,4.242C192.446,159.03,191.678,159.323,190.91,159.323z"
			/>
	</g>
	<g>
		<path class="st0" d="M209.662,178.074c-0.768,0-1.536-0.293-2.122-0.879l-2.959-2.959c-1.171-1.171-1.171-3.071,0-4.243
			c1.172-1.171,3.071-1.171,4.243,0l2.959,2.959c1.171,1.171,1.171,3.071,0,4.243C211.197,177.781,210.429,178.074,209.662,178.074z
			"/>
	</g>
	<g>
		<path class="st0" d="M206.703,159.323c-0.768,0-1.536-0.293-2.121-0.879c-1.172-1.171-1.172-3.071,0-4.242l2.959-2.959
			c1.171-1.172,3.071-1.172,4.242,0c1.172,1.171,1.172,3.071,0,4.242l-2.959,2.959C208.238,159.03,207.47,159.323,206.703,159.323z"
			/>
	</g>
	<g>
		<path class="st0" d="M187.951,178.074c-0.768,0-1.535-0.293-2.121-0.878c-1.172-1.171-1.172-3.071,0-4.243l2.959-2.959
			c1.172-1.172,3.071-1.171,4.243,0c1.172,1.171,1.172,3.071,0,4.243l-2.959,2.959C189.487,177.781,188.719,178.074,187.951,178.074
			z"/>
	</g>
</g>
</svg>
