<?xml version="1.0" encoding="utf-8"?>
<!-- Generator: Adobe Illustrator 18.0.0, SVG Export Plug-In . SVG Version: 6.00 Build 0)  -->
<!DOCTYPE svg PUBLIC "-//W3C//DTD SVG 1.1//EN" "http://www.w3.org/Graphics/SVG/1.1/DTD/svg11.dtd">
<svg version="1.1" id="Layer_1" xmlns="http://www.w3.org/2000/svg" xmlns:xlink="http://www.w3.org/1999/xlink" x="0px" y="0px"
	 viewBox="0 0 256 256" style="enable-background:new 0 0 256 256;" xml:space="preserve">
<style type="text/css">
	.st0{fill:#504774;}
	.st1{fill:#F1C48B;}
	.st2{fill:#FFFFFF;}
	.st3{fill:#D5E6F7;}
	.st4{fill:#A0D1F2;}
	.st5{fill:#7BABF3;}
	.st6{fill:#FD919F;}
	.st7{fill:#D4E7F8;}
	.st8{fill:#E0667D;}
	.st9{fill:#484771;}
</style>
<g>
	<g>
		<circle class="st1" cx="128" cy="128" r="103.873"/>
	</g>
	<g>
		<path class="st2" d="M187.265,55.33c-16.517-15.648-46.006-7.678-55.913-4.372c-2.178,0.727-4.525,0.727-6.702,0
			c-9.907-3.306-39.396-11.276-55.913,4.372c-27.076,23.794-7.931,59.701,1.953,74.531c3.153,4.73,4.876,10.255,5.058,15.936
			c1.05,32.84,7.659,64.228,17.804,64.228c11.087,0,12.143-12.671,12.143-40.952c0-13.445,5.042-21.437,10.332-26.123
			c6.788-6.012,17.162-6.012,23.95,0c5.29,4.685,10.331,12.677,10.331,26.123c0,28.281,1.056,40.952,12.143,40.952
			c10.145,0,16.754-31.388,17.804-64.228c0.181-5.681,1.905-11.206,5.057-15.936C195.196,115.031,214.34,79.124,187.265,55.33z"/>
	</g>
	<g>
		<g>
			<path class="st3" d="M187.265,55.33c-9.13-8.649-22.22-10.077-33.778-9.071c7.933,0.783,15.727,3.338,21.778,9.071
				c27.076,23.794,7.931,59.701-1.953,74.531c-3.152,4.73-4.876,10.255-5.057,15.936c-0.863,27.007-5.488,53.014-12.746,61.408
				c1.706,1.893,3.958,2.82,6.942,2.82c10.145,0,16.754-31.388,17.804-64.228c0.182-5.681,1.905-11.206,5.057-15.936
				C195.196,115.031,214.34,79.124,187.265,55.33z"/>
		</g>
	</g>
	<g>
		<path class="st0" d="M162.45,213.025c-15.144,0-15.144-18.436-15.144-43.952c0-10.365-3.136-18.398-9.32-23.877
			c-2.733-2.421-6.28-3.755-9.986-3.755s-7.253,1.333-9.986,3.755c-6.185,5.479-9.32,13.512-9.32,23.877
			c0,25.516,0,43.952-15.144,43.952c-18.133,0-20.583-60.261-20.802-67.132c-0.166-5.176-1.741-10.144-4.556-14.368
			c-10.068-15.107-30.358-52.979-1.479-78.412c7.126-6.728,17.081-10.138,29.591-10.138c12.094,0,23.545,3.218,29.294,5.137
			c1.557,0.519,3.251,0.519,4.804,0c5.75-1.918,17.201-5.137,29.295-5.137c12.51,0,22.465,3.411,29.591,10.138
			c28.879,25.433,8.589,63.304-1.479,78.412c-2.814,4.224-4.39,9.192-4.556,14.368C183.033,152.764,180.583,213.025,162.45,213.025z
			 M128,135.441c5.173,0,10.133,1.869,13.965,5.264c5.174,4.583,11.342,13.225,11.342,28.368c0,28.476,1.321,37.952,9.144,37.952
			c5.385,0,13.526-21.311,14.806-61.324c0.201-6.295,2.123-12.348,5.56-17.503c9.197-13.801,27.851-48.31,2.469-70.614
			c-0.028-0.024-0.056-0.05-0.083-0.076c-5.977-5.662-14.558-8.533-25.505-8.533c-11.245,0-21.991,3.025-27.396,4.828
			c-2.778,0.928-5.819,0.929-8.602,0c-5.404-1.803-16.15-4.828-27.396-4.828c-10.947,0-19.528,2.871-25.505,8.533
			c-0.027,0.026-0.055,0.051-0.083,0.076c-25.382,22.305-6.729,56.813,2.469,70.614c3.437,5.155,5.358,11.208,5.56,17.503
			c1.279,40.013,9.421,61.324,14.806,61.324c7.822,0,9.144-9.476,9.144-37.952c0-15.143,6.168-23.785,11.342-28.368
			C117.867,137.311,122.827,135.441,128,135.441z"/>
	</g>
	<g>
		<polygon class="st3" points="92.88,84.086 85.895,96.857 78.91,84.086 66.138,77.101 78.91,70.116 85.895,57.344 92.88,70.116 
			105.651,77.101 		"/>
	</g>
	<g>
		<path class="st0" d="M85.895,99.857c-1.097,0-2.105-0.598-2.632-1.561l-6.563-12l-12.001-6.564
			c-0.962-0.526-1.561-1.535-1.561-2.632s0.599-2.106,1.561-2.632l12.001-6.563l6.563-12.001c0.526-0.962,1.535-1.561,2.632-1.561
			s2.105,0.598,2.632,1.561l6.563,12.001l12.001,6.563c0.962,0.526,1.561,1.535,1.561,2.632s-0.599,2.106-1.561,2.632L95.09,86.296
			l-6.563,12C88,99.259,86.991,99.857,85.895,99.857z M72.39,77.101l7.959,4.354c0.504,0.275,0.917,0.689,1.192,1.192l4.354,7.959
			l4.354-7.959c0.275-0.503,0.688-0.917,1.192-1.192l7.959-4.354l-7.959-4.353c-0.504-0.275-0.917-0.689-1.192-1.192l-4.354-7.959
			l-4.354,7.959c-0.275,0.503-0.688,0.917-1.192,1.192L72.39,77.101z"/>
	</g>
	<g>
		<polygon class="st3" points="193.057,128.864 187.895,138.302 182.733,128.864 173.294,123.701 182.733,118.539 187.895,109.101 
			193.057,118.539 202.495,123.701 		"/>
	</g>
	<g>
		<path class="st0" d="M187.895,141.302c-1.097,0-2.105-0.598-2.632-1.561l-4.741-8.667l-8.667-4.741
			c-0.962-0.526-1.561-1.535-1.561-2.632s0.599-2.106,1.561-2.632l8.668-4.741l4.74-8.667c0.526-0.962,1.535-1.561,2.632-1.561
			s2.105,0.598,2.632,1.561l4.74,8.667l8.668,4.741c0.962,0.526,1.561,1.535,1.561,2.632s-0.599,2.106-1.561,2.632l-8.667,4.741
			l-4.741,8.667C190,140.704,188.991,141.302,187.895,141.302z M179.546,123.701l4.626,2.531c0.504,0.275,0.917,0.689,1.192,1.192
			l2.53,4.626l2.53-4.626c0.275-0.503,0.688-0.917,1.192-1.192l4.626-2.531l-4.626-2.53c-0.504-0.275-0.917-0.689-1.192-1.192
			l-2.53-4.626l-2.53,4.626c-0.275,0.503-0.688,0.917-1.192,1.192L179.546,123.701z"/>
	</g>
</g>
</svg>
