<?xml version="1.0" encoding="utf-8"?>
<!-- Generator: Adobe Illustrator 18.0.0, SVG Export Plug-In . SVG Version: 6.00 Build 0)  -->
<!DOCTYPE svg PUBLIC "-//W3C//DTD SVG 1.1//EN" "http://www.w3.org/Graphics/SVG/1.1/DTD/svg11.dtd">
<svg version="1.1" id="Layer_1" xmlns="http://www.w3.org/2000/svg" xmlns:xlink="http://www.w3.org/1999/xlink" x="0px" y="0px"
	 viewBox="0 0 256 256" style="enable-background:new 0 0 256 256;" xml:space="preserve">
<style type="text/css">
	.st0{fill:#504774;}
	.st1{fill:#F1C48B;}
	.st2{fill:#FFFFFF;}
	.st3{fill:#D5E6F7;}
	.st4{fill:#A0D1F2;}
	.st5{fill:#7BABF3;}
	.st6{fill:#FD919F;}
	.st7{fill:#D4E7F8;}
	.st8{fill:#E0667D;}
	.st9{fill:#484771;}
</style>
<g>
	<g>
		<circle class="st1" cx="128" cy="128" r="103.873"/>
	</g>
	<g>
		<path class="st2" d="M185.859,65.236c-16.125-15.277-44.915-7.496-54.587-4.268c-2.126,0.709-4.417,0.709-6.543,0
			c-9.672-3.227-38.462-11.008-54.587,4.268c-26.434,23.23-7.743,58.285,1.907,72.764c3.078,4.618,4.76,10.011,4.938,15.558
			c1.025,32.062,7.477,62.705,17.382,62.705c10.824,0,11.855-12.371,11.855-39.98c0-13.126,4.922-20.929,10.086-25.503
			c6.627-5.87,16.755-5.87,23.382,0c5.164,4.574,10.086,12.377,10.086,25.503c0,27.61,1.031,39.98,11.855,39.98
			c9.905,0,16.357-30.643,17.382-62.705c0.177-5.546,1.86-10.94,4.937-15.558C193.602,123.521,212.293,88.466,185.859,65.236z"/>
	</g>
	<g>
		<g>
			<path class="st3" d="M185.859,65.236c-8.913-8.444-21.693-9.838-32.977-8.856c7.745,0.765,15.354,3.259,21.262,8.856
				c26.434,23.23,7.743,58.285-1.907,72.764c-3.078,4.618-4.76,10.011-4.938,15.558c-0.843,26.366-5.358,51.757-12.444,59.952
				c1.665,1.848,3.864,2.753,6.777,2.753c9.905,0,16.357-30.643,17.382-62.705c0.177-5.546,1.86-10.94,4.937-15.558
				C193.602,123.521,212.293,88.466,185.859,65.236z"/>
		</g>
	</g>
	<g>
		<path class="st0" d="M161.633,219.263c-14.855,0-14.855-18.028-14.855-42.98c0-10.099-3.054-17.924-9.076-23.258
			c-2.656-2.353-6.102-3.647-9.702-3.647s-7.046,1.295-9.703,3.647c-6.021,5.334-9.075,13.159-9.075,23.258
			c0,24.952,0,42.98-14.855,42.98c-17.771,0-20.166-58.894-20.38-65.609c-0.161-5.04-1.695-9.878-4.435-13.989
			c-9.841-14.765-29.67-51.776-1.433-76.645c6.97-6.58,16.706-9.916,28.937-9.916c11.817,0,23.005,3.145,28.623,5.019
			c1.502,0.5,3.141,0.5,4.645,0c5.616-1.874,16.804-5.019,28.621-5.019c12.231,0,21.967,3.336,28.937,9.916
			c28.237,24.868,8.408,61.88-1.433,76.645c-2.74,4.111-4.274,8.949-4.435,13.989C181.798,160.369,179.403,219.263,161.633,219.263z
			 M128,143.377c5.067,0,9.926,1.831,13.68,5.155c5.063,4.484,11.098,12.939,11.098,27.75c0,27.747,1.28,36.98,8.855,36.98
			c5.097,0,13.152-21.296,14.383-59.801c0.197-6.16,2.078-12.082,5.44-17.126c8.969-13.458,27.161-47.106,2.422-68.846
			c-0.028-0.025-0.056-0.051-0.083-0.076c-5.821-5.515-14.182-8.311-24.851-8.311c-10.969,0-21.451,2.951-26.723,4.71
			c-2.731,0.91-5.713,0.91-8.442,0c-5.272-1.759-15.755-4.71-26.724-4.71c-10.669,0-19.03,2.796-24.851,8.311
			c-0.027,0.025-0.055,0.051-0.083,0.076c-24.739,21.739-6.547,55.388,2.423,68.846c3.361,5.044,5.243,10.966,5.439,17.126
			c1.23,38.505,9.286,59.801,14.383,59.801c7.575,0,8.855-9.233,8.855-36.98c0-14.811,6.035-23.266,11.097-27.75
			C118.074,145.208,122.933,143.377,128,143.377z"/>
	</g>
	<g>
		<polygon class="st6" points="160.763,72.969 174.771,72.969 167.678,86.512 179.733,86.512 153.902,118.97 157.746,94.68 
			148.438,94.68 		"/>
	</g>
	<g>
		<path class="st0" d="M153.901,121.97c-0.407,0-0.817-0.082-1.208-0.254c-1.247-0.549-1.968-1.869-1.755-3.215l3.295-20.821h-5.796
			c-1.068,0-2.055-0.567-2.593-1.49c-0.537-0.923-0.543-2.063-0.016-2.991l12.325-21.71c0.533-0.938,1.529-1.519,2.609-1.519h14.008
			c1.05,0,2.023,0.549,2.567,1.447c0.543,0.897,0.578,2.015,0.091,2.944l-4.793,9.15h7.098c1.152,0,2.202,0.659,2.702,1.697
			c0.5,1.037,0.362,2.27-0.355,3.171l-25.831,32.458C155.667,121.57,154.794,121.97,153.901,121.97z M153.591,91.68h4.155
			c0.877,0,1.711,0.384,2.281,1.052c0.57,0.667,0.819,1.551,0.682,2.417l-2.064,13.044l14.867-18.681h-5.834
			c-1.05,0-2.023-0.549-2.567-1.447c-0.543-0.897-0.578-2.015-0.091-2.944l4.793-9.15h-7.304L153.591,91.68z"/>
	</g>
	<g>
		<polygon class="st6" points="128,39.737 145.213,39.737 136.197,56.95 151.223,56.95 118.984,98.206 125.35,67.332 113.52,67.332 
					"/>
	</g>
	<g>
		<polygon class="st6" points="88.592,72.969 102.6,72.969 95.506,86.512 107.562,86.512 81.731,118.97 85.575,94.68 76.267,94.68 
					"/>
	</g>
	<g>
		<path class="st0" d="M118.982,101.206c-0.424,0-0.854-0.09-1.258-0.277c-1.265-0.585-1.96-1.964-1.678-3.328l5.623-27.269h-8.149
			c-1.05,0-2.024-0.549-2.567-1.448c-0.543-0.898-0.577-2.016-0.089-2.945l14.48-27.595c0.518-0.988,1.541-1.606,2.656-1.606h17.212
			c1.05,0,2.023,0.549,2.567,1.447c0.543,0.897,0.578,2.015,0.091,2.944l-6.716,12.821h10.069c1.147,0,2.194,0.654,2.696,1.685
			c0.503,1.031,0.374,2.259-0.333,3.163l-32.24,41.256C120.765,100.8,119.884,101.206,118.982,101.206z M118.482,64.332h6.868
			c0.902,0,1.756,0.406,2.326,1.104c0.57,0.699,0.794,1.618,0.612,2.501l-3.778,18.325l20.562-26.313h-8.875
			c-1.05,0-2.023-0.549-2.567-1.447c-0.543-0.897-0.578-2.015-0.091-2.944l6.716-12.821h-10.441L118.482,64.332z"/>
	</g>
	<g>
		<path class="st0" d="M81.73,121.97c-0.407,0-0.817-0.082-1.208-0.254c-1.247-0.549-1.968-1.869-1.754-3.215l3.294-20.821h-5.796
			c-1.068,0-2.055-0.567-2.593-1.49c-0.537-0.923-0.543-2.063-0.016-2.991l12.325-21.71c0.533-0.938,1.529-1.519,2.609-1.519H102.6
			c1.05,0,2.023,0.549,2.567,1.447c0.543,0.897,0.578,2.015,0.091,2.944l-4.793,9.15h7.098c1.152,0,2.202,0.659,2.702,1.697
			c0.5,1.037,0.362,2.27-0.355,3.171l-25.831,32.458C83.495,121.57,82.623,121.97,81.73,121.97z M81.419,91.68h4.155
			c0.877,0,1.711,0.384,2.281,1.052c0.57,0.667,0.819,1.551,0.682,2.417l-2.064,13.044l14.867-18.681h-5.834
			c-1.05,0-2.023-0.549-2.567-1.447c-0.543-0.897-0.578-2.015-0.091-2.944l4.793-9.15h-7.304L81.419,91.68z"/>
	</g>
</g>
</svg>
