<?xml version="1.0" encoding="utf-8"?>
<!-- Generator: Adobe Illustrator 18.0.0, SVG Export Plug-In . SVG Version: 6.00 Build 0)  -->
<!DOCTYPE svg PUBLIC "-//W3C//DTD SVG 1.1//EN" "http://www.w3.org/Graphics/SVG/1.1/DTD/svg11.dtd">
<svg version="1.1" id="Layer_1" xmlns="http://www.w3.org/2000/svg" xmlns:xlink="http://www.w3.org/1999/xlink" x="0px" y="0px"
	 viewBox="0 0 256 256" style="enable-background:new 0 0 256 256;" xml:space="preserve">
<style type="text/css">
	.st0{fill:#504774;}
	.st1{fill:#F1C48B;}
	.st2{fill:#FFFFFF;}
	.st3{fill:#D5E6F7;}
	.st4{fill:#A0D1F2;}
	.st5{fill:#7BABF3;}
	.st6{fill:#FD919F;}
	.st7{fill:#D4E7F8;}
	.st8{fill:#E0667D;}
	.st9{fill:#484771;}
</style>
<g>
	<g>
		<circle class="st1" cx="128" cy="128" r="103.873"/>
	</g>
	<g>
		<path class="st2" d="M193.691,66.578c-15.779-14.948-43.949-7.335-53.414-4.177c-2.081,0.694-4.322,0.694-6.403,0
			c-3.357-1.12-9.073-2.798-15.75-3.833L85.541,91.151l13.482,13.482l-22.822,22.822c2.116,4.046,4.288,7.567,6.124,10.322
			c3.012,4.519,4.658,9.796,4.831,15.224c1.003,31.372,7.316,61.357,17.008,61.357c10.592,0,11.601-12.105,11.601-39.121
			c0-12.844,4.816-20.479,9.87-24.955c6.485-5.744,16.395-5.744,22.88,0c5.053,4.476,9.87,12.111,9.87,24.955
			c0,27.016,1.009,39.121,11.601,39.121c9.692,0,16.005-29.985,17.008-61.357c0.173-5.427,1.82-10.705,4.831-15.224
			C201.267,123.61,219.556,89.309,193.691,66.578z"/>
	</g>
	<g>
		<g>
			<path class="st3" d="M193.691,66.578c-9.021-8.546-22.087-9.713-33.397-8.56c7.235,0.86,14.288,3.321,19.818,8.56
				c25.865,22.73,7.577,57.032-1.866,71.199c-3.012,4.519-4.658,9.796-4.831,15.224c-0.781,24.441-4.786,48.035-11.101,57.27
				c1.717,2.752,4.168,4.087,7.672,4.087c9.692,0,16.005-29.985,17.008-61.357c0.173-5.427,1.82-10.705,4.831-15.224
				C201.267,123.61,219.556,89.309,193.691,66.578z"/>
		</g>
	</g>
	<g>
		<path class="st2" d="M62.309,66.578c-20.834,18.309-13.021,44.122-4.258,60.877l22.822-22.822L67.39,91.151l32.583-32.583
			C87.827,56.685,72.491,56.933,62.309,66.578z"/>
	</g>
	<g>
		<path class="st0" d="M169.985,217.358c-14.601,0-14.601-17.668-14.601-42.121c0-9.862-2.98-17.502-8.859-22.709
			c-2.587-2.292-5.943-3.553-9.451-3.553s-6.864,1.262-9.451,3.553c-5.878,5.207-8.859,12.848-8.859,22.709
			c0,24.453,0,42.121-14.601,42.121c-17.449,0-19.796-57.684-20.006-64.261c-0.158-4.92-1.655-9.643-4.329-13.655
			c-2.293-3.44-4.408-7.005-6.286-10.596c-0.608-1.162-0.391-2.584,0.537-3.512l20.7-20.7L83.419,93.272
			c-1.171-1.171-1.171-3.071,0-4.242l32.583-32.583c0.677-0.676,1.637-0.992,2.581-0.843c6.789,1.053,12.579,2.73,16.24,3.952
			c1.458,0.486,3.047,0.486,4.504,0c5.501-1.835,16.457-4.914,28.027-4.914c11.985,0,21.526,3.271,28.358,9.72
			c27.668,24.366,8.246,60.619-1.392,75.08c-2.675,4.014-4.172,8.736-4.329,13.656C189.782,159.675,187.434,217.358,169.985,217.358
			z M137.075,142.975c4.975,0,9.744,1.798,13.429,5.062c4.963,4.396,10.88,12.685,10.88,27.201c0,27.102,1.243,36.121,8.601,36.121
			c4.962,0,12.807-20.815,14.01-58.453c0.193-6.039,2.037-11.846,5.333-16.792c8.768-13.155,26.55-46.044,2.382-67.282
			c-0.028-0.024-0.056-0.05-0.083-0.076c-5.684-5.385-13.85-8.115-24.273-8.115c-10.723,0-20.973,2.886-26.128,4.605
			c-2.684,0.896-5.617,0.896-8.302,0c-3.17-1.058-8.037-2.479-13.768-3.469L89.784,91.151l11.361,11.362
			c1.171,1.171,1.171,3.071,0,4.242l-21.246,21.247c1.51,2.748,3.161,5.468,4.923,8.112c3.296,4.945,5.141,10.751,5.334,16.792
			c1.203,37.638,9.047,58.453,14.009,58.453c7.357,0,8.601-9.019,8.601-36.121c0-14.516,5.917-22.804,10.88-27.201
			C127.332,144.772,132.101,142.975,137.075,142.975z"/>
	</g>
	<g>
		<path class="st0" d="M58.051,130.456c-0.151,0-0.302-0.011-0.454-0.035c-0.944-0.144-1.762-0.729-2.205-1.575
			c-13.895-26.568-12.157-49.466,4.894-64.484c6.831-6.448,16.368-9.717,28.348-9.717c3.724,0,7.693,0.323,11.798,0.959
			c1.116,0.173,2.041,0.959,2.392,2.033c0.351,1.074,0.069,2.254-0.73,3.053L71.633,91.151l11.361,11.362
			c1.171,1.171,1.171,3.071,0,4.242l-22.822,22.822C59.605,130.144,58.84,130.456,58.051,130.456z M88.635,60.645
			c-10.417,0-18.581,2.729-24.262,8.112c-0.027,0.026-0.055,0.051-0.083,0.076c-17.635,15.498-13.22,37.021-5.412,53.554
			l17.752-17.752L65.269,93.272c-1.171-1.171-1.171-3.071,0-4.242l28.198-28.199C91.812,60.707,90.198,60.645,88.635,60.645z"/>
	</g>
</g>
</svg>
