<?xml version="1.0" encoding="utf-8"?>
<!-- Generator: Adobe Illustrator 18.0.0, SVG Export Plug-In . SVG Version: 6.00 Build 0)  -->
<!DOCTYPE svg PUBLIC "-//W3C//DTD SVG 1.1//EN" "http://www.w3.org/Graphics/SVG/1.1/DTD/svg11.dtd">
<svg version="1.1" id="Layer_1" xmlns="http://www.w3.org/2000/svg" xmlns:xlink="http://www.w3.org/1999/xlink" x="0px" y="0px"
	 viewBox="0 0 256 256" style="enable-background:new 0 0 256 256;" xml:space="preserve">
<style type="text/css">
	.st0{fill:#504774;}
	.st1{fill:#F1C48B;}
	.st2{fill:#FFFFFF;}
	.st3{fill:#D5E6F7;}
	.st4{fill:#A0D1F2;}
	.st5{fill:#7BABF3;}
	.st6{fill:#FD919F;}
	.st7{fill:#D4E7F8;}
	.st8{fill:#E0667D;}
	.st9{fill:#484771;}
</style>
<g>
	<g>
		<circle class="st1" cx="128" cy="128" r="103.873"/>
	</g>
	<g>
		<polygon class="st3" points="169.622,209.008 169.622,158.341 150.113,144.148 159.867,166.831 159.867,209.008 		"/>
	</g>
	<g>
		<path class="st0" d="M169.622,212.008h-9.754c-1.657,0-3-1.343-3-3v-41.559l-9.51-22.116c-0.534-1.241-0.172-2.686,0.883-3.529
			c1.056-0.843,2.546-0.877,3.637-0.082l19.509,14.192c0.776,0.564,1.235,1.466,1.235,2.426v50.667
			C172.622,210.665,171.278,212.008,169.622,212.008z M162.867,206.008h3.754v-46.14l-9.435-6.864l5.436,12.642
			c0.161,0.375,0.244,0.777,0.244,1.185V206.008z"/>
	</g>
	<g>
		<path class="st6" d="M202.961,71.085c-48.673-16.124-101.248-16.124-149.922,0l0,0V94.03h4.992
			c9.143,0,16.555,7.412,16.555,16.554v-12.83h4.992c9.103,0,16.484,7.348,16.548,16.436h0.006V97.755h19.659
			c6.743,0,12.209,5.466,12.209,12.209c0-6.743,5.466-12.209,12.209-12.209h19.659v16.436h0.006
			c0.064-9.088,7.446-16.436,16.548-16.436h4.992v12.83c0-9.143,7.412-16.554,16.555-16.554h4.992L202.961,71.085L202.961,71.085z"
			/>
	</g>
	<g>
		<path class="st8" d="M181.414,65.064v32.691v12.83c0-9.143,7.412-16.554,16.555-16.554h4.992V71.085l0,0
			C195.854,68.73,188.663,66.73,181.414,65.064z"/>
	</g>
	<g>
		<path class="st2" d="M122.138,139.99h-20.144c-3.237,0-5.862-2.624-5.862-5.862V97.755h19.658c6.743,0,12.209,5.466,12.209,12.209
			v24.164C128,137.365,125.376,139.99,122.138,139.99z"/>
	</g>
	<g>
		<path class="st2" d="M154.005,139.99h-20.144c-3.237,0-5.862-2.624-5.862-5.862v-24.164c0-6.743,5.466-12.209,12.209-12.209
			h19.658v36.373C159.867,137.365,157.243,139.99,154.005,139.99z"/>
	</g>
	<g>
		<path class="st2" d="M175.552,134.878h-15.685v-20.569c0-9.143,7.412-16.554,16.554-16.554h4.992v31.262
			C181.414,132.254,178.79,134.878,175.552,134.878z"/>
	</g>
	<g>
		<path class="st3" d="M197.099,131.154h-15.685v-20.569c0-9.143,7.412-16.554,16.555-16.554h4.992v31.262
			C202.961,128.529,200.337,131.154,197.099,131.154z"/>
	</g>
	<g>
		<path class="st2" d="M74.586,131.154H58.901c-3.237,0-5.862-2.624-5.862-5.862V94.03h4.992c9.143,0,16.555,7.412,16.555,16.554
			V131.154z"/>
	</g>
	<g>
		<path class="st2" d="M96.133,134.878H80.448c-3.237,0-5.862-2.624-5.862-5.862V97.755h4.992c9.143,0,16.554,7.412,16.554,16.554
			V134.878z"/>
	</g>
	<g>
		<path class="st0" d="M159.874,117.19h-0.006c-1.657,0-3-1.343-3-3v-13.436h-16.658c-5.078,0-9.209,4.131-9.209,9.209
			c0,1.657-1.343,3-3,3s-3-1.343-3-3c0-5.078-4.131-9.209-9.209-9.209H99.133v13.436c0,1.657-1.343,3-3,3
			c-1.648,0-2.995-1.331-3.006-2.979c-0.052-7.42-6.13-13.457-13.548-13.457h-1.992v9.83c0,1.657-1.343,3-3,3s-3-1.343-3-3
			c0-7.474-6.081-13.555-13.555-13.555h-4.992c-1.657,0-3-1.343-3-3V71.084c0-1.293,0.829-2.441,2.057-2.848
			C76.624,60.112,102.161,55.992,128,55.992s51.376,4.12,75.904,12.245c1.228,0.407,2.057,1.554,2.057,2.848V94.03
			c0,1.657-1.343,3-3,3h-4.992c-7.474,0-13.555,6.081-13.555,13.555c0,1.657-1.343,3-3,3s-3-1.343-3-3v-9.83h-1.992
			c-7.418,0-13.496,6.037-13.548,13.457C162.862,115.86,161.522,117.19,159.874,117.19z M96.133,94.754h19.658
			c4.995,0,9.435,2.42,12.209,6.149c2.774-3.729,7.214-6.149,12.209-6.149h19.658c1.657,0,3,1.343,3,3v2.492
			c3.521-3.397,8.306-5.492,13.555-5.492h4.992c1.283,0,2.377,0.805,2.806,1.938c3.535-3.499,8.394-5.662,13.749-5.662h1.992V73.261
			c-23.288-7.479-47.486-11.27-71.961-11.27s-48.673,3.791-71.961,11.27V91.03h1.992c5.354,0,10.213,2.164,13.749,5.662
			c0.429-1.133,1.523-1.938,2.806-1.938h4.992c5.249,0,10.033,2.095,13.555,5.492v-2.492C93.133,96.098,94.476,94.754,96.133,94.754
			z"/>
	</g>
	<g>
		<path class="st0" d="M122.138,142.99h-20.144c-4.886,0-8.862-3.976-8.862-8.862V97.754c0-1.657,1.343-3,3-3h19.658
			c8.386,0,15.209,6.823,15.209,15.209v24.165C131,139.014,127.024,142.99,122.138,142.99z M99.133,100.754v33.374
			c0,1.578,1.284,2.862,2.862,2.862h20.144c1.578,0,2.862-1.284,2.862-2.862v-24.165c0-5.078-4.131-9.209-9.209-9.209H99.133z"/>
	</g>
	<g>
		<path class="st0" d="M154.005,142.99h-20.144c-4.886,0-8.862-3.976-8.862-8.862v-24.165c0-8.386,6.823-15.209,15.209-15.209
			h19.658c1.657,0,3,1.343,3,3v36.374C162.867,139.014,158.892,142.99,154.005,142.99z M140.209,100.754
			c-5.078,0-9.209,4.131-9.209,9.209v24.165c0,1.578,1.284,2.862,2.862,2.862h20.144c1.578,0,2.862-1.284,2.862-2.862v-33.374
			H140.209z"/>
	</g>
	<g>
		<path class="st0" d="M175.552,137.878h-15.685c-1.657,0-3-1.343-3-3v-20.569c0-10.783,8.772-19.555,19.555-19.555h4.992
			c1.657,0,3,1.343,3,3v31.262C184.414,133.903,180.438,137.878,175.552,137.878z M162.867,131.878h12.685
			c1.578,0,2.862-1.284,2.862-2.862v-28.262h-1.992c-7.474,0-13.555,6.081-13.555,13.555V131.878z"/>
	</g>
	<g>
		<path class="st0" d="M197.099,134.154h-15.685c-1.657,0-3-1.343-3-3v-20.569c0-10.783,8.772-19.555,19.555-19.555h4.992
			c1.657,0,3,1.343,3,3v31.262C205.961,130.178,201.985,134.154,197.099,134.154z M184.414,128.154h12.685
			c1.578,0,2.862-1.284,2.862-2.862V97.03h-1.992c-7.474,0-13.555,6.081-13.555,13.555V128.154z"/>
	</g>
	<g>
		<path class="st0" d="M74.586,134.154H58.901c-4.886,0-8.862-3.976-8.862-8.862V94.03c0-1.657,1.343-3,3-3h4.992
			c10.783,0,19.555,8.772,19.555,19.555v20.569C77.586,132.811,76.243,134.154,74.586,134.154z M56.039,97.03v28.262
			c0,1.578,1.284,2.862,2.862,2.862h12.685v-17.569c0-7.474-6.081-13.555-13.555-13.555H56.039z"/>
	</g>
	<g>
		<path class="st0" d="M96.133,137.878H80.448c-4.886,0-8.862-3.976-8.862-8.862V97.754c0-1.657,1.343-3,3-3h4.992
			c10.783,0,19.555,8.772,19.555,19.555v20.569C99.133,136.535,97.79,137.878,96.133,137.878z M77.586,100.754v28.262
			c0,1.578,1.284,2.862,2.862,2.862h12.685v-17.569c0-7.474-6.081-13.555-13.555-13.555H77.586z"/>
	</g>
	<g>
		<path class="st2" d="M164.638,162.318h-20.144c-3.237,0-5.862-2.624-5.862-5.862v-24.164c0-6.743,5.466-12.209,12.209-12.209
			H170.5v36.373C170.5,159.694,167.876,162.318,164.638,162.318z"/>
	</g>
	<g>
		<path class="st0" d="M164.638,165.318h-20.144c-4.886,0-8.862-3.976-8.862-8.862v-24.164c0-8.386,6.823-15.209,15.209-15.209
			H170.5c1.657,0,3,1.343,3,3v36.373C173.5,161.343,169.524,165.318,164.638,165.318z M150.842,123.083
			c-5.078,0-9.209,4.131-9.209,9.209v24.164c0,1.578,1.284,2.862,2.862,2.862h20.144c1.578,0,2.862-1.284,2.862-2.862v-33.373
			H150.842z"/>
	</g>
	<g>
		<polygon class="st4" points="179.376,209.008 179.376,158.341 159.867,144.148 169.622,166.831 169.622,209.008 		"/>
	</g>
	<g>
		<path class="st0" d="M179.376,212.008h-9.754c-1.657,0-3-1.343-3-3v-41.559l-9.51-22.116c-0.534-1.241-0.172-2.686,0.883-3.529
			c1.056-0.843,2.545-0.877,3.637-0.082l19.509,14.192c0.776,0.564,1.235,1.466,1.235,2.426v50.667
			C182.376,210.665,181.033,212.008,179.376,212.008z M172.622,206.008h3.754v-46.14l-9.435-6.864l5.436,12.642
			c0.161,0.375,0.244,0.777,0.244,1.185V206.008z"/>
	</g>
</g>
</svg>
