<?xml version="1.0" encoding="utf-8"?>
<!-- Generator: Adobe Illustrator 18.0.0, SVG Export Plug-In . SVG Version: 6.00 Build 0)  -->
<!DOCTYPE svg PUBLIC "-//W3C//DTD SVG 1.1//EN" "http://www.w3.org/Graphics/SVG/1.1/DTD/svg11.dtd">
<svg version="1.1" id="Layer_1" xmlns="http://www.w3.org/2000/svg" xmlns:xlink="http://www.w3.org/1999/xlink" x="0px" y="0px"
	 viewBox="0 0 256 256" style="enable-background:new 0 0 256 256;" xml:space="preserve">
<style type="text/css">
	.st0{fill:#504774;}
	.st1{fill:#F1C48B;}
	.st2{fill:#FFFFFF;}
	.st3{fill:#D5E6F7;}
	.st4{fill:#A0D1F2;}
	.st5{fill:#7BABF3;}
	.st6{fill:#FD919F;}
	.st7{fill:#D4E7F8;}
	.st8{fill:#E0667D;}
	.st9{fill:#484771;}
</style>
<g>
	<g>
		<circle class="st1" cx="128" cy="128" r="103.873"/>
	</g>
	<g>
		<g>
			<path class="st2" d="M194.424,209.428c-2.051,0-4.133-0.46-6.095-1.434c-37.776-18.745-82.882-18.745-120.658,0
				c-6.795,3.373-15.038,0.597-18.41-6.199c-3.372-6.795-0.597-15.038,6.199-18.409c22.424-11.127,47.508-17.008,72.54-17.008
				s50.116,5.881,72.54,17.008c6.795,3.371,9.57,11.613,6.199,18.409C204.34,206.629,199.477,209.428,194.424,209.428z"/>
		</g>
	</g>
	<g>
		<path class="st4" d="M128,166.378c22.786,0,45.608,4.889,66.435,14.156V113.94c0-16.534-6.012-32.505-16.915-44.935l0,0
			c-26.238-29.912-72.802-29.912-99.039,0l0,0c-10.903,12.43-16.915,28.4-16.915,44.935v66.593
			C82.392,171.266,105.214,166.378,128,166.378z"/>
	</g>
	<g>
		<path class="st3" d="M194.435,180.533v-21.526c-20.826-9.267-43.648-14.156-66.435-14.156s-45.608,4.889-66.435,14.156v21.526
			c20.826-9.267,43.648-14.156,66.435-14.156S173.608,171.266,194.435,180.533z"/>
	</g>
	<g>
		<g>
			<path class="st5" d="M177.52,69.005L177.52,69.005c-15.381-17.535-37.744-24.774-58.906-21.751
				c14.938,2.134,29.277,9.374,40.134,21.751l0,0c10.903,12.43,16.915,28.4,16.915,44.935v59.6
				c6.393,1.951,12.67,4.278,18.772,6.994V113.94C194.435,97.406,188.423,81.435,177.52,69.005z"/>
		</g>
	</g>
	<g>
		<path class="st4" d="M175.663,173.54c1.522,0.464,3.037,0.952,4.545,1.461c0.162,0.054,0.323,0.11,0.484,0.164
			c1.321,0.45,2.636,0.917,3.945,1.4c0.285,0.105,0.571,0.209,0.855,0.315c1.198,0.45,2.389,0.916,3.576,1.394
			c0.333,0.133,0.667,0.262,0.998,0.398c1.465,0.601,2.922,1.218,4.368,1.862v-21.526c-6.102-2.715-12.378-5.043-18.772-6.994
			V173.54z"/>
	</g>
	<g>
		<g>
			<path class="st3" d="M200.54,183.386c-7.772-3.856-15.868-7.067-24.167-9.637c4.532,4.551,5.905,11.645,2.892,17.718
				c-2.32,4.676-6.696,7.649-11.491,8.382c7.025,2.138,13.905,4.844,20.555,8.144c1.962,0.974,4.044,1.434,6.095,1.434
				c5.053,0,9.916-2.799,12.314-7.633C210.11,194.999,207.335,186.757,200.54,183.386z"/>
		</g>
	</g>
	<g>
		<circle class="st6" cx="128" cy="88.623" r="17.856"/>
	</g>
	<g>
		<path class="st0" d="M128,109.479c-11.5,0-20.856-9.356-20.856-20.856S116.5,67.768,128,67.768s20.856,9.355,20.856,20.855
			S139.5,109.479,128,109.479z M128,73.768c-8.191,0-14.856,6.664-14.856,14.855s6.665,14.856,14.856,14.856
			s14.856-6.665,14.856-14.856S136.191,73.768,128,73.768z"/>
	</g>
	<g>
		<g>
			<path class="st0" d="M61.575,212.429c-6.407,0.001-12.155-3.563-15.001-9.301c-1.987-4.004-2.295-8.543-0.869-12.779
				c1.426-4.236,4.417-7.664,8.421-9.65c22.835-11.331,48.38-17.32,73.874-17.32s51.038,5.989,73.874,17.32
				c4.004,1.986,6.995,5.414,8.421,9.65c1.427,4.236,1.118,8.775-0.869,12.779c-2.847,5.736-8.595,9.3-15.002,9.3
				c-2.595,0-5.095-0.588-7.43-1.748c-18.122-8.991-38.522-13.745-58.995-13.745s-40.873,4.754-58.996,13.746
				C66.668,211.84,64.169,212.429,61.575,212.429z M128,169.378c-24.573,0-49.196,5.773-71.207,16.695
				c-2.569,1.274-4.487,3.473-5.402,6.19s-0.717,5.629,0.558,8.198c1.826,3.681,5.515,5.967,9.626,5.967
				c1.66,0,3.262-0.378,4.762-1.122c18.948-9.402,40.271-14.372,61.664-14.372s42.715,4.97,61.663,14.371
				c1.499,0.745,3.101,1.122,4.762,1.122c4.112,0,7.801-2.286,9.627-5.967c1.274-2.568,1.473-5.479,0.558-8.197
				s-2.833-4.916-5.402-6.19C177.196,175.151,152.573,169.378,128,169.378z"/>
		</g>
	</g>
	<g>
		<path class="st0" d="M194.435,183.533c-0.414,0-0.83-0.086-1.22-0.259c-20.431-9.091-42.982-13.896-65.215-13.896
			s-44.784,4.806-65.215,13.896c-0.929,0.411-2.001,0.328-2.854-0.226c-0.852-0.553-1.366-1.5-1.366-2.516v-21.525
			c0-1.186,0.698-2.259,1.78-2.741c21.193-9.43,44.588-14.414,67.654-14.414s46.461,4.984,67.654,14.414
			c1.083,0.482,1.78,1.556,1.78,2.741v21.525c0,1.016-0.514,1.963-1.366,2.516C195.575,183.37,195.006,183.533,194.435,183.533z
			 M128,163.378c21.546,0,43.377,4.349,63.435,12.607V160.97c-19.958-8.587-41.845-13.117-63.435-13.117s-43.477,4.53-63.435,13.117
			v15.016C84.623,167.727,106.454,163.378,128,163.378z"/>
	</g>
	<g>
		<path class="st0" d="M194.435,183.533c-0.414,0-0.83-0.086-1.22-0.259c-20.431-9.091-42.982-13.896-65.215-13.896
			s-44.784,4.806-65.215,13.896c-0.929,0.411-2.001,0.328-2.854-0.226c-0.852-0.553-1.366-1.5-1.366-2.516V113.94
			c0-17.27,6.271-33.931,17.659-46.913C89.3,52.12,108.171,43.57,128,43.57s38.7,8.55,51.775,23.456
			c11.388,12.983,17.66,29.645,17.66,46.914v66.593c0,1.016-0.514,1.963-1.366,2.516
			C195.575,183.37,195.006,183.533,194.435,183.533z M128,163.378c21.546,0,43.377,4.349,63.435,12.607V113.94
			c0-15.813-5.743-31.068-16.17-42.956C163.329,57.376,146.101,49.57,128,49.57s-35.328,7.805-47.264,21.413
			c-10.428,11.888-16.17,27.144-16.17,42.957v62.045C84.623,167.727,106.454,163.378,128,163.378z"/>
	</g>
</g>
</svg>
