<?xml version="1.0" encoding="utf-8"?>
<!-- Generator: Adobe Illustrator 18.0.0, SVG Export Plug-In . SVG Version: 6.00 Build 0)  -->
<!DOCTYPE svg PUBLIC "-//W3C//DTD SVG 1.1//EN" "http://www.w3.org/Graphics/SVG/1.1/DTD/svg11.dtd">
<svg version="1.1" id="Layer_1" xmlns="http://www.w3.org/2000/svg" xmlns:xlink="http://www.w3.org/1999/xlink" x="0px" y="0px"
	 viewBox="0 0 256 256" style="enable-background:new 0 0 256 256;" xml:space="preserve">
<style type="text/css">
	.st0{fill:#504774;}
	.st1{fill:#F1C48B;}
	.st2{fill:#FFFFFF;}
	.st3{fill:#D5E6F7;}
	.st4{fill:#A0D1F2;}
	.st5{fill:#7BABF3;}
	.st6{fill:#FD919F;}
	.st7{fill:#D4E7F8;}
	.st8{fill:#E0667D;}
	.st9{fill:#484771;}
</style>
<g>
	<g>
		<circle class="st1" cx="128" cy="128" r="103.873"/>
	</g>
	<g>
		<path class="st2" d="M189.204,53.145c-9.679-9.17-23.976-9.919-35.846-8.385c-1.608,11.47,3.403,25.33,14.239,36.166
			c9.958,9.958,22.473,15.004,33.337,14.507C204.392,81.288,203.283,65.518,189.204,53.145z"/>
	</g>
	<g>
		<path class="st2" d="M157.959,90.563c-10.836-10.836-15.847-24.696-14.239-36.166c-7.651,0.988-14.297,2.923-18.039,4.172
			c-2.099,0.7-4.361,0.7-6.459,0c-9.548-3.186-37.967-10.867-53.885,4.213c-26.094,22.931-7.643,57.536,1.882,71.828
			c3.038,4.558,4.699,9.883,4.874,15.358c1.011,31.649,7.381,61.899,17.158,61.899c10.685,0,11.703-12.212,11.703-39.466
			c0-12.957,4.859-20.66,9.957-25.175c6.542-5.794,16.54-5.794,23.082,0c5.098,4.515,9.957,12.218,9.957,25.175
			c0,27.255,1.018,39.466,11.703,39.466c9.777,0,16.146-30.249,17.158-61.899c0.175-5.475,1.836-10.799,4.874-15.358
			c4.386-6.581,10.661-17.469,13.612-29.54C180.432,105.566,167.918,100.521,157.959,90.563z"/>
	</g>
	<g>
		<g>
			<path class="st3" d="M181.354,104.065c-3.469,11.438-10.827,24.508-14.851,30.545c-3.038,4.558-4.699,9.883-4.874,15.358
				c-0.839,26.26-5.37,51.538-12.472,59.392c1.62,1.683,3.732,2.507,6.496,2.507c9.777,0,16.146-30.249,17.158-61.899
				c0.175-5.475,1.836-10.799,4.874-15.358c4.386-6.581,10.661-17.469,13.612-29.54C188.09,105.217,184.739,104.868,181.354,104.065
				z"/>
		</g>
	</g>
	<g>
		<path class="st3" d="M189.204,53.145c-8.76-8.299-21.296-9.693-32.399-8.747c7.687,0.739,15.246,3.192,21.109,8.747
			c13.66,12.004,15.109,27.207,12.025,41.021c3.743,0.992,7.456,1.428,10.994,1.267C204.392,81.288,203.283,65.518,189.204,53.145z"
			/>
	</g>
	<g>
		<path class="st0" d="M155.652,214.867c-14.703,0-14.703-17.813-14.703-42.467c0-9.958-3.01-17.672-8.945-22.929
			c-2.615-2.316-6.007-3.593-9.553-3.593c-3.544,0-6.937,1.275-9.551,3.592c-5.937,5.258-8.946,12.973-8.946,22.93
			c0,24.654,0,42.467-14.703,42.467c-17.578,0-19.944-58.171-20.155-64.804c-0.16-4.968-1.672-9.736-4.373-13.789
			c-9.72-14.583-29.304-51.141-1.407-75.709c6.888-6.502,16.506-9.799,28.59-9.799c11.671,0,22.72,3.105,28.267,4.957
			c1.477,0.492,3.084,0.492,4.561,0c3.465-1.156,10.49-3.253,18.604-4.302c0.93-0.119,1.859,0.201,2.518,0.866
			s0.968,1.6,0.838,2.526c-1.535,10.947,3.596,23.833,13.389,33.628c8.936,8.935,20.702,14.113,31.08,13.631
			c0.96-0.034,1.854,0.361,2.454,1.092c0.6,0.729,0.821,1.699,0.597,2.618c-3.012,12.32-9.292,23.382-14.03,30.491
			c-2.701,4.054-4.213,8.821-4.372,13.789C175.597,156.696,173.23,214.867,155.652,214.867z M122.451,139.879
			c5.013,0,9.818,1.812,13.531,5.101c5.003,4.432,10.967,12.785,10.967,27.421c0,27.361,1.258,36.467,8.703,36.467
			c5.017,0,12.945-21.009,14.16-58.995c0.194-6.087,2.053-11.939,5.376-16.926c3.989-5.986,9.131-14.916,12.186-24.923
			c-11.046-0.716-22.413-6.216-31.536-15.339c-9.971-9.972-15.65-22.955-15.402-34.754c-6.026,1.051-11.082,2.576-13.804,3.484
			c-2.703,0.902-5.657,0.902-8.358,0c-5.202-1.736-15.546-4.648-26.368-4.648c-10.521,0-18.767,2.757-24.505,8.193
			c-0.027,0.025-0.055,0.051-0.083,0.076c-24.397,21.44-6.451,54.634,2.397,67.91c3.322,4.985,5.182,10.838,5.377,16.925
			c1.214,37.987,9.143,58.996,14.159,58.996c7.445,0,8.703-9.105,8.703-36.467c0-14.634,5.964-22.989,10.968-27.422
			C112.635,141.69,117.44,139.879,122.451,139.879z"/>
	</g>
	<g>
		<path class="st0" d="M199.463,98.467c0,0-0.001,0-0.002,0c-11.799,0-24.187-5.621-33.985-15.42
			c-11.099-11.099-16.881-25.929-15.089-38.704c0.188-1.338,1.246-2.385,2.586-2.559c3.344-0.432,6.599-0.651,9.675-0.651
			c12.078,0,21.693,3.297,28.579,9.796c12.744,11.226,17.108,26.86,12.621,45.218c-0.316,1.293-1.447,2.224-2.777,2.284
			C200.538,98.455,200.003,98.467,199.463,98.467z M156.105,47.466c-0.583,10.421,4.493,22.22,13.612,31.339
			c8.292,8.291,18.991,13.345,28.812,13.647c3.117-15.259-0.68-27.716-11.306-37.053c-0.028-0.025-0.056-0.05-0.083-0.076
			c-5.736-5.435-13.978-8.19-24.493-8.19C160.553,47.133,158.36,47.245,156.105,47.466z"/>
	</g>
	<g>
		<path class="st0" d="M174.172,77.351c-0.762,0-1.524-0.288-2.109-0.866c-1.178-1.165-1.188-3.064-0.024-4.243l29.876-30.218
			c1.165-1.178,3.064-1.189,4.243-0.024c1.178,1.165,1.188,3.064,0.024,4.243L176.306,76.46
			C175.719,77.054,174.945,77.351,174.172,77.351z"/>
	</g>
	<g>
		<path class="st0" d="M186.058,77.351h-11.886c-1.657,0-3-1.343-3-3V61.822c0-1.657,1.343-3,3-3s3,1.343,3,3v9.528h8.886
			c1.657,0,3,1.343,3,3S187.715,77.351,186.058,77.351z"/>
	</g>
</g>
</svg>
