<?xml version="1.0" encoding="utf-8"?>
<!-- Generator: Adobe Illustrator 18.0.0, SVG Export Plug-In . SVG Version: 6.00 Build 0)  -->
<!DOCTYPE svg PUBLIC "-//W3C//DTD SVG 1.1//EN" "http://www.w3.org/Graphics/SVG/1.1/DTD/svg11.dtd">
<svg version="1.1" id="Layer_1" xmlns="http://www.w3.org/2000/svg" xmlns:xlink="http://www.w3.org/1999/xlink" x="0px" y="0px"
	 viewBox="0 0 256 256" style="enable-background:new 0 0 256 256;" xml:space="preserve">
<style type="text/css">
	.st0{fill:#504774;}
	.st1{fill:#F1C48B;}
	.st2{fill:#FFFFFF;}
	.st3{fill:#D5E6F7;}
	.st4{fill:#A0D1F2;}
	.st5{fill:#7BABF3;}
	.st6{fill:#FD919F;}
	.st7{fill:#D4E7F8;}
	.st8{fill:#E0667D;}
	.st9{fill:#484771;}
</style>
<g>
	<g>
		<circle class="st1" cx="128" cy="128" r="103.873"/>
	</g>
	<g>
		<rect x="73.278" y="65.718" class="st6" width="109.443" height="149.21"/>
	</g>
	<g>
		<rect x="169.641" y="65.718" class="st8" width="13.08" height="149.21"/>
	</g>
	<g>
		<rect x="86.359" y="65.718" class="st2" width="83.282" height="134.876"/>
	</g>
	<g>
		<rect x="158.609" y="65.718" class="st3" width="11.032" height="134.876"/>
	</g>
	<g>
		<path class="st0" d="M182.722,217.928H73.278c-1.657,0-3-1.343-3-3V65.718c0-1.657,1.343-3,3-3h109.443c1.657,0,3,1.343,3,3
			v149.21C185.722,216.585,184.378,217.928,182.722,217.928z M76.278,211.928h103.443V68.718H76.278V211.928z"/>
	</g>
	<g>
		<path class="st0" d="M169.641,203.594H86.359c-1.657,0-3-1.343-3-3V65.718c0-1.657,1.343-3,3-3h83.282c1.657,0,3,1.343,3,3
			v134.876C172.641,202.251,171.298,203.594,169.641,203.594z M89.359,197.594h77.282V68.718H89.359V197.594z"/>
	</g>
	<g>
		<g>
			<path class="st0" d="M137.399,194.219c-6.313,0-6.313-6.885-6.313-14.173c0-2.177-0.608-3.819-1.808-4.882
				c-0.692-0.613-1.863-0.613-2.556,0c-1.199,1.063-1.808,2.705-1.808,4.882c0,7.288,0,14.173-6.313,14.173
				c-5.954,0-7.558-11.108-7.856-20.428c-0.032-1.005-0.336-1.967-0.878-2.781c-6.373-9.562-6.393-18.609-0.058-24.216
				c2.36-2.212,5.57-3.334,9.543-3.334c3.609,0,6.99,0.948,8.684,1.514c1.623-0.565,5.003-1.514,8.612-1.514
				c3.973,0,7.183,1.122,9.543,3.334c6.335,5.606,6.315,14.654-0.059,24.217c-0.542,0.813-0.845,1.775-0.877,2.781
				C144.958,183.11,143.353,194.219,137.399,194.219z M119.352,149.46c-2.41,0-4.247,0.582-5.459,1.729
				c-0.027,0.026-0.055,0.051-0.083,0.076c-5.429,4.771-1.673,12.334,1.049,16.417c1.164,1.747,1.814,3.792,1.882,5.916
				c0.204,6.399,1.119,10.89,1.924,13.207c0.249-2.005,0.249-5.156,0.249-6.76c0-4.944,2.083-7.826,3.83-9.374
				c1.445-1.279,3.312-1.983,5.256-1.983s3.812,0.704,5.256,1.983c1.748,1.548,3.83,4.43,3.83,9.374c0,1.604,0,4.755,0.249,6.76
				c0.805-2.317,1.72-6.807,1.924-13.206c0.068-2.125,0.719-4.17,1.881-5.916c2.723-4.084,6.479-11.647,1.05-16.418
				c-0.028-0.025-0.056-0.05-0.083-0.076c-1.212-1.147-3.049-1.729-5.459-1.729c-2.864,0-5.698,0.843-6.784,1.205
				c-1.206,0.402-2.524,0.402-3.729,0C125.05,150.303,122.216,149.46,119.352,149.46z"/>
		</g>
	</g>
	<g>
		<rect x="100.667" y="55.384" class="st4" width="54.667" height="20.667"/>
	</g>
	<g>
		<rect x="144.167" y="55.384" class="st5" width="11.167" height="20.667"/>
	</g>
	<g>
		<path class="st0" d="M155.333,79.051h-54.667c-1.657,0-3-1.343-3-3V55.385c0-1.657,1.343-3,3-3h54.667c1.657,0,3,1.343,3,3v20.666
			C158.333,77.708,156.99,79.051,155.333,79.051z M103.667,73.051h48.667V58.385h-48.667V73.051z"/>
	</g>
	<g>
		<path class="st0" d="M135.5,58.385h-15c-1.657,0-3-1.343-3-3v-6.813c0-5.79,4.71-10.5,10.5-10.5s10.5,4.71,10.5,10.5v6.813
			C138.5,57.042,137.157,58.385,135.5,58.385z M123.5,52.385h9v-3.813c0-2.481-2.019-4.5-4.5-4.5s-4.5,2.019-4.5,4.5V52.385z"/>
	</g>
	<g>
		<path class="st4" d="M141.6,118.338h-9.482v1.528c0,2.274-1.844,4.118-4.118,4.118c-2.274,0-4.118-1.844-4.118-4.118v-1.528H114.4
			c-3.769,0-6.825,3.055-6.825,6.825v12.504h40.849v-12.504C148.424,121.394,145.369,118.338,141.6,118.338z"/>
	</g>
	<g>
		<path class="st0" d="M128,115.482L128,115.482c-1.444,0-2.829-0.249-4.118-0.702v5.086c0,2.274,1.844,4.118,4.118,4.118
			c2.274,0,4.118-1.844,4.118-4.118v-5.086C130.829,115.233,129.444,115.482,128,115.482z"/>
	</g>
	<g>
		<path class="st2" d="M128,115.482L128,115.482c-6.858,0-12.417-5.559-12.417-12.417v-6.982c0-6.858,5.559-12.417,12.417-12.417
			l0,0c6.858,0,12.417,5.559,12.417,12.417v6.982C140.417,109.923,134.858,115.482,128,115.482z"/>
	</g>
	<g>
		<path class="st0" d="M128,118.482c-8.501,0-15.417-6.916-15.417-15.417v-6.982c0-8.5,6.916-15.416,15.417-15.416
			s15.417,6.916,15.417,15.416v6.982C143.417,111.566,136.501,118.482,128,118.482z M128,86.667c-5.192,0-9.417,4.224-9.417,9.416
			v6.982c0,5.192,4.225,9.417,9.417,9.417s9.417-4.225,9.417-9.417v-6.982C137.417,90.891,133.192,86.667,128,86.667z"/>
	</g>
	<g>
		<path class="st0" d="M148.424,140.667h-40.849c-1.657,0-3-1.343-3-3v-12.504c0-5.418,4.407-9.825,9.825-9.825h9.481
			c1.657,0,3,1.343,3,3v1.528c0,0.616,0.501,1.118,1.118,1.118s1.118-0.502,1.118-1.118v-1.528c0-1.657,1.343-3,3-3h9.481
			c5.417,0,9.825,4.407,9.825,9.825v12.504C151.424,139.324,150.081,140.667,148.424,140.667z M110.576,134.667h34.849v-9.504
			c0-2.109-1.716-3.825-3.825-3.825h-6.634c-0.68,3.222-3.544,5.646-6.965,5.646s-6.286-2.425-6.965-5.646H114.4
			c-2.109,0-3.825,1.716-3.825,3.825V134.667z"/>
	</g>
	<g>
		<path class="st0" d="M128,126.984c-3.925,0-7.118-3.193-7.118-7.118v-5.086c0-0.973,0.472-1.886,1.266-2.448
			s1.811-0.705,2.729-0.382c2.01,0.707,4.236,0.707,6.246,0c0.919-0.324,1.936-0.18,2.729,0.382
			c0.794,0.563,1.266,1.476,1.266,2.448v5.086C135.118,123.791,131.925,126.984,128,126.984z M126.882,118.442v1.424
			c0,0.616,0.501,1.118,1.118,1.118s1.118-0.502,1.118-1.118v-1.424C128.376,118.495,127.624,118.495,126.882,118.442z"/>
	</g>
	<g>
		<rect x="158.609" y="140.323" class="st3" width="45.724" height="31.677"/>
	</g>
	<g>
		<rect x="195.109" y="140.323" class="st4" width="9.224" height="31.677"/>
	</g>
	<g>
		<path class="st0" d="M204.333,175h-45.725c-1.657,0-3-1.343-3-3v-31.678c0-1.657,1.343-3,3-3h45.725c1.657,0,3,1.343,3,3V172
			C207.333,173.657,205.99,175,204.333,175z M161.609,169h39.725v-25.678h-39.725V169z"/>
	</g>
	<g>
		<path class="st0" d="M193.75,157.75h-13.5c-1.657,0-3-1.343-3-3s1.343-3,3-3h13.5c1.657,0,3,1.343,3,3
			S195.407,157.75,193.75,157.75z"/>
	</g>
	<g>
		<path class="st0" d="M187,166h-6.75c-1.657,0-3-1.343-3-3s1.343-3,3-3H187c1.657,0,3,1.343,3,3S188.657,166,187,166z"/>
	</g>
</g>
</svg>
