<?xml version="1.0" encoding="utf-8"?>
<!-- Generator: Adobe Illustrator 18.0.0, SVG Export Plug-In . SVG Version: 6.00 Build 0)  -->
<!DOCTYPE svg PUBLIC "-//W3C//DTD SVG 1.1//EN" "http://www.w3.org/Graphics/SVG/1.1/DTD/svg11.dtd">
<svg version="1.1" id="Layer_1" xmlns="http://www.w3.org/2000/svg" xmlns:xlink="http://www.w3.org/1999/xlink" x="0px" y="0px"
	 viewBox="0 0 256 256" style="enable-background:new 0 0 256 256;" xml:space="preserve">
<style type="text/css">
	.st0{fill:#504774;}
	.st1{fill:#F1C48B;}
	.st2{fill:#FFFFFF;}
	.st3{fill:#D5E6F7;}
	.st4{fill:#A0D1F2;}
	.st5{fill:#7BABF3;}
	.st6{fill:#FD919F;}
	.st7{fill:#D4E7F8;}
	.st8{fill:#E0667D;}
	.st9{fill:#484771;}
</style>
<g>
	<g>
		<circle class="st1" cx="128" cy="128" r="103.873"/>
	</g>
	<g>
		<path class="st2" d="M187.265,55.33c-16.517-15.648-46.006-7.678-55.913-4.372c-2.178,0.727-4.525,0.727-6.703,0
			c-9.907-3.306-39.396-11.275-55.913,4.372c-27.076,23.794-7.931,59.701,1.953,74.531c3.153,4.73,4.876,10.255,5.058,15.936
			c1.05,32.84,7.658,64.228,17.804,64.228c11.087,0,12.143-12.671,12.143-40.952c0-13.445,5.042-21.438,10.331-26.123
			c6.788-6.012,17.162-6.012,23.95,0c5.29,4.685,10.331,12.678,10.331,26.123c0,28.281,1.056,40.952,12.143,40.952
			c10.145,0,16.754-31.387,17.804-64.228c0.182-5.681,1.905-11.206,5.057-15.936C195.196,115.031,214.34,79.124,187.265,55.33z"/>
	</g>
	<g>
		<g>
			<path class="st3" d="M187.265,55.33c-9.13-8.649-22.22-10.077-33.778-9.071c7.933,0.783,15.727,3.338,21.778,9.071
				c27.076,23.794,7.931,59.701-1.953,74.531c-3.152,4.73-4.876,10.255-5.058,15.936c-0.863,27.007-5.488,53.014-12.746,61.408
				c1.706,1.893,3.958,2.82,6.942,2.82c10.145,0,16.754-31.387,17.804-64.228c0.181-5.681,1.905-11.206,5.057-15.936
				C195.196,115.031,214.34,79.124,187.265,55.33z"/>
		</g>
	</g>
	<g>
		<path class="st0" d="M162.45,213.025c-15.144,0-15.144-18.436-15.144-43.952c0-10.365-3.136-18.398-9.321-23.877
			c-2.734-2.422-6.28-3.755-9.986-3.755s-7.252,1.333-9.986,3.755c-6.185,5.478-9.32,13.511-9.32,23.877
			c0,25.517,0,43.952-15.144,43.952c-18.134,0-20.583-60.262-20.802-67.133c-0.166-5.176-1.741-10.145-4.555-14.367
			c-10.069-15.107-30.357-52.979-1.479-78.412c7.125-6.727,17.081-10.138,29.59-10.138c12.093,0,23.544,3.218,29.295,5.137
			c1.554,0.518,3.249,0.518,4.803,0c5.75-1.919,17.202-5.137,29.294-5.137c12.509,0,22.465,3.411,29.59,10.138
			c28.878,25.433,8.59,63.305-1.479,78.412c-2.815,4.222-4.39,9.19-4.556,14.367C183.033,152.764,180.583,213.025,162.45,213.025z
			 M128,135.441c5.173,0,10.132,1.869,13.964,5.263c5.175,4.584,11.343,13.227,11.343,28.369c0,28.476,1.322,37.952,9.144,37.952
			c5.385,0,13.526-21.312,14.805-61.324c0.201-6.297,2.124-12.35,5.56-17.504c9.198-13.801,27.851-48.309,2.469-70.613
			c-0.028-0.025-0.056-0.051-0.083-0.076c-5.977-5.662-14.558-8.532-25.505-8.532c-11.245,0-21.991,3.025-27.396,4.828
			c-2.781,0.928-5.821,0.928-8.601,0c-5.405-1.803-16.151-4.828-27.396-4.828c-10.948,0-19.529,2.87-25.505,8.532
			c-0.027,0.025-0.055,0.051-0.083,0.076c-25.382,22.305-6.729,56.813,2.469,70.613c3.436,5.155,5.358,11.208,5.56,17.504
			c1.278,40.013,9.419,61.324,14.805,61.324c7.822,0,9.144-9.477,9.144-37.952c0-15.144,6.168-23.786,11.342-28.369
			C117.868,137.311,122.827,135.441,128,135.441z"/>
	</g>
	<g>
		<path class="st3" d="M211.246,138.109c0-8.53-6.915-15.445-15.445-15.445c-5.519,0-10.347,2.903-13.079,7.257
			c-2.732-4.353-7.561-7.257-13.079-7.257c-8.53,0-15.445,6.915-15.445,15.445c0,7.727,5.68,14.11,13.089,15.247
			c-0.001,0.067-0.01,0.131-0.01,0.198c0,8.53,6.915,15.445,15.445,15.445c8.53,0,15.445-6.915,15.445-15.445
			c0-0.067-0.009-0.131-0.01-0.198C205.566,152.219,211.246,145.837,211.246,138.109z"/>
	</g>
	<g>
		<path class="st3" d="M79.681,80.23c0-6.828-5.536-12.364-12.364-12.364c-4.418,0-8.283,2.324-10.47,5.809
			c-2.187-3.485-6.052-5.809-10.47-5.809c-6.829,0-12.364,5.536-12.364,12.364c0,6.186,4.547,11.295,10.478,12.205
			c-0.001,0.053-0.008,0.105-0.008,0.159c0,6.829,5.536,12.364,12.364,12.364c6.829,0,12.364-5.536,12.364-12.364
			c0-0.054-0.007-0.105-0.008-0.159C75.134,91.525,79.681,86.416,79.681,80.23z"/>
	</g>
	<g>
		<path class="st0" d="M182.722,172c-9.416,0-17.206-7.092-18.311-16.214c-7.786-2.269-13.213-9.353-13.213-17.677
			c0-10.171,8.274-18.445,18.445-18.445c4.993,0,9.657,1.985,13.079,5.45c3.422-3.465,8.086-5.45,13.079-5.45
			c10.17,0,18.445,8.274,18.445,18.445c0,8.325-5.427,15.408-13.213,17.677C199.927,164.908,192.137,172,182.722,172z
			 M170.276,153.622c0.036,6.832,5.605,12.378,12.445,12.378c6.842,0,12.412-5.549,12.445-12.383
			c-0.004-0.074-0.009-0.177-0.01-0.217c-0.022-1.498,1.064-2.782,2.544-3.009c6.11-0.938,10.544-6.104,10.544-12.282
			c0-6.862-5.583-12.445-12.445-12.445c-4.3,0-8.239,2.188-10.538,5.852c-0.548,0.874-1.508,1.405-2.541,1.405
			s-1.993-0.531-2.541-1.405c-2.299-3.664-6.238-5.852-10.538-5.852c-6.862,0-12.445,5.583-12.445,12.445
			c0,6.179,4.435,11.345,10.544,12.282c1.48,0.227,2.566,1.511,2.544,3.009C170.286,153.447,170.281,153.551,170.276,153.622z"/>
	</g>
	<g>
		<path class="st0" d="M56.847,107.959c-7.709,0-14.11-5.707-15.201-13.118c-6.285-2.004-10.633-7.81-10.633-14.61
			c0-8.472,6.893-15.364,15.364-15.364c3.957,0,7.664,1.496,10.47,4.125c2.806-2.629,6.514-4.125,10.47-4.125
			c8.472,0,15.364,6.893,15.364,15.364c0,6.801-4.348,12.607-10.634,14.61C70.957,102.252,64.556,107.959,56.847,107.959z
			 M47.483,92.664c0.037,5.132,4.223,9.295,9.364,9.295c5.14,0,9.326-4.162,9.364-9.293c-0.004-0.07-0.007-0.137-0.007-0.204
			c-0.013-1.491,1.071-2.766,2.545-2.991c4.597-0.706,7.933-4.592,7.933-9.24c0-5.163-4.201-9.364-9.364-9.364
			c-3.235,0-6.199,1.646-7.929,4.403c-0.549,0.874-1.509,1.405-2.541,1.405s-1.992-0.531-2.541-1.405
			c-1.73-2.757-4.694-4.403-7.929-4.403c-5.164,0-9.364,4.201-9.364,9.364c0,4.648,3.336,8.534,7.933,9.24
			c1.485,0.228,2.572,1.519,2.544,3.02C47.49,92.529,47.487,92.604,47.483,92.664z"/>
	</g>
	<g>
		<circle class="st3" cx="51.667" cy="143.667" r="9"/>
	</g>
	<g>
		<path class="st0" d="M51.667,155.667c-6.617,0-12-5.383-12-12s5.383-12,12-12s12,5.383,12,12S58.283,155.667,51.667,155.667z
			 M51.667,137.667c-3.309,0-6,2.691-6,6s2.691,6,6,6s6-2.691,6-6S54.975,137.667,51.667,137.667z"/>
	</g>
	<g>
		<circle class="st3" cx="150.486" cy="178" r="9"/>
	</g>
	<g>
		<path class="st0" d="M150.486,190c-6.617,0-12-5.383-12-12s5.383-12,12-12s12,5.383,12,12S157.103,190,150.486,190z M150.486,172
			c-3.309,0-6,2.691-6,6s2.691,6,6,6s6-2.691,6-6S153.795,172,150.486,172z"/>
	</g>
</g>
</svg>
