<?xml version="1.0" encoding="utf-8"?>
<!-- Generator: Adobe Illustrator 18.0.0, SVG Export Plug-In . SVG Version: 6.00 Build 0)  -->
<!DOCTYPE svg PUBLIC "-//W3C//DTD SVG 1.1//EN" "http://www.w3.org/Graphics/SVG/1.1/DTD/svg11.dtd">
<svg version="1.1" id="Layer_1" xmlns="http://www.w3.org/2000/svg" xmlns:xlink="http://www.w3.org/1999/xlink" x="0px" y="0px"
	 viewBox="0 0 256 256" style="enable-background:new 0 0 256 256;" xml:space="preserve">
<style type="text/css">
	.st0{fill:#504774;}
	.st1{fill:#F1C48B;}
	.st2{fill:#FFFFFF;}
	.st3{fill:#D5E6F7;}
	.st4{fill:#A0D1F2;}
	.st5{fill:#7BABF3;}
	.st6{fill:#FD919F;}
	.st7{fill:#D4E7F8;}
	.st8{fill:#E0667D;}
	.st9{fill:#484771;}
</style>
<g>
	<g>
		<circle class="st1" cx="128" cy="128" r="103.873"/>
	</g>
	<g>
		<polygon class="st6" points="115.112,177.277 79.215,177.277 74.32,51.788 120.007,51.788 		"/>
	</g>
	<g>
		<polygon class="st3" points="105.322,194.572 89.005,194.572 79.215,177.277 115.112,177.277 		"/>
	</g>
	<g>
		<rect x="89.005" y="194.572" class="st5" width="16.317" height="18.601"/>
	</g>
	<g>
		<polygon class="st8" points="105.322,51.788 100.427,177.277 115.112,177.277 120.007,51.788 		"/>
	</g>
	<g>
		<g>
			<path class="st6" d="M176.262,107.514c-4.069,0-7.368-3.298-7.368-7.368V59.972c0-5.661,2.205-10.985,6.207-14.988
				c2.878-2.876,7.542-2.876,10.42,0c2.877,2.878,2.877,7.542,0,10.42c-1.22,1.219-1.892,2.842-1.892,4.568v40.175
				C183.63,104.215,180.332,107.514,176.262,107.514z"/>
		</g>
	</g>
	<g>
		<rect x="146.792" y="60.208" class="st2" width="22.103" height="47.306"/>
	</g>
	<g>
		<g>
			<path class="st4" d="M148.546,213.174c-4.069,0-7.368-3.298-7.368-7.368v-73.268l-8.565-20.752
				c-0.368-0.892-0.557-1.847-0.557-2.811V59.155c0-4.069,3.298-7.368,7.368-7.368c4.069,0,7.368,3.298,7.368,7.368v48.358
				l8.565,20.752c0.368,0.892,0.557,1.847,0.557,2.811v74.729C155.914,209.875,152.616,213.174,148.546,213.174z"/>
		</g>
	</g>
	<g>
		<g>
			<path class="st0" d="M148.547,216.174c-5.717,0-10.368-4.651-10.368-10.368v-72.673l-8.339-20.203
				c-0.52-1.264-0.783-2.593-0.783-3.955V59.155c0-5.717,4.65-10.367,10.367-10.367s10.368,4.65,10.368,10.367v47.764l8.338,20.202
				c0.521,1.263,0.784,2.593,0.784,3.956v74.729C158.914,211.522,154.264,216.174,148.547,216.174z M139.424,54.788
				c-2.408,0-4.367,1.959-4.367,4.367v49.819c0,0.574,0.111,1.136,0.331,1.668l8.564,20.751c0.149,0.363,0.227,0.752,0.227,1.145
				v73.268c0,2.408,1.96,4.368,4.368,4.368s4.367-1.96,4.367-4.368v-74.729c0-0.574-0.111-1.135-0.331-1.668l-8.564-20.751
				c-0.149-0.363-0.227-0.752-0.227-1.145V59.155C143.792,56.747,141.832,54.788,139.424,54.788z"/>
		</g>
	</g>
	<g>
		<path class="st0" d="M168.895,110.514h-22.103c-1.657,0-3-1.343-3-3V60.208c0-1.657,1.343-3,3-3h22.103c1.657,0,3,1.343,3,3
			v47.306C171.895,109.171,170.552,110.514,168.895,110.514z M149.792,104.514h16.103V63.208h-16.103V104.514z"/>
	</g>
	<g>
		<path class="st0" d="M168.895,77.914h-9.473c-1.657,0-3-1.343-3-3s1.343-3,3-3h9.473c1.657,0,3,1.343,3,3
			S170.552,77.914,168.895,77.914z"/>
	</g>
	<g>
		<path class="st0" d="M168.895,95.808h-9.473c-1.657,0-3-1.343-3-3s1.343-3,3-3h9.473c1.657,0,3,1.343,3,3
			S170.552,95.808,168.895,95.808z"/>
	</g>
	<g>
		<g>
			<path class="st0" d="M176.263,110.514c-5.717,0-10.368-4.65-10.368-10.367V59.972c0-6.463,2.517-12.539,7.085-17.109
				c1.96-1.958,4.563-3.036,7.332-3.036c2.77,0,5.373,1.078,7.331,3.035c4.042,4.043,4.042,10.621,0.002,14.663
				c-0.655,0.654-1.015,1.522-1.015,2.447v40.175C186.63,105.863,181.979,110.514,176.263,110.514z M180.312,45.826
				c-1.167,0-2.264,0.454-3.09,1.279c-3.435,3.436-5.327,8.006-5.327,12.866v40.175c0,2.408,1.96,4.367,4.368,4.367
				s4.367-1.959,4.367-4.367V59.972c0-2.528,0.984-4.904,2.772-6.69c1.701-1.702,1.701-4.474-0.002-6.177
				C182.576,46.28,181.479,45.826,180.312,45.826z"/>
		</g>
	</g>
	<g>
		<path class="st0" d="M115.111,180.276H79.215c-1.611,0-2.935-1.272-2.998-2.883L71.322,51.905
			c-0.031-0.815,0.271-1.608,0.836-2.196c0.565-0.589,1.346-0.921,2.162-0.921h45.687c0.816,0,1.597,0.332,2.162,0.921
			c0.565,0.588,0.867,1.381,0.836,2.196l-4.896,125.488C118.046,179.004,116.723,180.276,115.111,180.276z M82.101,174.276h30.126
			l4.661-119.488H77.439L82.101,174.276z"/>
	</g>
	<g>
		<path class="st0" d="M105.322,197.572H89.005c-1.081,0-2.078-0.581-2.61-1.522l-9.79-17.296c-0.526-0.929-0.519-2.066,0.019-2.988
			c0.538-0.922,1.524-1.489,2.592-1.489h35.896c1.067,0,2.054,0.567,2.592,1.489c0.537,0.922,0.545,2.06,0.02,2.988l-9.79,17.296
			C107.4,196.99,106.403,197.572,105.322,197.572z M90.754,191.572h12.819l6.393-11.296H84.36L90.754,191.572z"/>
	</g>
	<g>
		<path class="st0" d="M105.322,197.572H89.005c-1.081,0-2.078-0.581-2.61-1.522l-9.79-17.296c-0.526-0.929-0.519-2.066,0.019-2.988
			c0.538-0.922,1.524-1.489,2.592-1.489h35.896c1.067,0,2.054,0.567,2.592,1.489c0.537,0.922,0.545,2.06,0.02,2.988l-9.79,17.296
			C107.4,196.99,106.403,197.572,105.322,197.572z M90.754,191.572h12.819l6.393-11.296H84.36L90.754,191.572z"/>
	</g>
	<g>
		<path class="st0" d="M105.322,216.174H89.005c-1.657,0-3-1.343-3-3v-18.602c0-1.657,1.343-3,3-3h16.317c1.657,0,3,1.343,3,3
			v18.602C108.322,214.831,106.979,216.174,105.322,216.174z M92.005,210.174h10.317v-12.602H92.005V210.174z"/>
	</g>
	<g>
		<path class="st0" d="M100.429,180.277c-0.039,0-0.079-0.001-0.119-0.002c-1.655-0.064-2.945-1.459-2.881-3.115l4.896-125.489
			c0.064-1.654,1.452-2.914,3.115-2.881c1.655,0.064,2.945,1.459,2.881,3.115l-4.896,125.489
			C103.361,179.01,102.031,180.277,100.429,180.277z"/>
	</g>
</g>
</svg>
